<?xml version="1.0" encoding="utf-8"?>
<!-- Generator: Adobe Illustrator 25.2.3, SVG Export Plug-In . SVG Version: 6.00 Build 0)  -->
<svg version="1.1" id="Layer_1" xmlns="http://www.w3.org/2000/svg" xmlns:xlink="http://www.w3.org/1999/xlink" x="0px" y="0px"
	 viewBox="0 0 700 700" style="enable-background:new 0 0 700 700;" xml:space="preserve">
<style type="text/css">
	.st0{fill:#FFFFFF;}
	.st1{fill:#E8D37D;}
	.st2{fill:#C8D242;}
</style>
<g>
	<path class="st0" d="M549.5,490.1c4.3,2.5,132.1,39.4,135.8,39.3c-4.8-24-38.6-160.3-40.7-163.7c-0.6,0.6-1.1,1.1-1.6,1.8
		c-7.9,10.3-15.8,20.5-23.6,30.8c-2.1,2.7-2.2,2.8-4.5,0.2c-5.4-6.1-10.8-12.2-16.1-18.4c-9.3-10.8-18.6-21.5-27.9-32.3
		c-8.9-10.3-17.8-20.5-26.7-30.8c-11.2-12.9-22.3-25.9-33.5-38.8c-11.4-13.2-22.9-26.2-34.3-39.4c-13.2-15.2-26.2-30.5-39.4-45.8
		c-9.8-11.4-19.5-22.8-29.5-34.1c-3.7-4.2-6.9-8.8-11.1-12.2c-1.2,0.1-1.5,0.9-2,1.5c-6.2,7.3-12.5,14.6-18.7,21.9
		c-11.3,13.3-22.6,26.5-33.8,39.8c-12.1,14.2-24.2,28.5-36.2,42.8c-8.1,9.6-16.3,19.3-24.4,28.9c-7,8.3-14.1,16.6-21.1,24.9
		c-1.4,1.6-2.4,1.6-3.8-0.1c-6-7-12.2-13.9-18.3-20.9c-9.5-11-19-22-28.5-33c-9.3-10.7-18.7-21.4-28-32.2
		c-10-11.5-19.9-22.9-29.8-34.4c-7-8.1-14.1-16.1-21.1-24.2c-11.7-13.5-23.4-27.1-35.1-40.6c-7.5-8.7-15-17.4-22.6-26.1
		c-5.2-6-10.5-12-15.8-18c-1.4-1.6-2.5-1.6-3.8,0.2c-3.4,4.6-6.9,9.2-10.4,13.8C34.6,102,26,113.2,17.5,124.4
		c-2.2,2.9-2.2,3.4-0.2,5.8c10.4,12.1,20.9,24.1,31.4,36.2c9,10.4,18,20.7,27,31.1c9.5,11,19,22,28.5,33c9.3,10.7,18.7,21.4,28,32.2
		c11.5,13.3,22.9,26.6,34.5,39.9c11.7,13.5,23.6,26.9,35.3,40.4c15.7,18.1,31.3,36.2,47,54.4c2.3,2.7,4.6,5.3,6.9,7.9
		c2.7,2.9,2.7,2.9,5.5-0.1c0.4-0.5,0.9-0.9,1.3-1.4c6.3-7.5,12.5-14.9,18.8-22.4c11.9-14,23.9-27.9,35.8-41.9
		c13.3-15.7,26.6-31.5,39.9-47.2c12.3-14.5,24.6-29,36.9-43.4c2.3-2.8,2.4-2.8,4.9,0c10.2,11.7,20.3,23.4,30.4,35.1
		c9.6,11.1,19.3,22.1,29,33.2c11.3,13,22.5,26.2,33.8,39.2c9.2,10.6,18.5,21.2,27.7,31.8c13.9,16.1,27.8,32.1,41.7,48.2
		c4.3,5,8.6,9.9,12.9,14.9c1.2,1.5,2.5,2.7,0.7,4.9c-5.6,7-11,14.1-16.4,21.3C555.6,481.6,552.2,485.6,549.5,490.1z M104.9,277
		c-0.8,2.1-0.5,3.7-0.5,5.2c0,112.4,0,224.8,0,337.3c0,1.1,0,2.2,0,3.4c0,1.7,0.9,2.3,2.4,2.2c1.1,0,2.2,0,3.4,0
		c20.5,0,40.9,0,61.4,0c7.1,0,7.3,1.5,7.3-7.2c0-82-0.1-164.1-0.1-246.1c0-5.4-1.6-9.9-5-14c-21.4-25.4-42.7-51-64.1-76.4
		C108.4,279.8,107.2,278,104.9,277z M402,284.4c-2.1,1.2-3.1,2.7-4.2,4c-20.6,25.1-41.2,50.2-61.9,75.2c-3.5,4.3-5.2,8.9-5.2,14.5
		c0.1,78.4,0.1,156.8,0.1,235.1c0,3,0.1,6.1,0,9.1c0,1.8,0.6,2.7,2.5,2.7c1,0,1.9,0,2.9,0c21.3,0,42.5,0,63.8,0c1,0,1.9,0,2.9,0
		c1.8,0.1,2.7-0.7,2.6-2.6c-0.1-0.8,0-1.6,0-2.4c0-107.5-0.1-215,0-322.5C405.4,292.9,404,288.8,402,284.4z M445.2,337.8
		c-0.3,0.2-0.6,0.3-1,0.5c0,1.7,0,3.5,0,5.2c0,37.7,0,75.5,0,113.2c0,54.4,0,108.7,0,163.1c0,5.1,0,5.1,4.9,5.1
		c21.7,0,43.5,0,65.2,0c4.2,0,4.2-0.1,4.3-4.2c0-1.3,0-2.6,0-3.8c0-52.3,0-104.6,0-156.9c0-9.4-0.1-18.9,0-28.3
		c0.1-4.1-1-7.5-3.7-10.5c-0.9-0.9-1.6-2-2.4-3c-17.4-20.9-34.8-41.7-52.3-62.6C455.3,349.7,450.2,343.8,445.2,337.8z M218.4,411
		c-1.1,2.5-0.7,4.1-0.7,5.6c0,21.9,0,43.8,0,65.7c0,46.1,0,92.1,0,138.2c0,4.6,0,4.6,4.3,4.6c21.9,0,43.8,0,65.7,0
		c4.2,0,4.2-0.1,4.3-4.2c0-0.5,0-1,0-1.4c0-65.4,0-130.8,0-196.3c0-1.5,0-3.1,0-4.6c-2.1,0.1-2.4,1.5-3.2,2.4
		c-9.1,11.6-18.1,23.2-27.2,34.8c-2.5,3.2-2.6,3.2-5.2,0.2c-8.3-9.7-16.5-19.5-24.8-29.3C227.4,421.6,223.1,416.5,218.4,411z
		 M557.5,569.2c0,13.1,0,26.2,0,39.3c0,4.2,0,8.3,0,12.5c0,4.1,0.1,4.1,4.3,4.1c0.3,0,0.6,0,1,0c21.3,0,42.5,0,63.8,0
		c1,0,1.9,0,2.9,0c1.6,0,2.4-0.6,2.4-2.3c0-0.8,0-1.6,0-2.4c0-26.4,0-52.8,0-79.1c0-4.5,0-4.5-4.4-5.9
		c-17.4-5.4-34.8-10.8-52.1-16.2c-5-1.6-10.1-3.1-15.1-4.7c-1.9-0.6-2.7,0-2.7,1.9c0,1.1,0,2.2,0,3.4
		C557.5,536.2,557.5,552.7,557.5,569.2z"/>
	<path class="st1" d="M549.5,490.1c2.6-4.6,6.1-8.5,9.3-12.7c5.4-7.1,10.8-14.3,16.4-21.3c1.7-2.2,0.5-3.5-0.7-4.9
		c-4.3-5-8.6-9.9-12.9-14.9c-13.9-16.1-27.8-32.2-41.7-48.2c-9.2-10.6-18.5-21.2-27.7-31.8c-11.3-13.1-22.5-26.2-33.8-39.2
		c-9.6-11.1-19.3-22.1-29-33.2c-10.2-11.7-20.3-23.4-30.4-35.1c-2.5-2.9-2.5-2.8-4.9,0c-12.3,14.5-24.6,28.9-36.9,43.4
		c-13.3,15.7-26.6,31.5-39.9,47.2c-11.9,14-23.9,27.9-35.8,41.9c-6.3,7.4-12.6,14.9-18.8,22.4c-0.4,0.5-0.8,1-1.3,1.4
		c-2.8,3-2.8,3.1-5.5,0.1c-2.4-2.6-4.6-5.3-6.9-7.9c-15.7-18.1-31.3-36.3-47-54.4c-11.7-13.5-23.6-26.9-35.3-40.4
		c-11.5-13.3-23-26.6-34.5-39.9c-9.3-10.7-18.7-21.4-28-32.2c-9.5-11-19-22-28.5-33c-9-10.4-18-20.7-27-31.1
		c-10.5-12.1-20.9-24.1-31.4-36.2c-2.1-2.4-2.1-2.8,0.2-5.8C26,113.2,34.6,102,43.1,90.9c3.5-4.6,7-9.1,10.4-13.8
		c1.3-1.8,2.3-1.8,3.8-0.2c5.2,6,10.5,12,15.8,18c7.5,8.7,15,17.4,22.6,26.1c11.7,13.5,23.4,27.1,35.1,40.6
		c7,8.1,14.1,16.1,21.1,24.2c9.9,11.5,19.9,22.9,29.8,34.4c9.3,10.7,18.7,21.4,28,32.2c9.5,11,19,22,28.5,33
		c6.1,7,12.3,13.9,18.3,20.9c1.4,1.6,2.4,1.7,3.8,0.1c7-8.3,14-16.6,21.1-24.9c8.1-9.6,16.3-19.3,24.4-28.9
		c12.1-14.3,24.1-28.5,36.2-42.8c11.3-13.3,22.6-26.5,33.8-39.8c6.2-7.3,12.4-14.6,18.7-21.9c0.5-0.6,0.9-1.4,2-1.5
		c4.2,3.4,7.4,8.1,11.1,12.2c9.9,11.2,19.7,22.7,29.5,34.1c13.1,15.2,26.2,30.5,39.4,45.8c11.4,13.2,22.9,26.3,34.3,39.4
		c11.2,12.9,22.3,25.9,33.5,38.8c8.9,10.3,17.8,20.5,26.7,30.8c9.3,10.8,18.6,21.5,27.9,32.3c5.3,6.2,10.7,12.3,16.1,18.4
		c2.3,2.6,2.4,2.5,4.5-0.2c7.9-10.3,15.8-20.5,23.6-30.8c0.5-0.6,1-1.1,1.6-1.8c2.1,3.4,36,139.6,40.7,163.7
		C681.6,529.5,553.8,492.6,549.5,490.1z"/>
	<path class="st2" d="M104.9,277c2.3,1,3.4,2.8,4.7,4.3c21.4,25.5,42.7,51,64.1,76.4c3.5,4.1,5,8.6,5,14c0,82,0,164.1,0.1,246.1
		c0,8.7-0.1,7.2-7.3,7.2c-20.5,0.1-40.9,0-61.4,0c-1.1,0-2.2,0-3.4,0c-1.5,0-2.4-0.6-2.4-2.2c0-1.1,0-2.2,0-3.4
		c0-112.4,0-224.8,0-337.3C104.4,280.7,104.1,279.1,104.9,277z"/>
	<path class="st2" d="M402,284.4c2,4.4,3.4,8.5,3.4,13.1c0,107.5,0,215,0,322.5c0,0.8,0,1.6,0,2.4c0.1,1.8-0.8,2.6-2.6,2.6
		c-1,0-1.9,0-2.9,0c-21.3,0-42.5,0-63.8,0c-1,0-1.9,0-2.9,0c-1.9,0.1-2.5-0.9-2.5-2.7c0.1-3,0-6.1,0-9.1c0-78.4,0-156.8-0.1-235.1
		c0-5.6,1.6-10.2,5.2-14.5c20.7-25,41.3-50.1,61.9-75.2C398.9,287.1,399.8,285.6,402,284.4z"/>
	<path class="st2" d="M445.2,337.8c5,5.9,10.1,11.9,15.1,17.8c17.4,20.8,34.8,41.7,52.3,62.6c0.8,1,1.6,2,2.4,3
		c2.7,3,3.8,6.5,3.7,10.5c-0.1,9.4,0,18.9,0,28.3c0,52.3,0,104.6,0,156.9c0,1.3,0,2.6,0,3.8c-0.1,4.2-0.1,4.2-4.3,4.2
		c-21.7,0-43.5,0-65.2,0c-4.9,0-4.9,0-4.9-5.1c0-54.4,0-108.7,0-163.1c0-37.7,0-75.5,0-113.2c0-1.7,0-3.5,0-5.2
		C444.5,338.2,444.9,338,445.2,337.8z"/>
	<path class="st2" d="M218.4,411c4.7,5.5,9,10.6,13.3,15.7c8.3,9.8,16.5,19.6,24.8,29.3c2.6,3,2.7,3,5.2-0.2
		c9.1-11.6,18.1-23.2,27.2-34.8c0.7-0.9,1-2.4,3.2-2.4c0,1.6,0,3.1,0,4.6c0,65.4,0,130.8,0,196.3c0,0.5,0,1,0,1.4
		c-0.1,4.1-0.1,4.2-4.3,4.2c-21.9,0-43.8,0-65.7,0c-4.3,0-4.3-0.1-4.3-4.6c0-46.1,0-92.1,0-138.2c0-21.9,0-43.8,0-65.7
		C217.7,415,217.3,413.4,218.4,411z"/>
	<path class="st2" d="M557.5,569.2c0-16.5,0-32.9,0-49.4c0-1.1,0-2.2,0-3.4c0-1.9,0.7-2.6,2.7-1.9c5,1.6,10.1,3.1,15.1,4.7
		c17.4,5.4,34.8,10.8,52.1,16.2c4.4,1.4,4.4,1.4,4.4,5.9c0,26.4,0,52.8,0,79.1c0,0.8,0,1.6,0,2.4c0,1.6-0.8,2.3-2.4,2.3
		c-1,0-1.9,0-2.9,0c-21.3,0-42.5,0-63.8,0c-0.3,0-0.6,0-1,0c-4.3-0.1-4.3-0.1-4.3-4.1c0-4.2,0-8.3,0-12.5
		C557.5,595.4,557.5,582.3,557.5,569.2z"/>
</g>
</svg>
