<?xml version="1.0" encoding="utf-8"?>
<!-- Generator: Adobe Illustrator 25.2.3, SVG Export Plug-In . SVG Version: 6.00 Build 0)  -->
<svg version="1.1" id="Layer_1" xmlns="http://www.w3.org/2000/svg" xmlns:xlink="http://www.w3.org/1999/xlink" x="0px" y="0px"
	 viewBox="0 0 727 727" style="enable-background:new 0 0 727 727;" xml:space="preserve">
<style type="text/css">
	.st0{fill:#FFFFFF;}
	.st1{fill:#E8D37D;}
	.st2{fill:#C7D141;}
</style>
<g>
	<path class="st0" d="M577.1,477.9c1.5-0.8,3.2-0.4,4.7-0.4c27.2,0.1,54.3-0.1,81.5-0.9c8.8-0.2,15.2-4,20-11.1
		c3.7-5.4,3.5-11.2,1.1-16.9c-2.9-6.9-8.4-11.2-15.4-13.4c-2.6-0.8-5.3-1.5-7.9-1.7c-2.4-0.2-3-1.3-2.8-3.4c0.1-1.1,0-2.2,0-3.4
		c0-70.7,0-141.4,0-212.1c0-1,0.1-1.9,0-2.9c-0.2-1.9,0.6-3.3,2.1-4.6c7.8-6.6,15.5-13.3,23.2-20c1.1-0.9,2.1-1.9,2.3-3.5
		c1.4-12.7-5.6-20.3-14.5-23c-5.4-1.6-11-2-16.6-1.9c-64.6,0.4-129.2-0.4-193.8,0.7c-34.1,0.6-68.1,0.1-102.2,0.2
		c-29.9,0-59.8,0.1-89.7,0.1c-4.1,0-8,0.5-11.4,2.8c-7.5,5.2-9.1,12.8-8.3,21.2c0.7,7.6,5.5,12.4,12.2,15.4c3,1.4,6.3,2.2,9.6,3
		c6,1.4,6,1.4,6,7.4c0,14.1,0,28.1,0,42.2c0,5.1,0,5.1,4.9,5.1c10.9,0,21.7,0,32.6,0c4.8,0,4.8,0,4.8-4.7c0-14.1,0-28.1,0-42.2
		c0-6.9-0.7-6.9,6.7-6.8c94,0,188.1,0,282.1,0c1.1,0,2.2,0,3.4,0c2.1-0.1,3.3,0.8,3.2,3.1c0,1.1,0,2.2,0,3.4c0,72.5,0,144.9,0,217.4
		c0,6.2,0,6.2-6.4,6.2c-94.8,0-189.7,0-284.5,0c-6.1,0-5.7,0.3-5.7-5.8c0-27.5,0-55,0-82.5c0-4.5,0-4.6-4.4-4.6
		c-10.9,0-21.7,0-32.6,0c-4.8,0-4.8,0.1-4.9,4.8c0,1,0,1.9,0,2.9c0,26.7,0,53.4,0,80.1c0,5.1,0,5.1-5.2,6.1c-4.4,0.8-8.7,2-12.7,4.1
		c-5.3,2.9-8.3,7.4-9.1,13.3c-0.3,2.2-0.2,4.5-0.1,6.7c0.2,7.9,4,13.4,11.4,16c4.1,1.4,8.3,2.1,12.7,2.1c26.2,0,52.5,0,78.7,0.1
		c1.7,0,3.5-0.5,5.1,0.5c0.1,1.7-0.7,3.2-1.2,4.7c-7.5,22.4-16.4,44.3-24.2,66.6c-3.2,9.2-6.8,18.3-9.1,27.8
		c-1.5,6.3-0.8,12.1,3.8,17c1.8,2,4.2,3.4,6.2,5.2c4.2,3.8,9.2,3.7,14.4,3.8c3.7,0,5.1-3,7.5-4.6c0.4-0.3,0.8-0.6,1.1-0.9
		c4.6-4.1,8.5-8.6,10.9-14.4c8.5-20.7,16.5-41.6,24.4-62.5c4-10.6,7.9-21.3,11.9-31.9c2.6-6.9,6.2-9.5,13.3-9.5
		c33.1-0.2,66.2,0.5,99.3-0.8c8.8-0.4,12,2.1,15.1,10.4c10.4,27.5,20.6,55,31.6,82.3c3.6,8.9,6.9,17.8,13.7,25
		c6.1,6.5,5.8,6.8,14.6,6.8c1,0,1.9,0,2.9,0c2.2,0.1,4.1-0.5,5.8-1.9c2.5-2,5.1-3.9,7.3-6.2c3.9-4,5.8-8.7,5.5-14.3
		c-0.2-4.9-1.5-9.5-3.2-14c-10.2-27.9-20.6-55.7-30.9-83.6C577.5,480.7,576.7,479.4,577.1,477.9z M139.4,601.8
		c10.1,0,20.2-0.1,30.2,0c2.4,0,4.3-0.6,6.3-1.9c10.5-7,15.7-17,16.8-29.3c0.4-4.8,0.4-9.6,1.2-14.3c2.8-18.3,4.2-36.8,6.3-55.2
		c1.4-11.7,2.9-23.4,5.6-35c10.2-43.7,24.4-86.4,36.2-129.7c1.8-6.5,5.2-8.9,11.9-9c16-0.3,32-0.6,47.9-0.8
		c13.3-0.2,26.5-0.2,39.8-1c11.4-0.7,18.3-6.2,20.5-16.6c1.4-6.6,1.4-13.4,0-20c-1.8-8.7-7-14.6-15.8-16.8
		c-3.9-0.9-7.9-1.2-11.9-1.2c-45.7,0-91.5,0-137.2-0.1c-8.1,0-14.5,2.9-19.7,9.1c-7.5,9.1-15.2,18.2-22.8,27.2
		c-4.9,5.7-9.8,11.4-14.8,17c-1.9,2.2-2.6,2.1-4.7,0.1c-0.5-0.4-0.9-0.9-1.3-1.4c-6.4-7.4-12.7-14.8-19.1-22.2
		c-7-8.1-13.9-16.3-21.3-24.1c-3.4-3.5-7.3-5.6-12.2-5.8c-1.3-0.1-2.5-0.4-3.8-0.5c-13.1-1.2-25.5,0.8-36.3,9.1
		c-6.2,4.7-11,10.7-15.1,17.2c-0.7,1.1-1.2,2.3-1.2,3.6c0,7.5-0.5,15.1,0.1,22.5c1.5,18.3,3.5,36.6,5.1,54.9
		c2.1,23.2,4.3,46.4,6.9,69.6c1.6,14.4,9.8,23.5,23.9,26.1c8.8,1.6,11.9,5.2,12.6,14.2c0.6,7.6,1.4,15.3,2.1,22.9
		c1.5,15.4,3,30.8,4.6,46.2c0.8,7.5,1.1,15,2.7,22.3c2.9,13.1,14.5,22.6,27.9,22.6C120.6,601.8,130,601.8,139.4,601.8z M203.5,204
		c0.3-11.5-2.8-22.4-8.6-32.7c-6.2-11-15.6-18.6-26.1-25.4c-12.6-8.1-26.3-8.4-40.2-7.4c-27.3,2.1-57.4,28.5-57.6,66.1
		C70.8,241,101.1,271,137.7,271C173.5,270.9,204.4,240.4,203.5,204z M527,253c2.2,2.8,4,5,5.8,7.2c2.6,3.2,5.1,6.6,7.9,9.6
		c1.8,2,1.6,3.6-0.4,5.1c-0.5,0.4-0.9,0.9-1.4,1.3c-16.2,16.2-32.3,32.4-48.5,48.5c-4.6,4.6-3.4,5-8.2,0
		c-14.6-15-29.1-30.1-43.7-45.2c-3.5-3.6-2.9-4.2-7-0.2c-8,7.8-16.1,15.6-24.1,23.4c-11.5,11.1-22.9,22.3-34.4,33.4
		c-11.3,11-22.7,22.1-34,33.1c-2.6,2.6-2.7,2.6,0,5.2c4.5,4.4,9,8.7,13.4,13c0.6,0.6,1.1,1.1,1.7,1.7c2.8,2.5,2.9,2.5,5.4,0
		c0.3-0.3,0.7-0.7,1-1c16.3-16.5,32.6-33,48.9-49.5c7.3-7.4,14.7-14.7,22-22.1c3.3-3.4,3-3.1,6.3,0.1c0.6,0.6,1.1,1.1,1.7,1.7
		c16.1,16.2,32.3,32.4,48.4,48.6c1.2,1.2,2.2,2.7,3.9,3.4c1.4-0.5,2-1.7,2.8-2.6c22-23.6,44.1-47.2,66.1-70.8
		c2.6-2.8,2.6-2.9,5.8-0.4c5.4,4.2,10.8,8.5,16.3,12.7c1.1,0.8,2,2.2,3.6,1.9c0.7-0.5,0.7-1.1,0.7-1.7c1.2-9.3,2.6-18.7,3.6-28
		c0.9-8.1,2.2-16.2,2.2-24.3c0.1-6.9-4.5-11.5-11.3-11c-15.5,1.1-30.8,3.3-46.2,5.3C533,251.8,530.2,251.4,527,253z"/>
	<path class="st1" d="M577.1,477.9c-0.4,1.5,0.4,2.8,0.9,4.1c10.3,27.9,20.7,55.7,30.9,83.6c1.6,4.5,3,9.1,3.2,14
		c0.2,5.6-1.7,10.3-5.5,14.3c-2.2,2.3-4.8,4.2-7.3,6.2c-1.7,1.4-3.6,2-5.8,1.9c-1-0.1-1.9,0-2.9,0c-8.8,0-8.5-0.3-14.6-6.8
		c-6.8-7.2-10.2-16.1-13.7-25c-10.9-27.3-21.2-54.8-31.6-82.3c-3.1-8.3-6.3-10.7-15.1-10.4c-33.1,1.3-66.2,0.6-99.3,0.8
		c-7.1,0-10.7,2.6-13.3,9.5c-4,10.6-7.9,21.3-11.9,31.9c-7.9,20.9-15.9,41.8-24.4,62.5c-2.4,5.8-6.3,10.3-10.9,14.4
		c-0.4,0.3-0.7,0.6-1.1,0.9c-2.4,1.6-3.8,4.6-7.5,4.6c-5.2,0-10.2,0-14.4-3.8c-2-1.8-4.4-3.3-6.2-5.2c-4.6-4.9-5.3-10.7-3.8-17
		c2.3-9.5,5.9-18.6,9.1-27.8c7.8-22.3,16.7-44.2,24.2-66.6c0.5-1.5,1.2-2.9,1.2-4.7c-1.7-1-3.5-0.5-5.1-0.5
		c-26.2-0.1-52.5-0.1-78.7-0.1c-4.4,0-8.6-0.7-12.7-2.1c-7.4-2.6-11.3-8.1-11.4-16c-0.1-2.2-0.2-4.5,0.1-6.7
		c0.8-5.9,3.8-10.4,9.1-13.3c4-2.2,8.3-3.3,12.7-4.1c5.1-1,5.2-1,5.2-6.1c0-26.7,0-53.4,0-80.1c0-1,0-1.9,0-2.9
		c0.1-4.7,0.1-4.8,4.9-4.8c10.9,0,21.7,0,32.6,0c4.4,0,4.4,0.1,4.4,4.6c0,27.5,0,55,0,82.5c0,6.1-0.4,5.8,5.7,5.8
		c94.8,0,189.7,0,284.5,0c6.3,0,6.4,0,6.4-6.2c0-72.5,0-144.9,0-217.4c0-1.1,0-2.2,0-3.4c0.1-2.3-1.1-3.2-3.2-3.1
		c-1.1,0-2.2,0-3.4,0c-94,0-188.1,0-282.1,0c-7.4,0-6.7-0.1-6.7,6.8c0,14.1,0,28.1,0,42.2c0,4.6,0,4.7-4.8,4.7
		c-10.9,0-21.7,0-32.6,0c-4.9,0-4.9,0-4.9-5.1c0-14.1,0-28.1,0-42.2c0-6,0-6-6-7.4c-3.3-0.8-6.5-1.6-9.6-3
		c-6.6-3-11.4-7.8-12.2-15.4c-0.8-8.3,0.8-16,8.3-21.2c3.4-2.3,7.4-2.8,11.4-2.8c29.9,0,59.8-0.1,89.7-0.1
		c34.1,0,68.1,0.4,102.2-0.2c64.6-1.1,129.2-0.3,193.8-0.7c5.6,0,11.2,0.3,16.6,1.9c8.9,2.7,15.9,10.3,14.5,23
		c-0.2,1.6-1.2,2.5-2.3,3.5c-7.7,6.7-15.5,13.4-23.2,20c-1.5,1.2-2.2,2.6-2.1,4.6c0.1,1,0,1.9,0,2.9c0,70.7,0,141.4,0,212.1
		c0,1.1,0.1,2.2,0,3.4c-0.2,2.1,0.5,3.2,2.8,3.4c2.7,0.3,5.4,0.9,7.9,1.7c7,2.2,12.5,6.6,15.4,13.4c2.4,5.6,2.6,11.4-1.1,16.9
		c-4.8,7.1-11.2,10.9-20,11.1c-27.2,0.8-54.3,1-81.5,0.9C580.3,477.4,578.6,477.1,577.1,477.9z"/>
	<path class="st2" d="M139.4,601.8c-9.4,0-18.9,0-28.3,0c-13.3,0-25-9.5-27.9-22.6c-1.6-7.4-1.9-14.9-2.7-22.3
		c-1.6-15.4-3.1-30.8-4.6-46.2c-0.8-7.6-1.5-15.3-2.1-22.9c-0.7-9-3.8-12.6-12.6-14.2c-14-2.6-22.3-11.7-23.9-26.1
		c-2.6-23.2-4.9-46.4-6.9-69.6c-1.6-18.3-3.7-36.6-5.1-54.9c-0.6-7.5-0.1-15-0.1-22.5c0-1.3,0.5-2.5,1.2-3.6
		c4.1-6.5,8.9-12.5,15.1-17.2c10.8-8.3,23.1-10.3,36.3-9.1c1.3,0.1,2.5,0.4,3.8,0.5c4.9,0.2,8.8,2.3,12.2,5.8
		c7.4,7.7,14.2,16,21.3,24.1c6.4,7.3,12.7,14.8,19.1,22.2c0.4,0.5,0.8,1,1.3,1.4c2.1,2,2.8,2,4.7-0.1c5-5.6,9.9-11.3,14.8-17
		c7.6-9,15.3-18.1,22.8-27.2c5.1-6.2,11.6-9.1,19.7-9.1c45.7,0.1,91.5,0.1,137.2,0.1c4,0,8,0.3,11.9,1.2c8.8,2.1,14,8,15.8,16.8
		c1.4,6.6,1.4,13.4,0,20c-2.3,10.5-9.1,16-20.5,16.6c-13.3,0.8-26.5,0.8-39.8,1c-16,0.2-32,0.5-47.9,0.8c-6.7,0.1-10.1,2.5-11.9,9
		c-11.8,43.3-26,85.9-36.2,129.7c-2.7,11.5-4.2,23.2-5.6,35c-2.1,18.4-3.5,36.9-6.3,55.2c-0.7,4.7-0.7,9.6-1.2,14.3
		c-1.1,12.3-6.3,22.3-16.8,29.3c-1.9,1.3-3.9,1.9-6.3,1.9C159.6,601.7,149.5,601.8,139.4,601.8z"/>
	<path class="st2" d="M203.5,204c0.9,36.4-29.9,66.9-65.7,67c-36.6,0-66.9-30-66.7-66.4c0.2-37.6,30.2-64,57.6-66.1
		c13.9-1,27.6-0.7,40.2,7.4c10.5,6.8,19.9,14.4,26.1,25.4C200.6,181.5,203.8,192.5,203.5,204z"/>
	<path class="st2" d="M527,253c3.2-1.5,6-1.2,8.6-1.6c15.3-2.1,30.7-4.3,46.2-5.3c6.8-0.5,11.3,4.1,11.3,11
		c-0.1,8.2-1.3,16.2-2.2,24.3c-1.1,9.4-2.4,18.7-3.6,28c-0.1,0.6,0,1.3-0.7,1.7c-1.6,0.3-2.5-1.1-3.6-1.9
		c-5.4-4.2-10.8-8.5-16.3-12.7c-3.1-2.4-3.2-2.4-5.8,0.4c-22,23.6-44.1,47.2-66.1,70.8c-0.9,0.9-1.5,2.1-2.8,2.6
		c-1.7-0.6-2.7-2.2-3.9-3.4c-16.2-16.2-32.3-32.4-48.4-48.6c-0.6-0.6-1.1-1.1-1.7-1.7c-3.2-3.2-2.9-3.5-6.3-0.1
		c-7.3,7.4-14.7,14.7-22,22.1c-16.3,16.5-32.6,33-48.9,49.5c-0.3,0.3-0.7,0.7-1,1c-2.6,2.4-2.6,2.4-5.4,0c-0.6-0.5-1.2-1.1-1.7-1.7
		c-4.5-4.3-9-8.6-13.4-13c-2.6-2.6-2.6-2.6,0-5.2c11.3-11,22.7-22.1,34-33.1c11.5-11.1,22.9-22.3,34.4-33.4c8-7.8,16-15.6,24.1-23.4
		c4.1-3.9,3.5-3.4,7,0.2c14.6,15,29.1,30.1,43.7,45.2c4.8,5,3.6,4.6,8.2,0c16.2-16.2,32.3-32.4,48.5-48.5c0.5-0.5,0.9-1,1.4-1.3
		c2-1.6,2.2-3.1,0.4-5.1c-2.8-3.1-5.3-6.4-7.9-9.6C531,258,529.2,255.7,527,253z"/>
</g>
</svg>
