<?xml version="1.0" encoding="utf-8"?>
<!-- Generator: Adobe Illustrator 25.2.3, SVG Export Plug-In . SVG Version: 6.00 Build 0)  -->
<svg version="1.1" id="Layer_1" xmlns="http://www.w3.org/2000/svg" xmlns:xlink="http://www.w3.org/1999/xlink" x="0px" y="0px"
	 viewBox="0 0 700 700" style="enable-background:new 0 0 700 700;" xml:space="preserve">
<style type="text/css">
	.st0{fill:#C6D242;}
	.st1{fill:#E8D37E;}
</style>
<g>
	<path class="st0" d="M131.1,300.7c1.3-3.1,2.1-6.4,2.7-9.6c0.8-3.8-0.4-7.2-2.8-10.2c-1.9-2.2-3.7-4.5-6.2-7.6
		c10.8,0,20.7,0,30.8,0c-0.3,2-1.5,3-2.4,4.2c-1.7,2.2-3.5,4.5-4.7,7c-2.7,5.4-1.8,10.6,2.7,14.8c1.4-0.4,1.8-1.7,2.5-2.7
		c4.1-5.9,8.3-11.7,12-17.8c3.1-5,7.4-6.5,12.9-6.1c7.3,0.5,14,2.9,20.2,6.7c10.9,6.7,22.4,12.4,34.4,16.9c3,1.1,6.1,2.2,9.3,2.8
		c6,1.1,10.4-1.2,13.1-6.7c1.8-3.7,2.6-7.7,3.1-11.7c0.6-4.9,0.9-9.8,1-14.7c0-4.1,1-8.1,3.5-11.5c3.8-5.4,11-7.9,18.1-6.3
		c6.5,1.5,11.1,6.4,12.2,13c0.2,1,0.4,1.9,0.4,2.9c-0.3,11.8-0.5,23.6-4.1,35c-3.3,10.4-8.6,19.5-17.6,26.1
		c-6.5,4.8-13.8,7.3-21.8,8.1c-9.8,0.9-19.3-0.8-28.5-3.9c-6.7-2.2-13.2-4.7-19.9-7c-0.9-0.3-1.8-0.9-2.9-0.4
		c-0.5,1.6-0.3,3.3-0.3,5c0,104,0,208,0,312c0,5.1-0.5,10.1-2.1,14.9c-4.2,12.4-15.8,17.6-25.8,17.2c-11.5-0.4-21.4-8.5-24.2-19.5
		c-0.9-3.3-0.9-6.7-0.9-10c0-60.9,0-121.7,0-182.6c0-6.9,1.2-6.1-6.3-6.1c-3.5,0-3.5,0.1-3.6,3.6c0,1,0,2,0,3
		c0,41.5-0.2,82.9,0.1,124.4c0.1,17.6,0.2,35.1,0.2,52.7c0,5.2-0.2,10.4-1.6,15.5c-3.4,12.9-13.7,18.8-24.8,19.1
		c-13.7,0.3-22.5-8.8-25.2-17.5c-0.7-2.4-1.1-4.9-1.3-7.4c-0.6-8.3-0.6-16.6-0.6-24.8c0.1-35.3,0-70.6,0-105.8
		c0-6.9,0.2-13.8,0.4-20.6c0.1-3.7,0.1-3.7,3.8-3.9c7-0.4,14-0.6,21-1.6c2.5-0.4,5-0.8,7.4-1.5c6.7-1.9,9.5-5.5,10.3-12.3
		c0.6-4.9,0.6-9.8,0.7-14.7c0.3-17.1-0.9-34.3-0.7-51.4c0-0.8,0.1-1.7,0-2.5c-0.2-2,0.4-3.3,2.6-3.5c0.6-0.1,1.1-0.3,1.6-0.4
		c8.3-2.6,13.6-8.1,15.4-16.7c0.9-4.4,1.7-8.8,1.5-13.4c-0.1-4.6-2.3-7.5-6.8-8.3c-5.5-1-11.1-1.8-16.6-2.5c-2.8-0.4-5.4-1-7.8-2.7
		c-4.6-3.3-9.9-4.6-15.5-4.9c-4.2-0.2-8.4-0.1-12.6-0.1c-4.2,0-4.2,0-4.2-4.1c0-6.5,0-12.9,0-19.4c0-1.4,0.3-2.8-0.4-4
		c-1.4-0.4-1.9,0.7-2.4,1.4c-6.2,7.5-8.5,16.1-5.4,25.2c1.9,5.5,1.8,10.7,1.4,16.1c-0.5,6.6-1.1,13.1-1.7,19.7
		c-0.2,1.7-0.5,3.3-0.8,4.9c-2.6,0.4-4.4-0.9-6.2-1.8c-13.6-6.1-23.3-15.8-27.9-30.3c-2.8-9.1-2.8-18.2,0-27.2
		c3.2-10.7,7.4-20.9,13.9-30.1c5.8-8.2,12.7-15.3,20.7-21.5c8.5-6.6,18.2-9.8,28.9-10.3c5.5-0.3,9.6,1.4,12.7,6.5
		c4,6.6,8.6,12.9,12.9,19.2C129.4,299.1,129.7,300.3,131.1,300.7z M140.2,400.3c-1.4,1.9-2.6,3.5-3.7,5.1c-2.3,3.4-1.9,5.6,1.5,8
		c2.4,1.8,3.9,1.6,6.2-0.7c2.4-2.5,2.8-4.4,1.1-6.6C143.9,404.2,142.2,402.5,140.2,400.3z M147.9,331.9c-0.1-2.5-2-3.1-3.4-4.2
		c-3.1-2.6-8.7-0.5-9.5,3.5c-0.1,0.4,0.1,0.8,0.3,1.2c2.6,5.1,5.8,5.8,10.3,2.2c0.5-0.4,1.1-0.8,1.6-1.4
		C147.6,332.8,147.8,332.2,147.9,331.9z"/>
	<path class="st1" d="M341.5,528.5c-1.3-4.5-2-8.6-2.1-12.9c-0.1-14.5,0.9-28.9,1.2-43.4c0.1-6.3,0.4-12.6,0.7-18.9
		c0.2-3.7,0.9-7.2,2-10.7c2.5-7.7,6.4-10.7,14.5-10.8c7.4-0.1,14.9,0,22.3,0c61,0,122,0,182.9,0c2.5,0,5,0.2,7.5,0.6
		c4.4,0.6,7.1,2.9,8.6,7c2.1,6.1,3.4,12.5,3.9,18.9c1.8,20.5,0.7,41,0.9,61.5c0,1.9-0.4,3.9-0.9,5.8c-0.5,2.1-2.3,2.4-3.6,0.7
		c-3.1-3.8-5.9-7.9-8.3-12.1c-4.1-7-10.2-10-18.2-10c-42.6,0-85.1,0.1-127.7,0.1c-18.5,0-37.1,0.1-55.6-0.1
		c-7.4-0.1-12.5,2.8-16.2,9.2c-2.8,5-6.1,9.8-10.3,13.8C342.8,527.5,342.4,527.8,341.5,528.5z"/>
	<path class="st0" d="M188.6,213.4c-0.2,25.5-19.7,47.9-48.2,47.7c-29.5-0.2-48.3-24.1-48-48c0.3-26.2,20.5-48.4,48.8-48.2
		C170,165,188.9,188.8,188.6,213.4z"/>
	<path class="st0" d="M241,163.4c0-15.7,0.1-31.5-0.1-47.2c0-5,1.3-9.4,4-13.5c2.3-3.4,4.7-6.6,7.3-9.8c3.2-4,4.8-8.3,4.6-13.6
		c-0.2-12.2-0.1-24.4-0.1-36.7c0-1,0-2,0-3c0-1.2,0.5-1.9,1.7-1.9c4.2,0,8.4,0,12.6,0c1.2,0,1.7,0.8,1.7,1.9c0,1,0,2,0,3
		c0,12.6,0.1,25.3-0.1,37.9c-0.1,4.4,1.2,8,3.8,11.3c2.4,3.1,4.7,6.3,7.1,9.4c3.5,4.7,5,9.9,5,15.8c-0.1,31.1,0,62.1-0.1,93.2
		c0,2-0.1,4-0.5,5.9c-0.8,4.1-3.2,6.1-7.4,6.2c-10.5,0.1-21.1,0.1-31.6,0c-4.7,0-7.2-2.4-8-7c-0.2-1.2-0.1-2.5-0.1-3.8
		C241,195.4,241,179.4,241,163.4z M260.3,96.1c-3.7,2.2-6.1,5.7-8.4,9.1c-2.6,3.7-4.1,7.8-4.5,12.5c-0.6,8.7-0.5,17.4-0.6,26.1
		c-0.3,20.5,0.2,41,1.9,61.4c0.1,1.6,0.2,3.1,1.1,4.7c1.8-15.3,2-30.5,2.5-45.6c0.5-15.2-0.1-30.3-0.6-45.4c-0.1-4.6,0.8-8.9,3-12.9
		C256.6,102.6,258.4,99.3,260.3,96.1c0.1-0.1,0.2-0.1,0.3-0.2c0.1,0,0-0.2,0.1-0.2C260.5,95.8,260.4,95.9,260.3,96.1z"/>
	<path class="st1" d="M121.8,437.4c0,7.9,0,15.7,0,23.6c0,5-0.7,10.1-0.7,15.1c0,3.7-2.4,5.8-5.7,7.1c-4.9,1.9-10,2.8-15.2,3.2
		c-10.4,0.8-20.7-0.3-30.7-3.9c-6.7-2.5-9.1-6.7-8-13.7c1.8-11.2,3.4-22.4,6.1-33.5c2.8-11.7,5.5-23.5,8.1-35.2
		c1.9-8.8,3.3-17.6,4.2-26.5c0.4-4.1,0.7-8.1,0.7-12.2c0-2,0.5-3.1,2.8-3.1c6.6,0.1,13.2-0.1,19.8,0.1c7.7,0.3,12.1,4.2,13.4,12
		c1.4,8.6,2.4,17.2,3.6,25.8C122.3,409.9,122.1,423.7,121.8,437.4z"/>
	<path class="st0" d="M552.5,386.2c-0.3-7.1,1.8-12.3,7.5-15.9c3.5-2.2,7.3-3.6,11.4-3.9c4.6-0.3,8.6,1.2,11.8,4.5
		c5.5,5.5,10.2,11.6,13.8,18.5c8.2,15.5,13.6,32,18,48.9c5.1,19.7,8.9,39.7,12.7,59.7c0,0.3-0.1,0.5-0.1,0.9
		c-1.7,0.8-3.6,0.3-5.3,0.1c-9.9-1-19.8-2.2-29.7-3.3c-3.8-0.4-3.9-0.5-4.1-4.3c-0.6-11.6-1.1-23.3-1.8-34.9
		c-0.4-5.8-1.7-11.4-3.5-16.8c-2.5-7.6-7-10.9-15-11.2c-5.1-0.2-10.1,0-15.2-0.1c-3.2,0-3.3-0.2-3.4-3.4c-0.1-5.9,2.4-10.4,7.6-13.1
		c6.8-3.7,13.1-8.1,19.5-12.5c1.3-0.9,2.5-1.8,3.6-2.9c4.5-4.4,5.1-9.8,1.8-14.9c-3.1-4.7-8.6-6.3-14.1-4.1c-3.8,1.5-7,4.2-10.5,6.2
		C556,384.5,554.8,385.7,552.5,386.2z"/>
	<path class="st0" d="M355.8,517.4c0.7,0.6,0.5,1.3,0.5,2c0,12.2,0,24.4,0,36.7c0,3.5-0.1,3.5-3.4,3.6c-2.4,0-4.8,0-7.2,0
		c-4,0-4,0-4.1-3.9c0-3.7,0-7.3,0-11c-0.1-3.2-0.1-3.3-3.4-3.3c-15.9,0-31.7,0-47.6,0c-3,0-3,0.1-3.7,3.3c-0.8,4-1.6,8-2.1,12
		c-0.3,2.1-1.1,2.9-3.2,2.9c-3.1-0.1-6.2,0-9.3,0c-2.9-0.1-3.1-0.3-2.7-3.3c0.5-4,1.2-8,1.8-12.1c2-13.2,3.3-26.4,4.2-39.7
		c1.2-17.5,1.2-35.1,0.5-52.6c-0.6-16.4-2.1-32.8-4.6-49c-1-6.4-1.9-12.8-3-19.1c-0.4-2.1,0.3-2.7,2.2-3.1c3.2-0.6,6.3-1.2,9.5-1.9
		c1.9-0.4,2.8,0.2,3.1,2.2c0.9,5.8,2.1,11.6,3,17.4c3.1,20.8,5,41.8,5.4,62.9c0.2,9.1,0.6,18.2,0,27.4c-0.3,4-0.1,4.2,4.1,4.2
		c11.4,0,22.8,0,34.1,0c1.1,0,2.2,0,3.4,0.1c1.4,0.1,2,0.8,2,2.2c0,3.8,0,7.6,0,11.4c0,1.5-0.8,1.9-2.1,1.9c-2.5,0-5.1,0-7.6,0
		c-10.5,0-21.1,0-31.6,0c-3,0-3,0.1-3.3,2.9c-0.6,6.1-1.2,12.3-1.7,18.4c-0.2,3.1-0.1,3.2,2.8,3.2c15,0,30.1-0.1,45.1-0.1
		c3.3,0,6-1.3,8.4-3.4c3.3-2.8,6.5-5.8,8.6-9.7C354.3,518.9,354.6,517.6,355.8,517.4z"/>
	<path class="st0" d="M565.5,512.5c1.8,2.6,3.5,5.2,5.3,7.8c1.5,2.2,2.9,4.5,4.5,6.6c3.1,4.2,7.3,6.4,12.7,6.2
		c13.5-0.5,27-0.2,40.5-0.2c3.8,0,3.9-0.1,3.6-3.7c-0.5-4.7-0.9-9.5-1.4-14.2c-0.4-4.4-2.2-6.2-6.7-6.5c-2.5-0.2-5.1-0.1-7.6-0.1
		c-8.2,0-16.3,0-24.5,0c-3.3,0-3.4-0.1-3.4-3.2c0-2.4-1-5.2,0.5-6.9c1.5-1.7,4.2-0.1,6.4,0.1c10.1,0.9,20.1,2,30.2,3.1
		c0.7,0.1,1.4,0.1,2.1,0.2c1.5,0.1,2-0.6,1.9-2c-0.1-1.5,0-3.1-0.1-4.6c-1.2-19.7-0.5-39.3,0.8-58.9c1.2-18.1,3.6-36,6.9-53.8
		c0.7-3.7,0.7-3.7,4.6-3c2.8,0.5,5.5,1,8.3,1.4c1.9,0.3,2.5,1.3,2.2,3.2c-1,5.4-1.8,10.8-2.7,16.2c-1.9,12.2-3.2,24.5-4.2,36.8
		c-1.2,16-1.8,32-1.3,48c0.5,16.6,1.6,33.1,3.8,49.5c1,7.5,2.1,15,3.3,22.5c0.5,2.7,0.3,2.9-2.4,3c-3.2,0.1-6.5-0.1-9.7,0.1
		c-2,0.1-2.8-0.7-3-2.6c-0.7-4.2-1.5-8.3-2.2-12.4c-0.6-3.4-0.6-3.5-3.9-3.5c-15.6,0-31.2,0-46.8,0c-3.6,0-3.6,0.1-3.6,3.9
		c0,3.9,0,7.9,0,11.8c0,1.9-0.6,2.8-2.7,2.8c-3.1-0.1-6.2-0.1-9.3,0c-2.3,0.1-2.9-0.9-2.8-3c0.1-10.5,0-21.1,0-31.6
		c0-4.2,0-8.3,0-12.5C565,512.7,565.2,512.6,565.5,512.5z"/>
	<path class="st0" d="M361.1,381.2c-2.1-0.5-3.7-2-5.5-3.1c-2.2-1.3-4.3-2.7-6.8-3.2c-5.9-1.4-11.4,0.9-14.4,6.1
		c-2.9,5.1-2.3,10.8,1.8,15.1c2.1,2.3,4.8,3.9,7.3,5.6c3.1,2.1,6.3,4.2,9.4,6.4c3.4,2.3,4.4,5.7,3.7,9.6c-0.2,1.4-0.7,2.7-1,4.1
		c-0.7,4-2.4,6.6-6.6,8.2c-7,2.8-9.3,9.3-10.4,16.2c-1.5,9.9-2.2,19.8-2.6,29.8c-0.1,2.8-0.4,5.6-0.6,8.4c-0.1,1.1-0.6,1.7-1.8,1.9
		c-9.5,1.8-21.9-3.9-26.8-12.4c-2.6-4.6-3.9-9.6-4.3-14.8c-1.6-24.3,1.6-47.9,11.1-70.5c2.9-6.9,6.6-13.3,12.9-17.8
		c6.8-4.9,14.5-5.9,22.5-4.6C355.6,367.2,360.9,374.3,361.1,381.2z"/>
	<path class="st0" d="M419.8,399.7c-1.9-1.7-3.6-1.6-5-2.2c-4.1-1.7-6.1-4.6-5.3-8.9c1.4-7,3.3-13.9,4.9-20.9
		c0.3-1.3,0.9-1.9,2.3-1.9c3.9,0,7.9,0,11.8,0c1.3,0,2.1,0.5,2.4,1.8c1.6,7.1,3.5,14.2,4.9,21.3c0.8,4.2-1.2,6.9-5.2,8.5
		c-1.5,0.6-3.3,0.3-5,2.1c1.6,0.1,2.8,0.2,3.9,0.3c2.6,0.1,5,0.6,7.3,1.8c3.3,1.7,5.5,4.3,5.7,8.2c0.3,4.1-1.7,7-5.1,9
		c-2.4,1.4-5.1,2.4-7.9,2.9c-1.2,0.2-2.5,0.1-4.1,1.4c3.6,0.5,6.7,1,10.1,1.5c-4.9,2.7-19.3,2.8-26.1,0.2c3.7-1.3,7.4-0.7,10.6-2
		c-0.3-1.5-1.3-1.1-2-1.1c-5.9,0-11.8-0.1-17.6,0.8c-11.9,1.7-22.8-1.3-33.1-7c-3.1-1.7-6-3.6-8.8-5.8c-5.1-4-10.3-7.7-15.8-11.1
		c-1.5-0.9-3.1-2-4.4-3.3c-4.1-3.8-4.6-9.2-1.6-13.7c3.1-4.7,8.6-6.2,13.7-3.7c2.6,1.3,5,3,7.5,4.7c6.8,4.5,13.6,8.9,20.4,13.5
		c4,2.7,8.2,4,13.1,3.9C400.6,399.6,409.9,399.7,419.8,399.7z"/>
	<path class="st0" d="M348.8,338.1c-0.6-15.8,13.4-30.4,30.1-30.4c14.2,0,30.1,11.3,30.2,30.4c0.1,18.8-15.8,30.5-30.1,30.4
		C362.4,368.3,348.8,354.8,348.8,338.1z"/>
	<path class="st0" d="M570.9,339c0.5,15.9-13.6,30.5-30.6,30.4c-14.4-0.1-30.1-12.1-29.9-30.3c0.2-18.3,14.4-30.3,30.7-30.3
		C558.1,308.8,571.6,323.9,570.9,339z"/>
	<path class="st0" d="M507.8,425.5c-8.4,1.5-16.7,1.6-25.2,0c0.4-1.6,1.4-1.2,2.1-1.3c2.1-0.3,4.2-0.5,6.3-0.7c1-0.1,2-0.2,2-1.6
		c0-1.1-0.8-1.3-1.7-1.5c-0.8-0.2-1.7-0.3-2.5-0.5c-4.5-1.2-7.1-4.4-7.2-8.7c-0.1-4.3,2.4-7.7,6.7-9.1c0.7-0.2,1.4-0.4,2-0.6
		c1-0.3,2.5,0.3,2.5-1.4c0-1.3-1.3-1.3-2.2-1.6c-0.8-0.3-1.6-0.4-2.4-0.6c-4.8-1.5-7-5.2-5.9-10.1c1.5-6.4,3.2-12.8,4.6-19.2
		c0.5-2.1,1.4-2.8,3.4-2.7c3.4,0.1,6.7,0.2,10.1,0c2.2-0.1,3,0.9,3.4,2.8c1.5,6.4,3.1,12.8,4.5,19.3c1.1,4.9-0.8,8.1-5.6,9.8
		c-1.3,0.5-2.7,0.8-4,1.3c-0.6,0.2-0.8,0.8-0.7,1.4c0,0.6,0.5,0.9,1.1,1c0.4,0,0.8,0.1,1.3,0.1c9.7-0.1,19.4,0.3,29.1-0.4
		c3.7-0.3,7.1-1.3,10.3-3.3c7.7-5,15.4-9.9,23-14.8c2.4-1.5,4.7-3.1,7.5-3.8c3.8-0.9,7.2,0.4,9.6,3.7c2.3,3.2,2.4,7,0.3,10.3
		c-1.2,1.8-2.7,3.3-4.5,4.3c-8,4.7-15.2,10.6-23,15.5c-11.2,7.1-23.2,10.3-36.5,8c-5.3-0.9-10.7-0.3-16-0.3c-1,0-2.1,0-2.1,1.4
		c0,1.3,1.1,1.4,2.1,1.5c2.6,0.3,5.2,0.7,7.8,1C507.9,424.8,507.9,425.1,507.8,425.5z"/>
	<path class="st1" d="M276.4,243.7c-18.4,0-36.8,0-55.2,0c-1.4,0-2.8,0.1-4.2-0.1c-5.7-0.6-7.7-4.6-6.1-10c0.6-1.8,1.9-3,3.9-3.5
		c1.9-0.4,3.8-0.7,5.8-0.7c37.2,0,74.4,0,111.6,0c1.4,0,2.8,0.2,4.2,0.4c4.7,0.8,6.1,3.6,5.7,7.7c-0.3,3.5-2.7,5.7-6.8,6.1
		c-1.5,0.1-3.1,0.1-4.6,0.1C312.6,243.7,294.5,243.7,276.4,243.7z"/>
	<path class="st0" d="M393.4,534.3c0,7.2-0.1,14.3,0,21.5c0,2.1-0.6,3.1-2.8,3c-3.9-0.1-7.9-0.2-11.8,0c-2.3,0.1-3.2-0.9-3.6-3.1
		c-1.4-8.9-2.9-17.7-4.3-26.6c-1-6.1-2-12.2-3-18.3c-0.5-3.1-0.4-3.2,2.5-3.3c5.9-0.1,11.8,0,17.7,0.1c3.8,0.1,5.2,1.5,5.2,5.5
		C393.3,520.3,393.3,527.3,393.4,534.3C393.3,534.3,393.3,534.3,393.4,534.3z"/>
	<path class="st0" d="M396.7,528c0-5.6,0-11.2,0-16.9c0-3.3,0.1-3.4,3.2-3.4c4.1,0,8.2-0.1,12.2,0.1c3.5,0.1,5.2,1.3,6,4.7
		c2.1,8.9,4.4,17.7,5.1,26.8c1,12.5-9.5,18-17.7,16.5c-5.4-1-8.5-4.3-8.7-9.8C396.6,540,396.8,534,396.7,528
		C396.8,528,396.8,528,396.7,528z"/>
	<path class="st0" d="M527.6,533.5c0-7.4,0-14.9,0-22.3c0-3,0.1-3.1,3.1-3.2c6.5-0.1,12.9,0,19.4,0c1.9,0,2.7,0.5,2.3,2.7
		c-2.5,14.5-4.8,29-7.1,43.5c-0.5,3.1-2.1,4.5-5.5,4.7c-3.1,0.2-6.2,0-9.3,0.1c-2.1,0.1-3-0.6-3-2.9c0.1-5.9,0-11.8,0-17.7
		C527.6,536.9,527.6,535.2,527.6,533.5z"/>
	<path class="st0" d="M310.1,113.7c-1.8-3.3-4.2-5.9-7.8-7.1c-3.3-1.1-5-3.3-5.2-6.8c-0.2-2.8-0.9-5.5-2.6-7.9
		c-1.8-2.5-1.8-5.3-0.1-7.9c1.6-2.4,2.5-5,2.6-7.9c0.2-3.5,1.9-5.8,5.2-6.9c2.5-0.8,4.4-2.4,6-4.4c2.1-2.6,4.6-3.8,8.1-2.7
		c2.7,0.9,5.6,0.7,8.3-0.1c3-0.9,5.3,0,7.1,2.3c1.9,2.4,4.2,4.1,7.1,5.1c3.2,1.1,4.6,3.6,4.7,6.8c0.1,2.8,0.8,5.2,2.4,7.5
		c1.9,2.7,2,5.5,0.2,8.2c-1.6,2.4-2.5,4.9-2.6,7.9c0,3.3-1.6,5.6-4.8,6.6c-3.2,1-5.5,3.4-7.5,5.9c-0.4,0.5-0.6,0.9-0.2,1.5l0,0
		c-3.3,0.3-6.6,0.3-9.9-0.6c-0.8-0.2-1.7-0.1-2.5,0.1C315.9,114.1,313,114.2,310.1,113.7L310.1,113.7z M339.6,88.2
		c0.9-9.4-7.6-19.9-19.5-19.8c-10.4,0-19.4,8.9-19.3,19.3c0.1,11.4,9.6,19.6,19.9,19.6C331.8,107.3,340.4,96.6,339.6,88.2z"/>
	<path class="st1" d="M47,450c0.1-12.2,3.1-23.9,7.3-35.2c2.2-5.9,4.7-11.7,7-17.6c0.7-1.9,1.7-2.4,3.8-1.7c6.6,2.1,7.4,3.3,5.9,10
		c-4.1,17.9-8.1,35.8-12.3,53.6c-0.8,3.5-0.5,7-1.4,10.4c-0.6,2.1-1.1,2.4-2.7,1.1c-4.8-4-6.9-9.4-7.4-15.5
		C46.9,453.4,47,451.7,47,450z"/>
	<path class="st1" d="M628.8,301.3c0.1,3.9-1.1,6.8-3,9.5c-4,5.7-9.3,10.1-14.7,14.4c-1.2,0.9-2.1,1.1-3.3,0.1
		c-5.7-4.6-11.3-9.3-15.3-15.5c-2.4-3.7-3.4-7.7-1.7-12c2.8-7.1,10.6-8.8,16.1-3.6c0.4,0.4,0.7,0.8,1.1,1.3c1,1.4,1.9,1.4,3,0.1
		c0.5-0.6,1.1-1.3,1.8-1.8c2.8-2.2,5.7-3.5,9.3-2.2c3.7,1.4,5.9,4.2,6.6,8C628.8,300.4,628.8,301.1,628.8,301.3z"/>
	<path class="st1" d="M334.7,281.4c1.5-0.5,2.2-1.9,3.3-2.7c2.9-1.9,5.8-2.6,9.1-0.9c3.1,1.6,4.3,4.1,4.4,7.5c0.2,3.9-1,7-3.3,10.1
		c-3.1,4.1-7.1,7.1-10.8,10.5c-1.6,1.5-3.2,1.5-4.9,0.1c-4.1-3.6-8.4-6.9-11.6-11.5c-2.1-3.1-3.3-6.4-2.6-10.2
		c1.2-6.8,8.2-9.6,13.7-5.3C333,279.7,333.9,280.6,334.7,281.4z"/>
	<path class="st0" d="M124.7,365.1c9,0.1,16,6.7,16.9,16c0.8,7.9-5.5,15.7-13.9,17.6c-2.2,0.5-2.7-0.6-3-2.3
		c-1.2-7.6-2.4-15.2-3.6-22.8c-0.2-1.5-0.6-3-0.8-4.6c-0.5-3.5-0.2-3.8,3.5-3.9C124.2,365.1,124.5,365.1,124.7,365.1z"/>
	<path class="st0" d="M522.2,511.2c1,1.1,0.8,1.9,0.8,2.5c0,13.4,0,26.9,0,40.3c0,4.2-0.5,4.5-4.8,3.5c-7.3-1.6-11-6.6-9.1-13.4
		C512.4,532.8,517.2,522.1,522.2,511.2z"/>
	<path class="st1" d="M618.3,258.8c1.2-1,2-1.8,3-2.3c4.4-2.7,9.8,0.2,10.1,5.4c0.1,2.6-0.7,5-2.3,7.1c-2.3,3-5.1,5.6-8,8
		c-2.4,2-3.2,1.9-5.5-0.1c-2.5-2.3-4.9-4.6-7.2-7.1c-1.7-1.9-2.9-4.1-3-6.8c-0.1-2.9,0.8-5.3,3.4-6.7c2.6-1.5,5.1-1.1,7.5,0.7
		C616.9,257.5,617.5,258.1,618.3,258.8z"/>
	<path class="st1" d="M388.6,262.6c0.2,2.2-0.5,4.2-1.9,6.1c-2.4,3.3-5.3,6.1-8.5,8.6c-1.6,1.2-2.9,1.4-4.4,0c-2.8-2.5-5.6-5.1-8-8
		c-1.8-2.2-2.9-4.8-2.5-7.8c0.3-2.6,1.5-4.6,3.8-5.6c2.3-1,4.7-0.9,6.6,1.1c1.5,1.5,2.6,2.1,4.4,0.2c2-2.1,4.7-2.5,7.3-1.2
		C388,257.4,388.7,259.7,388.6,262.6z"/>
	<path class="st1" d="M331.1,113.7c0.4,0,0.9,0.1,1.2-0.1c1.8-1,2.7-0.6,3.4,1.4c1.7,5.2,3.6,10.2,5.5,15.6
		c-2.1,0.5-3.9,0.1-5.5-0.4c-2.1-0.6-3.4,0.1-4.8,1.5c-0.9,1-1.7,2.2-3.5,2.8c-1.6-2.1-1.9-4.8-2.9-7.1c-1.1-2.7-2-5.5-2.9-8.3
		c-0.8-2.4-0.6-2.7,1.8-2.8c2.1-0.1,4.1-0.5,6.1-1.3C330.3,114.8,330.9,114.5,331.1,113.7C331.1,113.7,331.1,113.7,331.1,113.7z"/>
	<path class="st1" d="M310.1,113.7c0.7,2.3,2.9,1.8,4.5,2.4c0.9,0.3,1.9,0.2,2.9,0.2c1.5,0.1,2.1,0.9,1.6,2.3
		c-1.9,5.4-3.8,10.7-5.8,16.3c-0.9-0.6-1.5-0.7-1.8-1.1c-2.3-3-5-4.3-9-3.3c-2.4,0.6-2.9-0.4-2.1-2.9c1.3-4,2.8-7.9,4.2-11.9
		c0.7-2,1.5-3.3,3.9-2C308.9,114,309.6,113.8,310.1,113.7C310.1,113.7,310.1,113.7,310.1,113.7z"/>
	<path class="st1" d="M303.2,87.9c0-10,7.3-17.3,17.2-17.3c9.5,0,17.8,8.1,17.3,17.4c-0.6,10.5-7.4,17.1-17.6,17.1
		C310.3,105.1,302.8,97.3,303.2,87.9z M310.6,81.8c0.5,1.7,1.4,3,2.4,4.1c1.1,1.2,1.2,2.3,0.1,3.7c-0.8,1-2,2-2,3.8
		c2,0.8,4.3-0.5,6.1,0.6c1.9,1.1,1.6,3.8,3.2,5.2c0.2-0.1,0.3-0.1,0.4-0.1c1.5-1.4,1.5-3.7,3-4.9c1.7-1.4,4.1,0.3,6.1-0.8
		c0.4-2.4-2.5-3.4-2.3-5.6c0.2-2.2,2.8-3.1,2.9-5.6c-1.4-0.3-2.8-0.4-4.1,0.1c-2.2,0.8-3.1-0.3-3.7-2.1c-0.5-1.3-0.7-2.9-2.3-3.8
		c-0.4,0.9-0.8,1.5-1.1,2.1c-1.9,3.8-1.9,3.8-6.1,3.5C312.5,81.7,311.7,81.8,310.6,81.8z"/>
</g>
</svg>
