<?xml version="1.0" encoding="utf-8"?>
<!-- Generator: Adobe Illustrator 25.2.3, SVG Export Plug-In . SVG Version: 6.00 Build 0)  -->
<svg version="1.1" id="Layer_1" xmlns="http://www.w3.org/2000/svg" xmlns:xlink="http://www.w3.org/1999/xlink" x="0px" y="0px"
	 viewBox="0 0 700 700" style="enable-background:new 0 0 700 700;" xml:space="preserve">
<style type="text/css">
	.st0{fill:#C6D242;}
	.st1{fill:#E8D37E;}
</style>
<g>
	<path class="st0" d="M262.2,25c56.8,0.7,107.4,18.8,151,55.4c33.4,28.1,57,63,71.2,104.2c5.2,15.1,8.6,30.6,10.5,46.5
		c1.2,10.3,1.9,20.6,1.8,30.9c-0.5,31.9-6.9,62.5-19.8,91.7c-8.4,18.9-19,36.5-32,52.6c-0.5,0.7-1,1.4-1.6,2c-0.6,0.8-0.7,1.6,0,2.3
		c3.9,4,6.5,9.1,10.6,13c3.5,3.4,7.8,4.8,12.4,3.7c15.4-3.7,27.7,1.7,38.5,12.1c8.1,7.9,16,16,24,24c26.9,26.9,53.7,53.7,80.6,80.6
		c14.5,14.5,28.9,29,43.3,43.5c4.9,4.9,9.5,10.1,13,16.2c5.5,9.7,6.1,19.6,0.9,29.6c-4.5,8.7-11,15.8-18,22.4
		c-4.3,4-8.8,7.7-13.9,10.6c-10.3,5.8-20.5,6-30.9,0.2c-4.9-2.8-9.3-6.2-13.4-10.1c-7.6-7.4-15.1-14.9-22.6-22.4
		c-41-40.5-81.6-81.3-122.3-122.1c-3.1-3.1-6.3-6.1-9.4-9.2c-2.9-2.9-5.2-6.1-6.2-10.1c-0.2-1-0.7-1.8-1.2-2.6
		c-3.6-5.5-4.1-11.6-2.9-17.9c0.5-2.7,1.3-5.5,2.2-8.1c0.8-2.1,0.4-3.7-1-5.4c-2.9-3.5-5.9-6.8-9.8-9.2c-2.2-1.4-4.6-2.4-7.1-2.8
		c-3.5-0.6-6.7-0.2-9.9,2.1c-28.5,20.9-60.2,34.6-94.9,41.2c-18.1,3.4-36.5,4.6-54.9,3.7c-10.8-0.5-21.5-2-32.2-3.8
		c-9.2-1.6-18.4-3.2-27.4-5.9c-22.9-6.7-43.8-17.4-63.2-31.2c-28.9-20.6-52.3-46.2-70.3-76.7c-13.9-23.6-23.2-48.9-28-75.9
		c-2.8-16.1-4.1-32.4-3.4-48.7c1.2-29,7.4-56.9,18.9-83.5c12.8-29.7,30.8-55.7,54.2-78c20.1-19.2,43-34.2,68.5-45.3
		c19.5-8.5,39.8-14.3,60.8-17.5c2.4-0.4,4.8-0.6,7.2-0.9C244.4,25.6,253.3,24.9,262.2,25z M455.5,259.7
		C456,155.4,371.6,67.1,263.9,66.1C154.4,65.2,69.5,154,68.6,257.8c-0.9,105.6,84.5,194.9,192.9,195.2
		C370.3,453.4,455.9,364.4,455.5,259.7z M646.7,605.1c-0.1-1.2-1.5-2.5-2.9-3.9c-39-39.4-78.8-78.1-117.4-118
		c-8-8.3-16.3-16.4-24.5-24.6c-0.7-0.7-1.3-1.4-2.1-2c-2.1-1.6-4.3-1.5-5.9,0.2c-1.5,1.6-1.7,3.7-0.2,5.7c0.6,0.9,1.5,1.6,2.2,2.4
		c13.9,14,27.9,27.8,41.8,41.9c26.5,26.8,53.7,53,79.7,80.3c6.6,7,13.6,13.6,20.4,20.4c1,1,2,2.1,3.5,2.6
		C644,610.9,646.8,608.9,646.7,605.1z"/>
	<path class="st1" d="M646.7,605.1c0.1,3.8-2.7,5.9-5.5,4.9c-1.4-0.5-2.4-1.5-3.5-2.6C631,600.6,624,594,617.4,587
		c-26-27.3-53.2-53.5-79.7-80.3c-13.9-14-27.9-27.9-41.8-41.9c-0.8-0.8-1.6-1.5-2.2-2.4c-1.4-2-1.3-4.1,0.2-5.7
		c1.6-1.7,3.8-1.8,5.9-0.2c0.8,0.6,1.4,1.3,2.1,2c8.2,8.2,16.5,16.2,24.5,24.6c38.6,39.9,78.3,78.6,117.4,118
		C645.2,602.5,646.6,603.9,646.7,605.1z"/>
	<path class="st0" d="M388.2,173.5c-4.2,0-7.9,0-11.7,0c-3.9,0-7.8,0.1-11.7,0c-2.2-0.1-3.3,0.6-3.9,2.8c-2,6.6-4.2,13.2-6.4,19.8
		c-7.9,23.9-20.9,44.6-39.1,62.1c-15.6,15-33.9,25.6-54.3,32.8c-14.9,5.3-30.1,8.8-45.8,10.2c-20.3,1.7-40.3-0.4-59.9-6.2
		c-1.5-0.5-3-0.8-4.6-1.3c-2.4-0.7-4.3-2.2-5.4-4.7c1.9-1.6,4.1-2.1,6.5-2c5.3,0.2,10.7,0.4,16,0.6c23.2,0.7,44.6-5.4,64.3-17.4
		c32.8-19.9,53.8-48.7,63.4-85.8c0.6-2.4,1.2-4.7,1.3-7.2c0.1-2.9-0.1-3.1-3-3.2c-7.9,0-15.8,0-23.7,0c-1.4,0-3.2,0.8-4-0.9
		c-0.9-2,1.2-2.7,2.2-3.7c18.5-16.2,37-32.4,55.5-48.5c2.1-1.8,2.2-2.3,4.8,0c12.8,11.2,25.7,22.4,38.5,33.6
		c6.3,5.5,12.6,11.1,19,16.6C386.8,171.5,387.6,172,388.2,173.5z"/>
	<path class="st1" d="M367.6,278.5c0,30.4,0,60.9,0,91.3c0,4.9,0.3,4.5-4.6,4.5c-8.2,0-16.3,0-24.5,0c-2.8,0-2.9-0.1-3-2.8
		c-0.1-2.1-0.1-4.1-0.1-6.2c0-36.3,0.1-72.5,0-108.8c0-5.9,1.6-11.2,4.9-16.1c8-11.7,14.8-24,19.6-37.4c1.7-4.7,3.2-9.4,4.3-14.3
		c0.3-1.1,0.6-2.1,1-3.1c0.3-0.8,0.5-1.8,1.6-1.6c0.9,0.2,0.6,1.2,0.6,1.8c0.1,0.8,0,1.7,0,2.6C367.6,218.4,367.6,248.5,367.6,278.5
		z"/>
	<path class="st1" d="M319.5,265.7c0,1.4,0,2.5,0,3.6c0,33.6,0,67.1,0,100.7c0,0.4,0,0.7,0,1.1c-0.1,3.2-0.1,3.2-3.3,3.2
		c-8.4,0-16.8,0-25.2,0c-2.8,0-2.7-0.1-3.3-2.9c-0.3-1.6-0.4-3.1-0.4-4.7c0-24.2,0-48.4-0.1-72.6c0-4.2,1.4-7.6,5-9.9
		c8.8-5.6,17.2-11.9,25.7-17.9C318.2,266,318.6,266,319.5,265.7z"/>
	<path class="st1" d="M271.4,295.6c0.7,1.4,0.4,2.5,0.4,3.6c0,23.7,0,47.4,0,71.1c0,0.6,0,1.2,0,1.8c0.1,1.5-0.5,2.2-2.1,2.2
		c-9.2,0-18.5,0-27.7,0c-1.6,0-2.2-0.7-2.1-2.2c0-0.6,0-1.2,0-1.8c0-20.3,0-40.6,0-60.9c0-4,0-4,3.9-5.2c8.5-2.7,16.9-5.3,25.4-8
		C269.8,296,270.5,295.8,271.4,295.6z"/>
	<path class="st1" d="M177,341.9c0,9.7,0,19.5,0,29.2c0,3.2-0.1,3.2-3.3,3.2c-8.5,0-17,0-25.6,0c-3.2,0-3.2,0-3.2-3.2
		c0-22.5,0-45,0-67.5c0-3.2,0.5-3.5,3.7-2.8c7.2,1.6,14.4,3.3,21.7,4.9c0.7,0.2,1.4,0.4,2.1,0.6c3.2,1,4.5,2.8,4.5,6.1
		C176.9,322.2,176.9,332,177,341.9C176.9,341.9,176.9,341.9,177,341.9z"/>
	<path class="st1" d="M193,341.4c0-9.9,0-19.7,0-29.6c0-3.3,0-3.3,3.2-3.3c8.2,0,16.3,0,24.5,0c3.1,0,3.1,0.1,3.1,3
		c0,20,0,39.9,0,59.9c0,2.9-0.1,2.9-2.8,3c-8.4,0-16.8,0-25.2,0c-2.7,0-2.8-0.1-2.8-3C192.9,361.4,193,351.4,193,341.4z"/>
</g>
</svg>
