<?xml version="1.0" encoding="utf-8"?>
<!-- Generator: Adobe Illustrator 25.2.3, SVG Export Plug-In . SVG Version: 6.00 Build 0)  -->
<svg version="1.1" id="Layer_1" xmlns="http://www.w3.org/2000/svg" xmlns:xlink="http://www.w3.org/1999/xlink" x="0px" y="0px"
	 viewBox="0 0 175.1 50.4" style="enable-background:new 0 0 175.1 50.4;" xml:space="preserve">
<style type="text/css">
	.st0{fill:#C6D22E;}
	.st1{fill:#FFFFFF;}
	.st2{fill:#1D1D1B;stroke:#1D1D1B;stroke-width:1.5;stroke-miterlimit:10;}
</style>
<path class="st0" d="M70.9,34.1c0-2,0.4-3.9,1.2-5.6c0.8-1.8,1.8-3.3,3.1-4.7c1.3-1.3,2.8-2.4,4.6-3.1c1.8-0.8,3.6-1.2,5.6-1.2
	c2,0,3.9,0.4,5.6,1.2c1.8,0.8,3.3,1.8,4.7,3.1c1.3,1.3,2.4,2.9,3.2,4.6c0.8,1.8,1.2,3.6,1.2,5.6c0,2.1-0.4,4-1.1,5.7
	c-0.8,1.8-1.8,3.3-3.1,4.6c-1.3,1.3-2.9,2.3-4.7,3.1c-1.8,0.7-3.7,1.1-5.7,1.1c-2,0-3.9-0.4-5.6-1.1c-1.8-0.8-3.3-1.8-4.6-3.1
	c-1.3-1.3-2.3-2.8-3.1-4.6C71.2,38,70.9,36.1,70.9,34.1 M71.9,32.2H72L71.9,32V32.2z M72.3,35.6L72.3,35.6l0.2-0.1L72.3,35.6z
	 M72.4,37h0.1v-0.1L72.4,37z M72.6,34.2l0.1,0.1V34L72.6,34.2z M72.6,36.3l0.1,0.1v-0.3L72.6,36.3z M72.6,35v0.1V35L72.6,35z
	 M72.7,31.4c0.1,0,0.2-0.1,0.2-0.3h-0.2V31.4z M72.7,32h0.2c-0.1-0.1-0.1-0.2-0.2-0.3V32z M72.9,32.3l0.1,0.1l0.1-0.1L73,32.2
	L72.9,32.3z M73,36.5v0.2l0.3-0.3l-0.1-0.2L73,36.5z M73.1,37.4l0.7-0.4l0.3,0.2h0.3c-0.2-0.3-0.5-0.5-0.8-0.5
	c-0.1,0-0.3,0.1-0.3,0.2c-0.1,0.1-0.2,0.2-0.3,0.3v0.1L73.1,37.4z M73.1,31.5c0,0.1,0.1,0.2,0.2,0.2c0.1,0.1,0.2,0.1,0.3,0.2
	c0.1,0.1,0.2,0.1,0.3,0.2c0.1,0.1,0.2,0.1,0.2,0.3h0.5c-0.1-0.2-0.1-0.5-0.2-0.7c0-0.2,0-0.5,0-0.7h-0.1l-0.2,0.3l0.1,0.5
	c-0.4,0-0.7-0.1-0.9-0.4L73.1,31.5z M73.2,30.6h0.1v-0.1L73.2,30.6z M73.2,33.4l0.3-0.2h-0.2L73.2,33.4z M74,39.7l0.9-0.5l0.2-0.3
	h0.1l0.5,0.5c0-0.2,0.1-0.4,0.3-0.5c0.2-0.1,0.4-0.2,0.6-0.2l0,0.3l-0.2,0.3h0.1l0.5-0.6l-0.1-0.2c-0.2,0-0.4,0-0.6,0.1
	c-0.2,0.1-0.4,0.1-0.5,0.1l0.2-0.3l-0.5-0.6l-0.6,0.4h-0.2c0.1-0.2,0.3-0.5,0.5-0.7c0.2-0.2,0.4-0.3,0.7-0.3l-0.2-0.1L76,37h-0.2
	l-0.3,0.2l-0.4-0.4l-0.4,0.5l0.3-0.1c0,0.3-0.1,0.5-0.3,0.5c-0.2,0-0.4,0.1-0.7,0.1l-0.3-0.1L73.3,38l-0.1,0.3l0.4,0.6l-0.1,0.2
	L74,39.7z M73.5,35.8H74c0-0.2-0.1-0.3-0.3-0.3h-0.1V35.8z M73.6,29.2c0.1-0.1,0.2-0.2,0.2-0.3h-0.2V29.2z M73.6,32.8l0.1-0.1
	l-0.1-0.2V32.8z M73.6,38l0.7,0.3l0.1,0.5l-0.3,0.4c0.1-0.3,0-0.5-0.2-0.6c-0.2-0.1-0.3-0.3-0.3-0.5V38z M73.7,30l0.1,0.1v-0.3
	L73.7,30z M73.8,30.9l0.5-0.3l-0.4-0.3L73.8,30.9z M73.8,33.1h0.1v-0.2L73.8,33.1z M73.8,36.3L73.8,36.3L73.8,36.3L73.8,36.3z
	 M73.9,28.4C74,28.4,74,28.4,73.9,28.4v-0.2V28.4z M74,27.5l0.1,0.1l0.1-0.1l-0.1-0.2L74,27.5z M74.1,42.5l0.1,0.1v-0.3L74.1,42.5z
	 M74.2,35.5c0.1,0,0.2-0.1,0.3-0.2c0.1-0.1,0.1-0.3,0.1-0.4v-0.2h-0.3l0.2,0.3L74.2,35.5z M74.2,40.5l0,0.2l0.2-0.3l0-0.1L74.2,40.5
	z M74.4,41.2L74.4,41.2l0-0.2L74.4,41.2z M74.5,27L74.5,27L74.5,27L74.5,27L74.5,27z M74.4,39.8l0.1-0.1l-0.1-0.2V39.8z M74.4,29.4
	l0.1,0.1v-0.3L74.4,29.4z M74.4,36l0.1,0.1v-0.3L74.4,36z M74.4,41.4l0.1,0.1v-0.3L74.4,41.4z M74.4,42.3l0.1,0.2v-0.3L74.4,42.3z
	 M74.6,26.2h0.1L74.6,26V26.2z M74.6,33.3l0.5-0.7h-0.5V33.3z M74.7,40.8c0.2-0.1,0.4-0.3,0.6-0.4c0.2-0.1,0.3-0.3,0.4-0.5l-0.3-0.3
	l-0.2,0.3h0.2c0,0.2-0.1,0.4-0.3,0.4c-0.2,0.1-0.4,0.2-0.4,0.3L74.7,40.8z M74.7,30l0.2-0.2v-0.1L74.7,30z M74.7,31.1l0.1-0.1
	l-0.1-0.2V31.1z M74.7,40h0.2l-0.2-0.1V40z M74.7,34.4l0.1,0.1l0.1-0.1l-0.1-0.2L74.7,34.4z M74.8,40.9v0.1V40.9L74.8,40.9z
	 M74.9,36l0.1,0.1v-0.3L74.9,36z M75.4,35.4c-0.2,0-0.3,0.1-0.3,0.2h0.3V35.4z M75.2,41.4c0.2,0,0.4-0.1,0.5-0.2
	c0.1-0.1,0.2-0.2,0.3-0.4c0.1-0.1,0.2-0.3,0.3-0.4c0.1-0.1,0.2-0.2,0.4-0.2l0.2,0.2c0.1-0.1,0.1-0.3,0.1-0.4c0-0.1,0.1-0.3,0.2-0.4
	l-0.3,0.2l-0.3-0.2l-1.4,1.6L75.2,41.4z M75.1,41.7L75.1,41.7l0,0.1l0.1-0.1L75.1,41.7z M75.2,42.5l0.2-0.3h-0.2l-0.1,0.2L75.2,42.5
	z M75.4,26h0.1v-0.1L75.4,26z M75.4,28.2l0.1,0.2v-0.3L75.4,28.2v-0.3V28.2z M75.4,30.3l0.4-0.2h-0.1L75.4,30.3z M75.4,28.1
	C75.4,28.1,75.4,28.2,75.4,28.1C75.4,28.2,75.4,28.2,75.4,28.1 M75.4,34.6c0,0.1,0,0.3,0.1,0.4c0.1,0.1,0.2,0.2,0.3,0.2
	c0-0.1-0.1-0.2-0.1-0.4C75.7,34.7,75.6,34.6,75.4,34.6 M75.5,27.3l0.2-0.2h-0.2V27.3z M75.5,29.4l0.2,0.1v-0.3L75.5,29V29.4z
	 M75.5,33.7l0.1-0.1l-0.1-0.2V33.7z M75.6,29.2c0,0.1,0,0.1-0.1,0.2C75.5,29.3,75.6,29.2,75.6,29.2 M75.5,33.1l0.1,0.1v-0.3
	L75.5,33.1z M75.6,42v0.1V42L75.6,42z M75.8,41.5h-0.1H75.8L75.8,41.5z M76.1,25.2c-0.2,0-0.3,0.1-0.3,0.3
	C76,25.6,76.1,25.5,76.1,25.2 M75.8,31.7l0.1-0.1l-0.1-0.2V31.7z M75.8,31.8l0.3,0.5L76,31.7L75.8,31.8z M76.5,35.4
	c-0.4,0-0.7,0.2-0.7,0.5H76C76.3,35.9,76.5,35.7,76.5,35.4 M75.8,30.3l0.1,0.2l0.1-0.2L76,30.1L75.8,30.3z M76.1,26.7l0.1-0.2
	l-0.1-0.3L76,26.3v0.2L76.1,26.7z M76,42.3h0.2L76,42V42.3z M76,34.8l0.1,0.2v-0.3L76,34.8z M77.1,42.6l-0.1,0.2l-0.2-0.5l-0.1,0.1
	l0-0.3l0.2-0.1l-0.2-0.3L76.3,42l0.3,1H76c0.1,0.1,0.3,0.1,0.4,0.2c0.1,0.1,0.2,0.2,0.2,0.4c0.1,0,0.3,0,0.4-0.1
	c0.1-0.1,0.3-0.1,0.4-0.1v-0.2l0.3,0l0.2,0.2l-0.2,0.1h0.5l0.3-0.1l0.5,0.1l-0.1-0.2c0-0.3,0.1-0.5,0.4-0.7c0.3-0.2,0.4-0.4,0.4-0.7
	L80,42l0.2-0.3l-0.3,0l-0.4,0.1l-0.1-0.3l0,0.3c-0.1,0.1-0.3,0.2-0.4,0.2c-0.1,0.1-0.3,0.1-0.5,0.1L78,41.9
	c-0.3,0.2-0.6,0.4-0.8,0.7l-0.1-0.2V42.6z M76.1,36.4c0,0.1,0.1,0.1,0.1,0.1c0.1,0,0.1,0,0.2,0l0.1,0L76.1,36.4z M76.3,39.2
	L76.3,39.2h-0.1H76.3L76.3,39.2z M76.3,23.7l0.1-0.2l-0.1-0.2V23.7z M76.3,36.2l0.1-0.1l-0.1-0.2V36.2z M76.3,37.7l0.1-0.2l-0.1-0.2
	V37.7z M76.5,32.2h0.1V32L76.5,32.2z M76.6,31.7l0.1-0.1l-0.1-0.2V31.7z M76.6,33.4l0.2,0.1v-0.3l-0.2-0.1V33.4z M76.6,38.1l0.1-0.1
	l-0.1-0.2V38.1z M76.6,44.4l0.1-0.2L76.6,44V44.4z M76.6,26.1l0.1,0.1l0.1-0.1l-0.1-0.2L76.6,26.1z M76.6,32.5l0.1,0.1l0.1-0.1
	l-0.1-0.2L76.6,32.5z M76.7,33.2c0,0.1,0,0.1-0.1,0.2C76.6,33.4,76.7,33.3,76.7,33.2 M77.1,44.5c0.1,0.1,0.2,0.3,0.3,0.5
	c0.1,0.2,0.3,0.2,0.5,0.2c0-0.3,0-0.5-0.1-0.8c-0.1-0.3-0.1-0.5-0.1-0.8c-0.2,0-0.3,0.1-0.5,0.4c-0.2,0.3-0.3,0.5-0.3,0.6L77.1,44.5
	z M76.9,37.5c-0.1,0.2-0.1,0.4,0,0.6V37.5z M76.9,36.2h0.1l-0.1-0.1V36.2z M77.2,25.6v-0.2l-0.2-0.2v0.2L77.2,25.6z M77.1,33.7
	l0.1,0.1l0.1-0.1L77.1,33.7z M77.2,34.6v-0.3l-0.2,0.2L77.2,34.6z M77.1,39.5l0.1-0.2l-0.1-0.2V39.5z M77.1,42.6l0.1-0.1
	C77.1,42.6,77.1,42.6,77.1,42.6 M77.1,45.3l0.1-0.1L77.1,45V45.3z M77.1,23.5l0.1,0.2v-0.4L77.1,23.5z M77.2,30L77.2,30l0-0.2
	L77.2,30z M77.2,40h0.1l-0.1-0.1V40z M77.9,39.2l0.2-0.2l0.3,0.2l0.5-0.7h-0.7v-0.4l-0.6,0.2l0.1,0.3L77.3,39L77.9,39.2z M77.4,26.5
	h0.2v-0.2L77.4,26.5z M77.7,32.6l0.3-0.2L77.4,32v0.1L77.7,32.6z M77.4,36l0.1,0.1v-0.3L77.4,36z M78.6,39.4
	c-0.2,0.1-0.5,0.3-0.7,0.3c-0.3,0.1-0.4,0.3-0.4,0.7L78,40l0.5,0.2l0.3-0.3l-0.2-0.3V39.4z M77.5,39.5v0.1V39.5L77.5,39.5z
	 M77.7,29.6h-0.1H77.7L77.7,29.6z M77.5,30.6l0.1-0.1h-0.1V30.6z M77.5,41.6L77.5,41.6c0.1,0,0.2-0.1,0.2-0.2c0-0.1,0.1-0.3,0.1-0.4
	L77.5,41.6z M77.6,35.6L77.6,35.6l0.1,0l-0.1-0.1L77.6,35.6z M77.9,34.2V34h-0.2L77.9,34.2z M77.7,41.1l0.1-0.1l-0.1-0.2V41.1z
	 M77.7,42l0.1-0.1l-0.1-0.2V42z M77.7,31.2l0.1,0.1l0.1-0.1l-0.1-0.2L77.7,31.2z M77.7,36.6l0.1,0.1l0.1-0.1l-0.1-0.2L77.7,36.6z
	 M78.4,29.4l-0.3-0.6l-0.2,0.3L78.4,29.4z M77.9,40.5L77.9,40.5v0.1V40.5L77.9,40.5z M77.9,24.2l0.1,0.1V24L77.9,24.2z M77.9,41.4
	l0.1,0.1v-0.3L77.9,41.4z M77.9,43.9L78,44v-0.3L77.9,43.9z M78.2,26.6L78.2,26.6H78v0L78.2,26.6L78.2,26.6z M78,31.7l0.1,0.2v-0.3
	L78,31.7v-0.3V31.7z M78.1,31.6C78.1,31.6,78.1,31.6,78.1,31.6C78.1,31.6,78.1,31.6,78.1,31.6 M78.2,22.8l0.1-0.1l-0.1-0.2V22.8z
	 M78.2,34.6l0.2,0.2v-0.3l-0.2-0.2V34.6z M78.2,30.9l0.1,0.1v-0.3L78.2,30.9z M78.3,34.5C78.3,34.5,78.2,34.6,78.3,34.5
	c0,0.1-0.1,0.1-0.1,0.1C78.2,34.6,78.2,34.6,78.3,34.5C78.2,34.6,78.3,34.5,78.3,34.5 M78.2,44.6l0.1,0.1v-0.3L78.2,44.6z
	 M78.3,32.2h0.3l-0.2-0.3h-0.1V32.2z M78.3,41.7c0.1,0.1,0.3,0.1,0.4,0.2c0.2,0,0.3,0,0.5,0l-0.4-0.7L78.3,41.7z M78.3,44.2
	c0.1,0,0.1,0,0.1-0.1v0L78.3,44.2z M78.5,45.3l0.3-0.3l-0.3-0.3l-0.1,0.1V45L78.5,45.3z M78.5,25.9l0.1-0.1l-0.1-0.2V25.9z
	 M78.5,27.8l0.1-0.1l-0.1-0.2V27.8z M78.9,45.2c-0.2,0.1-0.4,0.3-0.5,0.6C78.7,45.6,78.9,45.4,78.9,45.2 M78.5,35.8l0.1,0.1l0.1-0.1
	l-0.1-0.2L78.5,35.8z M78.5,38.1l0.1,0.1l0.1-0.1L78.6,38L78.5,38.1z M78.6,25.6l0.2,0.1v-0.3l-0.2-0.2V25.6z M78.8,25.4
	c0,0.1,0,0.1-0.1,0.2C78.7,25.5,78.7,25.5,78.8,25.4 M78.7,37l0.1,0.1v-0.3L78.7,37z M78.7,37.8l0.1,0.1v-0.3L78.7,37.8z M78.7,45.8
	l0.1,0.1v-0.3L78.7,45.8z M78.8,35.3l0.7-0.2h0.1L79.6,35l-0.3-0.2L78.8,35.3z M78.9,36.4L78.9,36.4l0-0.2L78.9,36.4z M79.1,22.1V22
	l-0.2-0.1V22L79.1,22.1z M79.7,26c-0.1,0.1-0.3,0.3-0.5,0.5c-0.2,0.2-0.3,0.4-0.3,0.6v0l0.8-0.8V26z M78.9,31.2h0.2l0.1-0.2h-0.1
	L78.9,31.2z M78.9,38.3l0.1-0.1L78.9,38V38.3z M79.1,39.5h0.1l0.2-0.2h-0.5L79.1,39.5z M78.9,40.3h0.2v-0.1h-0.2V40.3z M79,23.2
	l0.1,0.1v-0.3L79,23.2z M79,32.3l0.1,0.1v-0.3L79,32.3z M79,33.1l0.1,0.1v-0.3L79,33.1z M79.2,32L79.2,32l-0.1-0.3l0,0L79.2,32z
	 M79.1,45.8c0.1-0.1,0.2-0.2,0.2-0.3h-0.2V45.8z M79.2,28.4l0.1-0.1l-0.1-0.2V28.4z M79.2,43.1l0.1-0.1l-0.1-0.2V43.1z M79.2,45.2
	L79.2,45.2l0.8-0.4l-0.3-0.1L79.2,45.2z M79.2,45l0.1-0.1l-0.1-0.2V45z M79.3,25.1l0.1,0.1v-0.3L79.3,25.1z M79.3,46L79.3,46l0.1,0
	C79.5,46,79.5,45.9,79.3,46L79.3,46z M79.4,41.9L79.4,41.9l0.1,0L79.4,41.9z M79.4,28.7l0.5-0.1l-0.5-0.2V28.7z M79.4,30.1
	L79.4,30.1l0.7-0.5l0-0.1L79.4,30.1z M79.6,39.1L79.6,39.1l-0.1-0.3v0.1L79.6,39.1z M79.4,41.4h0.1l-0.1-0.2V41.4z M79.4,43.4
	l0.1,0.2v-0.3L79.4,43.4v-0.3V43.4z M79.5,43.3C79.5,43.3,79.5,43.4,79.5,43.3C79.5,43.4,79.5,43.4,79.5,43.3 M79.6,35.9L79.6,35.9
	v0.2V35.9L79.6,35.9z M79.6,23.1l0.1,0.1l0.1-0.1l-0.1-0.2L79.6,23.1z M79.6,28.9l0.1,0.1l0.1-0.1l-0.1-0.2L79.6,28.9z M79.6,35.3
	l0.1,0.1l0.1-0.1l-0.1-0.2L79.6,35.3z M79.6,36.9l0.1,0.1l0.1-0.1l-0.1-0.2L79.6,36.9z M79.6,45.3l0.1,0.1l0.1-0.1l-0.1-0.2
	L79.6,45.3z M79.6,45.8l0.1,0.1l0.1-0.1l-0.1-0.2L79.6,45.8z M79.6,22.5L79.6,22.5L79.6,22.5L79.6,22.5z M79.7,35.6l0.1,0.1l0.1-0.1
	L79.7,35.6z M79.7,38.6l0.6-0.6L80,37.8L79.7,38.6z M79.9,23.4c0,0.1,0.1,0.3,0.4,0.5v-0.1C80.2,23.5,80.1,23.4,79.9,23.4
	 M80.3,39.7L80,39.3v0l-0.1,0.2L80.3,39.7z M80.2,38.7l-0.2,0l-0.1,0H80.2L80.2,38.7z M79.9,44.2L80,44l-0.1-0.1V44.2z M80,32.6v0.1
	V32.6L80,32.6z M80,24.6l0.1-0.1L80,24.3V24.6z M80,45.8l0.1-0.1L80,45.5V45.8z M80.2,31.2h0.3l-0.2-0.2h-0.1V31.2z M80.3,28.6
	c-0.1,0.2-0.1,0.4,0,0.6C80.4,29,80.4,28.8,80.3,28.6 M80.3,29.5c0.1,0.1,0.2,0.2,0.3,0.2v-0.2H80.3z M80.3,35.8h0.2l0.3-0.3
	l-0.3-0.1L80.3,35.8z M80.3,44.2C80.4,44.2,80.4,44.2,80.3,44.2V44V44.2z M80.3,44.7l0.1-0.1l-0.1-0.2V44.7z M80.3,45.9L80.3,45.9
	c0.1,0,0.2,0,0.2-0.1L80.3,45.9z M80.4,35l0.1,0.1l0.1-0.1l-0.1-0.2L80.4,35z M80.4,40.9l0.1,0.1l0.1-0.1l-0.1-0.2L80.4,40.9z
	 M80.4,44.9l0.1,0.1l0.1-0.1l-0.1-0.2L80.4,44.9z M80.4,45.5l0.1,0.1l0.1-0.1l-0.1-0.2L80.4,45.5z M80.6,23.7
	c-0.1,0-0.1,0.1-0.1,0.2L80.6,23.7L80.6,23.7z M81.1,39.5l0.5-0.3l0.5,0.2v0.2l0.2-0.3c-0.1-0.1-0.2-0.2-0.3-0.4
	c-0.1-0.1-0.2-0.3-0.2-0.5l-0.2,0.4L80.7,38l-0.2,0.3l0.2,0.5h0.1l0.2-0.2l0.4,0.5L81.1,39.5z M80.6,21.7l0.1,0.2v-0.3L80.6,21.7z
	 M80.6,26.9l0.1,0.1v-0.3L80.6,26.9z M80.6,27.3l0.1,0.2v-0.3L80.6,27.3z M80.6,36.7l0.1,0.2v-0.3L80.6,36.7z M80.8,45.2
	c0.2-0.1,0.4-0.2,0.4-0.4c0.1-0.2,0.2-0.3,0.5-0.3l0.2-0.5h-0.1l-0.2,0.2c-0.1,0-0.2-0.1-0.4-0.1C81,44,80.9,44,80.8,44l-0.1,0.2
	l0.3,0.4L80.8,45.2z M80.8,29h0.4L81,28.7L80.8,29z M81,22.5c0.3-0.1,0.5-0.3,0.5-0.6l0-0.3l-0.6,0.3L81,22.5z M81,23.1v-0.3h-0.2
	L81,23.1z M80.8,27l0.1,0.1L81,27L80.8,27z M80.8,32.2h0.3L81,32L80.8,32.2z M80.8,41.2l0.1-0.1l-0.1-0.2V41.2z M80.8,46.1L81,46
	l-0.1-0.2V46.1z M80.9,37.4l0.1,0.1v-0.3L80.9,37.4z M81,26.5c0.2,0.2,0.3,0.4,0.5,0.4c0-0.2-0.1-0.4-0.3-0.4H81z M81,42.2h0.1V42
	H81V42.2z M81.1,37.8l0.1-0.1l-0.1-0.2V37.8z M81.2,24.6l0.1,0.2v-0.3L81.2,24.6z M81.3,23.5c0,0.3,0.1,0.4,0.4,0.4
	C81.7,23.6,81.5,23.5,81.3,23.5 M81.3,31.5h0.1l0.3-0.3l-0.2-0.2L81.3,31.5z M81.3,36.5h0.3l-0.3-0.1V36.5z M81.3,45.3L81.3,45.3
	h0.2C81.5,45.2,81.5,45.2,81.3,45.3L81.3,45.3z M81.4,27.8l0.1-0.1l-0.1-0.2V27.8z M81.4,43.3l0.1-0.2l-0.1-0.2V43.3z M81.5,40.5
	l0.1,0.2l0.1-0.2l-0.1-0.2L81.5,40.5z M81.5,41.6l0.1,0.1l0.1-0.1l-0.1-0.2L81.5,41.6z M81.5,27.1L81.5,27.1L81.5,27.1L81.5,27.1z
	 M82,22.2l-0.3,0.3l0.2,0l0.6-0.3L82,21.8L81.8,22L82,22.2z M81.7,26.3L81.7,26.3l0,0.1l0.1-0.1L81.7,26.3z M81.6,34.2l0.2-0.2
	l-0.2-0.3V34.2z M81.6,41.9L81.6,41.9l0.3-0.1l-0.1,0L81.6,41.9z M81.7,36.9l0.1,0.1v-0.3L81.7,36.9z M81.7,42.3l0.1,0.2v-0.3
	L81.7,42.3z M81.8,26.1c0.2,0,0.3-0.1,0.3-0.3h-0.3V26.1z M81.8,40.1L81.8,40.1L81.8,40.1L81.8,40.1z M81.9,24l0.2-0.2h-0.2V24z
	 M81.9,28.7l0.2-0.1v-0.2L81.9,28.7z M81.9,36.4l0.1-0.1l-0.1-0.2V36.4z M81.9,37L81.9,37l0.3-0.1l0,0L81.9,37z M82,46l0.1,0.1v-0.3
	L82,46z M82.8,21.8L82.8,21.8l0.2-0.4l-0.3,0.1l-0.5-0.3l-0.1,0.2L82.8,21.8z M82.4,39.5c-0.1,0.1-0.1,0.2-0.2,0.4
	c0,0.1-0.1,0.3-0.2,0.4l1.1-0.4L82.4,39.5z M82.2,23.7l0.1-0.2l-0.1-0.2V23.7z M82.6,23.7c-0.1,0-0.2,0.1-0.3,0.2
	c0,0.2-0.1,0.3-0.1,0.4v0.3l0.5-0.9L82.6,23.7z M82.2,31.1l0.1-0.1l-0.1-0.2V31.1z M82.2,33.2l0.1-0.1l-0.1-0.2V33.2z M82.4,36.3
	c-0.1,0-0.1,0-0.2,0l0.1,0.1L82.4,36.3z M83,42.3c-0.1,0-0.2,0-0.4,0c-0.2,0-0.3,0.1-0.3,0.3l0,0.2l0.3-0.2l0.3,0.2l0.3-0.5H83z
	 M82.4,28.6c0.3,0.3,0.6,0.5,1,0.5c0-0.1-0.1-0.3-0.2-0.3c-0.1-0.1-0.2-0.2-0.2-0.3l0.2-0.5c-0.2,0-0.4,0.1-0.4,0.3
	C82.7,28.4,82.6,28.5,82.4,28.6 M82.9,38c0,0.1,0.1,0.2,0.1,0.4s0.2,0.2,0.3,0.2c0.2,0,0.5-0.1,0.7-0.3c0.2-0.2,0.3-0.4,0.3-0.6
	c-0.1-0.1-0.2-0.4-0.3-0.6c-0.2-0.3-0.3-0.4-0.5-0.4l0.2,0.5v0.1l-0.2,0.2l0.2,0.2c-0.6-0.2-1,0-1.3,0.6L82.9,38z M83.3,44.4
	c-0.6,0-0.9,0.3-0.9,1v0.2l0.5-0.4l-0.1-0.6l0.4,0.1l0.4-0.3H83.3z M82.4,36.9l0.1,0.1v-0.3L82.4,36.9z M82.4,40.9l0.1,0.1v-0.3
	L82.4,40.9z M82.6,23.2c0.1-0.1,0.2-0.2,0.3-0.5h-0.3V23.2z M82.6,27.8h0.3c-0.1-0.2-0.2-0.4-0.3-0.5V27.8z M83,24.7l-0.2-0.3
	l-0.2,0.1L83,24.7z M82.7,31.8l0.1-0.1l-0.1-0.2V31.8z M82.7,34.8l0.1-0.1l-0.1-0.2V34.8z M82.7,38.7l0.1-0.2l-0.1-0.2V38.7z
	 M82.7,47.1l0.1-0.2l-0.1-0.2V47.1z M82.7,40.5l0.1,0.2v-0.3L82.7,40.5z M83.2,21.2l0.2-0.5l0-0.3l-0.4,0.5L83.2,21.2z M82.9,26H83
	l-0.1-0.1V26z M83.3,27.2c0.1-0.2,0.2-0.3,0.4-0.5c0.2-0.2,0.3-0.3,0.5-0.5L83.8,26c-0.1,0-0.2,0-0.3,0.1c-0.1,0.1-0.1,0.2-0.1,0.3
	c0,0.1-0.1,0.2-0.1,0.3c0,0.1-0.1,0.1-0.2,0.1l-0.2,0L83.3,27.2z M83,34.8l0.1-0.1L83,34.5V34.8z M83,37.3l0.2,0.2v-0.3L83,37V37.3z
	 M83,47.2l0.1-0.1L83,46.9V47.2z M83,23.5l0.1,0.2v-0.4L83,23.5z M83,36.9l0.1,0.1v-0.3L83,36.9z M83.1,37.2
	C83.1,37.2,83.1,37.2,83.1,37.2c0,0.1-0.1,0.1-0.1,0.1C83.1,37.3,83.1,37.3,83.1,37.2C83.1,37.2,83.1,37.2,83.1,37.2 M83,45
	c0,0.2,0,0.4,0.1,0.7c0.1,0.3,0.2,0.4,0.4,0.5l-0.1-0.3c0.1-0.1,0.2-0.1,0.3-0.2l0.3-0.3C83.7,45.1,83.4,45,83,45 M83.1,42L83.1,42
	l0-0.2L83.1,42z M83.2,25.7h0.1l-0.1-0.1V25.7z M83.2,33.4l0.1,0.1v-0.3h0l-0.1-0.1V33.4z M83.3,33.2c0,0,0,0.1,0,0.2
	C83.2,33.4,83.3,33.3,83.3,33.2 M83.3,23.7l0,0.1l0.1,0C83.4,23.7,83.4,23.7,83.3,23.7L83.3,23.7z M84,29.4
	c-0.3,0.1-0.5,0.3-0.7,0.6L84,29.4z M83.3,43.9l0.1-0.1l-0.1-0.2V43.9z M83.5,27.5h0.2v-0.2h-0.2V27.5z M83.5,41.7h0.2l-0.2-0.2
	V41.7z M83.5,43.3L83.5,43.3c0.2-0.1,0.3-0.4,0.3-0.7l0-0.3L83.5,43.3z M83.5,22.8l0.1,0.2v-0.4L83.5,22.8z M83.5,31.8l0.1,0.1v-0.3
	L83.5,31.8z M83.8,24.2h0.7v-0.9h-0.8l0.3,0.4L83.8,24.2z M83.8,22.3c0.1-0.1,0.2-0.2,0.2-0.3h-0.2V22.3z M84.3,28.7
	c0-0.3-0.2-0.5-0.5-0.7v0.1L84.3,28.7z M83.8,30.8l0.2-0.2h-0.2V30.8z M83.8,34.6l0.1-0.1l-0.1-0.2V34.6z M83.8,36.4
	c0.1-0.1,0.3-0.2,0.5-0.3c0.2-0.2,0.3-0.3,0.3-0.5L83.8,36.4z M83.8,40.5c0.1,0,0.2,0,0.2-0.1v0L83.8,40.5z M83.8,40.8l0.1,0.1v-0.3
	L83.8,40.8z M83.8,46.1l0.1,0.2v-0.3L83.8,46.1z M83.9,31.1L83.9,31.1l0-0.2L83.9,31.1z M83.9,35.8v0.1V35.8L83.9,35.8z M84.3,21.5
	c0.2,0.4,0.3,0.7,0.5,1.1l0-0.1l0.4-0.3l-0.2-0.7l0.2-0.4l-0.3-0.5v-0.2c-0.2,0.1-0.3,0.2-0.4,0.3c-0.1,0.1-0.2,0.2-0.4,0.2h0.5
	l0.1,0.3L84.3,21.5z M84,27c0,0.1,0,0.1,0,0.2c0,0.1,0.1,0.2,0.1,0.2h0.2L84,26.8V27z M84.1,33.1L84.1,33.1H84H84.1L84.1,33.1
	L84.1,33.1z M84.1,22.8l0.1-0.1l-0.1-0.2V22.8z M84.1,27.9l0.1-0.1l-0.1-0.2V27.9z M84.1,31.2h0.2v-0.2L84.1,31.2z M84.3,32.3v-0.2
	h-0.2L84.3,32.3z M84.3,36.9L84.3,36.9l0.3-0.3c-0.2,0.1-0.4,0.1-0.5,0.2L84.3,36.9z M84.1,38.9l0.2-0.1h-0.2V38.9z M84.1,40.1
	l0.1-0.1l-0.1-0.2V40.1z M84.1,42.9v0.2l0.3-0.3v-0.2L84.1,42.9z M84.1,44.5l0.1-0.1l-0.1-0.2V44.5z M84.1,45.2l0.1-0.2l-0.1-0.2
	V45.2z M84.1,45.6l0.1-0.1l-0.1-0.2V45.6z M84.1,47.4l0.1-0.1l-0.1-0.2V47.4z M84.2,40.4c0,0.3,0.1,0.4,0.4,0.4
	C84.6,40.5,84.5,40.4,84.2,40.4 M84.3,46.1l0.3-0.2l-0.1-0.1h-0.2V46.1z M84.3,25.9l0.1,0.1v-0.3L84.3,25.9z M85.2,29.4
	c-0.2,0-0.4,0-0.6,0.1c-0.2,0.1-0.3,0.2-0.3,0.5c0.2-0.1,0.4-0.1,0.5-0.2C85,29.7,85.1,29.5,85.2,29.4L85.2,29.4z M84.3,43.6
	l0.1,0.1v-0.3L84.3,43.6z M84.3,45.3l0.1,0.1v-0.3L84.3,45.3z M84.4,26.3L84.4,26.3l0.2-0.2l0-0.1L84.4,26.3z M85.4,32.2
	c-0.2,0-0.4,0.1-0.6,0.2c-0.2,0.1-0.3,0.3-0.3,0.5l0,0.2c0.1-0.3,0.2-0.4,0.3-0.5c0.1-0.1,0.3-0.1,0.6-0.1V32.2z M84.8,26.9v-0.4
	l-0.3,0.2L84.8,26.9z M84.4,31.5l0.1-0.2h-0.1V31.5z M84.6,44.3L84.6,44.3h-0.1v0L84.6,44.3L84.6,44.3z M84.8,27.6L84.5,28l0,0.2
	L84.8,27.6L84.8,27.6L84.8,27.6z M84.5,31.8L84.5,31.8l0-0.2L84.5,31.8z M84.6,31.1l0.1-0.1l-0.1-0.2V31.1z M84.6,33.2l0.1,0.1
	l0.1-0.1L84.6,33.2z M84.9,34.2L84.9,34.2l-0.1-0.3L84.6,34L84.9,34.2z M84.6,36.2l0.1-0.1l-0.1-0.2V36.2z M85.2,39
	c0.2-0.1,0.5-0.2,0.7-0.2c0.2-0.1,0.3-0.3,0.3-0.6c0-0.1,0-0.1-0.1-0.3c0-0.1-0.1-0.2-0.1-0.3l-0.3,0.2l0.1,0.3l-0.1,0L85.4,38
	L85,38.1l-0.1,0l-0.1-0.3l-0.2,0.5l0.3,0.1l-0.3,0.5L85.2,39z M84.6,42l0.1-0.1l-0.1-0.2V42z M84.8,42.6L84.8,42.6l0.6-0.5h-0.2
	c-0.1,0-0.2,0-0.3,0.1c-0.1,0-0.2,0.1-0.3,0.1L84.8,42.6z M84.6,39.7l0.1,0.1v-0.3L84.6,39.7z M84.7,28.8l0.6-0.4l-0.2-0.2
	L84.7,28.8z M84.7,45.3L84.7,45.3L84.7,45.3L84.7,45.3z M84.8,34.6h0.5l-0.2-0.3L84.8,34.6z M85.2,23.5c-0.1,0-0.2,0-0.2,0.1
	c-0.1,0.1-0.1,0.2-0.1,0.2h0.4V23.5z M84.9,24.9l0.1-0.1l-0.1-0.2V24.9z M84.9,37l0.1-0.1l-0.1-0.2V37z M84.9,39.2l0.1-0.1l-0.1-0.2
	V39.2z M84.9,40.6l0.1-0.2l-0.1-0.2V40.6z M85.2,41.9h0.1l0.4-0.2c-0.1,0-0.2,0-0.2-0.1c0-0.1-0.1-0.1-0.1-0.2c0-0.1,0-0.2-0.1-0.2
	c0-0.1-0.1-0.1-0.2-0.2l-0.4,0.6L85.2,41.9z M85.2,44l0-0.2c0.1-0.1,0.2-0.2,0.2-0.4c0.1-0.1,0.1-0.2,0.1-0.4l-0.4-0.3h-0.1v0.1
	l0.3,0.2l-0.5,0.6L85.2,44z M84.9,44.8l0.1-0.1l-0.1-0.2V44.8z M84.9,46.9l0.1-0.1l-0.1-0.2V46.9z M84.9,45.2l0.1,0.1l0.1-0.1
	L85.1,45L84.9,45.2z M84.9,47.7l0.1,0.1l0.1-0.1l-0.1-0.2L84.9,47.7z M85.1,22.5c0.1,0.1,0.3,0.2,0.5,0.2l-0.3-0.3L85.1,22.5z
	 M85.1,26h0.2v-0.1L85.1,26z M85.1,33.4l0.6-0.3l-0.1-0.2L85.1,33.4z M85.1,37.3L85.1,37.3l0,0.1l0.1-0.1L85.1,37.3z M85.7,45.8h0.2
	l-0.2-0.5l0.1-0.1l-0.2,0l-0.5,0.4L85.7,45.8z M85.1,46l0.1,0.1v-0.3L85.1,46z M85.4,20h-0.1H85.4L85.4,20z M85.4,21.7
	c0.2-0.1,0.4-0.3,0.5-0.6c0.1-0.2,0.2-0.5,0.3-0.7c-0.2,0-0.4,0.1-0.6,0.3c-0.2,0.2-0.3,0.4-0.3,0.7L85.4,21.7z M85.2,39.7l0.9-0.3
	l-0.5-0.3L85.2,39.7z M85.4,40.1h-0.1H85.4L85.4,40.1z M85.4,47.7l0.2-0.3h-0.3L85.4,47.7z M85.3,47L85.3,47h0.1v0L85.3,47L85.3,47z
	 M85.3,36.4h0.4v-0.6L85.3,36.4z M85.5,21.7c0,0.2,0.1,0.4,0.3,0.5c0.2,0.1,0.4,0.1,0.5,0.1h0.1C86.3,21.9,86,21.7,85.5,21.7
	 M85.7,42.5C85.7,42.4,85.6,42.4,85.7,42.5h-0.1H85.7L85.7,42.5z M85.7,26.8l0.2,0.2v-0.3l-0.2-0.2V26.8z M85.7,41.2l0.2-0.6
	l-0.2,0.4V41.2z M85.8,42.2L85.8,42.2h-0.2H85.8L85.8,42.2z M85.8,26.7C85.8,26.7,85.8,26.7,85.8,26.7c0,0.1-0.1,0.1-0.1,0.1
	C85.7,26.8,85.8,26.8,85.8,26.7C85.8,26.7,85.8,26.7,85.8,26.7 M85.7,31.8l0.1,0.1v-0.3L85.7,31.8z M85.7,37.4l0.1,0.1v-0.3
	L85.7,37.4z M85.9,43.7L85.9,43.7h0.2C86.1,43.6,86,43.6,85.9,43.7L85.9,43.7z M86,25.4l0.1-0.1L86,25.1V25.4z M86.1,34.8
	c-0.1,0-0.1,0-0.2,0l0.1,0.1L86.1,34.8z M86,36.4l0.1-0.1L86,36.1V36.4z M86,40.3h0.2l0.2-0.4l-0.2-0.2L86,40.3z M86,40.9l0.1-0.1
	L86,40.6V40.9z M86,42.8l0.1-0.1L86,42.5V42.8z M86,44.2c0.1,0,0.1,0.1,0.2,0.1c0.1,0,0.2,0.1,0.2,0.1h0.2l-0.3-0.2H86z M86,29
	l0.1,0.1l0.1-0.1l-0.1-0.2L86,29z M86,41.2l0.1,0.2l0.1-0.2l-0.1-0.2L86,41.2z M86,44.7l0.1,0.1l0.1-0.1l-0.1-0.2L86,44.7z
	 M86.1,45.1L86.1,45.1h0.1v0L86.1,45.1L86.1,45.1z M86.1,21.4h0.5l-0.2-0.3L86.1,21.4z M86.1,23.5l0.1,0.1l0.1-0.1L86.1,23.5z
	 M86.3,29.7v-0.2h-0.2L86.3,29.7z M86.3,43.3v-0.8l-0.2,0.4L86.3,43.3z M86.2,20.6l0.1,0.1v-0.3L86.2,20.6z M86.2,28.7l0.1,0.1v-0.3
	L86.2,28.7z M86.2,37.2l0.1,0.1V37L86.2,37.2z M86.3,27.5l0.4-0.2l-0.2-0.2L86.3,27.5z M86.3,25.1h0.4c0-0.1-0.1-0.2-0.1-0.3
	c0-0.1-0.1-0.2-0.2-0.2h0V25.1z M86.3,43.9h0.3l-0.2-0.2L86.3,43.9z M86.3,45.8l0.1,0.1v-0.3h0l-0.1-0.1V45.8z M87.1,43.6L87.1,43.6
	l0.1,0.3L87.1,43.6c0.2-0.1,0.3-0.2,0.3-0.3c0-0.2,0.1-0.2,0.3-0.2v0.1l0.3-0.3l-1.2-1.3h-0.1l0.2,0.3l0,0.2h-0.5
	c0.3,0.1,0.5,0.2,0.6,0.5c0.2,0.3,0.2,0.5,0.2,0.8L87.1,43.6z M86.4,45.6c0,0,0,0.1,0,0.2C86.4,45.8,86.4,45.7,86.4,45.6 M86.5,40.5
	L86.5,40.5l0.8-0.7L86.5,40.5z M86.5,47.5h0.2l-0.2-0.1V47.5z M86.5,39.1l0.1,0.1v-0.3L86.5,39.1z M86.6,36.2l0.5,0.2V36L86.6,36.2z
	 M86.6,43.4h0.1v-0.3h-0.1V43.4z M86.8,20.4v0.2l0.3-0.3l-0.1,0L86.8,20.4z M86.9,21.1h0.2l0.3-0.5l-0.7,0.3L86.9,21.1z M86.8,21.9
	c0.1,0,0.2,0,0.2-0.1c0-0.1,0.1-0.2,0.1-0.3h-0.3V21.9z M87.2,38.6c-0.3,0.2-0.4,0.4-0.5,0.8L87.2,38.6z M86.8,38.9l0.1-0.1
	l-0.1-0.2V38.9z M86.8,45.5l0.1-0.1l-0.1-0.2V45.5z M86.8,46.6l0.1-0.1l-0.1-0.2V46.6z M87.2,24.6v-0.3l-0.3,0.2L87.2,24.6z
	 M87.2,29.4h0.2L87.1,29h-0.2L87.2,29.4z M86.9,30l0.2,0.1v-0.3l-0.2-0.1V30z M87.3,33.6l0.5-0.5l-0.1-0.2h-0.2
	c-0.1,0.1-0.2,0.1-0.3,0.2c-0.1,0.1-0.2,0.2-0.3,0.3L87.3,33.6z M86.9,37.3h0.5l-0.3-0.2l-0.2,0V37.3z M86.9,44.4l0.2,0.1v-0.3
	L86.9,44V44.4z M87.2,46.4l0.3-0.2l-0.3-0.4h0.6l-0.2-0.4c-0.1,0-0.3,0.1-0.4,0.1c-0.1,0-0.2,0.2-0.2,0.3L87.2,46.4z M87.1,29.8
	c0,0.1,0,0.1-0.1,0.2C87,29.9,87,29.9,87.1,29.8 M87,32.5l0.1,0.1v-0.3L87,32.5z M87.1,44.2c0,0.1,0,0.1-0.1,0.2
	C87,44.3,87,44.3,87.1,44.2 M87.4,25.6c-0.3,0-0.4,0.1-0.4,0.4l0.5-0.2L87.4,25.6z M87.1,40.8h0.3l-0.3-0.1V40.8z M87.2,41.1
	L87.2,41.1h-0.1H87.2L87.2,41.1z M87.2,38.2c0.1,0,0.2-0.1,0.3-0.2c0-0.1,0.1-0.2,0.2-0.3l-0.1,0L87.2,38.2z M87.2,28.2l0.1-0.1
	l-0.1-0.2V28.2z M87.2,35.4l0.1-0.1l-0.1-0.2V35.4z M87.2,40.1l0.1,0.1l0.1-0.1L87.2,40.1z M87.2,45.5l0.1-0.1l-0.1-0.2V45.5z
	 M87.3,23.9l0.1,0.1v-0.3L87.3,23.9z M87.3,40.5l0.1,0.2v-0.3L87.3,40.5z M87.3,28.7L87.3,28.7L87.3,28.7L87.3,28.7z M87.6,22h0.2
	l0.3-0.5l-0.7,0.2L87.6,22z M88.2,40.5c-0.2,0-0.4,0.1-0.5,0.2c-0.1,0.2-0.2,0.3-0.2,0.5h0.1c0.2,0,0.4-0.1,0.5-0.2
	c0.2-0.1,0.2-0.3,0.2-0.5v-0.1H88.2z M87.6,25.1l0.2,0.1v-0.3l-0.2-0.1V25.1z M88.1,28.6L88.1,28.6c0.3-0.2,0.5-0.4,0.7-0.6
	c0.2-0.2,0.3-0.4,0.3-0.8V27c-0.3,0.7-0.9,1.1-1.6,1.2L88.1,28.6z M87.6,29.7l0.1-0.1l-0.1-0.2V29.7z M88,34.5l0.2-0.2v-0.1
	l-0.3-0.3h-0.1L87.6,34v0.2L88,34.5z M87.7,35.4v-0.1h-0.2L87.7,35.4z M87.6,38.4v0.2l0.2-0.3v-0.2L87.6,38.4z M87.7,24.9
	c0,0.1,0,0.1-0.1,0.2C87.6,25.1,87.6,25,87.7,24.9 M87.6,26.8L87.6,26.8L87.6,26.8L87.6,26.8z M87.7,46.4l0,0.2
	c0.1-0.2,0.2-0.5,0.5-0.7L87.7,46.4z M87.7,27.5l0.5-0.2l-0.5-0.2V27.5z M87.7,38.9c0.3,0,0.6-0.1,0.8-0.3c0.2-0.2,0.3-0.4,0.3-0.7
	c-0.5,0-0.7,0.3-0.7,0.8h-0.4V38.9z M87.9,40.4c0.2,0,0.4-0.1,0.5-0.3c0.1-0.2,0.3-0.3,0.5-0.3l0.1,0.2l0.2-0.2
	c0-0.1-0.1-0.2-0.1-0.3c-0.1-0.1-0.1-0.2,0-0.3l0.2-0.2v-0.1H89v-0.2c-0.2,0.1-0.3,0.3-0.3,0.6c-0.1,0.3-0.2,0.5-0.4,0.5
	c-0.1,0-0.1,0-0.2,0c-0.1,0-0.1-0.1-0.2-0.1L87.7,40L87.9,40.4z M88,43.7l0.2-0.3l-0.5,0.2L88,43.7z M88,36.2c-0.1,0-0.1,0-0.2,0
	l0.1,0.1L88,36.2z M87.9,24.2l0.1,0.1l0.1-0.1L88,24L87.9,24.2z M87.9,42.3l0.1,0.2l0.1-0.2L88,42.2L87.9,42.3z M88.3,29.4l0.2-0.2
	L88,28.9V29L88.3,29.4z M88.1,32l0.1,0.1v-0.3L88.1,32z M88.1,39.1l0.1,0.1v-0.3L88.1,39.1z M88.1,45.7l0.1,0.1v-0.3L88.1,45.7z
	 M88.2,35.4l0.3-0.1h-0.3V35.4z M88.3,37.8v-0.1h-0.1L88.3,37.8z M88.6,30.1c-0.2,0.2-0.4,0.3-0.4,0.5c0.3,0,0.4-0.1,0.4-0.3
	L88.6,30.1z M88.3,32.3l0.2-0.2h-0.2V32.3z M88.4,24.5l0.1,0.1v-0.3L88.4,24.5z M88.4,44.4l0.1,0.1v-0.3L88.4,44.4z M88.4,45.5
	l0.1,0.1v-0.3L88.4,45.5z M88.5,23.6L88.5,23.6l0.3-0.1l-0.2-0.2L88.5,23.6z M88.5,26.7l0,0.1l0.2-0.3l0-0.2L88.5,26.7z M90.1,42.3
	l0.6-0.5h-0.3l0.1-0.4c0-0.1-0.1-0.1-0.1-0.2c0-0.1,0-0.1,0-0.2c0-0.3,0.1-0.5,0.3-0.7c0.2-0.2,0.3-0.4,0.3-0.7l0.5,0.3
	c0-0.3,0-0.5-0.1-0.7c-0.1-0.2-0.2-0.4-0.3-0.7l-0.3,0.3l0.1,0.4h-0.3l0.1,0.7l-0.1,0l-0.6-0.6l0,0.2L89.7,40
	c0.2,0.2,0.3,0.5,0.3,0.7l-0.2,0.1l-0.6-0.1v-0.2l-0.5-0.3c-0.1,0.1-0.1,0.3-0.2,0.4c-0.1,0.1-0.1,0.3-0.1,0.5h0.1l0,0.3v-0.3
	c0.3,0,0.6,0.1,0.9,0.2c0.3,0.1,0.5,0.3,0.5,0.7v0.7l-0.2-0.5L90.1,42.3z M89.1,34.2v-0.8c-0.1,0.1-0.1,0.3-0.3,0.4
	c-0.1,0.1-0.2,0.2-0.3,0.2L89.1,34.2z M88.6,46.6l0.2-0.2v-0.1l-0.3,0.1L88.6,46.6z M88.6,20.6l0.1-0.1l-0.1-0.2V20.6z M88.6,25.9
	l0.1-0.1l-0.1-0.2V25.9z M88.6,30.9l0.2,0.2v-0.3l-0.2-0.2V30.9z M88.6,32l0.1-0.1l-0.1-0.2V32z M88.6,43.7l0.1-0.1l-0.1-0.2V43.7z
	 M88.6,44h0.2v-0.3L88.6,44z M88.6,45.2l0.1-0.2l-0.1-0.2V45.2z M88.8,30.8C88.7,30.8,88.7,30.8,88.8,30.8c0,0.1-0.1,0.1-0.1,0.1
	C88.7,30.9,88.7,30.8,88.8,30.8C88.7,30.8,88.7,30.8,88.8,30.8 M89,23.1l0.1-0.1L89,22.8l-0.2,0.2L89,23.1z M88.9,43.5l0.1,0.1v-0.3
	L88.9,43.5z M89.4,31.3l0-0.5l0.2-0.3l-0.3-0.3l-0.2,0.8L89,31.1L89.4,31.3z M89,37.3l0.1,0.2v-0.3L89,37.3V37V37.3z M89,36.2
	L89,36.2L89,36.2L89,36.2z M89.1,37.2C89.1,37.2,89,37.3,89.1,37.2C89.1,37.3,89.1,37.3,89.1,37.2 M89.1,43.6c0,0.2,0.1,0.4,0.2,0.6
	c0.1,0.2,0.2,0.3,0.3,0.5v-0.4c0-0.1,0-0.2-0.1-0.4c0-0.1-0.1-0.3-0.1-0.3H89.1z M89.1,32.5l0.1-0.1l-0.1-0.2V32.5z M89.1,35.1
	l0.1-0.1l-0.1-0.2V35.1z M89.1,38.1h0.2V38h-0.2V38.1z M89.2,42.8l0.1,0.1v-0.3L89.2,42.8z M89.8,28.6c-0.3,0-0.4,0.1-0.5,0.3
	c-0.1,0.2-0.1,0.4-0.1,0.6c0.3,0,0.5-0.1,0.5-0.3C89.8,29.1,89.8,28.8,89.8,28.6 M89.3,32.8l0.1,0.4c0-0.1,0.1-0.2,0.1-0.3
	c0-0.1,0.1-0.2,0.1-0.3v-0.2L89.3,32.8L89.3,32.8z M89.4,36.7l0.2-0.3c0,0,0.1,0,0.1,0c0,0.1,0,0.1,0,0.1c0.4,0,0.6-0.1,0.8-0.3
	l-0.3-0.3l-0.9,0.5L89.4,36.7z M89.4,34.6l0.1-0.1l-0.1-0.2V34.6z M89.4,42.2l0.4-0.3l-0.2-0.2L89.4,42.2z M89.4,43.3h0.2v-0.2
	L89.4,43.3z M90,26c-0.1,0-0.2,0.1-0.3,0.1c-0.1,0-0.2,0.1-0.2,0.2l0.1,0l0.1,0.1L90,26z M89.5,45.7l0.1,0.1v-0.3L89.5,45.7z
	 M89.6,39.4L89.6,39.4c0,0.1,0,0.1,0,0.2L89.6,39.4L89.6,39.4z M89.6,33.9l0.4,0.3h0.4L89.6,33.9L89.6,33.9L89.6,33.9z M89.7,38.7
	L89.7,38.7h-0.1H89.7L89.7,38.7L89.7,38.7z M89.6,42.8l0.1-0.2l-0.1-0.1V42.8z M89.7,22.8h0.2v-0.2h-0.2V22.8z M89.7,31.8l0.1-0.1
	l-0.1-0.2V31.8z M89.7,37.5H90c0-0.1-0.1-0.2-0.2-0.3V37.5z M89.9,43.7l0.4-0.3h-0.6L89.9,43.7z M89.9,45.2V45h-0.2L89.9,45.2z
	 M89.8,24.8l0.1,0.1l0.1-0.1l-0.1-0.2L89.8,24.8z M89.8,28.4l0.1,0.2l0.1-0.2l-0.1-0.2L89.8,28.4z M89.8,29.7l0.1,0.1l0.1-0.1
	l-0.1-0.2L89.8,29.7z M89.8,35.8l0.1,0.1l0.1-0.1l-0.1-0.2L89.8,35.8z M89.9,24h0.2v-0.3h-0.2V24z M89.9,27.3l0.2-0.3h-0.2V27.3z
	 M90,38.8L90,38.8l0.2-0.2L90,38.8z M90.1,25.4c0.1,0.1,0.3,0.3,0.3,0.5c0.1,0.2,0.2,0.3,0.4,0.3l0.6-0.5l-0.2-0.3l-0.4,0.2
	c-0.1,0-0.2-0.1-0.4-0.1C90.3,25.4,90.1,25.4,90.1,25.4 M90.2,30c-0.1,0.2-0.1,0.4,0,0.6C90.3,30.4,90.3,30.2,90.2,30 M90.2,28.2
	l0.2-0.1h-0.2V28.2z M90.2,32.3h0.2L90.2,32V32.3z M90.2,38l0.2-0.2h-0.2V38z M90.2,38.2l0.1,0.1l0.1-0.1L90.2,38.2z M90.2,42.8
	l0.1-0.1l-0.1-0.2V42.8z M90.3,45.5l0.1,0.1v-0.3L90.3,45.5z M90.4,27c0.2,0,0.5,0,0.9-0.1c0.3-0.1,0.5-0.3,0.5-0.6l-0.3,0l-0.3,0.3
	l-0.3-0.2L90.4,27z M90.7,33.1l-0.3,0.4l0.5-0.4H90.7L90.7,33.1z M91.1,36.2c-0.1,0-0.3,0.1-0.4,0.2c-0.1,0.1-0.2,0.3-0.3,0.4
	L91.1,36.2L91.1,36.2z M90.5,43.1l0.2-0.3h-0.3L90.5,43.1z M90.4,23.3L90.4,23.3h0.2C90.6,23.3,90.6,23.2,90.4,23.3L90.4,23.3z
	 M90.4,35.1L90.4,35.1l0.2,0L90.4,35.1L90.4,35.1z M90.5,28.4l0.2-0.2h-0.2V28.4z M90.5,38.7l0.1-0.2l-0.1-0.2V38.7z M90.5,42.5h0.2
	l0.2-0.2v-0.2L90.5,42.5z M90.5,43.9l0.1-0.1l-0.1-0.2V43.9z M90.7,33.7L90.7,33.7l0-0.2L90.7,33.7z M91.2,24.8v-0.2L91,24.3
	l-0.3,0.1L91.2,24.8z M90.8,22l-0.1,0.2l0.1,0.1V22L90.8,22z M90.7,34.5l0.1,0.1v-0.3L90.7,34.5z M90.8,22.9H91l0.6-0.4l-0.2-0.1
	L90.8,22.9z M91,31.7v-0.6l-0.2,0.3L91,31.7z M90.9,41.2c0.1,0.2,0.2,0.3,0.4,0.3c0.2,0.1,0.4,0.1,0.5,0.1v-0.2
	c0-0.1-0.1-0.3-0.2-0.3c-0.1-0.1-0.2-0.2-0.2-0.4h0.1l0.3-0.6l-1,0.5l0.2,0.4L90.9,41.2z M90.9,30H91l0.2-0.2L90.9,30z M91.2,32.5
	l0.8-1.2c-0.2,0-0.4,0.1-0.6,0.2c-0.2,0.1-0.4,0.3-0.5,0.5L91.2,32.5z M91,29h0.2v-0.1L91,29z M91,33.4l0.2-0.2H91V33.4z M91,34.6
	l0.3,0.2l0.5-0.6l-0.1,0L91,34.6z M91.1,43.1L91.1,43.1L91.1,43.1C91.1,43.2,91.1,43.1,91.1,43.1L91.1,43.1z M91.2,43.8L91.2,43.8
	l-0.1-0.2l-0.1,0L91.2,43.8z M91.1,34.3L91.1,34.3L91.1,34.3L91.1,34.3z M91.6,23.4l0.2-0.3h-0.5L91.6,23.4z M91.3,27.8v0.1l0.3-0.3
	h-0.1L91.3,27.8z M91.3,30.3l0.1,0.2v-0.3L91.3,30.3z M91.3,38l0.1,0.1v-0.3L91.3,38z M91.3,41.9l0.1,0.1v-0.3L91.3,41.9z
	 M91.3,42.5l0.1,0.1v-0.3L91.3,42.5z M91.3,45.2l0.1,0.1V45L91.3,45.2z M91.6,29.8c0.1,0.2,0.1,0.4,0.1,0.6c0,0.2,0.1,0.2,0.5,0.2
	L92,30.3l0.3-0.3l-0.2-0.3l0-0.4l-0.6,0.2v0.2L91.6,29.8z M92,33.2c-0.1,0.1-0.2,0.2-0.3,0.3c-0.1,0.1-0.2,0.2-0.2,0.4l0.2,0
	l0.6-0.7L92,32.6l-0.5,0.1L92,33.2z M91.5,45.8l0.1-0.2h-0.1V45.8z M91.6,24.3v0.5h0.1l0,0.3l0-0.3c0.1-0.1,0.2-0.2,0.2-0.3
	c0-0.2,0.1-0.3,0.1-0.4L92,23.8h-0.1L91.6,24.3z M91.6,30.9l0.3,0.3v-0.3l0,0c-0.1-0.2-0.2-0.3-0.3-0.3V30.9z M91.6,38.9l0.1-0.1
	l-0.1-0.2V38.9z M91.6,45l0.1-0.1l-0.1-0.2V45z M91.7,30.8C91.7,30.8,91.7,30.8,91.7,30.8c0,0.1-0.1,0.1-0.1,0.1
	C91.7,30.9,91.7,30.8,91.7,30.8C91.7,30.8,91.7,30.8,91.7,30.8 M91.7,38l0.1,0.1l0.1-0.1l-0.1-0.2L91.7,38z M91.7,39.7l0.1,0.1
	l0.1-0.1l-0.1-0.2L91.7,39.7z M91.8,43.8c0.2,0,0.3-0.1,0.3-0.2h-0.3V43.8z M92.1,45.5h0.2l0.1-0.2l-0.1-0.5h-0.2l-0.3,0.5
	L92.1,45.5z M91.8,40.9l0.1,0.1v-0.3L91.8,40.9z M92.2,36.4L92.2,36.4c0.1-0.1,0-0.2,0-0.3c0-0.1-0.1-0.1-0.2-0.1L92.2,36.4z
	 M92,39.1l0.3,0.1v-0.1L92,38.9V39.1L92,39.1z M92.4,31.5L92,32.3l0.5-0.5c0.1,0,0.2,0,0.3,0c0.1,0.1,0.2,0.1,0.3,0.1L92.4,31.5
	L92.4,31.5z M92,40.6h0.1l0.2-0.3L92,40.6z M92.3,43.1c-0.1,0-0.2,0.1-0.3,0.2h0.3V43.1z M92.1,27l0.1-0.1l-0.1-0.2V27z M92.1,35.9
	l0.1-0.1l-0.1-0.2V35.9z M92.1,38.4l0.1-0.1l-0.1-0.2V38.4z M92.1,41.5l0.1-0.1l-0.1-0.2V41.5z M92.1,42.5l0.1-0.2l-0.1-0.2V42.5z
	 M92.1,24.2l0.1,0.1V24L92.1,24.2z M92.6,34.8v-0.2h-0.3L92.6,34.8z M92.3,39.5h0.1l0.2-0.2h-0.2L92.3,39.5z M92.6,24.6l0.2-0.5
	h-0.2l-0.2,0.2v0.1L92.6,24.6z M92.7,34l0.8-0.5l-0.2-0.3h-0.2l-0.3,0.3l-0.5,0.2v0.1L92.7,34z M92.4,40.9h0.2l0.3-0.3l-0.1,0
	L92.4,40.9z M93.1,42.2l0.2-0.8c-0.2,0-0.4,0-0.5,0.1c-0.2,0.1-0.3,0.2-0.4,0.3L93.1,42.2z M92.6,32.6l0.2,0.1l0.6-0.6L92.6,32.6
	L92.6,32.6z M92.6,44.7v0.1l0.2-0.3L92.6,44.7z M92.7,29L92.7,29l0.2-0.1v-0.2L92.7,29z M92.7,36.2L92.7,36.2l0.2-0.1L92.7,36.2z
	 M92.7,27.9h0.1v-0.1L92.7,27.9z M92.7,30.9h0.1l-0.1-0.1V30.9z M93.4,40.3l-0.3-0.5h-0.2l-0.1,0.3L93.4,40.3z M92.9,35.4l0.1-0.1
	l-0.1-0.2V35.4z M92.9,38.9l0.2,0.2v-0.3l-0.2-0.2V38.9z M93,38.7C93,38.8,93,38.8,93,38.7c0,0.1-0.1,0.1-0.1,0.1
	C93,38.9,93,38.8,93,38.7C93,38.8,93,38.8,93,38.7 M92.9,40.8l0.1,0.1v-0.3L92.9,40.8z M92.9,43.8l0.1,0.1v-0.3L92.9,43.8z M93,37
	c0,0.2,0.1,0.3,0.2,0.3V37H93z M93.6,25.4c-0.2,0-0.4,0.1-0.5,0.4h0.1C93.4,25.7,93.6,25.6,93.6,25.4 M93.1,38.3h0.3
	c-0.1-0.1-0.2-0.4-0.2-0.6h-0.1V38.3z M93.4,24.9v-0.1l-0.2-0.2v0.2L93.4,24.9z M93.2,27h0.2v-0.2h-0.2V27z M93.2,28.7l0.1-0.1
	l-0.1-0.2V28.7z M93.2,29.4h0.2l0.3-0.2h0.2l0.1,0.2l0.2-0.3L94,28.9l-0.6-0.1L93.2,29.4z M93.2,30l0.1-0.1l-0.1-0.2V30z M93.2,35.4
	l0.1-0.1l-0.1-0.2V35.4z M93.2,42.8l0.1-0.1l-0.1-0.2V42.8z M93.2,43.3l0.1-0.2l-0.1-0.2V43.3z M93.2,34.4l0.1,0.1v-0.3L93.2,34.4z
	 M93.2,36.3l0.1,0.1v-0.3L93.2,36.3z M93.2,44.2l0.1,0.2V44L93.2,44.2z M93.4,32.6l0.5,0.1v-0.4l-0.6,0.2L93.4,32.6z M93.4,39.5h0.3
	v-0.7L93.4,39.5z M93.4,44.8l0.1,0.2v-0.3L93.4,44.8v-0.3V44.8z M93.4,44.7C93.4,44.7,93.4,44.8,93.4,44.7
	C93.4,44.8,93.4,44.8,93.4,44.7 M93.5,42c-0.1,0.2-0.1,0.4,0,0.6C93.6,42.4,93.6,42.2,93.5,42 M93.5,43.9
	C93.6,43.9,93.6,43.9,93.5,43.9v-0.2V43.9z M93.5,27.2l0.1,0.1l0.1-0.1L93.7,27L93.5,27.2z M93.5,44.4l0.1,0.1l0.1-0.1l-0.1-0.2
	L93.5,44.4z M93.6,36.7c0,0.1,0.1,0.2,0.2,0.3v-0.3H93.6z M93.6,37.5L93.6,37.5c0,0.1,0,0.1,0,0.2L93.6,37.5L93.6,37.5z M93.7,33.9
	l0.2,0.3V34L93.7,33.9z M93.8,35.4L93.8,35.4L93.8,35.4C93.8,35.5,93.8,35.5,93.8,35.4L93.8,35.4z M93.7,41.4
	c0.1,0.1,0.2,0.3,0.2,0.5c0,0.2,0.1,0.4,0.2,0.4c0.1-0.2,0.3-0.5,0.4-0.8c0.1-0.3,0.2-0.5,0.2-0.8v-0.1l-0.3,0.4l-0.2-0.1
	c-0.1,0.1-0.2,0.1-0.3,0.2C93.8,41.2,93.8,41.3,93.7,41.4 M93.8,42.5L93.8,42.5v0.1V42.5L93.8,42.5L93.8,42.5z M93.8,27.3v0.2
	l0.6-0.2l-0.2-0.2L93.8,27.3z M93.8,31.8c0.1,0.1,0.3,0.1,0.4,0.2c0.1,0.1,0.2,0.2,0.2,0.4l0.3-0.4c-0.1,0-0.3-0.1-0.3-0.2
	c-0.1-0.1-0.2-0.2-0.3-0.2L93.8,31.8z M94,25.9h0.2v-0.2H94V25.9z M94.1,36.2l0.3-0.8L94,35.9v0.2L94.1,36.2z M94.1,40.1L94.1,40.1
	L94.1,40.1L94.1,40.1L94.1,40.1z M94.1,42.8L94.1,42.8L94.1,42.8L94.1,42.8L94.1,42.8z M94,29.5l0.1,0.1v-0.3L94,29.5z M94,37.4
	l0.1,0.1v-0.3L94,37.4z M94,44.2l0.1,0.2V44L94,44.2z M94.1,27.9c-0.1,0.2-0.1,0.5,0,0.7V27.9z M94.1,38.7l0,0.1l0.6-0.5l-0.1-0.1
	L94.1,38.7z M94.3,40.6h0.2v-0.2L94.3,40.6z M94.3,43.3l0.1,0.1l0.1-0.1l-0.1-0.2L94.3,43.3z M94.5,29.8V30l0.3-0.3l-0.1,0
	L94.5,29.8z M94.7,39.6l0.7-0.4l-0.4-0.1l-0.2,0.1l-0.3-0.1v0.1L94.7,39.6z M94.5,31.5l0.1,0.1v-0.3L94.5,31.5z M94.5,42.3l0.1,0.2
	v-0.3L94.5,42.3z M94.8,36.5c0.1,0,0.1-0.1,0.1-0.1c0-0.1,0-0.1,0-0.2c-0.1,0-0.1,0-0.2,0c-0.1,0-0.1,0.1-0.1,0.1L94.8,36.5z
	 M94.6,42.1l0.3-0.2l-0.3-0.2l0,0V42.1z M94.6,43.6h0.1v-0.3L94.6,43.6z M94.7,27.3c0,0.1,0,0.2,0,0.3c0,0.1,0.1,0.2,0.2,0.2
	l0.2-0.5H94.7z M94.7,34.5v0.1V34.5L94.7,34.5z M94.8,35.6l0.1-0.1l-0.1-0.2V35.6z M94.8,36.7l0.1,0.2v-0.3L94.8,36.7z M94.8,41.1
	l0.1,0.1v-0.3L94.8,41.1z M94.8,42.8l0.1,0.1v-0.3L94.8,42.8z M94.8,38.1L94.8,38.1L94.8,38.1L94.8,38.1z M94.9,30.4l0,0.1l0.6-0.3
	L95.3,30L94.9,30.4z M94.9,37.4L94.9,37.4l0.2-0.2L94.9,37.4z M95,26.3L95,26.3v0.1C95,26.4,95.1,26.4,95,26.3L95,26.3z M94.9,31.4
	l0.1-0.1h-0.1V31.4z M94.9,40c0.1,0.1,0.2,0.2,0.2,0.3c0,0.1,0.1,0.2,0.2,0.3l0.2-0.3L94.9,40z M95,25.3L95,25.3l0.1,0
	C95.1,25.3,95.1,25.3,95,25.3L95,25.3z M95.1,34.2l0.1-0.2l-0.1-0.2V34.2z M95.1,41.5l0.1-0.1l-0.1-0.2V41.5z M95.1,31.4l0.1,0.1
	v-0.3L95.1,31.4z M95.1,39.7l0.1,0.1v-0.3L95.1,39.7z M95.2,25.9h0.3l-0.3-0.3V25.9z M95.2,36.7c0.1,0.1,0.1,0.2,0.2,0.3
	c0.1,0.1,0.2,0.2,0.4,0.2c0.1,0,0.1,0,0.2-0.1c0.1,0,0.2-0.1,0.2-0.1l-0.9-0.3H95.2z M95.4,33.7L95.4,33.7v0.1V33.7L95.4,33.7z
	 M95.4,27.6l0.2,0.2c0.2,0,0.4-0.1,0.5-0.3c0.1-0.2,0.3-0.3,0.5-0.3l-0.3-0.3c-0.2,0-0.4,0.1-0.6,0.2C95.5,27.1,95.4,27.3,95.4,27.6
	L95.4,27.6z M95.4,31.8l0.1-0.1l-0.1-0.2V31.8z M95.7,35.9v-0.1l-0.2-0.2l-0.2,0.2L95.7,35.9z M95.4,37.5l0.1-0.1l-0.1-0.2V37.5z
	 M95.4,37.8c0.1,0,0.2-0.1,0.4-0.2h-0.4V37.8z M95.4,39.1l0.1-0.1l-0.1-0.2V39.1z M95.4,42.3l0.1-0.1L95.4,42V42.3z M95.5,29v0.2
	l0.2-0.2v-0.1L95.5,29z M95.5,32.5h0.3v-0.1L95.5,32.5z M95.6,28.3l0.1,0.1v-0.3L95.6,28.3z M95.6,42l0.1,0.1v-0.3L95.6,42z
	 M95.7,38.6v0.2l0.6-0.2L96,38.4L95.7,38.6z M95.8,41L95.8,41v0.1C95.8,41.2,95.9,41.1,95.8,41L95.8,41z M95.9,29.8l0.1-0.1
	l-0.1-0.2V29.8z M96.6,40c-0.4,0.1-0.6,0.2-0.8,0.5c0.1-0.1,0.3-0.1,0.5-0.1C96.5,40.3,96.6,40.2,96.6,40L96.6,40z M96.2,41.2
	c-0.1,0-0.2,0.1-0.3,0.2h0.3V41.2z M95.9,25.1l0.1,0.1v-0.3L95.9,25.1z M96,39.4L96,39.4l0-0.2L96,39.4z M96,31.5h0.1l0.2-0.2
	L96,31.5z M96.5,29.4l-0.2-0.7L96.2,29L96.5,29.4z M96.6,35.3c0,0.1-0.1,0.3-0.2,0.4c-0.1,0.1-0.2,0.2-0.2,0.4v0.1
	c0.2,0,0.4-0.1,0.4-0.4c0.1-0.2,0.1-0.4,0.1-0.6H96.6z M96.2,26.1l0.1,0.1l0.1-0.1l-0.1-0.2L96.2,26.1z M96.3,39.4
	c-0.1,0.2-0.1,0.4,0,0.6C96.4,39.8,96.4,39.6,96.3,39.4 M96.8,39.7c0.2-0.1,0.4-0.3,0.5-0.6c0.1-0.2,0.3-0.5,0.4-0.7
	c-0.2,0-0.4,0.1-0.8,0.2c-0.4,0.1-0.6,0.3-0.6,0.6L96.8,39.7z M96.4,37.5l0.1,0.2v-0.4L96.4,37.5z M96.4,38.3l0.1,0.1v-0.3
	L96.4,38.3z M96.6,28.2v-0.1h-0.1L96.6,28.2z M96.7,29.4L96.7,29.4L96.7,29.4L96.7,29.4L96.7,29.4z M96.7,37.7l0.1,0.1v-0.3
	L96.7,37.7z M96.9,35.6L96.9,35.6c0,0.1,0,0.1,0,0.2L96.9,35.6L96.9,35.6z M96.9,27.5l0.1-0.2l-0.1-0.2V27.5z M96.9,36.5l0.1-0.1
	l-0.1-0.2V36.5z M97.1,30.3l0.2-0.5h-0.2V30.3z M97.2,37.7v-0.2h-0.1L97.2,37.7z M97.1,39.8h0.1l0.4-0.2h-0.2L97.1,39.8z M97.2,28.4
	l0.1-0.1l-0.1-0.2V28.4z M97.2,35.4l0.1-0.1l-0.1-0.2V35.4z M97.3,33.7l0.1,0.1l0.1-0.1l-0.1-0.2L97.3,33.7z M97.3,36.9l0.1,0.1
	l0.1-0.1l-0.1-0.2L97.3,36.9z M97.5,30.5L97.5,30.5L97.5,30.5C97.5,30.6,97.6,30.6,97.5,30.5L97.5,30.5z M97.5,36l0.1,0.1v-0.3
	L97.5,36z M97.5,39.1l0.1,0.1v-0.3L97.5,39.1z M97.5,40.8l0.1,0.1v-0.3L97.5,40.8z M97.9,37.3c-0.1,0.1-0.2,0.2-0.3,0.3
	c-0.1,0.1-0.1,0.3-0.1,0.4l0.4-0.5V37.3z M97.7,37.2V37h-0.1L97.7,37.2z M97.8,34.9L97.8,34.9V35V34.9L97.8,34.9z M97.7,36.2h0.2
	l-0.2-0.1V36.2z M97.8,29.8l0.1,0.1v-0.3L97.8,29.8z M97.8,32.2l0.1,0.2V32L97.8,32.2z M98,29.7l0.1-0.1L98,29.4V29.7z M98.1,33.7
	l0.1,0.1l0.1-0.1l-0.1-0.2L98.1,33.7z M98.1,36.7l0.1,0.2l0.1-0.2l-0.1-0.2L98.1,36.7z M98.2,35.4l0.2,0.2v-0.3l-0.2-0.2V35.4z
	 M98.3,35.3C98.3,35.3,98.3,35.3,98.3,35.3c0,0.1-0.1,0.1-0.1,0.1C98.3,35.4,98.3,35.4,98.3,35.3C98.3,35.3,98.3,35.3,98.3,35.3
	 M98.4,32.4L98.4,32.4L98.4,32.4L98.4,32.4z"/>
<path class="st1" d="M12.4,44.5c0,0-0.3,0.3-0.6,0.2h-1.5c-0.4,0-0.6-0.2-0.6-0.2c-0.1-0.2-0.1-0.2-0.2-0.3
	c-0.1-0.1-0.3,0.1-0.4,0.2C8.4,44.8,7.6,45,6.7,45c-1.9,0-3.4-0.9-4.2-2.4c-0.7-1.3-0.9-2.5-0.9-5.4v-5.5c0-3.3,0.2-4.4,1.1-5.6
	c1-1.2,2.4-1.9,4.3-1.9c3.4,0,5.4,2.2,5.4,6c0,0.1,0,0.4-0.2,0.6c0,0-0.2,0.2-0.6,0.3h-1.5c-0.3,0-0.6-0.2-0.6-0.2
	c-0.2-0.2-0.2-0.5-0.2-0.6c-0.1-2.1-0.9-3.1-2.4-3.1c-1.7,0-2.3,1.1-2.3,4v6.1c0,3.6,0.6,4.8,2.4,4.8c1.6,0,2.3-1.2,2.3-4
	c0-0.4-0.2-0.6-0.2-0.6S9,37.3,8.6,37.3H7.7c-0.3,0-0.6-0.2-0.6-0.2s-0.2-0.2-0.2-0.6v-0.9c0-0.4,0.2-0.6,0.2-0.6s0.2-0.2,0.6-0.2h4
	c0.4,0,0.6,0.3,0.6,0.3s0.3,0.3,0.2,0.6v8.4C12.7,44.2,12.4,44.5,12.4,44.5z"/>
<path class="st1" d="M27.3,44.4c0,0-0.1,0.3-0.5,0.3h-1.7c-0.6,0-0.8-0.3-0.8-0.3s-0.2-0.3-0.3-0.6L22,37.3
	c-0.1-0.4-0.4-0.6-0.4-0.6s-0.2-0.2-0.7-0.2h-0.3c-0.4,0-0.6,0.2-0.6,0.2s-0.2,0.2-0.2,0.6v6.6c0,0.3-0.2,0.6-0.2,0.6
	s-0.2,0.2-0.6,0.2h-1.5c-0.3,0-0.6-0.2-0.6-0.2s-0.2-0.2-0.2-0.6V25.5c0-0.3,0.2-0.6,0.2-0.6s0.3-0.3,0.6-0.3h4.1
	c3.7,0,5.7,2,5.7,5.7c0,2.2-0.7,3.9-2,4.9c-0.2,0.1-0.3,0.1-0.4,0.3c0,0-0.1,0.2-0.1,0.5l2.6,7.8C27.5,44.2,27.3,44.4,27.3,44.4z
	 M21,27.5h-0.3c-0.3,0-0.6,0.2-0.6,0.2s-0.2,0.3-0.2,0.6v4.5c-0.1,0.3,0.2,0.6,0.2,0.6s0.3,0.3,0.6,0.3H21c2.4,0,3.2-0.8,3.2-3.1
	C24.2,28.3,23.4,27.5,21,27.5z"/>
<path class="st1" d="M43.2,44.5c0,0-0.2,0.2-0.6,0.2h-1.5c-0.4,0-0.6-0.3-0.6-0.3s-0.2-0.2-0.3-0.6l-0.6-2.7
	c-0.1-0.3-0.3-0.6-0.3-0.6s-0.2-0.3-0.7-0.3H36c-0.3-0.1-0.6,0.3-0.6,0.3s-0.3,0.3-0.3,0.6l-0.5,2.8c-0.1,0.3-0.3,0.5-0.3,0.5
	s-0.2,0.3-0.7,0.3h-1.5c-0.2,0-0.5-0.2-0.5-0.2s-0.2-0.2-0.1-0.6L35,25.4c0-0.3,0.2-0.5,0.2-0.5s0.3-0.2,0.7-0.2h2.7
	c0.4,0,0.7,0.2,0.7,0.2s0.2,0.3,0.3,0.6l3.7,18.4C43.4,44.3,43.2,44.5,43.2,44.5z M37.4,29.4c0-0.2-0.2-0.2-0.2-0.2s-0.1,0-0.1,0.2
	l-1.3,7.4c0,0.4,0.2,0.6,0.2,0.6s0.2,0.2,0.5,0.2h1.6c0.4,0,0.6-0.2,0.6-0.2s0.2-0.2,0.1-0.6L37.4,29.4z"/>
<path class="st1" d="M50.7,44.5c0,0-0.3,0.3-0.6,0.3h-1.5c-0.3,0-0.6-0.3-0.6-0.3s-0.2-0.3-0.2-0.5V25.5c0-0.3,0.2-0.6,0.2-0.6
	s0.2-0.2,0.6-0.2h1.5c0.3,0,0.5,0.2,0.5,0.2s0.3,0.3,0.3,0.5V44C51,44.2,50.7,44.5,50.7,44.5z"/>
<path class="st1" d="M67,44.5c0,0-0.3,0.3-0.6,0.2h-1.5c-0.5,0-0.8-0.3-0.8-0.3s-0.3-0.3-0.4-0.5l-4.4-10.4
	c-0.1-0.3-0.3-0.3-0.3-0.3s-0.1,0-0.1,0.3v10.4c0,0.3-0.2,0.6-0.2,0.6s-0.2,0.2-0.6,0.2h-1.5c-0.4,0-0.6-0.2-0.6-0.2
	s-0.2-0.3-0.2-0.6V25.5c0-0.3,0.2-0.6,0.2-0.6s0.3-0.2,0.6-0.2h1.5c0.5,0,0.8,0.3,0.8,0.3s0.3,0.3,0.4,0.5l4.4,10.5
	c0.1,0.3,0.3,0.3,0.3,0.3s0.1,0,0.1-0.3V25.5c0-0.3,0.2-0.6,0.2-0.6s0.3-0.2,0.6-0.2h1.5c0.4,0,0.6,0.2,0.6,0.2s0.3,0.3,0.2,0.6
	v18.5C67.2,44.2,67,44.5,67,44.5z"/>
<path class="st1" d="M114.3,44.5c0,0-0.3,0.3-0.6,0.2h-1.5c-0.4,0-0.6-0.2-0.6-0.2c-0.1-0.2-0.1-0.2-0.2-0.3
	c-0.1-0.1-0.3,0.1-0.4,0.2c-0.7,0.4-1.4,0.6-2.4,0.6c-1.9,0-3.4-0.9-4.2-2.4c-0.7-1.3-0.9-2.5-0.9-5.4v-5.5c0-3.3,0.2-4.4,1.1-5.6
	c1-1.2,2.4-1.9,4.3-1.9c3.4,0,5.4,2.2,5.4,6c0,0.1,0,0.4-0.2,0.6c0,0-0.2,0.2-0.6,0.3h-1.5c-0.3,0-0.6-0.2-0.6-0.2
	c-0.2-0.2-0.2-0.5-0.2-0.6c-0.1-2.1-0.9-3.1-2.4-3.1c-1.7,0-2.3,1.1-2.3,4v6.1c0,3.6,0.6,4.8,2.4,4.8c1.6,0,2.3-1.2,2.3-4
	c0-0.4-0.3-0.6-0.3-0.6s-0.2-0.2-0.6-0.2h-0.9c-0.3,0-0.6-0.2-0.6-0.2s-0.2-0.2-0.2-0.6v-0.9c0-0.4,0.2-0.6,0.2-0.6s0.2-0.2,0.6-0.2
	h4c0.4,0,0.6,0.3,0.6,0.3s0.3,0.3,0.2,0.6v8.4C114.6,44.2,114.3,44.5,114.3,44.5z"/>
<path class="st1" d="M128.7,44.4c0,0-0.1,0.3-0.5,0.3h-1.7c-0.6,0-0.8-0.3-0.8-0.3s-0.2-0.3-0.3-0.6l-2.1-6.6
	c-0.1-0.4-0.4-0.6-0.4-0.6s-0.2-0.2-0.7-0.2H122c-0.4,0-0.6,0.2-0.6,0.2s-0.2,0.2-0.2,0.6v6.6c0,0.3-0.2,0.6-0.2,0.6
	s-0.2,0.2-0.6,0.2h-1.5c-0.3,0-0.6-0.2-0.6-0.2s-0.2-0.2-0.2-0.6V25.5c0-0.3,0.2-0.6,0.2-0.6s0.3-0.3,0.6-0.3h4.1
	c3.7,0,5.7,2,5.7,5.7c0,2.2-0.7,3.9-2.1,4.9c-0.2,0.1-0.3,0.1-0.4,0.3c0,0-0.1,0.2-0.1,0.5l2.6,7.8
	C128.8,44.2,128.7,44.4,128.7,44.4z M122.3,27.5H122c-0.3,0-0.6,0.2-0.6,0.2s-0.3,0.3-0.3,0.6v4.5c-0.1,0.3,0.3,0.6,0.3,0.6
	s0.3,0.3,0.6,0.3h0.3c2.4,0,3.2-0.8,3.2-3.1C125.5,28.3,124.7,27.5,122.3,27.5z"/>
<path class="st1" d="M144.9,44.5c0,0-0.2,0.2-0.6,0.2h-1.5c-0.4,0-0.6-0.3-0.6-0.3s-0.2-0.2-0.3-0.6l-0.6-2.7
	c-0.1-0.3-0.3-0.6-0.3-0.6s-0.3-0.3-0.7-0.3h-2.7c-0.3-0.1-0.6,0.3-0.6,0.3s-0.3,0.3-0.3,0.6l-0.5,2.8c-0.1,0.3-0.3,0.5-0.3,0.5
	s-0.2,0.3-0.7,0.3h-1.5c-0.2,0-0.5-0.2-0.5-0.2s-0.2-0.2-0.1-0.6l3.6-18.5c0-0.3,0.3-0.5,0.3-0.5s0.2-0.2,0.7-0.2h2.7
	c0.4,0,0.7,0.2,0.7,0.2s0.2,0.3,0.3,0.6l3.7,18.4C145.1,44.3,144.9,44.5,144.9,44.5z M139.1,29.4c0-0.2-0.2-0.2-0.2-0.2
	s-0.1,0-0.1,0.2l-1.3,7.4c0,0.4,0.2,0.6,0.2,0.6s0.2,0.2,0.5,0.2h1.6c0.4,0,0.6-0.2,0.6-0.2s0.2-0.2,0.1-0.6L139.1,29.4z"/>
<path class="st1" d="M154.2,36.6H153c-0.3,0-0.6,0.2-0.6,0.2s-0.3,0.3-0.2,0.6v6.5c0,0.3-0.3,0.6-0.3,0.6s-0.3,0.2-0.6,0.2h-1.5
	c-0.3,0-0.5-0.2-0.5-0.2s-0.2-0.2-0.2-0.5V25.5c0-0.3,0.2-0.6,0.2-0.6s0.3-0.3,0.6-0.3h4.3c2.1,0,3.3,0.4,4.2,1.3
	c1.1,1.1,1.6,2.5,1.6,4.6C160.1,34.8,158.3,36.6,154.2,36.6z M153.5,27.5H153c-0.4,0-0.6,0.2-0.6,0.2s-0.3,0.3-0.2,0.6V33
	c0,0.4,0.2,0.6,0.2,0.6s0.2,0.2,0.6,0.2h0.6c2.5,0,3.3-0.8,3.3-3C156.8,28.3,156.1,27.5,153.5,27.5z"/>
<path class="st1" d="M172.8,44.5c0,0-0.3,0.2-0.6,0.2h-7.5c-0.4,0-0.6-0.2-0.6-0.2s-0.3-0.3-0.2-0.6V25.5c0-0.3,0.3-0.5,0.3-0.5
	s0.3-0.3,0.6-0.3h7.5c0.4,0,0.6,0.2,0.6,0.2s0.2,0.2,0.2,0.6v1.3c0,0.4-0.2,0.6-0.2,0.6s-0.2,0.2-0.6,0.2h-4.4
	c-0.3,0-0.6,0.2-0.6,0.2S167,28,167,28.5V32c0,0.3,0.2,0.6,0.2,0.6s0.2,0.2,0.6,0.2h3.7c0.4,0,0.6,0.2,0.6,0.2s0.2,0.2,0.2,0.6v1.3
	c0,0.3-0.2,0.6-0.2,0.6s-0.3,0.3-0.6,0.2h-3.8c-0.3,0-0.5,0.3-0.5,0.3s-0.2,0.2-0.2,0.6V41c0,0.4,0.2,0.6,0.2,0.6s0.2,0.2,0.6,0.2
	h4.4c0.3,0,0.6,0.3,0.6,0.3s0.2,0.2,0.2,0.6v1.2C173,44.2,172.8,44.5,172.8,44.5z"/>
<g>
	<path class="st1" d="M85.5,9.5c-1.1-1.7-1.4-3.5-0.9-5.2c0.2-0.9,0.7-1.6,0.9-2C86.1,3.2,87.7,6,85.5,9.5"/>
	<path class="st1" d="M85.8,13c0.1-2,0.8-3.6,2.2-4.8c0.7-0.6,1.5-0.9,1.9-1.1C90,8.2,89.7,11.4,85.8,13"/>
	<path class="st1" d="M85.8,17.8c0.1-2,0.9-3.6,2.3-4.8c0.7-0.6,1.5-0.9,1.9-1.1C90,13,89.6,16.2,85.8,17.8"/>
	<path class="st1" d="M85,13c-2-0.8-3.2-2.1-3.8-3.8c-0.3-0.9-0.3-1.7-0.3-2.1C81.9,7.4,84.8,8.9,85,13"/>
	<path class="st1" d="M85,17.8c-1.9-0.8-3.1-2-3.7-3.7c-0.3-0.9-0.4-1.7-0.4-2.2C81.9,12.3,84.8,13.7,85,17.8"/>
</g>
<path class="st2" d="M83.2,24.2c0.1,0,0.2-0.1,0.3-0.1c0.2,0,0.3,0,0.5,0c0.2,0,0.4,0,0.7,0c0.2,0,0.5,0,0.8,0c0.2,0,0.4,0,0.6,0
	c0.2,0,0.5,0,0.7,0c0.2,0,0.4,0,0.6,0c0.2,0,0.3,0,0.3,0.1c0.1,0.1,0.1,0.2,0.2,0.3c0,0.2,0.1,0.4,0.1,0.6c0,0.2,0,0.4,0,0.7
	c0,0.2,0,0.4,0,0.6c0,0.2,0,0.4,0,0.6c0,0.2,0,0.3-0.1,0.3c0,0-0.1,0.1-0.2,0.1c-0.1,0-0.2,0-0.3,0c-0.1,0-0.2,0-0.3,0
	c-0.1,0-0.1,0-0.2,0l0-0.1c0-0.1-0.1-0.2-0.1-0.2c0-0.1-0.1-0.2-0.1-0.2c0-0.1,0-0.1-0.1-0.2c0-0.1,0-0.1,0-0.2c0-0.1,0-0.2,0-0.3
	c0-0.1,0-0.2,0-0.2c0-0.1-0.1-0.1-0.1-0.1c-0.1,0-0.1,0.1-0.1,0.2c0,0.1,0,0.2-0.1,0.4c0,0.2,0,0.3,0,0.5c0,0.2,0,0.3,0,0.4
	c0,0.3,0,0.7,0,1.2c0,0.4,0,0.9,0,1.3c0,0.5,0,0.9,0,1.3c0,0.4,0,0.7,0,1c0,0.1,0,0.1,0.1,0.2c0,0.1,0.1,0.2,0.1,0.2
	c0,0.1,0,0.2,0,0.3c0,0.1,0,0.2,0,0.3c0,0.1,0,0.1,0.1,0.1c0,0,0.1,0,0.1,0.1c0,0,0,0.1,0,0.2c0,0.1,0,0.2,0,0.2c0,0.1,0,0.2,0,0.2
	c0,0.1,0,0.1-0.1,0.1c0,0-0.1,0.1-0.2,0.1c-0.1,0-0.2,0-0.3,0c-0.1,0-0.2,0-0.3,0h-0.2c-0.2,0-0.4,0-0.6-0.1c-0.2,0-0.3-0.1-0.3-0.2
	c0-0.1-0.1-0.2,0-0.4c0-0.2,0.1-0.3,0.1-0.5c0.1-0.2,0.1-0.3,0.2-0.5c0-0.1,0.1-0.3,0.1-0.3c0-0.3,0.1-0.7,0-1.1c0-0.4,0-0.8,0-1.2
	c0-0.5,0-1,0-1.4c0-0.5,0-0.9,0-1.3c0-0.1,0-0.2,0-0.4c0-0.2,0-0.3,0-0.4c0-0.1,0-0.2,0-0.3c0-0.1-0.1-0.1-0.2,0
	c-0.1,0.1-0.1,0.1-0.1,0.2c0,0.1-0.1,0.2-0.1,0.3c0,0.1,0,0.2,0,0.4c0,0.1,0,0.2-0.1,0.3c0,0.1-0.2,0.2-0.6,0.2c-0.1,0-0.2,0-0.3,0
	c-0.1,0-0.2,0-0.2-0.1l0-0.1c0-0.1,0-0.2-0.1-0.3c0-0.1,0-0.2-0.1-0.3c0-0.1,0-0.2,0-0.2c0-0.1,0-0.3,0-0.4c0-0.2,0-0.3,0-0.5
	c0-0.2,0-0.3,0-0.4c0-0.1,0-0.2,0-0.4c0-0.1,0-0.2,0.1-0.3C83,24.4,83.1,24.3,83.2,24.2 M85.1,35.1c0.2,0,0.5-0.1,0.8-0.1
	c0.3,0,0.5,0,0.7,0.1c0.1,0,0.1,0.1,0.2,0.1c0.1,0.1,0.1,0.1,0.2,0.2c0.1,0.1,0.2,0.2,0.2,0.2c0.1,0.1,0.1,0.2,0.2,0.2
	c0.1,0.1,0.1,0.3,0.1,0.5c0,0.2,0,0.4,0.1,0.6c0,0.2,0,0.4,0,0.7v0.7c0,0.5,0,1,0,1.5c0,0.5,0,1,0,1.5c0,0.1,0,0.2,0,0.3
	c0,0.1,0,0.2,0,0.3c0,0.1,0,0.1,0,0.2c0,0.1,0,0.1,0,0.2c0,0.1,0,0.2-0.1,0.4c0,0.1-0.1,0.3-0.1,0.5c0,0.2-0.1,0.4-0.1,0.5
	c0,0.2,0,0.3-0.1,0.3c0,0,0,0.1-0.1,0.1c0,0-0.1,0.1-0.1,0.1c-0.1,0.1-0.1,0.2-0.2,0.2c0,0.1-0.1,0.1-0.3,0.2
	c-0.1,0-0.2,0.1-0.3,0.1c-0.1,0-0.2,0.1-0.4,0.1c-0.1,0-0.3,0.1-0.5,0.1c-0.2,0-0.3,0-0.5,0c-0.1,0-0.1,0-0.2-0.1
	c-0.1,0-0.1-0.1-0.2-0.1c-0.1,0-0.2-0.1-0.2-0.1c-0.1,0-0.1,0-0.2-0.1c0,0-0.1-0.1-0.1-0.1c0,0-0.1-0.1-0.2-0.2
	c-0.1-0.1-0.2-0.3-0.2-0.4c-0.1-0.1-0.1-0.3-0.1-0.5c0-0.2,0-0.4-0.1-0.6c0-0.2,0-0.5,0-0.8c0-0.7,0-1.3,0-2c0-0.6,0-1.3,0-2.1
	c0-0.3,0-0.7,0-1c0-0.3,0-0.6,0.1-0.9c0-0.1,0.1-0.2,0.2-0.3c0.1-0.1,0.2-0.2,0.3-0.3c0.1-0.1,0.2-0.2,0.4-0.3
	c0.1-0.1,0.3-0.1,0.5-0.1H85.1z M83.7,25.6C83.7,25.5,83.7,25.6,83.7,25.6C83.6,25.6,83.6,25.6,83.7,25.6
	C83.7,25.6,83.7,25.6,83.7,25.6L83.7,25.6z M83.9,25.3C83.9,25.3,83.8,25.3,83.9,25.3C83.8,25.3,83.8,25.3,83.9,25.3
	C83.8,25.4,83.8,25.4,83.9,25.3L83.9,25.3z M83.9,24.9C83.8,24.9,83.8,24.9,83.9,24.9C83.8,25,83.8,25,83.9,24.9c0,0.2,0,0.2,0,0.2
	c0,0,0,0.1,0.1,0.1c0,0,0.1-0.1,0.1-0.2C84,25,83.9,25,83.9,24.9L83.9,24.9z M84,25.4C84,25.4,84,25.4,84,25.4
	C83.9,25.5,83.9,25.5,84,25.4C83.9,25.5,84,25.5,84,25.4L84,25.4z M84.1,25.6C84,25.5,84,25.6,84.1,25.6C84,25.6,84,25.6,84.1,25.6
	C84,25.6,84,25.6,84.1,25.6L84.1,25.6z M84.6,24.7C84.6,24.7,84.5,24.7,84.6,24.7c-0.1,0-0.1,0.1-0.1,0.1c0,0,0-0.1,0,0c0,0,0,0,0,0
	c0,0,0,0,0,0.1c0,0,0,0.1,0,0.1h-0.1c0,0.1,0,0.1,0,0.1c0,0,0,0-0.1,0l-0.1,0c0,0,0,0-0.1,0c0,0.1,0,0.1,0,0.1
	c0.1,0,0.1,0.1,0.2,0.1c0.1,0,0.1,0,0.1,0c0,0,0,0.1,0,0.1c0,0,0,0.1,0,0.1c0,0,0,0,0.1,0c0-0.1,0-0.2,0-0.2c0,0,0-0.1,0.1-0.2h0.1
	c0,0,0-0.1,0-0.1c0,0,0-0.1-0.1-0.1V24.7z M84.3,25.4C84.3,25.4,84.3,25.4,84.3,25.4C84.3,25.4,84.3,25.4,84.3,25.4
	C84.3,25.4,84.3,25.5,84.3,25.4C84.3,25.5,84.3,25.5,84.3,25.4 M84.4,25.1C84.4,25.1,84.4,25.1,84.4,25.1C84.4,25,84.4,25,84.4,25.1
	c0.1-0.1,0.1-0.2,0.1-0.3h-0.1c0,0.1,0,0.1-0.1,0.1C84.3,25,84.3,25,84.4,25.1L84.4,25.1z M84.6,25.6c0,0,0.1,0,0.1,0
	c0,0.1,0.1,0.1,0.1,0.1c0.1,0,0.1,0,0.1,0.1c0-0.1,0-0.2-0.1-0.2c-0.1,0-0.1,0-0.2,0C84.7,25.5,84.7,25.5,84.6,25.6
	C84.6,25.5,84.6,25.5,84.6,25.6C84.5,25.5,84.6,25.6,84.6,25.6 M84.9,25.4L84.9,25.4C84.8,25.3,84.8,25.3,84.9,25.4
	c-0.1,0-0.1,0-0.2,0c0,0,0,0,0,0c0,0,0,0-0.1,0c0,0.1,0,0.1,0,0.1c0,0,0.1,0,0.1,0C84.7,25.4,84.7,25.4,84.9,25.4L84.9,25.4z
	 M84.6,24.7L84.6,24.7C84.7,24.7,84.6,24.6,84.6,24.7L84.6,24.7z M85.1,25C85.1,25.1,85.1,25.1,85.1,25C85.1,25.1,85.1,25.1,85.1,25
	c-0.2,0-0.3,0-0.5,0c-0.1,0.1-0.1,0.2,0,0.2c0,0,0.1,0,0.1,0c0.1,0,0.1,0,0.2,0c0.1,0,0.1,0,0.1,0.1c-0.1,0-0.1,0-0.1,0
	c0,0,0,0.1,0,0.1H85c0,0.1,0.1,0.1,0.1,0.2c0,0.1,0.1,0.1,0.3,0.1c0,0.1-0.1,0.1-0.1,0.1c0,0.1,0.1,0.1,0.1,0.1c0,0,0.1-0.1,0.1-0.1
	c0,0,0,0.1,0,0c0,0,0,0,0,0h-0.1c0-0.1,0-0.1-0.1-0.1c0,0,0-0.1,0-0.1c0,0,0-0.1,0-0.1c0,0,0,0,0.1,0c0.1,0,0.1,0,0.1,0.1
	c0,0,0,0.1,0,0.1c0,0,0,0.1-0.1,0.1h0.1v-0.5h-0.1v-0.1c-0.1-0.1-0.1,0-0.1,0.1h0.1c0,0,0,0.1,0,0.1c0,0,0,0-0.1,0c0,0,0,0,0,0
	c0,0,0,0,0-0.1c0,0-0.1,0-0.1,0c0,0,0,0-0.1,0c0,0,0,0,0,0c0,0,0,0-0.1,0c0,0,0-0.1,0,0c0,0,0,0,0,0H85c0,0,0,0,0-0.1c0,0,0,0,0-0.1
	c0.1,0,0.1,0,0.1,0C85.2,25.1,85.2,25.1,85.1,25L85.1,25z M84.7,24.8L84.7,24.8L84.7,24.8C84.7,24.7,84.7,24.8,84.7,24.8 M84.8,24.9
	C84.8,24.9,84.8,24.9,84.8,24.9C84.7,24.9,84.7,24.9,84.8,24.9C84.7,25,84.7,25,84.8,24.9L84.8,24.9z M84.8,24.7
	C84.8,24.7,84.8,24.6,84.8,24.7C84.7,24.7,84.7,24.7,84.8,24.7L84.8,24.7z M84.7,24.8C84.7,24.8,84.7,24.8,84.7,24.8
	C84.8,24.8,84.8,24.8,84.7,24.8L84.7,24.8z M85.3,25C85.3,24.9,85.3,24.9,85.3,25c0-0.1,0-0.1,0.1-0.1c-0.1,0-0.1-0.1-0.2-0.1
	c0,0-0.1-0.1-0.1-0.1c0,0,0,0,0,0.1c0,0-0.1,0-0.1,0c0,0-0.1,0-0.1,0c0,0,0,0,0-0.1c0,0,0,0,0-0.1c0,0,0,0-0.1,0
	c0,0.1,0,0.1-0.1,0.1v0.1c0.1,0,0.2,0,0.2,0c0.1,0,0.1,0.1,0.1,0.2c0.1,0,0.1,0,0.1,0.1L85.3,25c-0.1,0.1,0,0.2,0,0.2c0,0,0,0,0,0
	c0,0,0,0,0.1-0.1c0,0,0,0,0.1,0c0,0,0.1,0,0.1,0c0,0,0.1,0,0.1,0c0,0,0.1,0,0.1,0c0,0,0.1-0.1,0.1-0.1c0,0,0,0,0.1,0c0,0,0,0,0,0.1
	C86,25,86,25,86,25.1c0,0.1,0,0.1-0.1,0.2c0.1,0,0.1,0,0.1,0c0,0,0,0.1,0,0.1h0.1c0-0.1,0-0.1,0-0.1c0,0,0,0,0,0c0,0,0,0,0,0.1
	c0,0,0,0.1,0,0.1c0,0,0.1,0,0.1,0c0,0,0.1,0,0.1,0c0,0,0-0.1,0-0.1c0,0,0,0-0.1,0c0,0-0.1,0-0.1,0c0,0,0,0,0-0.1c0,0-0.1,0-0.1,0
	c0,0-0.1,0-0.1,0c0,0,0,0,0,0c0,0,0-0.1,0.1-0.1c0,0-0.1,0-0.1-0.1c0,0,0,0-0.1-0.1c0,0,0,0,0,0.1c0,0,0,0.1-0.1,0c0,0,0-0.1,0-0.1
	c0,0,0-0.1,0-0.1c0,0,0-0.1,0-0.1c0,0-0.1-0.1-0.1-0.1c0,0.1-0.1,0.1-0.1,0.2c0,0-0.1,0.1-0.3,0.1v-0.1c0.1,0,0.1,0,0.1,0
	c0,0,0,0,0,0c0,0,0,0,0-0.1c0,0,0,0,0.1-0.1c-0.2,0-0.2,0-0.2,0.2h-0.1c0,0,0,0.1,0.1,0.1c0,0,0,0.1-0.1,0.1H85.3z M84.9,25.8
	C84.9,25.7,84.9,25.7,84.9,25.8C84.8,25.8,84.8,25.8,84.9,25.8C84.9,25.8,84.9,25.8,84.9,25.8L84.9,25.8z M84.9,25.4
	C84.9,25.4,84.9,25.4,84.9,25.4C84.9,25.4,84.9,25.4,84.9,25.4L84.9,25.4z M85,37.1c-0.1,0.2-0.1,0.5,0,0.8c0,0.3,0,0.6,0,0.9v1.8
	c0,0.3,0,0.6,0,1c0,0.4,0,0.7,0,1c0,0.3,0.1,0.6,0.1,0.7c0.1,0.2,0.2,0.3,0.4,0.3c0.1,0,0.2,0,0.3-0.1c0.1-0.1,0.1-0.2,0.2-0.3
	c0-0.1,0.1-0.3,0.1-0.5c0-0.2,0-0.4,0-0.5c0-0.4,0-0.7,0-1c0-0.3,0-0.7,0-1c0-0.3,0-0.6,0-1c0-0.3,0-0.7,0-1.1c0-0.2,0-0.4,0-0.6
	c0-0.2,0-0.4-0.1-0.5c0-0.1-0.1-0.3-0.2-0.3c-0.1-0.1-0.2-0.1-0.3,0c-0.1,0-0.2,0.1-0.2,0.2C85.1,36.9,85,37,85,37.1 M85.1,25
	L85.1,25L85.1,25L85.1,25L85.1,25z M85.1,25.9L85.1,25.9L85.1,25.9C85.1,25.8,85.1,25.8,85.1,25.9L85.1,25.9z M85.1,25.8
	C85.1,25.8,85.2,25.8,85.1,25.8c0.1-0.1,0.1-0.1,0.1-0.1c0-0.1-0.1-0.1-0.1,0C85.1,25.7,85.1,25.8,85.1,25.8 M85.2,25.4L85.2,25.4
	C85.1,25.4,85.1,25.4,85.2,25.4L85.2,25.4z M85.3,25C85.3,25,85.3,25,85.3,25C85.3,25,85.3,25,85.3,25C85.3,25,85.3,25,85.3,25
	 M85.3,26.2C85.3,26.2,85.3,26.2,85.3,26.2C85.3,26.2,85.3,26.2,85.3,26.2L85.3,26.2z M85.4,26.4C85.4,26.3,85.4,26.3,85.4,26.4
	C85.3,26.4,85.3,26.4,85.4,26.4C85.3,26.4,85.3,26.4,85.4,26.4L85.4,26.4z M85.5,24.6C85.4,24.6,85.4,24.6,85.5,24.6
	C85.4,24.6,85.4,24.6,85.5,24.6C85.4,24.6,85.4,24.6,85.5,24.6L85.5,24.6z M85.4,24.8C85.4,24.8,85.4,24.8,85.4,24.8L85.4,24.8
	L85.4,24.8z M85.5,26.1C85.5,26.1,85.5,26.1,85.5,26.1C85.4,26.1,85.4,26.1,85.5,26.1C85.5,26.2,85.5,26.2,85.5,26.1L85.5,26.1z
	 M85.6,25.9C85.6,25.9,85.6,25.9,85.6,25.9C85.5,25.9,85.5,25.9,85.6,25.9C85.5,26,85.5,26,85.6,25.9L85.6,25.9z M85.7,26
	C85.6,26,85.6,26,85.7,26C85.6,26,85.6,26.1,85.7,26C85.6,26.1,85.6,26.1,85.7,26L85.7,26z M85.7,25C85.7,25,85.7,25,85.7,25
	C85.6,25,85.6,25,85.7,25C85.6,25,85.6,25,85.7,25L85.7,25z M85.6,25.2C85.6,25.2,85.6,25.2,85.6,25.2L85.6,25.2L85.6,25.2z
	 M85.8,25.3C85.8,25.3,85.8,25.2,85.8,25.3c0-0.1,0-0.1,0-0.1c0,0,0,0-0.1,0v0.1L85.8,25.3z M85.8,25.5L85.8,25.5
	C85.7,25.4,85.7,25.4,85.8,25.5L85.8,25.5z M85.8,25.4c0.1,0,0.1,0,0.1-0.1C85.9,25.4,85.8,25.4,85.8,25.4 M85.8,25.5v0.1h0.1
	c0-0.1,0-0.1,0-0.1C85.9,25.5,85.8,25.5,85.8,25.5 M85.9,25.8C85.9,25.7,85.9,25.7,85.9,25.8C85.9,25.7,85.9,25.7,85.9,25.8
	C85.9,25.8,85.9,25.8,85.9,25.8C85.9,25.8,85.9,25.8,85.9,25.8 M85.9,25.4C86,25.4,86,25.3,85.9,25.4c0.1-0.1,0.1-0.1,0.1-0.1
	C86,25.2,85.9,25.2,85.9,25.4C85.9,25.3,85.9,25.3,85.9,25.4 M86,25.5C86,25.5,86,25.5,86,25.5C86,25.5,86,25.5,86,25.5
	C86,25.6,86,25.6,86,25.5L86,25.5z M86.1,24.6C86.1,24.6,86.1,24.6,86.1,24.6C86,24.7,86,24.7,86.1,24.6
	C86.1,24.7,86.1,24.7,86.1,24.6L86.1,24.6z M86.3,24.7C86.2,24.7,86.2,24.7,86.3,24.7C86.2,24.7,86.2,24.7,86.3,24.7
	C86.2,24.8,86.2,24.8,86.3,24.7L86.3,24.7z M86.3,25C86.2,24.9,86.2,24.9,86.3,25C86.2,24.9,86.2,24.9,86.3,25L86.3,25z M86.2,25.5
	C86.2,25.5,86.3,25.5,86.2,25.5C86.2,25.4,86.2,25.4,86.2,25.5 M86.4,24.8C86.4,24.7,86.4,24.7,86.4,24.8
	C86.3,24.8,86.3,24.8,86.4,24.8C86.3,24.8,86.3,24.8,86.4,24.8L86.4,24.8z M86.4,25.1C86.3,25.1,86.3,25.1,86.4,25.1
	C86.4,25.2,86.4,25.1,86.4,25.1 M86.5,24.9c-0.1,0-0.1,0-0.1,0c0,0.1,0,0.1,0,0.1C86.4,25.1,86.5,25,86.5,24.9 M86.6,25.3
	C86.6,25.3,86.6,25.3,86.6,25.3C86.5,25.3,86.5,25.3,86.6,25.3C86.5,25.4,86.5,25.4,86.6,25.3L86.6,25.3z M86.7,25
	C86.6,25,86.6,25,86.7,25c-0.1,0.1-0.1,0.1-0.1,0.1h0.1c0,0.1,0,0.1,0,0.1c0,0,0,0,0.1,0c0,0,0-0.1,0.1-0.1c0,0,0-0.1,0-0.1
	C86.8,25.1,86.8,25.1,86.7,25c0.1,0.1,0,0.1,0,0.1V25z M86.9,25.5C86.8,25.5,86.8,25.5,86.9,25.5C86.8,25.5,86.8,25.5,86.9,25.5
	C86.8,25.6,86.8,25.6,86.9,25.5L86.9,25.5z M86.9,25C86.9,24.9,86.9,24.9,86.9,25C86.8,25,86.8,25,86.9,25C86.9,25,86.9,25,86.9,25
	L86.9,25z M87,25.6C87,25.6,87,25.6,87,25.6C87,25.7,87,25.7,87,25.6C87,25.7,87,25.7,87,25.6L87,25.6z M87.1,25
	C87.1,25,87.1,25,87.1,25C87,25.1,87,25.1,87.1,25C87.1,25.1,87.1,25.1,87.1,25L87.1,25z M87.2,25.2C87.2,25.2,87.2,25.2,87.2,25.2
	C87.1,25.3,87.1,25.3,87.2,25.2C87.1,25.3,87.1,25.3,87.2,25.2L87.2,25.2z"/>
<path class="st1" d="M83.2,24.2c0.1,0,0.2-0.1,0.3-0.1c0.2,0,0.3,0,0.5,0c0.2,0,0.4,0,0.7,0c0.2,0,0.5,0,0.8,0c0.2,0,0.4,0,0.6,0
	c0.2,0,0.5,0,0.7,0c0.2,0,0.4,0,0.6,0c0.2,0,0.3,0,0.3,0.1c0.1,0.1,0.1,0.2,0.2,0.3c0,0.2,0.1,0.4,0.1,0.6c0,0.2,0,0.4,0,0.7
	c0,0.2,0,0.4,0,0.6c0,0.2,0,0.4,0,0.6c0,0.2,0,0.3-0.1,0.3c0,0-0.1,0.1-0.2,0.1c-0.1,0-0.2,0-0.3,0c-0.1,0-0.2,0-0.3,0
	c-0.1,0-0.1,0-0.2,0l0-0.1c0-0.1-0.1-0.2-0.1-0.2c0-0.1-0.1-0.2-0.1-0.2c0-0.1,0-0.1-0.1-0.2c0-0.1,0-0.1,0-0.2c0-0.1,0-0.2,0-0.3
	c0-0.1,0-0.2,0-0.2c0-0.1-0.1-0.1-0.1-0.1c-0.1,0-0.1,0.1-0.1,0.2c0,0.1,0,0.2-0.1,0.4c0,0.2,0,0.3,0,0.5c0,0.2,0,0.3,0,0.4
	c0,0.3,0,0.7,0,1.2c0,0.4,0,0.9,0,1.3c0,0.5,0,0.9,0,1.3c0,0.4,0,0.7,0,1c0,0.1,0,0.1,0.1,0.2c0,0.1,0.1,0.2,0.1,0.2
	c0,0.1,0,0.2,0,0.3c0,0.1,0,0.2,0,0.3c0,0.1,0,0.1,0.1,0.1c0,0,0.1,0,0.1,0.1c0,0,0,0.1,0,0.2c0,0.1,0,0.2,0,0.2c0,0.1,0,0.2,0,0.2
	c0,0.1,0,0.1-0.1,0.1c0,0-0.1,0.1-0.2,0.1c-0.1,0-0.2,0-0.3,0c-0.1,0-0.2,0-0.3,0h-0.2c-0.2,0-0.4,0-0.6-0.1c-0.2,0-0.3-0.1-0.3-0.2
	c0-0.1-0.1-0.2,0-0.4c0-0.2,0.1-0.3,0.1-0.5c0.1-0.2,0.1-0.3,0.2-0.5c0-0.1,0.1-0.3,0.1-0.3c0-0.3,0.1-0.7,0-1.1c0-0.4,0-0.8,0-1.2
	c0-0.5,0-1,0-1.4c0-0.5,0-0.9,0-1.3c0-0.1,0-0.2,0-0.4c0-0.2,0-0.3,0-0.4c0-0.1,0-0.2,0-0.3c0-0.1-0.1-0.1-0.2,0
	c-0.1,0.1-0.1,0.1-0.1,0.2c0,0.1-0.1,0.2-0.1,0.3c0,0.1,0,0.2,0,0.4c0,0.1,0,0.2-0.1,0.3c0,0.1-0.2,0.2-0.6,0.2c-0.1,0-0.2,0-0.3,0
	c-0.1,0-0.2,0-0.2-0.1l0-0.1c0-0.1,0-0.2-0.1-0.3c0-0.1,0-0.2-0.1-0.3c0-0.1,0-0.2,0-0.2c0-0.1,0-0.3,0-0.4c0-0.2,0-0.3,0-0.5
	c0-0.2,0-0.3,0-0.4c0-0.1,0-0.2,0-0.4c0-0.1,0-0.2,0.1-0.3C83,24.4,83.1,24.3,83.2,24.2 M85.1,35.1c0.2,0,0.5-0.1,0.8-0.1
	c0.3,0,0.5,0,0.7,0.1c0.1,0,0.1,0.1,0.2,0.1c0.1,0.1,0.1,0.1,0.2,0.2c0.1,0.1,0.2,0.2,0.2,0.2c0.1,0.1,0.1,0.2,0.2,0.2
	c0.1,0.1,0.1,0.3,0.1,0.5c0,0.2,0,0.4,0.1,0.6c0,0.2,0,0.4,0,0.7v0.7c0,0.5,0,1,0,1.5c0,0.5,0,1,0,1.5c0,0.1,0,0.2,0,0.3
	c0,0.1,0,0.2,0,0.3c0,0.1,0,0.1,0,0.2c0,0.1,0,0.1,0,0.2c0,0.1,0,0.2-0.1,0.4c0,0.1-0.1,0.3-0.1,0.5c0,0.2-0.1,0.4-0.1,0.5
	c0,0.2,0,0.3-0.1,0.3c0,0,0,0.1-0.1,0.1c0,0-0.1,0.1-0.1,0.1c-0.1,0.1-0.1,0.2-0.2,0.2c0,0.1-0.1,0.1-0.3,0.2
	c-0.1,0-0.2,0.1-0.3,0.1c-0.1,0-0.2,0.1-0.4,0.1c-0.1,0-0.3,0.1-0.5,0.1c-0.2,0-0.3,0-0.5,0c-0.1,0-0.1,0-0.2-0.1
	c-0.1,0-0.1-0.1-0.2-0.1c-0.1,0-0.2-0.1-0.2-0.1c-0.1,0-0.1,0-0.2-0.1c0,0-0.1-0.1-0.1-0.1c0,0-0.1-0.1-0.2-0.2
	c-0.1-0.1-0.2-0.3-0.2-0.4c-0.1-0.1-0.1-0.3-0.1-0.5c0-0.2,0-0.4-0.1-0.6c0-0.2,0-0.5,0-0.8c0-0.7,0-1.3,0-2c0-0.6,0-1.3,0-2.1
	c0-0.3,0-0.7,0-1c0-0.3,0-0.6,0.1-0.9c0-0.1,0.1-0.2,0.2-0.3c0.1-0.1,0.2-0.2,0.3-0.3c0.1-0.1,0.2-0.2,0.4-0.3
	c0.1-0.1,0.3-0.1,0.5-0.1H85.1z M83.7,25.6C83.7,25.5,83.7,25.6,83.7,25.6C83.6,25.6,83.6,25.6,83.7,25.6
	C83.7,25.6,83.7,25.6,83.7,25.6L83.7,25.6z M83.9,25.3C83.9,25.3,83.8,25.3,83.9,25.3C83.8,25.3,83.8,25.3,83.9,25.3
	C83.8,25.4,83.8,25.4,83.9,25.3L83.9,25.3z M83.9,24.9C83.8,24.9,83.8,24.9,83.9,24.9C83.8,25,83.8,25,83.9,24.9c0,0.2,0,0.2,0,0.2
	c0,0,0,0.1,0.1,0.1c0,0,0.1-0.1,0.1-0.2C84,25,83.9,25,83.9,24.9L83.9,24.9z M84,25.4C84,25.4,84,25.4,84,25.4
	C83.9,25.5,83.9,25.5,84,25.4C83.9,25.5,84,25.5,84,25.4L84,25.4z M84.1,25.6C84,25.5,84,25.6,84.1,25.6C84,25.6,84,25.6,84.1,25.6
	C84,25.6,84,25.6,84.1,25.6L84.1,25.6z M84.6,24.7C84.6,24.7,84.5,24.7,84.6,24.7c-0.1,0-0.1,0.1-0.1,0.1c0,0,0-0.1,0,0c0,0,0,0,0,0
	c0,0,0,0,0,0.1c0,0,0,0.1,0,0.1h-0.1c0,0.1,0,0.1,0,0.1c0,0,0,0-0.1,0l-0.1,0c0,0,0,0-0.1,0c0,0.1,0,0.1,0,0.1
	c0.1,0,0.1,0.1,0.2,0.1c0.1,0,0.1,0,0.1,0c0,0,0,0.1,0,0.1c0,0,0,0.1,0,0.1c0,0,0,0,0.1,0c0-0.1,0-0.2,0-0.2c0,0,0-0.1,0.1-0.2h0.1
	c0,0,0-0.1,0-0.1c0,0,0-0.1-0.1-0.1V24.7z M84.3,25.4C84.3,25.4,84.3,25.4,84.3,25.4C84.3,25.4,84.3,25.4,84.3,25.4
	C84.3,25.4,84.3,25.5,84.3,25.4C84.3,25.5,84.3,25.5,84.3,25.4 M84.4,25.1C84.4,25.1,84.4,25.1,84.4,25.1C84.4,25,84.4,25,84.4,25.1
	c0.1-0.1,0.1-0.2,0.1-0.3h-0.1c0,0.1,0,0.1-0.1,0.1C84.3,25,84.3,25,84.4,25.1L84.4,25.1z M84.6,25.6c0,0,0.1,0,0.1,0
	c0,0.1,0.1,0.1,0.1,0.1c0.1,0,0.1,0,0.1,0.1c0-0.1,0-0.2-0.1-0.2c-0.1,0-0.1,0-0.2,0C84.7,25.5,84.7,25.5,84.6,25.6
	C84.6,25.5,84.6,25.5,84.6,25.6C84.5,25.5,84.6,25.6,84.6,25.6 M84.9,25.4L84.9,25.4C84.8,25.3,84.8,25.3,84.9,25.4
	c-0.1,0-0.1,0-0.2,0c0,0,0,0,0,0c0,0,0,0-0.1,0c0,0.1,0,0.1,0,0.1c0,0,0.1,0,0.1,0C84.7,25.4,84.7,25.4,84.9,25.4L84.9,25.4z
	 M84.6,24.7L84.6,24.7C84.7,24.7,84.6,24.6,84.6,24.7L84.6,24.7z M85.1,25C85.1,25.1,85.1,25.1,85.1,25C85.1,25.1,85.1,25.1,85.1,25
	c-0.2,0-0.3,0-0.5,0c-0.1,0.1-0.1,0.2,0,0.2c0,0,0.1,0,0.1,0c0.1,0,0.1,0,0.2,0c0.1,0,0.1,0,0.1,0.1c-0.1,0-0.1,0-0.1,0
	c0,0,0,0.1,0,0.1H85c0,0.1,0.1,0.1,0.1,0.2c0,0.1,0.1,0.1,0.3,0.1c0,0.1-0.1,0.1-0.1,0.1c0,0.1,0.1,0.1,0.1,0.1c0,0,0.1-0.1,0.1-0.1
	c0,0,0,0.1,0,0c0,0,0,0,0,0h-0.1c0-0.1,0-0.1-0.1-0.1c0,0,0-0.1,0-0.1c0,0,0-0.1,0-0.1c0,0,0,0,0.1,0c0.1,0,0.1,0,0.1,0.1
	c0,0,0,0.1,0,0.1c0,0,0,0.1-0.1,0.1h0.1v-0.5h-0.1v-0.1c-0.1-0.1-0.1,0-0.1,0.1h0.1c0,0,0,0.1,0,0.1c0,0,0,0-0.1,0c0,0,0,0,0,0
	c0,0,0,0,0-0.1c0,0-0.1,0-0.1,0c0,0,0,0-0.1,0c0,0,0,0,0,0c0,0,0,0-0.1,0c0,0,0-0.1,0,0c0,0,0,0,0,0H85c0,0,0,0,0-0.1c0,0,0,0,0-0.1
	c0.1,0,0.1,0,0.1,0C85.2,25.1,85.2,25.1,85.1,25L85.1,25z M84.7,24.8L84.7,24.8L84.7,24.8C84.7,24.7,84.7,24.8,84.7,24.8 M84.8,24.9
	C84.8,24.9,84.8,24.9,84.8,24.9C84.7,24.9,84.7,24.9,84.8,24.9C84.7,25,84.7,25,84.8,24.9L84.8,24.9z M84.8,24.7
	C84.8,24.7,84.8,24.6,84.8,24.7C84.7,24.7,84.7,24.7,84.8,24.7L84.8,24.7z M84.7,24.8C84.7,24.8,84.7,24.8,84.7,24.8
	C84.8,24.8,84.8,24.8,84.7,24.8L84.7,24.8z M85.3,25C85.3,24.9,85.3,24.9,85.3,25c0-0.1,0-0.1,0.1-0.1c-0.1,0-0.1-0.1-0.2-0.1
	c0,0-0.1-0.1-0.1-0.1c0,0,0,0,0,0.1c0,0-0.1,0-0.1,0c0,0-0.1,0-0.1,0c0,0,0,0,0-0.1c0,0,0,0,0-0.1c0,0,0,0-0.1,0
	c0,0.1,0,0.1-0.1,0.1v0.1c0.1,0,0.2,0,0.2,0c0.1,0,0.1,0.1,0.1,0.2c0.1,0,0.1,0,0.1,0.1L85.3,25c-0.1,0.1,0,0.2,0,0.2c0,0,0,0,0,0
	c0,0,0,0,0.1-0.1c0,0,0,0,0.1,0c0,0,0.1,0,0.1,0c0,0,0.1,0,0.1,0c0,0,0.1,0,0.1,0c0,0,0.1-0.1,0.1-0.1c0,0,0,0,0.1,0c0,0,0,0,0,0.1
	C86,25,86,25,86,25.1c0,0.1,0,0.1-0.1,0.2c0.1,0,0.1,0,0.1,0c0,0,0,0.1,0,0.1h0.1c0-0.1,0-0.1,0-0.1c0,0,0,0,0,0c0,0,0,0,0,0.1
	c0,0,0,0.1,0,0.1c0,0,0.1,0,0.1,0c0,0,0.1,0,0.1,0c0,0,0-0.1,0-0.1c0,0,0,0-0.1,0c0,0-0.1,0-0.1,0c0,0,0,0,0-0.1c0,0-0.1,0-0.1,0
	c0,0-0.1,0-0.1,0c0,0,0,0,0,0c0,0,0-0.1,0.1-0.1c0,0-0.1,0-0.1-0.1c0,0,0,0-0.1-0.1c0,0,0,0,0,0.1c0,0,0,0.1-0.1,0c0,0,0-0.1,0-0.1
	c0,0,0-0.1,0-0.1c0,0,0-0.1,0-0.1c0,0-0.1-0.1-0.1-0.1c0,0.1-0.1,0.1-0.1,0.2c0,0-0.1,0.1-0.3,0.1v-0.1c0.1,0,0.1,0,0.1,0
	c0,0,0,0,0,0c0,0,0,0,0-0.1c0,0,0,0,0.1-0.1c-0.2,0-0.2,0-0.2,0.2h-0.1c0,0,0,0.1,0.1,0.1c0,0,0,0.1-0.1,0.1H85.3z M84.9,25.8
	C84.9,25.7,84.9,25.7,84.9,25.8C84.8,25.8,84.8,25.8,84.9,25.8C84.9,25.8,84.9,25.8,84.9,25.8L84.9,25.8z M84.9,25.4
	C84.9,25.4,84.9,25.4,84.9,25.4C84.9,25.4,84.9,25.4,84.9,25.4L84.9,25.4z M85,37.1c-0.1,0.2-0.1,0.5,0,0.8c0,0.3,0,0.6,0,0.9v1.8
	c0,0.3,0,0.6,0,1c0,0.4,0,0.7,0,1c0,0.3,0.1,0.6,0.1,0.7c0.1,0.2,0.2,0.3,0.4,0.3c0.1,0,0.2,0,0.3-0.1c0.1-0.1,0.1-0.2,0.2-0.3
	c0-0.1,0.1-0.3,0.1-0.5c0-0.2,0-0.4,0-0.5c0-0.4,0-0.7,0-1c0-0.3,0-0.7,0-1c0-0.3,0-0.6,0-1c0-0.3,0-0.7,0-1.1c0-0.2,0-0.4,0-0.6
	c0-0.2,0-0.4-0.1-0.5c0-0.1-0.1-0.3-0.2-0.3c-0.1-0.1-0.2-0.1-0.3,0c-0.1,0-0.2,0.1-0.2,0.2C85.1,36.9,85,37,85,37.1 M85.1,25
	L85.1,25L85.1,25L85.1,25L85.1,25z M85.1,25.9L85.1,25.9L85.1,25.9C85.1,25.8,85.1,25.8,85.1,25.9L85.1,25.9z M85.1,25.8
	C85.1,25.8,85.2,25.8,85.1,25.8c0.1-0.1,0.1-0.1,0.1-0.1c0-0.1-0.1-0.1-0.1,0C85.1,25.7,85.1,25.8,85.1,25.8 M85.2,25.4L85.2,25.4
	C85.1,25.4,85.1,25.4,85.2,25.4L85.2,25.4z M85.3,25C85.3,25,85.3,25,85.3,25C85.3,25,85.3,25,85.3,25C85.3,25,85.3,25,85.3,25
	 M85.3,26.2C85.3,26.2,85.3,26.2,85.3,26.2C85.3,26.2,85.3,26.2,85.3,26.2L85.3,26.2z M85.4,26.4C85.4,26.3,85.4,26.3,85.4,26.4
	C85.3,26.4,85.3,26.4,85.4,26.4C85.3,26.4,85.3,26.4,85.4,26.4L85.4,26.4z M85.5,24.6C85.4,24.6,85.4,24.6,85.5,24.6
	C85.4,24.6,85.4,24.6,85.5,24.6C85.4,24.6,85.4,24.6,85.5,24.6L85.5,24.6z M85.4,24.8C85.4,24.8,85.4,24.8,85.4,24.8L85.4,24.8
	L85.4,24.8z M85.5,26.1C85.5,26.1,85.5,26.1,85.5,26.1C85.4,26.1,85.4,26.1,85.5,26.1C85.5,26.2,85.5,26.2,85.5,26.1L85.5,26.1z
	 M85.6,25.9C85.6,25.9,85.6,25.9,85.6,25.9C85.5,25.9,85.5,25.9,85.6,25.9C85.5,26,85.5,26,85.6,25.9L85.6,25.9z M85.7,26
	C85.6,26,85.6,26,85.7,26C85.6,26,85.6,26.1,85.7,26C85.6,26.1,85.6,26.1,85.7,26L85.7,26z M85.7,25C85.7,25,85.7,25,85.7,25
	C85.6,25,85.6,25,85.7,25C85.6,25,85.6,25,85.7,25L85.7,25z M85.6,25.2C85.6,25.2,85.6,25.2,85.6,25.2L85.6,25.2L85.6,25.2z
	 M85.8,25.3C85.8,25.3,85.8,25.2,85.8,25.3c0-0.1,0-0.1,0-0.1c0,0,0,0-0.1,0v0.1L85.8,25.3z M85.8,25.5L85.8,25.5
	C85.7,25.4,85.7,25.4,85.8,25.5L85.8,25.5z M85.8,25.4c0.1,0,0.1,0,0.1-0.1C85.9,25.4,85.8,25.4,85.8,25.4 M85.8,25.5v0.1h0.1
	c0-0.1,0-0.1,0-0.1C85.9,25.5,85.8,25.5,85.8,25.5 M85.9,25.8C85.9,25.7,85.9,25.7,85.9,25.8C85.9,25.7,85.9,25.7,85.9,25.8
	C85.9,25.8,85.9,25.8,85.9,25.8C85.9,25.8,85.9,25.8,85.9,25.8 M85.9,25.4C86,25.4,86,25.3,85.9,25.4c0.1-0.1,0.1-0.1,0.1-0.1
	C86,25.2,85.9,25.2,85.9,25.4C85.9,25.3,85.9,25.3,85.9,25.4 M86,25.5C86,25.5,86,25.5,86,25.5C86,25.5,86,25.5,86,25.5
	C86,25.6,86,25.6,86,25.5L86,25.5z M86.1,24.6C86.1,24.6,86.1,24.6,86.1,24.6C86,24.7,86,24.7,86.1,24.6
	C86.1,24.7,86.1,24.7,86.1,24.6L86.1,24.6z M86.3,24.7C86.2,24.7,86.2,24.7,86.3,24.7C86.2,24.7,86.2,24.7,86.3,24.7
	C86.2,24.8,86.2,24.8,86.3,24.7L86.3,24.7z M86.3,25C86.2,24.9,86.2,24.9,86.3,25C86.2,24.9,86.2,24.9,86.3,25L86.3,25z M86.2,25.5
	C86.2,25.5,86.3,25.5,86.2,25.5C86.2,25.4,86.2,25.4,86.2,25.5 M86.4,24.8C86.4,24.7,86.4,24.7,86.4,24.8
	C86.3,24.8,86.3,24.8,86.4,24.8C86.3,24.8,86.3,24.8,86.4,24.8L86.4,24.8z M86.4,25.1C86.3,25.1,86.3,25.1,86.4,25.1
	C86.4,25.2,86.4,25.1,86.4,25.1 M86.5,24.9c-0.1,0-0.1,0-0.1,0c0,0.1,0,0.1,0,0.1C86.4,25.1,86.5,25,86.5,24.9 M86.6,25.3
	C86.6,25.3,86.6,25.3,86.6,25.3C86.5,25.3,86.5,25.3,86.6,25.3C86.5,25.4,86.5,25.4,86.6,25.3L86.6,25.3z M86.7,25
	C86.6,25,86.6,25,86.7,25c-0.1,0.1-0.1,0.1-0.1,0.1h0.1c0,0.1,0,0.1,0,0.1c0,0,0,0,0.1,0c0,0,0-0.1,0.1-0.1c0,0,0-0.1,0-0.1
	C86.8,25.1,86.8,25.1,86.7,25c0.1,0.1,0,0.1,0,0.1V25z M86.9,25.5C86.8,25.5,86.8,25.5,86.9,25.5C86.8,25.5,86.8,25.5,86.9,25.5
	C86.8,25.6,86.8,25.6,86.9,25.5L86.9,25.5z M86.9,25C86.9,24.9,86.9,24.9,86.9,25C86.8,25,86.8,25,86.9,25C86.9,25,86.9,25,86.9,25
	L86.9,25z M87,25.6C87,25.6,87,25.6,87,25.6C87,25.7,87,25.7,87,25.6C87,25.7,87,25.7,87,25.6L87,25.6z M87.1,25
	C87.1,25,87.1,25,87.1,25C87,25.1,87,25.1,87.1,25C87.1,25.1,87.1,25.1,87.1,25L87.1,25z M87.2,25.2C87.2,25.2,87.2,25.2,87.2,25.2
	C87.1,25.3,87.1,25.3,87.2,25.2C87.1,25.3,87.1,25.3,87.2,25.2L87.2,25.2z"/>
</svg>
