<?xml version="1.0" encoding="utf-8"?>
<!-- Generator: Adobe Illustrator 25.2.3, SVG Export Plug-In . SVG Version: 6.00 Build 0)  -->
<svg version="1.1" id="Layer_1" xmlns="http://www.w3.org/2000/svg" xmlns:xlink="http://www.w3.org/1999/xlink" x="0px" y="0px"
	 viewBox="0 0 265.3 76.6" style="enable-background:new 0 0 265.3 76.6;" xml:space="preserve">
<style type="text/css">
	.st0{fill:#C6D22D;}
	.st1{fill:#010202;}
	.st2{fill:#020203;}
</style>
<g id="Group_64" transform="translate(-77.385 -223.205)">
	<g id="Group_54" transform="translate(181.57 249.192)">
		<path id="Path_88" class="st0" d="M3.7,25c0-2.9,0.6-5.8,1.7-8.5c1.1-2.6,2.7-5,4.7-7c2-2,4.3-3.6,6.9-4.7
			c5.4-2.3,11.5-2.3,16.9,0c2.6,1.1,5,2.7,7,4.7c2,2,3.6,4.4,4.8,7c1.2,2.7,1.8,5.5,1.7,8.5c0,3-0.6,5.9-1.7,8.6
			c-1.1,2.6-2.7,4.9-4.7,6.9c-4.2,4.1-9.8,6.3-15.6,6.3c-2.9,0-5.8-0.6-8.5-1.7c-5.2-2.2-9.4-6.4-11.6-11.6
			C4.3,30.8,3.7,27.9,3.7,25 M5.3,22.1h0.2l-0.2-0.3V22.1z M6,27.2L6,27.2L6.2,27L6,27.2z M6,29.4h0.2v-0.2L6,29.4z M6.3,25.2
			l0.2,0.2v-0.5L6.3,25.2z M6.3,28.2l0.2,0.2V28L6.3,28.2z M6.4,26.3v0.2l0.1-0.1L6.4,26.3z M6.5,20.9c0.2,0,0.3-0.2,0.3-0.5H6.5
			V20.9z M6.5,21.8h0.3c-0.1-0.2-0.2-0.3-0.3-0.5V21.8z M6.7,22.3l0.2,0.2l0.2-0.2l-0.2-0.3L6.7,22.3z M6.9,28.6v0.3l0.5-0.5
			l-0.2-0.3L6.9,28.6z M7.1,30l1.1-0.7l0.5,0.3H9c-0.2-0.4-0.7-0.7-1.2-0.7c-0.2,0-0.4,0.1-0.5,0.2c-0.1,0.2-0.3,0.3-0.4,0.5v0.2
			L7.1,30z M7.1,21c0,0.2,0.1,0.3,0.2,0.4c0.1,0.1,0.3,0.2,0.5,0.3l0.5,0.3c0.1,0.1,0.2,0.2,0.2,0.4h0.8c-0.1-0.3-0.2-0.7-0.2-1.1
			c0-0.4,0-0.7,0-1.1H8.9l-0.3,0.4l0.2,0.8c-0.5,0-1.1-0.2-1.4-0.7L7.1,21z M7.2,19.7h0.2v-0.2L7.2,19.7z M7.2,24l0.5-0.3H7.4
			L7.2,24z M8.5,33.4l1.3-0.7l0.3-0.5h0.2L11,33c0-0.3,0.1-0.6,0.4-0.8c0.3-0.1,0.6-0.2,0.9-0.2l0.1,0.5l-0.3,0.5h0.2l0.7-0.9
			l-0.2-0.3c-0.3,0-0.6,0-0.9,0.1c-0.3,0.1-0.5,0.1-0.8,0.1l0.3-0.4l-0.7-0.9l-0.9,0.5H9.5c0.2-0.4,0.5-0.7,0.8-1
			c0.3-0.3,0.7-0.5,1.1-0.5l-0.3-0.2l0.3-0.3h-0.3l-0.5,0.3l-0.6-0.5l-0.6,0.7l0.5-0.2c0,0.5-0.2,0.8-0.5,0.8
			c-0.3,0.1-0.7,0.1-1,0.1l-0.5-0.2l-0.7,0.5l-0.2,0.5l0.7,0.9l-0.2,0.3L8.5,33.4z M7.7,27.5h0.7C8.4,27.3,8.3,27,8,27
			c0,0-0.1,0-0.1,0H7.7L7.7,27.5z M7.9,17.6c0.2-0.1,0.3-0.3,0.3-0.5H7.9V17.6z M7.9,23l0.2-0.2l-0.2-0.3V23z M7.9,30.8l1,0.5
			L9.1,32l-0.5,0.7c0.1-0.4,0-0.7-0.3-0.9C8,31.6,7.9,31.3,7.9,31L7.9,30.8z M7.9,18.8L8.1,19v-0.5L7.9,18.8z M8.1,20.2l0.7-0.5
			l-0.5-0.5L8.1,20.2z M8.1,23.5h0.2v-0.3L8.1,23.5z M8.2,28.4L8.2,28.4l0.1,0.1L8.2,28.4z M8.3,16.4c0.1,0,0.1,0,0.1-0.1
			c0,0,0,0,0,0l-0.1-0.1V16.4z M8.4,15l0.2,0.2L8.8,15l-0.2-0.3L8.4,15z M8.7,37.7l0.2,0.2v-0.5L8.7,37.7z M8.8,27.1
			c0.2,0,0.4-0.1,0.5-0.3c0.1-0.2,0.1-0.4,0.1-0.6v-0.3H8.9l0.3,0.5L8.8,27.1z M8.8,34.6l0.1,0.3l0.3-0.5l-0.1-0.2L8.8,34.6z
			 M9,35.7l0.1-0.1l-0.1-0.1L9,35.7z M9.2,14.2l-0.1,0.1l0.1,0.1l0.1-0.1L9.2,14.2z M9.1,33.6l0.2-0.2l-0.2-0.3V33.6z M9.1,17.9
			l0.2,0.2v-0.5L9.1,17.9z M9.1,27.8L9.3,28v-0.5L9.1,27.8z M9.1,36l0.2,0.2v-0.5L9.1,36z M9.1,37.4l0.2,0.3v-0.5L9.1,37.4z
			 M9.3,13.1h0.2l-0.2-0.3V13.1z M9.3,23.8l0.8-1H9.3L9.3,23.8z M9.5,35c0.3-0.2,0.6-0.4,0.9-0.6c0.3-0.2,0.5-0.5,0.6-0.8l-0.5-0.5
			l-0.3,0.5h0.3c0,0.3-0.2,0.6-0.5,0.7c-0.3,0.1-0.5,0.3-0.7,0.5L9.5,35z M9.5,18.8l0.3-0.3v-0.2L9.5,18.8z M9.5,20.4l0.2-0.2
			L9.5,20V20.4z M9.5,33.8h0.3l-0.3-0.2V33.8z M9.6,25.4l0.2,0.2l0.2-0.2l-0.2-0.3L9.6,25.4z M9.7,35.3v0.2l0.1-0.1L9.7,35.3z
			 M9.9,27.8l0.2,0.2v-0.5L9.9,27.8z M10.5,27c-0.3,0-0.4,0.1-0.5,0.3h0.5V27z M10.2,36c0.3,0,0.5-0.1,0.7-0.3
			c0.2-0.2,0.3-0.4,0.4-0.6c0.1-0.2,0.3-0.4,0.4-0.6c0.1-0.2,0.4-0.3,0.6-0.3l0.3,0.3c0.1-0.2,0.2-0.4,0.2-0.6
			c0-0.2,0.1-0.4,0.3-0.6l-0.5,0.3l-0.5-0.3l-2.1,2.4L10.2,36z M10,36.4L10,36.4l0.1,0.2l0.1-0.1L10,36.4z M10.2,37.6l0.3-0.5h-0.3
			L10,37.4L10.2,37.6z M10.5,12.8h0.2v-0.2L10.5,12.8z M10.5,16.1l0.2,0.3v-0.5L10.6,16l-0.1-0.3L10.5,16.1z M10.5,19.2l0.7-0.3H11
			L10.5,19.2z M10.6,16c0,0-0.1,0-0.1,0.1C10.6,16.1,10.6,16.1,10.6,16 M10.6,25.7c0,0.2,0,0.4,0.1,0.6c0.1,0.2,0.3,0.3,0.5,0.3
			c0-0.2-0.1-0.4-0.2-0.6C11,25.8,10.8,25.7,10.6,25.7 M10.7,14.8l0.3-0.3h-0.3V14.8z M10.7,17.8L11,18v-0.5l-0.3-0.3V17.8z
			 M10.7,24.4l0.2-0.2L10.7,24V24.4z M10.9,17.6c0,0.1-0.1,0.2-0.1,0.3C10.8,17.7,10.8,17.6,10.9,17.6 M10.8,23.5l0.2,0.2v-0.5
			L10.8,23.5z M10.9,36.9v0.2L11,37L10.9,36.9z M11.2,36.1H11l0.1,0.1L11.2,36.1z M11.7,11.7c-0.3,0-0.5,0.1-0.5,0.4
			c0,0,0,0.1,0,0.1c0.3,0,0.5-0.1,0.5-0.4C11.7,11.7,11.7,11.7,11.7,11.7 M11.2,21.3l0.2-0.2l-0.2-0.3V21.3z M11.2,21.6l0.5,0.7
			l-0.3-1L11.2,21.6z M12.3,27c-0.5-0.1-1,0.2-1.1,0.7h0.3C12,27.7,12.3,27.5,12.3,27 M11.2,19.2l0.2,0.3l0.2-0.3L11.4,19L11.2,19.2
			z M11.7,13.8l0.2-0.3l-0.2-0.5l-0.3,0.2v0.3L11.7,13.8z M11.4,37.4h0.3l-0.3-0.5V37.4z M11.5,26.1l0.2,0.3v-0.5L11.5,26.1z
			 M13.1,37.8l-0.2,0.3l-0.3-0.7l-0.2,0.1l-0.1-0.4l0.3-0.2l-0.3-0.5l-0.5,0.5l0.5,1.5h-0.9c0.2,0.1,0.4,0.2,0.6,0.4
			c0.1,0.1,0.2,0.3,0.2,0.6c0.2,0,0.4-0.1,0.6-0.2c0.2-0.1,0.4-0.2,0.6-0.2v-0.3l0.4-0.1l0.3,0.3L14,39h0.7l0.5-0.2l0.7,0.2
			l-0.1-0.3c0-0.4,0.3-0.8,0.7-1c0.4-0.2,0.7-0.6,0.7-1l0.5,0.3l0.3-0.5l-0.4-0.1l-0.7,0.2l-0.1-0.4l-0.1,0.5
			c-0.2,0.1-0.4,0.3-0.7,0.4c-0.2,0.1-0.5,0.2-0.7,0.2l-0.7-0.5c-0.5,0.3-0.9,0.6-1.2,1.1l-0.2-0.3L13.1,37.8z M11.7,28.4
			c0,0.1,0.1,0.2,0.2,0.2c0.1,0,0.2,0.1,0.3,0.1l0.1-0.1L11.7,28.4z M11.9,32.6l-0.1-0.1l-0.1,0.1l0.1,0.1L11.9,32.6z M11.9,9.4
			l0.2-0.3l-0.2-0.3V9.4z M11.9,28.2l0.2-0.2l-0.2-0.3V28.2z M11.9,30.3l0.2-0.3l-0.2-0.3V30.3z M12.2,22.1h0.2v-0.3L12.2,22.1z
			 M12.4,21.3l0.2-0.2l-0.2-0.3V21.3z M12.4,24l0.3,0.2v-0.5l-0.3-0.2V24z M12.4,31l0.2-0.2l-0.2-0.3V31z M12.4,40.5l0.2-0.3
			l-0.2-0.3V40.5z M12.4,12.9l0.2,0.2l0.2-0.2l-0.2-0.3L12.4,12.9z M12.4,22.6l0.2,0.2l0.2-0.2l-0.2-0.3L12.4,22.6z M12.6,23.7
			c0,0.1-0.1,0.2-0.1,0.3C12.4,23.9,12.5,23.8,12.6,23.7 M13.2,40.7c0.1,0.3,0.3,0.5,0.4,0.7c0.2,0.2,0.4,0.4,0.7,0.4
			c0-0.4-0.1-0.8-0.2-1.2c-0.1-0.4-0.2-0.8-0.2-1.2c-0.3,0-0.5,0.2-0.8,0.6c-0.2,0.3-0.4,0.6-0.5,0.9L13.2,40.7z M12.9,30.1
			c-0.1,0.3-0.1,0.6,0,0.9V30.1z M12.9,28.2h0.2L12.9,28V28.2z M13.3,12.2v-0.3l-0.3-0.3v0.3L13.3,12.2z M13.1,24.4l0.1,0.2l0.1-0.1
			L13.1,24.4z M13.3,25.8v-0.5l-0.3,0.3L13.3,25.8z M13.1,33.2l0.2-0.3l-0.2-0.3V33.2z M13.1,37.8l0.2-0.1
			C13.2,37.8,13.1,37.8,13.1,37.8 M13.1,41.9l0.2-0.2l-0.2-0.3V41.9z M13.2,9.1l0.2,0.3V8.8L13.2,9.1z M13.3,18.8l0.1-0.1l-0.1-0.1
			L13.3,18.8z M13.3,33.8h0.2l-0.2-0.2V33.8z M14.3,32.7l0.3-0.3l0.4,0.3l0.7-1.1h-1V31l-0.9,0.3l0.2,0.5l-0.5,0.7L14.3,32.7z
			 M13.5,13.6h0.3v-0.3L13.5,13.6z M14,22.8l0.5-0.3l-1-0.7v0.1L14,22.8z M13.6,27.8l0.2,0.2v-0.5L13.6,27.8z M15.4,32.9
			c-0.4,0.2-0.7,0.4-1.1,0.5c-0.4,0.1-0.7,0.6-0.6,1l0.8-0.6l0.7,0.3l0.5-0.5l-0.3-0.5L15.4,32.9z M13.7,33.2v0.2l0.1-0.1L13.7,33.2
			z M14,18.2h-0.2l0.1,0.1L14,18.2z M13.8,19.7l0.2-0.2h-0.2V19.7z M13.8,36.3v0.1c0.2-0.1,0.3-0.2,0.3-0.4c0-0.2,0.1-0.4,0.1-0.6
			L13.8,36.3z M13.9,27.2L13.9,27.2l0.2-0.1L14,27L13.9,27.2z M14.3,25.1v-0.3H14L14.3,25.1z M14,35.5l0.2-0.2L14,35V35.5z M14,36.9
			l0.2-0.2L14,36.5V36.9z M14.1,20.7l0.2,0.2l0.2-0.2l-0.2-0.3L14.1,20.7z M14.1,28.7l0.2,0.2l0.2-0.2l-0.2-0.3L14.1,28.7z
			 M15.1,17.9l-0.5-0.9l-0.3,0.5L15.1,17.9z M14.4,34.7l-0.1,0.1l0.1,0.1l0.1-0.1L14.4,34.7z M14.3,10.1l0.2,0.2V9.8L14.3,10.1z
			 M14.3,36l0.2,0.2v-0.5L14.3,36z M14.3,39.7l0.2,0.2v-0.5L14.3,39.7z M14.7,13.8l-0.1-0.1l-0.1,0.1v0.1l0.1,0.1L14.7,13.8z
			 M14.5,21.3l0.2,0.3v-0.5l-0.1,0.1l-0.1-0.3L14.5,21.3z M14.7,21.2c0,0-0.1,0-0.1,0.1C14.6,21.3,14.7,21.2,14.7,21.2 M14.7,7.9
			l0.2-0.2l-0.2-0.3V7.9z M14.7,25.8l0.3,0.3v-0.5l-0.3-0.3V25.8z M14.8,20.2l0.2,0.2V20L14.8,20.2z M14.9,25.6c0,0-0.1,0.1-0.1,0.1
			s0,0.1-0.1,0.1c0,0,0.1-0.1,0.1-0.1S14.9,25.6,14.9,25.6 M14.8,40.7l0.2,0.2v-0.5L14.8,40.7z M15,22.1h0.5l-0.3-0.5H15L15,22.1z
			 M15,36.5c0.2,0.1,0.4,0.2,0.6,0.2c0.2,0,0.5,0,0.7,0l-0.6-1L15,36.5z M15,40.2c0.1,0,0.2,0,0.2-0.1c0,0,0,0,0-0.1v-0.1L15,40.2z
			 M15.2,41.8l0.5-0.5l-0.5-0.5L15,41.1v0.3L15.2,41.8z M15.2,12.6l0.2-0.2l-0.2-0.3V12.6z M15.2,15.5l0.2-0.2L15.2,15V15.5z
			 M15.9,41.7c-0.3,0.2-0.6,0.5-0.7,0.9C15.5,42.4,15.8,42,15.9,41.7 M15.3,27.5l0.2,0.2l0.2-0.2l-0.2-0.3L15.3,27.5z M15.3,31.1
			l0.2,0.2l0.2-0.2l-0.2-0.3L15.3,31.1z M15.5,12.2l0.3,0.2v-0.5l-0.3-0.3V12.2z M15.7,11.9c0,0.1-0.1,0.2-0.1,0.3
			C15.5,12.1,15.6,12,15.7,11.9 M15.5,29.4l0.2,0.2v-0.5L15.5,29.4z M15.5,30.6l0.2,0.2v-0.5L15.5,30.6z M15.5,42.6l0.2,0.2v-0.5
			L15.5,42.6z M15.7,26.8l1.1-0.3H17l-0.1-0.2l-0.5-0.3L15.7,26.8z M15.9,28.4l0.1-0.1l-0.1-0.1L15.9,28.4z M16.2,7V6.7l-0.3-0.2
			v0.2L16.2,7z M17.1,12.8c-0.3,0.2-0.5,0.4-0.8,0.7c-0.3,0.2-0.4,0.5-0.4,0.9v0.1l1.2-1.2V12.8z M15.9,20.7h0.3l0.2-0.3h-0.2
			L15.9,20.7z M15.9,31.3l0.2-0.2l-0.2-0.3V31.3z M16.2,33.2h0.2l0.3-0.3h-0.7L16.2,33.2z M15.9,34.3h0.3v-0.2h-0.3V34.3z M16,8.6
			l0.2,0.2V8.4L16,8.6z M16,22.3l0.2,0.2v-0.5L16,22.3z M16,23.5l0.2,0.2v-0.5L16,23.5z M16.4,21.8L16.4,21.8l-0.2-0.4l-0.1,0.1
			L16.4,21.8z M16.2,42.6c0.2-0.1,0.3-0.3,0.3-0.5h-0.3V42.6z M16.4,16.4l0.2-0.2l-0.2-0.3V16.4z M16.4,38.6l0.2-0.2l-0.2-0.3V38.6z
			 M16.4,41.7h0.1l1.1-0.5l-0.5-0.2L16.4,41.7z M16.4,41.4l0.2-0.2l-0.2-0.3V41.4z M16.4,11.5l0.2,0.2v-0.5L16.4,11.5z M16.5,42.9
			l0.1,0.1l0.1-0.1c0-0.1,0-0.1-0.1-0.2L16.5,42.9z M16.6,36.7L16.6,36.7l0.2-0.1L16.6,36.7z M16.6,16.9l0.7-0.2l-0.7-0.3V16.9z
			 M16.6,18.9L16.6,18.9l1-0.7L17.6,18L16.6,18.9z M16.8,32.4l0.1-0.1L16.6,32v0.2L16.8,32.4z M16.6,36h0.2l-0.2-0.3V36z M16.6,39
			l0.2,0.3v-0.5l-0.1,0.1l-0.1-0.3L16.6,39z M16.8,38.9c0,0-0.1,0-0.1,0.1C16.7,39,16.8,38.9,16.8,38.9 M16.8,27.7L16.8,27.7V28
			l0.1-0.1L16.8,27.7z M16.9,8.4l0.2,0.2l0.2-0.2l-0.2-0.3L16.9,8.4z M16.9,17.1l0.2,0.2l0.2-0.2l-0.2-0.3L16.9,17.1z M16.9,26.8
			l0.2,0.2l0.2-0.2l-0.2-0.3L16.9,26.8z M16.9,29.2l0.2,0.2l0.2-0.2l-0.2-0.3L16.9,29.2z M16.9,41.9l0.2,0.2l0.2-0.2l-0.2-0.3
			L16.9,41.9z M16.9,42.6l0.2,0.2l0.2-0.2l-0.2-0.3L16.9,42.6z M17,7.6l0.1,0.1V7.4L17,7.6z M17.1,27.2l0.1,0.2l0.1-0.1L17.1,27.2z
			 M17.1,31.7l0.9-0.9l-0.5-0.3L17.1,31.7z M17.3,8.8c0,0.2,0.2,0.5,0.5,0.7V9.4c0-0.3-0.1-0.5-0.4-0.5C17.4,8.8,17.3,8.8,17.3,8.8
			 M17.9,33.4l-0.4-0.7v-0.1L17.3,33L17.9,33.4z M17.8,31.9l-0.3-0.1l-0.2,0.1H17.8L17.8,31.9z M17.4,40.2l0.2-0.3l-0.2-0.2V40.2z
			 M17.5,22.8V23l0.1-0.1L17.5,22.8z M17.6,10.7l0.2-0.2l-0.2-0.3V10.7z M17.6,42.6l0.2-0.2l-0.2-0.3V42.6z M17.8,20.7h0.5L18,20.4
			h-0.2L17.8,20.7z M18,16.7c-0.1,0.3-0.1,0.6,0,0.9C18.1,17.3,18.1,17,18,16.7 M18,18c0.1,0.2,0.3,0.3,0.5,0.3V18H18z M18,27.5h0.3
			l0.5-0.5l-0.5-0.2L18,27.5z M18,40.2c0.1,0,0.1,0,0.1-0.1c0,0,0,0,0,0L18,39.9V40.2z M18,40.9l0.2-0.2L18,40.5V40.9z M18,42.8
			L18,42.8c0.2,0,0.3-0.1,0.3-0.1c0,0,0,0,0-0.1L18,42.8z M18.1,26.3l0.2,0.2l0.2-0.2l-0.2-0.3L18.1,26.3z M18.1,35.3l0.2,0.2
			l0.2-0.2L18.3,35L18.1,35.3z M18.1,41.2l0.2,0.2l0.2-0.2l-0.2-0.3L18.1,41.2z M18.1,42.1l0.2,0.2l0.2-0.2l-0.2-0.3L18.1,42.1z
			 M18.5,9.3c-0.1,0-0.2,0.1-0.2,0.3L18.5,9.3L18.5,9.3z M19.2,33.2l0.7-0.5l0.7,0.3v0.3l0.3-0.4c-0.2-0.2-0.3-0.4-0.5-0.6
			c-0.2-0.2-0.2-0.5-0.2-0.7L19.9,32l-1.4-1.2l-0.3,0.5l0.3,0.7h0.2l0.3-0.3l0.7,0.7L19.2,33.2z M18.4,6.3l0.2,0.3V6L18.4,6.3z
			 M18.4,14.1l0.2,0.2v-0.5L18.4,14.1z M18.4,14.8l0.2,0.3v-0.5L18.4,14.8z M18.4,28.9l0.2,0.3v-0.5L18.4,28.9z M18.8,41.7
			c0.3,0,0.5-0.2,0.7-0.5c0.1-0.3,0.3-0.4,0.7-0.4l0.3-0.8h-0.2l-0.3,0.3c-0.1,0-0.3-0.1-0.6-0.2c-0.2-0.1-0.4-0.1-0.6-0.1l-0.2,0.3
			l0.5,0.6L18.8,41.7z M18.7,17.3h0.6L19,16.9L18.7,17.3z M19,7.5c0.4-0.1,0.7-0.5,0.7-0.9L19.7,6l-0.9,0.5L19,7.5z M19,8.4V7.9
			h-0.3L19,8.4z M18.8,14.2l0.1,0.2l0.1-0.1L18.8,14.2z M18.8,22.1h0.5L19,21.8L18.8,22.1z M18.8,35.7l0.2-0.2l-0.2-0.3V35.7z
			 M18.8,43l0.2-0.2l-0.2-0.3V43z M18.8,29.9l0.2,0.2v-0.5L18.8,29.9z M19,13.6c0.3,0.4,0.5,0.5,0.7,0.5c0-0.3-0.1-0.5-0.4-0.5
			c0,0-0.1,0-0.1,0H19z M19,37.1h0.2v-0.2H19V37.1z M19.2,30.5l0.2-0.2l-0.2-0.3V30.5z M19.3,10.7l0.2,0.3v-0.5L19.3,10.7z M19.4,9
			c0,0.3,0.2,0.6,0.4,0.6c0,0,0.1,0,0.1,0c0-0.3-0.2-0.6-0.4-0.6C19.5,9,19.5,9,19.4,9 M19.5,21.1h0.2l0.5-0.5l-0.3-0.3L19.5,21.1z
			 M19.5,28.6h0.5l-0.5-0.2V28.6z M19.6,41.8l0.1,0.1l0.1-0.1c0-0.1,0-0.1-0.1-0.1c0,0,0,0,0,0L19.6,41.8z M19.7,15.5l0.2-0.2
			L19.7,15V15.5z M19.7,38.8l0.2-0.3l-0.2-0.3V38.8z M19.7,34.6l0.2,0.3l0.2-0.3l-0.2-0.3L19.7,34.6z M19.7,36.3l0.2,0.2l0.2-0.2
			L19.9,36L19.7,36.3z M19.8,14.4l0.1,0.1v-0.2L19.8,14.4z M20.5,7.1l-0.5,0.5l0.3,0.1l0.9-0.5l-0.6-0.7l-0.3,0.3L20.5,7.1z
			 M20,13.2L20,13.2l0.1,0.2l0.1-0.1L20,13.2z M19.9,25.1l0.3-0.3l-0.3-0.5V25.1z M19.9,36.7l0.1,0.1l0.3-0.3l-0.1-0.1L19.9,36.7z
			 M20,29.2l0.2,0.2v-0.5L20,29.2z M20,37.4l0.2,0.3v-0.5L20,37.4z M20.2,12.9c0.3,0,0.5-0.1,0.5-0.4c0,0,0-0.1,0-0.1h-0.5V12.9z
			 M20.3,34L20.3,34l0.1,0.1L20.3,34z M20.4,9.8l0.3-0.3h-0.3V9.8z M20.4,16.9l0.3-0.2v-0.2L20.4,16.9z M20.4,28.4l0.2-0.2L20.4,28
			V28.4z M20.4,29.3l0.1,0.1l0.3-0.3l-0.1-0.1L20.4,29.3z M20.5,42.8l0.2,0.2v-0.5L20.5,42.8z M21.7,6.5h0.1l0.2-0.7L21.6,6
			l-0.7-0.5l-0.2,0.3L21.7,6.5z M21.1,33.2c-0.1,0.2-0.2,0.4-0.2,0.6c0,0.2-0.1,0.4-0.2,0.6l1.6-0.7L21.1,33.2z M20.9,9.4l0.2-0.3
			l-0.2-0.3V9.4z M21.4,9.3c-0.2,0-0.4,0.2-0.4,0.4c-0.1,0.2-0.1,0.4-0.1,0.6v0.5l0.7-1.4L21.4,9.3z M20.9,20.4l0.2-0.2l-0.2-0.3
			V20.4z M20.9,23.7l0.2-0.2l-0.2-0.3V23.7z M21.1,28.4c-0.1,0-0.2,0-0.3,0.1l0.1,0.1L21.1,28.4z M22,37.4c-0.2,0-0.4,0-0.6,0.1
			c-0.3,0-0.4,0.2-0.4,0.4l0.1,0.3l0.5-0.3l0.5,0.3l0.5-0.7H22z M21.1,16.7c0.4,0.5,0.9,0.7,1.5,0.7c0-0.2-0.1-0.4-0.3-0.5
			c-0.2-0.1-0.3-0.3-0.3-0.5l0.3-0.7c-0.3,0-0.6,0.1-0.7,0.4C21.6,16.4,21.4,16.6,21.1,16.7 M21.8,30.8c0.1,0.2,0.1,0.4,0.2,0.6
			c0.1,0.2,0.2,0.3,0.5,0.3c0.4,0,0.7-0.1,1-0.4c0.3-0.2,0.5-0.6,0.5-0.9c-0.1-0.3-0.3-0.6-0.5-1c-0.2-0.4-0.5-0.6-0.8-0.6l0.3,0.8
			v0.2l-0.3,0.3l0.3,0.3c-0.7-0.3-1.6,0.1-1.9,0.8c0,0,0,0.1,0,0.1L21.8,30.8z M22.5,40.5c-0.9,0-1.4,0.5-1.4,1.5v0.3l0.7-0.7
			l-0.2-0.9l0.6,0.1l0.5-0.5H22.5z M21.2,29.2l0.2,0.2v-0.5L21.2,29.2z M21.2,35.3l0.2,0.2V35L21.2,35.3z M21.4,8.6
			c0.2-0.2,0.3-0.5,0.5-0.7h-0.5V8.6z M21.4,15.5h0.5c-0.1-0.3-0.3-0.5-0.5-0.7V15.5z M22.1,10.8l-0.3-0.5l-0.3,0.2L22.1,10.8z
			 M21.5,21.6l0.2-0.2l-0.2-0.3V21.6z M21.5,26.1l0.2-0.2l-0.2-0.3V26.1z M21.5,32l0.2-0.3l-0.2-0.3V32z M21.5,44.5l0.2-0.3L21.5,44
			V44.5z M21.6,34.6l0.2,0.3v-0.5L21.6,34.6z M22.3,5.6l0.3-0.7l-0.1-0.5l-0.7,0.7L22.3,5.6z M21.8,12.9H22l-0.2-0.2V12.9z
			 M22.4,14.6c0.1-0.3,0.3-0.6,0.5-0.8c0.3-0.2,0.5-0.5,0.7-0.7l-0.5-0.3c-0.2,0-0.3,0.1-0.4,0.2c-0.1,0.1-0.2,0.3-0.2,0.4
			c0,0.1-0.1,0.3-0.2,0.4c0,0.1-0.2,0.2-0.3,0.2L21.8,14L22.4,14.6z M22,26.1l0.2-0.2L22,25.6V26.1z M22,29.8l0.3,0.3v-0.5L22,29.4
			L22,29.8z M22,44.7l0.2-0.2L22,44.2V44.7z M22.1,9.1l0.2,0.3V8.8L22.1,9.1z M22.1,29.2l0.2,0.2v-0.5L22.1,29.2z M22.2,29.6
			c0,0-0.1,0.1-0.1,0.1s0,0.1-0.1,0.1c0,0,0.1-0.1,0.1-0.1S22.2,29.7,22.2,29.6 M22.1,41.3c0,0.3,0.1,0.7,0.1,1
			c0,0.3,0.2,0.6,0.5,0.7l-0.1-0.5c0.2-0.1,0.3-0.2,0.5-0.3l0.4-0.4C23.1,41.5,22.6,41.3,22.1,41.3 M22.2,36.9l0.1-0.1l-0.1-0.1
			L22.2,36.9z M22.3,12.4h0.2l-0.2-0.2V12.4z M22.3,24l0.2,0.2v-0.5h-0.1l-0.1-0.2L22.3,24z M22.4,23.7c-0.1,0.1-0.1,0.2-0.1,0.3
			C22.4,23.9,22.4,23.8,22.4,23.7 M22.4,9.4l0.1,0.2l0.1-0.1C22.6,9.4,22.6,9.4,22.4,9.4C22.5,9.4,22.5,9.4,22.4,9.4L22.4,9.4z
			 M23.5,17.9c-0.5,0.1-0.8,0.5-1,0.9L23.5,17.9z M22.5,39.8l0.2-0.2l-0.2-0.3V39.8z M22.7,15H23v-0.3h-0.3V15z M22.7,36.5H23
			l-0.3-0.3V36.5z M22.7,38.9V39c0.3-0.3,0.5-0.7,0.5-1.2l-0.1-0.5L22.7,38.9z M22.8,7.9L23,8.2V7.7L22.8,7.9z M22.8,21.6l0.2,0.2
			v-0.5L22.8,21.6z M23.2,10h1V8.6H23l0.5,0.7L23.2,10z M23.2,7.2c0.2-0.1,0.3-0.2,0.3-0.5h-0.3V7.2z M24,16.9c0-0.5-0.3-0.9-0.8-1
			v0.2L24,16.9z M23.2,20l0.3-0.3h-0.3V20z M23.2,25.8l0.2-0.2l-0.2-0.3V25.8z M23.2,28.4c0.3-0.1,0.5-0.3,0.7-0.5
			c0.2-0.2,0.4-0.4,0.5-0.7L23.2,28.4z M23.2,34.6c0.2,0,0.3-0.1,0.3-0.2v-0.1L23.2,34.6z M23.3,35.1l0.2,0.2v-0.5L23.3,35.1z
			 M23.3,43l0.2,0.3v-0.5L23.3,43z M23.4,20.4l0.1-0.1l-0.1-0.1L23.4,20.4z M23.4,27.5v0.2l0.1-0.1L23.4,27.5z M23.9,6
			c0.3,0.6,0.5,1.1,0.7,1.6l-0.1-0.2l0.6-0.5l-0.3-1l0.3-0.6l-0.5-0.7V4.4c-0.2,0.1-0.4,0.3-0.6,0.4c-0.2,0.1-0.4,0.2-0.6,0.3h0.8
			l0.1,0.5L23.9,6z M23.4,14.3c0,0.1,0,0.2,0.1,0.4c0,0.1,0.1,0.2,0.1,0.4h0.3l-0.5-1V14.3z M23.6,23.4l-0.1-0.1l-0.1,0.1l0.1,0.1
			L23.6,23.4L23.6,23.4z M23.6,7.9l0.2-0.2l-0.2-0.3V7.9z M23.6,15.7l0.2-0.2l-0.2-0.3V15.7z M23.6,20.7h0.3v-0.3L23.6,20.7z
			 M23.9,22.3v-0.3h-0.3L23.9,22.3z M23.9,29.2H24l0.4-0.5c-0.3,0.1-0.5,0.1-0.8,0.3L23.9,29.2z M23.6,32.2l0.3-0.2h-0.3V32.2z
			 M23.6,34.1l0.2-0.2l-0.2-0.3V34.1z M23.6,38.3v0.3l0.5-0.5v-0.3L23.6,38.3z M23.6,40.7l0.2-0.2l-0.2-0.3V40.7z M23.6,41.7
			l0.2-0.3l-0.2-0.3V41.7z M23.6,42.3l0.2-0.2l-0.2-0.3V42.3z M23.6,44.9l0.2-0.2l-0.2-0.3V44.9z M23.8,34.5c0,0.3,0.2,0.6,0.4,0.6
			c0,0,0.1,0,0.1,0c0-0.3-0.2-0.6-0.4-0.6C23.9,34.5,23.9,34.5,23.8,34.5 M23.9,43l0.5-0.3l-0.2-0.2h-0.3L23.9,43z M24,12.6l0.2,0.2
			v-0.5L24,12.6z M25.4,18c-0.3,0-0.6,0.1-0.9,0.2c-0.3,0.1-0.5,0.4-0.5,0.7c0.3-0.1,0.5-0.2,0.8-0.4c0.3-0.1,0.5-0.4,0.6-0.6
			L25.4,18z M24,39.3l0.2,0.2V39L24,39.3z M24,41.9l0.2,0.2v-0.5L24,41.9z M24.1,13.2L24.1,13.2l0.3-0.3l-0.1-0.1L24.1,13.2z
			 M25.6,22.1c-0.3,0-0.7,0.1-1,0.3c-0.3,0.2-0.5,0.5-0.5,0.8l0.1,0.3c0.1-0.3,0.3-0.6,0.5-0.7c0.3-0.1,0.6-0.1,0.9-0.1V22.1z
			 M24.6,14.1v-0.5l-0.5,0.3L24.6,14.1z M24.2,21.1l0.2-0.3h-0.2V21.1z M24.4,40.4l-0.1-0.1l-0.1,0.1v0.1l0.1,0.1L24.4,40.4z
			 M24.8,15.2l-0.5,0.6l0.1,0.3l0.5-0.8L24.8,15.2L24.8,15.2z M24.3,21.6l0.1-0.1l-0.1-0.1L24.3,21.6z M24.4,20.4l0.2-0.2l-0.2-0.3
			V20.4z M24.4,23.6l0.1,0.2l0.1-0.1L24.4,23.6z M24.8,25.1l0.1-0.1l-0.3-0.4l-0.3,0.3L24.8,25.1z M24.4,28.2l0.2-0.2l-0.2-0.3V28.2
			z M25.3,32.3c0.4-0.1,0.7-0.3,1-0.4c0.3-0.1,0.5-0.4,0.5-0.9c0-0.1,0-0.3-0.1-0.4c-0.1-0.2-0.1-0.3-0.2-0.4L26,30.5l0.2,0.5
			L26,31.1l-0.5-0.3L25,31.1L24.8,31l-0.2-0.5l-0.3,0.7l0.5,0.2l-0.5,0.7L25.3,32.3z M24.4,36.9l0.2-0.2l-0.2-0.3V36.9z M24.6,37.8
			l0.1,0.1l0.8-0.8h-0.3c-0.1,0-0.3,0-0.4,0.1c-0.1,0-0.3,0.1-0.4,0.2L24.6,37.8z M24.4,33.4l0.2,0.2v-0.5L24.4,33.4z M24.5,17
			l0.9-0.6l-0.3-0.3L24.5,17z M24.5,41.8l0.1,0.1v-0.2L24.5,41.8z M24.6,25.8h0.7l-0.3-0.5L24.6,25.8z M25.4,9
			c-0.1,0-0.3,0.1-0.3,0.2c-0.1,0.1-0.1,0.2-0.2,0.3h0.5L25.4,9z M24.8,11.2L25,11l-0.2-0.3V11.2z M24.8,29.4l0.2-0.2l-0.2-0.3V29.4
			z M24.8,32.6l0.2-0.2l-0.2-0.3V32.6z M24.8,34.8l0.2-0.3l-0.2-0.3V34.8z M25.4,36.7h0.2l0.6-0.3c-0.2,0-0.3,0-0.3-0.1
			c-0.1-0.1-0.1-0.2-0.1-0.3c0-0.1-0.1-0.2-0.1-0.4c0-0.1-0.1-0.2-0.2-0.2l-0.5,0.9L25.4,36.7z M25.4,39.9l-0.1-0.3
			c0.1-0.2,0.3-0.4,0.4-0.5c0.1-0.2,0.2-0.4,0.2-0.6l-0.6-0.5h-0.1v0.2l0.5,0.3l-0.7,0.9L25.4,39.9z M24.8,41.1l0.2-0.2l-0.2-0.3
			V41.1z M24.8,44.2L25,44l-0.2-0.3V44.2z M24.9,41.7l0.2,0.2l0.2-0.2l-0.2-0.3L24.9,41.7z M24.9,45.4l0.2,0.2l0.2-0.2l-0.2-0.3
			L24.9,45.4z M25.1,7.5c0.2,0.2,0.5,0.3,0.8,0.3l-0.5-0.5L25.1,7.5z M25.1,12.8h0.3v-0.2L25.1,12.8z M25.1,24l0.9-0.5l-0.2-0.3
			L25.1,24z M25.2,29.8L25.2,29.8l0.1,0.2l0.1-0.1L25.2,29.8z M26,42.6h0.3L26,41.9l0.2-0.2l-0.3-0.1l-0.8,0.5L26,42.6z M25.2,42.8
			l0.2,0.2v-0.5L25.2,42.8z M25.6,3.8h-0.2L25.5,4L25.6,3.8z M25.6,6.3c0.3-0.2,0.6-0.5,0.8-0.9c0.2-0.4,0.3-0.7,0.4-1.1
			c-0.4,0-0.7,0.2-1,0.5c-0.3,0.3-0.4,0.6-0.4,1L25.6,6.3z M25.4,33.4l1.4-0.5L26,32.5L25.4,33.4z M25.6,34h-0.2l0.1,0.1L25.6,34z
			 M25.6,45.4l0.3-0.5h-0.5L25.6,45.4z M25.4,44.4l0.1,0.1l0.1-0.1v-0.1l-0.1-0.1L25.4,44.4z M25.5,28.4H26v-0.9L25.5,28.4z
			 M25.8,6.3c0,0.3,0.1,0.6,0.4,0.7c0.3,0.1,0.5,0.2,0.8,0.2h0.2C27,6.6,26.4,6.3,25.8,6.3 M26,37.6c0,0,0-0.1-0.1-0.1l-0.1,0.1H26
			L26,37.6z M26,14l0.3,0.3v-0.5L26,13.6V14z M26,35.7l0.3-0.9L26,35.5V35.7z M26.3,37.1L26.3,37.1H26l0.1,0.1L26.3,37.1z
			 M26.2,13.8c0,0-0.1,0.1-0.1,0.1s0,0.1-0.1,0.1c0,0,0.1-0.1,0.1-0.1S26.2,13.9,26.2,13.8 M26.1,21.6l0.2,0.2v-0.5L26.1,21.6z
			 M26.1,29.9l0.2,0.2v-0.5L26.1,29.9z M26.4,39.4l0.1,0.1l0.1-0.1c0-0.1,0-0.1-0.1-0.1c0,0,0,0,0,0L26.4,39.4z M26.5,11.9l0.2-0.2
			l-0.2-0.3V11.9z M26.8,26c-0.1,0-0.2,0-0.3,0.1l0.1,0.1L26.8,26z M26.5,28.4l0.2-0.2L26.5,28V28.4z M26.5,34.3h0.3l0.3-0.7
			l-0.3-0.3L26.5,34.3z M26.5,35.3l0.2-0.2l-0.2-0.3V35.3z M26.5,38.1l0.2-0.2l-0.2-0.3V38.1z M26.5,40.2c0.1,0,0.2,0.1,0.4,0.2
			c0.1,0.1,0.2,0.1,0.4,0.1h0.3l-0.4-0.3L26.5,40.2z M26.6,17.4l0.2,0.2l0.2-0.2l-0.2-0.3L26.6,17.4z M26.6,35.7l0.2,0.3l0.2-0.3
			l-0.2-0.3L26.6,35.7z M26.6,40.9l0.2,0.2l0.2-0.2l-0.2-0.3L26.6,40.9z M26.6,41.5l0.1,0.1l0.1-0.1v-0.1l-0.1-0.1L26.6,41.5z
			 M26.7,5.8h0.8l-0.3-0.5L26.7,5.8z M26.8,9l0.1,0.2L27,9.1L26.8,9z M27,18.3V18h-0.3L27,18.3z M27,38.8v-1.2l-0.3,0.7L27,38.8z
			 M26.8,4.6L27,4.8V4.4L26.8,4.6z M26.8,16.9l0.2,0.2v-0.5L26.8,16.9z M26.8,29.6l0.2,0.2v-0.5L26.8,29.6z M27,15l0.5-0.3l-0.3-0.3
			L27,15z M27,11.5h0.5c-0.1-0.1-0.1-0.3-0.1-0.4c0-0.2-0.2-0.3-0.3-0.3H27L27,11.5z M27,39.8h0.5l-0.3-0.3L27,39.8z M27,42.6
			l0.2,0.2v-0.5h-0.1L27,42.1L27,42.6z M28.2,39.3h0.1l0.1,0.5l-0.1-0.5c0.2-0.1,0.4-0.3,0.4-0.5c0-0.2,0.2-0.4,0.4-0.4c0,0,0,0,0,0
			v0.1l0.5-0.5l-1.8-1.9h-0.1l0.3,0.5l-0.1,0.3h-0.8c0.4,0.1,0.8,0.4,1,0.8c0.2,0.3,0.3,0.7,0.4,1.2L28.2,39.3z M27.2,42.3
			c-0.1,0.1-0.1,0.2-0.1,0.3C27.1,42.5,27.2,42.4,27.2,42.3 M27.2,34.7v0.1l1.2-1.2L27.2,34.7z M27.2,45.1h0.3l-0.3-0.2V45.1z
			 M27.3,32.5l0.2,0.2v-0.5L27.3,32.5z M27.5,28.2l0.7,0.3v-0.5L27.5,28.2z M27.5,39h0.2v-0.5h-0.2V39z M27.7,4.4v0.3l0.5-0.5
			l-0.1-0.1L27.7,4.4z M27.9,5.4h0.3l0.5-0.7l-1,0.5L27.9,5.4z M27.7,6.6c0.2,0,0.3-0.1,0.4-0.2c0.1-0.1,0.1-0.3,0.2-0.4h-0.5
			L27.7,6.6z M28.4,31.7c-0.4,0.3-0.7,0.7-0.7,1.2L28.4,31.7z M27.7,32.2l0.2-0.2l-0.2-0.3V32.2z M27.7,42.1l0.2-0.2l-0.2-0.3V42.1z
			 M27.7,43.8l0.2-0.2l-0.2-0.3V43.8z M28.4,10.7v-0.5l-0.5,0.3L28.4,10.7z M28.4,17.8h0.3l-0.5-0.5h-0.3L28.4,17.8z M27.9,18.8
			l0.3,0.2v-0.5l-0.3-0.2V18.8z M28.5,24.2l0.8-0.7l-0.2-0.3h-0.3c-0.2,0.1-0.3,0.2-0.5,0.3c-0.2,0.1-0.3,0.3-0.4,0.4L28.5,24.2z
			 M27.9,29.8h0.7l-0.5-0.3l-0.3,0.1V29.8z M27.9,40.5l0.3,0.2v-0.5l-0.3-0.3V40.5z M28.3,43.6l0.4-0.3l-0.5-0.6h0.9l-0.3-0.6
			c-0.2,0-0.4,0.1-0.6,0.2c-0.2,0.1-0.3,0.3-0.3,0.5L28.3,43.6z M28.1,18.5c0,0.1-0.1,0.2-0.1,0.3C28,18.7,28.1,18.6,28.1,18.5
			 M28,22.6l0.2,0.2v-0.5L28,22.6z M28.1,40.2c0,0.1-0.1,0.2-0.1,0.3C28,40.4,28.1,40.3,28.1,40.2 M28.7,12.2
			c-0.4,0-0.6,0.2-0.6,0.5l0.8-0.3L28.7,12.2z M28.2,35h0.5l-0.5-0.2V35z M28.4,35.5l-0.1-0.1l-0.1,0.1l0.1,0.1L28.4,35.5z
			 M28.3,31.1c0.2,0,0.4-0.1,0.4-0.3c0-0.2,0.2-0.4,0.4-0.5L29,30.3L28.3,31.1z M28.4,16.1l0.2-0.2l-0.2-0.3V16.1z M28.4,27l0.2-0.2
			l-0.2-0.3V27z M28.4,34l0.1,0.2l0.1-0.1L28.4,34z M28.4,42.1l0.2-0.2l-0.2-0.3V42.1z M28.5,9.6l0.2,0.2V9.4L28.5,9.6z M28.5,34.5
			l0.2,0.3v-0.5L28.5,34.5z M28.5,16.8l0.1,0.1v-0.2L28.5,16.8z M28.9,6.7h0.3L29.7,6l-1,0.3L28.9,6.7z M29.8,34.5
			c-0.3,0-0.6,0.1-0.8,0.4c-0.2,0.2-0.3,0.5-0.3,0.8h0.2c0.3,0,0.6-0.1,0.8-0.3c0.2-0.2,0.4-0.5,0.4-0.8v-0.1L29.8,34.5z M28.9,11.5
			l0.3,0.2v-0.5L28.9,11V11.5z M29.7,16.7h0.1c0.3-0.3,0.6-0.6,0.9-0.9c0.3-0.3,0.5-0.7,0.5-1.2v-0.3c-0.5,1-1.3,1.6-2.4,1.8
			L29.7,16.7z M28.9,18.3l0.2-0.2l-0.2-0.3V18.3z M29.6,25.6l0.3-0.3v-0.2l-0.5-0.5h-0.2l-0.3,0.3v0.3L29.6,25.6z M29.1,27v-0.2
			h-0.3L29.1,27z M28.9,31.5v0.3l0.3-0.5V31L28.9,31.5z M29.1,11.2c0,0.1-0.1,0.2-0.1,0.3C28.9,11.4,29,11.3,29.1,11.2 M29,14
			l0.1,0.1v-0.2L29,14z M29.1,43.5l0.1,0.3c0.2-0.4,0.4-0.7,0.7-1L29.1,43.5z M29.1,15l0.7-0.3l-0.7-0.3V15z M29.1,32.2
			c0.4,0,0.9-0.1,1.2-0.4c0.3-0.3,0.5-0.7,0.5-1.1c-0.7,0-1.1,0.4-1.1,1.2h-0.6L29.1,32.2z M29.4,34.4c0.4,0,0.7-0.2,0.8-0.5
			c0.1-0.3,0.5-0.5,0.8-0.5l0.2,0.3l0.3-0.3c0-0.1-0.1-0.2-0.2-0.5c-0.1-0.1-0.1-0.3-0.1-0.5l0.3-0.3V32H31v-0.3
			c-0.3,0.2-0.5,0.5-0.5,0.9c-0.1,0.5-0.3,0.7-0.6,0.7c-0.1,0-0.2,0-0.3-0.1c-0.1,0-0.2-0.1-0.3-0.1l-0.2,0.7L29.4,34.4z M29.6,39.5
			l0.3-0.5l-0.7,0.3L29.6,39.5z M29.6,28.1c-0.1,0-0.2,0-0.3,0.1l0.1,0.1L29.6,28.1z M29.4,10.1l0.2,0.2l0.2-0.2l-0.2-0.3L29.4,10.1
			z M29.4,37.4l0.2,0.3l0.2-0.3l-0.2-0.3L29.4,37.4z M30.1,17.8l0.3-0.3l-0.7-0.5v0.2L30.1,17.8z M29.7,21.9l0.2,0.2v-0.5L29.7,21.9
			z M29.7,32.5l0.2,0.2v-0.5L29.7,32.5z M29.7,42.4l0.2,0.2v-0.5L29.7,42.4z M29.9,27l0.5-0.2h-0.5V27z M30.1,30.5v-0.2h-0.2
			L30.1,30.5z M30.5,19c-0.3,0.2-0.5,0.5-0.5,0.8c0.4,0,0.6-0.2,0.6-0.5L30.5,19z M30.1,22.3l0.3-0.3h-0.3V22.3z M30.1,10.5l0.2,0.2
			v-0.5L30.1,10.5z M30.1,40.5l0.2,0.2v-0.5L30.1,40.5z M30.1,42.1l0.2,0.2v-0.5L30.1,42.1z M30.3,9.2l0.1,0.1l0.5-0.3l-0.3-0.3
			L30.3,9.2z M30.3,13.8l0.1,0.2l0.3-0.5l-0.1-0.3L30.3,13.8z M32.7,37.4l0.9-0.7h-0.5l0.2-0.7c0-0.1-0.1-0.2-0.1-0.3
			c0-0.1-0.1-0.2-0.1-0.3c0-0.4,0.1-0.8,0.4-1.1c0.2-0.3,0.4-0.6,0.5-1l0.7,0.5c0-0.4-0.1-0.7-0.2-1.1c-0.1-0.4-0.3-0.7-0.5-1
			l-0.5,0.4l0.1,0.5h-0.4l0.2,1.1l-0.2,0.1l-0.9-0.9l0.1,0.3l-0.3,0.7c0.3,0.2,0.5,0.6,0.5,1L32.4,35l-0.9-0.2v-0.3l-0.7-0.5
			c-0.1,0.2-0.2,0.4-0.3,0.7c-0.1,0.2-0.2,0.5-0.2,0.7h0.2l0.1,0.5v-0.5c0.5,0.1,1,0.1,1.4,0.3c0.5,0.1,0.8,0.6,0.8,1.1v1.1
			l-0.3-0.7L32.7,37.4z M31.2,25.2V24c-0.1,0.2-0.2,0.4-0.4,0.5c-0.2,0.1-0.3,0.2-0.5,0.3L31.2,25.2z M30.5,43.8l0.3-0.3v-0.2
			l-0.5,0.2L30.5,43.8z M30.5,4.6l0.2-0.2l-0.2-0.3V4.6z M30.5,12.6l0.2-0.2l-0.2-0.3V12.6z M30.5,20.1l0.3,0.3V20l-0.3-0.3V20.1z
			 M30.5,21.8l0.2-0.2l-0.2-0.3V21.8z M30.5,39.5l0.2-0.2L30.5,39V39.5z M30.5,39.9h0.3v-0.5L30.5,39.9z M30.5,41.7l0.2-0.3
			l-0.2-0.3V41.7z M30.7,20c0,0-0.1,0.1-0.1,0.1s0,0.1-0.1,0.1c0,0,0.1-0.1,0.1-0.1S30.7,20,30.7,20 M31,8.4l0.2-0.2L31,7.9
			l-0.3,0.3L31,8.4z M30.8,39.1l0.2,0.2v-0.5L30.8,39.1z M31.6,20.7l0.1-0.8l0.3-0.5L31.5,19l-0.3,1.2L31,20.4L31.6,20.7z M31,29.8
			l0.2,0.3v-0.5l-0.1,0.1L31,29.4L31,29.8z M31.1,28.1l0.1,0.1V28L31.1,28.1z M31.2,29.7c0,0-0.1,0-0.1,0.1
			C31.1,29.8,31.2,29.7,31.2,29.7 M31.2,39.3c0,0.3,0.1,0.6,0.3,0.9c0.2,0.2,0.4,0.5,0.5,0.8v-0.6c0-0.2,0-0.4-0.1-0.5
			c-0.1-0.2-0.1-0.4-0.2-0.5L31.2,39.3z M31.2,22.5l0.2-0.2l-0.2-0.3V22.5z M31.2,26.5l0.2-0.2l-0.2-0.3V26.5z M31.2,31h0.3v-0.2
			h-0.3V31z M31.3,38.1l0.2,0.2v-0.5L31.3,38.1z M32.3,16.7c-0.3,0-0.6,0.2-0.7,0.5c-0.1,0.3-0.1,0.6-0.1,1c0.4,0,0.7-0.2,0.8-0.5
			C32.3,17.4,32.3,17.1,32.3,16.7 M31.5,23l0.2,0.5c0.1-0.1,0.1-0.3,0.2-0.4c0.1-0.1,0.1-0.3,0.1-0.4v-0.3L31.5,23L31.5,23z
			 M31.7,28.9l0.3-0.5c0,0,0.1,0,0.2,0.1s0.1,0.2,0,0.2c0.5,0.1,0.9-0.1,1.2-0.5l-0.5-0.5l-1.4,0.7L31.7,28.9z M31.7,25.8l0.2-0.2
			l-0.2-0.3V25.8z M31.7,37.2l0.5-0.4L32,36.5L31.7,37.2z M31.7,38.8H32v-0.3L31.7,38.8z M32.5,12.8l-0.4,0.1
			c-0.1,0-0.3,0.1-0.3,0.3l0.2-0.1l0.2,0.2L32.5,12.8z M31.8,42.4l0.2,0.2v-0.5L31.8,42.4z M31.9,32.9L31.9,32.9
			c0,0.1,0,0.2,0.1,0.3L32,33L31.9,32.9z M32,24.8l0.6,0.4h0.6l-1.1-0.5H32V24.8z M32.2,31.9L32,31.9L32,31.9l0.1,0.1L32.2,31.9
			L32.2,31.9z M32,38.1l0.2-0.3L32,37.6V38.1z M32.2,7.9h0.3V7.7h-0.3V7.9z M32.2,21.6l0.2-0.2l-0.2-0.3V21.6z M32.2,30.1h0.3
			c0-0.2-0.1-0.4-0.3-0.5V30.1z M32.4,39.5L33,39h-0.9L32.4,39.5z M32.4,41.7v-0.3h-0.3L32.4,41.7z M32.2,11l0.2,0.2l0.2-0.2
			l-0.2-0.3L32.2,11z M32.2,16.4l0.2,0.3l0.2-0.3l-0.2-0.3L32.2,16.4z M32.2,18.3l0.2,0.2l0.2-0.2L32.4,18L32.2,18.3z M32.2,27.5
			l0.2,0.2l0.2-0.2l-0.2-0.3L32.2,27.5z M32.4,9.8h0.3V9.4h-0.3V9.8z M32.4,14.8l0.3-0.5h-0.3V14.8z M32.6,32.1l0.1,0.1l0.2-0.5
			L32.6,32.1z M32.7,11.9c0.2,0.2,0.4,0.4,0.5,0.7c0.1,0.3,0.4,0.5,0.7,0.5l0.9-0.7l-0.3-0.5l-0.7,0.3c-0.1,0-0.3-0.1-0.6-0.2
			C33.1,11.9,32.9,11.9,32.7,11.9 M32.9,18.8c-0.1,0.3-0.1,0.6,0,0.9C33,19.4,33,19.1,32.9,18.8 M32.9,16.1l0.3-0.2h-0.3V16.1z
			 M32.9,22.3h0.3l-0.3-0.5V22.3z M32.9,30.8l0.3-0.3h-0.3V30.8z M32.9,31.2l0.1,0.2l0.1-0.1L32.9,31.2z M32.9,38.1l0.2-0.2
			l-0.2-0.3V38.1z M33,42.1l0.2,0.2v-0.5L33,42.1z M33.2,14.3c0.4,0,0.9-0.1,1.3-0.2c0.5,0,0.8-0.4,0.8-0.9l-0.4,0.1l-0.5,0.5
			l-0.5-0.3L33.2,14.3z M33.6,23.5l-0.5,0.7l0.7-0.7l-0.1-0.1L33.6,23.5z M34.2,28.2c-0.3,0-0.5,0.1-0.7,0.3
			c-0.2,0.2-0.3,0.4-0.4,0.7l1.2-1L34.2,28.2z M33.4,38.6l0.3-0.5h-0.5L33.4,38.6z M33.2,8.8l0.1,0.1l0.1-0.1c0-0.1,0-0.1-0.1-0.1
			c0,0,0,0,0,0L33.2,8.8z M33.2,26.5l0.1,0.1l0.1-0.1l-0.1-0.1L33.2,26.5z M33.4,16.4l0.3-0.3h-0.3V16.4z M33.4,32l0.2-0.3l-0.2-0.3
			V32z M33.4,37.6h0.3l0.3-0.3v-0.3L33.4,37.6z M33.4,39.7l0.2-0.2l-0.2-0.3V39.7z M33.6,24.4l0.1-0.1l-0.1-0.1L33.6,24.4z M34.3,11
			v-0.3L34,10.3l-0.5,0.2L34.3,11z M33.8,6.7L33.7,7l0.1,0.2V6.7L33.8,6.7z M33.7,25.6l0.2,0.2v-0.5L33.7,25.6z M33.8,8.2H34L35,7.6
			l-0.3-0.2L33.8,8.2z M34,21.3v-0.9l-0.3,0.5L34,21.3z M33.8,35.7c0.1,0.3,0.3,0.5,0.6,0.5c0.3,0.1,0.5,0.2,0.8,0.2v-0.3
			c0-0.2-0.1-0.4-0.3-0.5c-0.2-0.1-0.4-0.4-0.3-0.7h0.2l0.5-0.9l-1.4,0.8l0.3,0.6L33.8,35.7z M33.8,18.8H34l0.3-0.3L33.8,18.8z
			 M34.3,22.5l1.2-1.8c-0.3,0-0.7,0.1-1,0.3c-0.3,0.2-0.5,0.5-0.8,0.7L34.3,22.5z M34,17.3h0.3v-0.2L34,17.3z M34,24l0.3-0.3H34V24z
			 M34,25.8l0.5,0.3l0.7-0.9l-0.1-0.1L34,25.8z M34.2,38.5L34,38.6l0.1,0.1c0.1,0,0.1,0,0.2-0.1L34.2,38.5z M34.4,39.5l0.1-0.1
			l-0.3-0.3L34,39.3L34.4,39.5z M34.2,25.3l0.1,0.1v-0.2L34.2,25.3z M35,8.8l0.3-0.5h-0.8L35,8.8z M34.5,15.5v0.2l0.5-0.5h-0.2
			L34.5,15.5z M34.6,19.2l0.2,0.3V19L34.6,19.2z M34.6,30.8l0.2,0.2v-0.5L34.6,30.8z M34.6,36.7l0.2,0.2v-0.5L34.6,36.7z M34.6,37.6
			l0.2,0.2v-0.5L34.6,37.6z M34.6,41.6l0.2,0.2v-0.5L34.6,41.6z M35,18.5c0.1,0.3,0.1,0.6,0.1,0.9c0,0.2,0.2,0.4,0.7,0.4l-0.3-0.5
			l0.5-0.5l-0.3-0.5l-0.1-0.5L34.8,18v0.3L35,18.5z M35.5,23.6c-0.1,0.2-0.3,0.3-0.4,0.5c-0.1,0.2-0.3,0.4-0.3,0.6l0.3,0.1l0.9-1
			l-0.5-0.9L34.8,23L35.5,23.6z M34.8,42.6l0.2-0.3h-0.2V42.6z M35,10.2V11h0.2l0.1,0.5L35.2,11c0.2-0.1,0.3-0.3,0.4-0.5
			c0.1-0.3,0.1-0.5,0.2-0.7l-0.2-0.3h-0.1L35,10.2z M35,20.1l0.5,0.5v-0.5l-0.1,0.1c-0.1-0.2-0.3-0.4-0.5-0.5V20.1z M35,32.2
			l0.2-0.2L35,31.7V32.2z M35,41.4l0.2-0.2L35,40.9V41.4z M35.2,19.9c0,0-0.1,0.1-0.1,0.1s0,0.1-0.1,0.1c0,0,0.1-0.1,0.1-0.1
			S35.1,20,35.2,19.9 M35,30.8l0.2,0.2l0.2-0.2l-0.2-0.3L35,30.8z M35,33.4l0.2,0.2l0.2-0.2l-0.2-0.3L35,33.4z M35.2,39.6
			c0.3,0,0.4-0.1,0.5-0.3h-0.5V39.6z M35.7,42.1H36l0.2-0.3L36,41.1h-0.3l-0.5,0.7L35.7,42.1z M35.3,35.3l0.2,0.2V35L35.3,35.3z
			 M35.8,28.4H36c0-0.1-0.1-0.3-0.2-0.4c-0.1-0.1-0.2-0.2-0.4-0.2L35.8,28.4z M35.5,32.4l0.5,0.2v-0.2l-0.5-0.3l-0.1,0.1L35.5,32.4z
			 M36.1,21.1l-0.7,1.2l0.8-0.7c0.1,0,0.3,0,0.4,0.1c0.2,0.1,0.3,0.2,0.4,0.2l-0.9-0.8L36.1,21.1z M35.5,34.8h0.2l0.3-0.5L35.5,34.8
			z M36,38.5c-0.2,0-0.4,0.1-0.5,0.3H36V38.5z M35.7,14.3l0.2-0.2l-0.2-0.3V14.3z M35.7,27.7l0.2-0.2l-0.2-0.3V27.7z M35.7,31.5
			l0.2-0.2L35.7,31V31.5z M35.7,36.2l0.2-0.2l-0.2-0.3V36.2z M35.7,37.6l0.2-0.3l-0.2-0.3V37.6z M35.8,10.1l0.2,0.2V9.8L35.8,10.1z
			 M36.4,26.1v-0.3H36L36.4,26.1z M36,33.2h0.2l0.3-0.3h-0.3L36,33.2z M36.4,10.7l0.3-0.7h-0.3l-0.3,0.3v0.2L36.4,10.7z M36.7,24.9
			l1.2-0.8l-0.3-0.4h-0.3l-0.5,0.5l-0.7,0.3v0.2L36.7,24.9z M36.1,35.3h0.3l0.5-0.5l-0.1-0.1L36.1,35.3z M37.3,37.2l0.3-1.2
			c-0.3,0-0.6,0-0.8,0.1c-0.3,0.1-0.5,0.3-0.6,0.5L37.3,37.2z M36.4,22.8l0.3,0.2l0.9-0.9l-1.1,0.5L36.4,22.8z M36.4,40.9v0.2
			l0.3-0.5L36.4,40.9z M36.6,17.3L36.6,17.3l0.3-0.1v-0.3L36.6,17.3z M36.6,28.1L36.6,28.1l0.3-0.1L36.6,28.1z M36.7,15.7h0.2v-0.2
			L36.7,15.7z M36.7,20.2h0.2L36.7,20V20.2z M37.7,34.4l-0.5-0.7h-0.3l-0.2,0.5L37.7,34.4z M36.9,27l0.2-0.2l-0.2-0.3V27z
			 M36.9,32.2l0.3,0.3V32l-0.3-0.3V32.2z M37.1,32c0,0-0.1,0.1-0.1,0.1s0,0.1-0.1,0.1c0,0,0.1-0.1,0.1-0.1S37,32,37.1,32 M36.9,35.1
			l0.2,0.2v-0.5L36.9,35.1z M36.9,39.6l0.2,0.2v-0.5L36.9,39.6z M37.1,29.4c0,0.3,0.1,0.4,0.3,0.5v-0.5H37.1z M37.9,11.9
			c-0.3,0-0.6,0.2-0.8,0.5h0.1C37.7,12.4,37.9,12.2,37.9,11.9 M37.1,31.3h0.5c-0.2-0.3-0.3-0.6-0.3-0.9h-0.2L37.1,31.3z M37.6,11.2
			V11l-0.3-0.3V11L37.6,11.2z M37.3,14.3h0.3V14h-0.3V14.3z M37.3,16.9l0.2-0.2l-0.2-0.3V16.9z M37.3,17.8h0.3l0.5-0.3h0.3l0.2,0.3
			l0.3-0.5l-0.3-0.2L37.7,17L37.3,17.8z M37.3,18.8l0.2-0.2l-0.2-0.3V18.8z M37.3,27l0.2-0.2l-0.2-0.3V27z M37.3,38.1l0.2-0.2
			l-0.2-0.3V38.1z M37.3,38.8l0.2-0.3l-0.2-0.3V38.8z M37.4,25.4l0.2,0.2v-0.5L37.4,25.4z M37.4,28.2l0.2,0.2V28L37.4,28.2z
			 M37.4,40.2l0.2,0.3v-0.5L37.4,40.2z M37.6,22.8l0.8,0.2v-0.7l-0.9,0.3L37.6,22.8z M37.6,33.2h0.5v-1L37.6,33.2z M37.6,41.1
			l0.2,0.3v-0.5L37.7,41l-0.1-0.3L37.6,41.1z M37.7,41c0,0-0.1,0-0.1,0.1C37.7,41.1,37.7,41,37.7,41 M37.8,36.9
			c-0.1,0.3-0.1,0.6,0,0.9C37.9,37.5,37.9,37.2,37.8,36.9 M37.8,39.7c0.1,0,0.1,0,0.1-0.1c0,0,0,0,0,0l-0.1-0.1V39.7z M37.9,14.6
			l0.2,0.2l0.2-0.2l-0.2-0.3L37.9,14.6z M37.9,40.5l0.2,0.2l0.2-0.2l-0.2-0.3L37.9,40.5z M38,28.9c0,0.2,0.1,0.4,0.3,0.5v-0.5H38z
			 M38,30.1L38,30.1c0,0.1,0,0.2,0.1,0.3l0.1-0.1L38,30.1z M38.1,24.6l0.3,0.5v-0.3L38.1,24.6z M38.2,26.9L38.1,27l0.1,0.1
			c0.1,0,0.1,0,0.2-0.1L38.2,26.9z M38.1,36c0.2,0.2,0.4,0.5,0.4,0.8c0,0.3,0.1,0.5,0.4,0.6c0.2-0.4,0.4-0.8,0.6-1.2
			c0.2-0.4,0.3-0.8,0.3-1.2v-0.2l-0.5,0.7L39,35.3c-0.2,0.1-0.3,0.2-0.5,0.3C38.3,35.7,38.2,35.8,38.1,36 M38.3,37.6l-0.1,0.1
			l0.1,0.1l0.1-0.1L38.3,37.6L38.3,37.6z M38.3,14.8V15l0.9-0.3L39,14.5L38.3,14.8z M38.3,21.6c0.4,0.2,0.8,0.5,0.9,0.9l0.5-0.6
			c-0.2,0-0.4-0.1-0.5-0.3c-0.1-0.2-0.3-0.3-0.5-0.3L38.3,21.6z M38.5,12.6h0.3v-0.3h-0.3V12.6z M38.8,28.2l0.5-1.2l-0.7,0.7V28
			L38.8,28.2z M38.7,34l-0.1,0.1l0.1,0.1l0.1-0.1L38.7,34z M38.7,38l-0.1,0.1l0.1,0.1l0.1-0.1L38.7,38z M38.6,18.1l0.2,0.2v-0.5
			L38.6,18.1z M38.6,29.9l0.2,0.2v-0.5L38.6,29.9z M38.6,40.2l0.2,0.3v-0.5L38.6,40.2z M38.8,15.7c-0.1,0.3-0.1,0.7,0,1V15.7z
			 M38.7,32l0.1,0.2l0.9-0.7l-0.2-0.2L38.7,32z M39,34.8h0.3v-0.3L39,34.8z M39.1,38.8l0.2,0.2l0.2-0.2l-0.2-0.3L39.1,38.8z
			 M39.3,18.5v0.3l0.5-0.5l-0.1-0.1L39.3,18.5z M39.7,33.3l1-0.7L40,32.4l-0.3,0.2l-0.5-0.2v0.2L39.7,33.3z M39.3,21.1l0.2,0.2v-0.5
			L39.3,21.1z M39.3,37.4l0.2,0.3v-0.5L39.3,37.4z M39.7,28.6c0.1,0,0.2-0.1,0.2-0.2c0.1,0,0.1-0.1,0.1-0.2c0-0.1-0.1-0.1-0.2-0.1
			c0,0-0.1,0.1-0.1,0.1c-0.1,0-0.2,0.1-0.2,0.2L39.7,28.6z M39.5,37l0.5-0.3l-0.4-0.3l-0.1,0.1V37z M39.5,39.3h0.2v-0.5L39.5,39.3z
			 M39.7,14.7c0,0.1,0,0.3,0.1,0.4c0,0.1,0.1,0.3,0.3,0.3l0.3-0.7H39.7z M39.7,25.6v0.2l0.1-0.1L39.7,25.6z M39.7,27.2l0.2-0.2
			l-0.2-0.3V27.2z M39.8,28.9l0.2,0.3v-0.5L39.8,28.9z M39.8,35.5l0.2,0.2v-0.5L39.8,35.5z M39.8,38.1l0.2,0.2v-0.5L39.8,38.1z
			 M39.9,30.9L40,31v-0.2L39.9,30.9z M39.9,19.5l0.1,0.2l0.9-0.5l-0.3-0.5L39.9,19.5z M39.9,29.9l0.1,0.1l0.2-0.5L39.9,29.9z
			 M40.1,13.2L40.1,13.2v0.2c0.1,0,0.1,0,0.1-0.1c0,0,0,0,0,0L40.1,13.2z M40,20.9l0.2-0.2H40V20.9z M40,33.8
			c0.2,0.1,0.3,0.3,0.3,0.5c0,0.2,0.2,0.4,0.3,0.5l0.3-0.4L40,33.8z M40.1,11.8l0.1,0.1l0.1-0.1c0-0.1,0-0.1-0.1-0.2L40.1,11.8z
			 M40.2,25.1l0.2-0.3l-0.2-0.3V25.1z M40.2,36.2l0.2-0.2l-0.2-0.3V36.2z M40.2,20.9l0.2,0.2v-0.5L40.2,20.9z M40.2,33.4l0.2,0.2
			v-0.5L40.2,33.4z M40.4,12.6h0.5l-0.5-0.5V12.6z M40.4,28.9c0.1,0.2,0.2,0.3,0.4,0.5c0.1,0.2,0.3,0.2,0.6,0.2c0.1,0,0.2,0,0.4-0.1
			c0.2-0.1,0.3-0.1,0.4-0.2l-1.3-0.5L40.4,28.9z M40.6,24.4l-0.1,0.1l0.1,0.1l0.1-0.1L40.6,24.4z M40.6,15.2l0.3,0.3
			c0.3,0,0.7-0.2,0.8-0.5c0.2-0.3,0.5-0.5,0.8-0.5L42.1,14c-0.3,0-0.7,0.1-1,0.3c-0.3,0.1-0.5,0.5-0.5,0.8L40.6,15.2z M40.6,21.6
			l0.2-0.2l-0.2-0.3V21.6z M41.2,27.7v-0.2l-0.3-0.3l-0.3,0.3L41.2,27.7z M40.6,30.1l0.2-0.2l-0.2-0.3V30.1z M40.6,30.6
			c0.2,0,0.4-0.1,0.5-0.3h-0.5V30.6z M40.6,32.4l0.2-0.2L40.6,32V32.4z M40.6,37.4l0.2-0.2l-0.2-0.3V37.4z M40.9,17.3v0.3l0.3-0.3
			v-0.2L40.9,17.3z M40.9,22.5h0.5v-0.2L40.9,22.5z M41,16.2l0.2,0.2v-0.5L41,16.2z M41,36.9l0.2,0.2v-0.5L41,36.9z M41.2,31.7V32
			l0.9-0.3l-0.5-0.3L41.2,31.7z M41.2,35.4L41.2,35.4v0.2c0.1,0,0.1,0,0.1-0.1c0,0,0,0,0,0L41.2,35.4z M41.4,18.5l0.2-0.2L41.4,18
			V18.5z M42.6,33.8c-0.5,0.1-0.9,0.3-1.2,0.7c0.2-0.1,0.5-0.2,0.7-0.2c0.3,0,0.5-0.1,0.5-0.4L42.6,33.8z M41.8,35.7
			c-0.2,0.1-0.3,0.2-0.5,0.3h0.5V35.7z M41.4,11.5l0.2,0.2v-0.5L41.4,11.5z M41.6,32.9l0.1-0.1l-0.1-0.1L41.6,32.9z M41.6,21.1h0.2
			l0.3-0.3L41.6,21.1z M42.4,17.8l-0.3-1l-0.3,0.5L42.4,17.8z M42.4,26.8c0,0.2-0.1,0.4-0.3,0.6c-0.2,0.1-0.3,0.4-0.3,0.6v0.2
			c0.3,0,0.6-0.2,0.7-0.5c0.1-0.3,0.1-0.6,0.1-0.9L42.4,26.8z M41.9,12.9l0.2,0.2l0.2-0.2l-0.2-0.3L41.9,12.9z M42.1,32.9
			c-0.1,0.3-0.1,0.6,0,0.9C42.2,33.5,42.2,33.2,42.1,32.9 M42.8,33.4c0.3-0.2,0.6-0.5,0.8-0.9c0.2-0.3,0.4-0.7,0.6-1.1
			c-0.4,0-0.9,0.2-1.2,0.3c-0.6,0.2-0.9,0.5-0.9,0.9L42.8,33.4z M42.2,30.1l0.2,0.3v-0.5L42.2,30.1z M42.2,31.3l0.2,0.2V31
			L42.2,31.3z M42.6,16.1v-0.2h-0.2L42.6,16.1z M42.7,18l-0.1,0.1l0.1,0.1l0.1-0.1L42.7,18z M42.6,30.4l0.2,0.2v-0.5L42.6,30.4z
			 M43,27.3L43,27.3c0,0.1,0,0.2,0.1,0.3l0.1-0.1L43,27.3z M43,15l0.2-0.3L43,14.5V15z M43,28.6l0.2-0.2L43,28.2V28.6z M43.3,19.2
			l0.3-0.7h-0.3V19.2z M43.5,30.4v-0.3h-0.2L43.5,30.4z M43.3,33.6h0.2l0.5-0.3h-0.3L43.3,33.6z M43.5,16.4l0.1-0.2l-0.1-0.3V16.4z
			 M43.5,27l0.2-0.2l-0.2-0.3V27z M43.5,24.4l0.2,0.2l0.2-0.2l-0.2-0.3L43.5,24.4z M43.5,29.2l0.2,0.2l0.2-0.2l-0.2-0.3L43.5,29.2z
			 M43.9,19.6l-0.1,0.1l0.1,0.1c0.1,0,0.1,0,0.2-0.1L43.9,19.6z M43.8,27.8L44,28v-0.5L43.8,27.8z M43.8,32.5l0.2,0.2v-0.5
			L43.8,32.5z M43.8,35.1l0.2,0.2v-0.5L43.8,35.1z M44.5,29.8c-0.2,0.1-0.3,0.2-0.4,0.4c-0.1,0.2-0.2,0.4-0.2,0.6l0.6-0.8L44.5,29.8
			z M44.2,29.6v-0.3H44L44.2,29.6z M44.3,26.2l-0.1,0.1l0.1,0.1l0.1-0.1L44.3,26.2z M44.2,28.2h0.3L44.2,28V28.2z M44.3,18.6
			l0.2,0.2v-0.5L44.3,18.6z M44.3,22.1l0.2,0.3v-0.5L44.3,22.1z M44.7,18.3l0.2-0.2l-0.2-0.3V18.3z M44.7,24.4l0.2,0.2l0.2-0.2
			l-0.2-0.3L44.7,24.4z M44.7,28.9l0.2,0.3l0.2-0.3l-0.2-0.3L44.7,28.9z M44.9,27l0.3,0.3v-0.5l-0.3-0.3V27z M45.1,26.8
			c0,0-0.1,0.1-0.1,0.1S45,27,45,27c0,0,0.1-0.1,0.1-0.1S45.1,26.8,45.1,26.8 M45.3,22.5l0.1,0.1v-0.2L45.3,22.5z"/>
	</g>
	<g id="Group_55" transform="translate(77.385 256.485)">
		<path id="Path_89" class="st1" d="M19.9,33.4c-0.3,0.2-0.6,0.4-0.9,0.3h-2.3c-0.3,0-0.6-0.1-0.8-0.3c-0.2-0.3-0.2-0.3-0.3-0.5
			c-0.1-0.2-0.4,0.1-0.6,0.3c-1.1,0.7-2.3,1-3.6,1c-2.6,0.1-5-1.3-6.3-3.6c-1-2-1.3-3.8-1.3-8.1v-8.3c0-4.9,0.3-6.6,1.7-8.4
			C7,4,9.4,2.9,11.8,3c5.1,0,8.1,3.3,8.2,9.1c0,0.3-0.1,0.6-0.3,0.8c-0.2,0.2-0.6,0.4-0.9,0.4h-2.3c-0.3,0-0.6-0.1-0.8-0.3
			c-0.2-0.3-0.3-0.6-0.3-0.9C15.3,9,14,7.4,11.8,7.4c-2.5,0-3.4,1.6-3.4,6v9.2c0,5.4,1,7.3,3.7,7.3c2.5,0,3.4-1.8,3.4-6
			c0-0.3-0.2-0.7-0.4-0.9c-0.2-0.2-0.5-0.3-0.8-0.3h-1.4c-0.3,0-0.6-0.1-0.8-0.3c-0.2-0.2-0.3-0.6-0.3-0.9v-1.4c0-0.4,0.1-0.7,0.3-1
			c0.2-0.2,0.5-0.3,0.8-0.3h6.1c0.3,0,0.7,0.1,0.9,0.4c0.2,0.2,0.4,0.5,0.3,0.8v12.6C20.2,32.8,20.1,33.1,19.9,33.4z"/>
		<path id="Path_90" class="st1" d="M42.4,33.3c-0.2,0.3-0.5,0.4-0.8,0.4h-2.5c-0.4,0-0.8-0.1-1.1-0.4c-0.2-0.3-0.4-0.5-0.5-0.8
			l-3.2-9.9c-0.1-0.4-0.3-0.7-0.6-0.9c-0.3-0.2-0.7-0.3-1-0.3h-0.4c-0.3,0-0.7,0.1-0.9,0.3c-0.2,0.3-0.3,0.6-0.3,0.9v10
			c0,0.3-0.1,0.6-0.3,0.8c-0.2,0.2-0.5,0.3-0.8,0.3h-2.3c-0.3,0-0.6-0.1-0.8-0.3c-0.2-0.2-0.3-0.5-0.3-0.8V4.7
			c0-0.3,0.1-0.6,0.3-0.8c0.2-0.2,0.5-0.4,0.8-0.4h6.2c5.6,0,8.6,3,8.6,8.6c0,3.4-1,5.8-3.1,7.3c-0.3,0.2-0.4,0.2-0.6,0.5
			c-0.1,0.2-0.2,0.5-0.2,0.8l3.8,11.8C42.6,32.7,42.5,33,42.4,33.3z M32.8,7.8h-0.5c-0.3,0-0.6,0.1-0.8,0.3
			c-0.2,0.2-0.4,0.6-0.4,0.9v6.8c-0.1,0.4,0.4,0.8,0.4,0.8s0.4,0.5,0.8,0.4h0.5c3.6,0,4.8-1.2,4.8-4.6C37.6,9,36.4,7.8,32.8,7.8
			L32.8,7.8z"/>
		<path id="Path_91" class="st1" d="M66.2,33.4c-0.2,0.2-0.5,0.3-0.8,0.3h-2.2c-0.4,0-0.7-0.1-1-0.4c-0.2-0.3-0.4-0.5-0.5-0.8
			l-0.8-4.1c-0.1-0.3-0.2-0.6-0.5-0.9c-0.3-0.2-0.6-0.4-1-0.4h-4c-0.3,0-0.7,0.1-0.9,0.4c-0.2,0.3-0.4,0.6-0.5,0.9l-0.8,4.1
			c-0.1,0.3-0.2,0.6-0.4,0.8c-0.3,0.3-0.6,0.4-1,0.4h-2.2c-0.3,0-0.5-0.1-0.7-0.3c-0.2-0.3-0.3-0.6-0.2-0.9L54,4.7
			c0.1-0.3,0.2-0.6,0.4-0.8c0.3-0.2,0.6-0.3,1-0.3h4c0.4,0,0.7,0.1,1.1,0.3c0.2,0.3,0.4,0.6,0.4,0.9l5.6,27.7
			C66.5,32.8,66.5,33.1,66.2,33.4z M57.6,10.6c0-0.1-0.1-0.2-0.3-0.3c0,0-0.2,0-0.2,0.3l-2,11.1c0,0.3,0.1,0.6,0.3,0.8
			c0.2,0.2,0.5,0.3,0.8,0.3h2.4c0.3,0,0.6-0.1,0.8-0.3c0.2-0.3,0.3-0.6,0.2-0.9L57.6,10.6z"/>
		<path id="Path_92" class="st1" d="M77.6,33.3c-0.2,0.2-0.5,0.3-0.8,0.4h-2.3c-0.3,0-0.6-0.2-0.8-0.4c-0.2-0.2-0.3-0.5-0.3-0.8V4.7
			c0-0.6,0.5-1.2,1.1-1.2c0,0,0,0,0.1,0h2.3c0.3,0,0.6,0.1,0.8,0.3C77.8,4.1,78,4.4,78,4.7v27.9C77.9,32.8,77.8,33.1,77.6,33.3z"/>
		<path id="Path_93" class="st1" d="M102,33.4c-0.2,0.2-0.5,0.3-0.8,0.3h-2.3c-0.4,0-0.8-0.1-1.1-0.4c-0.2-0.2-0.4-0.5-0.6-0.8
			l-6.5-15.7c-0.2-0.5-0.4-0.5-0.4-0.5s-0.2,0-0.1,0.5v15.7c0,0.3-0.1,0.6-0.3,0.9c-0.2,0.2-0.6,0.3-0.9,0.3h-2.3
			c-0.3,0-0.6-0.1-0.9-0.3c-0.2-0.2-0.3-0.5-0.3-0.8V4.7c0-0.3,0.1-0.6,0.3-0.9c0.3-0.2,0.6-0.3,0.9-0.3h2.3c0.4,0,0.8,0.1,1.1,0.4
			c0.2,0.2,0.4,0.5,0.6,0.8l6.6,15.8c0.2,0.5,0.4,0.5,0.4,0.5s0.2,0,0.1-0.5V4.7c0-0.3,0.1-0.6,0.3-0.9c0.2-0.2,0.5-0.3,0.8-0.3h2.3
			c0.3,0,0.6,0.1,0.9,0.3c0.2,0.2,0.3,0.6,0.3,0.9v27.8C102.4,32.8,102.3,33.1,102,33.4z"/>
	</g>
	<g id="Group_56" transform="translate(230.889 256.485)">
		<path id="Path_94" class="st2" d="M19.9,33.4c-0.3,0.2-0.6,0.4-0.9,0.3h-2.3c-0.3,0-0.6-0.1-0.8-0.3c-0.2-0.3-0.2-0.3-0.3-0.5
			c-0.1-0.2-0.4,0.1-0.6,0.3c-1.1,0.7-2.3,1-3.6,1c-2.6,0.1-5-1.3-6.3-3.6c-1-2-1.3-3.8-1.3-8.1v-8.3c0-4.9,0.3-6.6,1.7-8.4
			C7,4,9.4,2.9,11.8,3c5.1,0,8.1,3.3,8.2,9.1c0,0.3-0.1,0.6-0.3,0.8c-0.2,0.2-0.6,0.4-0.9,0.4h-2.3c-0.3,0-0.6-0.1-0.8-0.3
			c-0.2-0.3-0.3-0.6-0.3-0.9C15.3,9,14,7.4,11.8,7.4c-2.5,0-3.4,1.6-3.4,6v9.2c0,5.4,1,7.3,3.7,7.3c2.5,0,3.4-1.8,3.4-6
			c0-0.3-0.2-0.7-0.4-0.9c-0.2-0.2-0.5-0.3-0.8-0.3h-1.4c-0.3,0-0.6-0.1-0.8-0.3c-0.2-0.2-0.3-0.6-0.3-0.9v-1.4c0-0.4,0.1-0.7,0.3-1
			c0.2-0.2,0.5-0.3,0.8-0.3h6.1c0.3,0,0.7,0.1,0.9,0.4c0.2,0.2,0.4,0.5,0.3,0.8v12.6C20.2,32.8,20.1,33.1,19.9,33.4z"/>
		<path id="Path_95" class="st2" d="M41.4,33.3c-0.2,0.3-0.5,0.4-0.8,0.4h-2.5c-0.4,0-0.8-0.1-1.1-0.4c-0.2-0.3-0.4-0.5-0.5-0.8
			l-3.2-9.9c-0.1-0.4-0.3-0.7-0.5-0.9c-0.3-0.2-0.7-0.3-1-0.3h-0.4c-0.3,0-0.7,0.1-0.9,0.3c-0.2,0.3-0.3,0.6-0.3,0.9v10
			c0,0.3-0.1,0.6-0.3,0.8c-0.2,0.2-0.5,0.3-0.8,0.3h-2.3c-0.3,0-0.6-0.1-0.8-0.3c-0.2-0.2-0.3-0.5-0.3-0.8V4.7
			c0-0.3,0.1-0.6,0.3-0.8c0.2-0.2,0.5-0.4,0.8-0.4h6.2c5.6,0,8.6,3,8.6,8.6c0,3.4-1,5.8-3.1,7.3c-0.3,0.2-0.4,0.2-0.6,0.5
			c-0.1,0.2-0.2,0.5-0.2,0.8l3.8,11.8C41.6,32.7,41.6,33,41.4,33.3z M31.9,7.8h-0.5c-0.3,0-0.6,0.1-0.8,0.3
			c-0.2,0.2-0.4,0.6-0.4,0.9v6.8c-0.1,0.4,0.4,0.8,0.4,0.8s0.4,0.5,0.8,0.4h0.5c3.6,0,4.8-1.2,4.8-4.6C36.7,9,35.4,7.8,31.9,7.8
			L31.9,7.8z"/>
		<path id="Path_96" class="st2" d="M65.8,33.4c-0.2,0.2-0.5,0.3-0.8,0.3h-2.2c-0.4,0-0.7-0.1-1-0.4c-0.2-0.3-0.4-0.5-0.5-0.8
			l-0.8-4.1c-0.1-0.3-0.2-0.6-0.5-0.9c-0.3-0.2-0.6-0.4-1-0.4h-4c-0.3,0-0.7,0.1-0.9,0.4c-0.2,0.3-0.4,0.6-0.5,0.9l-0.8,4.1
			c-0.1,0.3-0.2,0.6-0.4,0.8c-0.3,0.3-0.6,0.4-1,0.4h-2.2c-0.3,0-0.5-0.1-0.7-0.3c-0.2-0.3-0.3-0.6-0.2-0.9l5.4-27.8
			c0.1-0.3,0.2-0.6,0.4-0.8c0.3-0.2,0.6-0.3,1-0.3h4c0.4,0,0.7,0.1,1.1,0.3c0.2,0.3,0.4,0.6,0.4,0.9L66,32.5
			C66.1,32.8,66,33.1,65.8,33.4z M57.2,10.6c0-0.1-0.1-0.2-0.3-0.3c0,0-0.2,0-0.2,0.3l-2,11.1c0,0.3,0.1,0.6,0.3,0.8
			c0.2,0.2,0.5,0.3,0.8,0.3h2.4c0.3,0,0.6-0.1,0.8-0.3c0.2-0.3,0.3-0.6,0.2-0.9L57.2,10.6z"/>
		<path id="Path_97" class="st2" d="M79.9,21.5H78c-0.3,0-0.6,0.1-0.9,0.3c-0.2,0.3-0.3,0.6-0.3,0.9v9.8c0,0.3-0.2,0.6-0.4,0.8
			c-0.3,0.2-0.6,0.3-0.9,0.3h-2.2c-0.6,0-1.1-0.5-1.1-1.1V4.7c0-0.3,0.1-0.6,0.3-0.8c0.2-0.2,0.5-0.4,0.8-0.4h6.6
			c3.1,0,4.9,0.6,6.3,1.9c1.6,1.6,2.4,3.8,2.4,6.9C88.7,18.7,86,21.5,79.9,21.5z M78.9,7.8H78c-0.3,0-0.6,0.1-0.9,0.3
			c-0.2,0.2-0.3,0.6-0.3,0.9V16c-0.1,0.6,0.3,1.1,0.9,1.2c0.1,0,0.2,0,0.3,0h0.8c3.7,0,4.9-1.1,4.9-4.5C83.8,8.9,82.7,7.8,78.9,7.8
			L78.9,7.8z"/>
		<path id="Path_98" class="st2" d="M107.9,33.4c-0.3,0.2-0.6,0.3-0.9,0.3H95.7c-0.3,0-0.6-0.1-0.9-0.3c-0.2-0.2-0.3-0.5-0.3-0.8
			V4.7c0-0.3,0.2-0.6,0.4-0.8c0.2-0.2,0.5-0.4,0.8-0.4H107c0.3,0,0.7,0.1,0.9,0.3c0.2,0.3,0.3,0.6,0.3,0.9v1.9
			c0,0.3-0.1,0.6-0.3,0.9c-0.2,0.2-0.5,0.3-0.8,0.3h-6.6c-0.3,0-0.6,0.1-0.9,0.3c-0.2,0.3-0.3,0.7-0.3,1.1v5.3
			c0,0.3,0.1,0.6,0.3,0.8c0.2,0.2,0.6,0.3,0.9,0.3h5.6c0.3,0,0.6,0.1,0.9,0.3c0.2,0.3,0.3,0.6,0.3,0.9v1.9c0,0.6-0.5,1.2-1.1,1.2
			c0,0,0,0-0.1,0h-5.7c-0.3,0-0.6,0.2-0.8,0.4c-0.2,0.2-0.3,0.6-0.3,0.9v6.8c0,0.3,0.1,0.6,0.3,0.9c0.2,0.2,0.5,0.3,0.8,0.3h6.6
			c0.3,0,0.6,0.2,0.8,0.4c0.2,0.2,0.4,0.6,0.4,0.9v1.9C108.2,32.8,108.1,33.1,107.9,33.4z"/>
	</g>
	<g id="Group_57" transform="translate(201.903 223.205)">
		<path id="Path_99" class="st2" d="M5.4,13.9C3.8,11.6,3.3,8.7,4,6C4.3,5,4.8,4,5.4,3C7.7,6.3,7.7,10.6,5.4,13.9"/>
	</g>
	<g id="Group_58" transform="translate(204.099 230.454)">
		<path id="Path_100" class="st2" d="M3.7,11.9c0-2.8,1.3-5.4,3.4-7.2C7.9,4,8.9,3.4,9.9,3C10,4.7,9.6,9.5,3.7,11.9"/>
	</g>
	<g id="Group_59" transform="translate(204.099 237.687)">
		<path id="Path_101" class="st2" d="M3.7,11.9c0-2.8,1.3-5.4,3.4-7.2C8,4,8.9,3.4,10,3C10,7,7.5,10.6,3.7,11.9"/>
	</g>
	<g id="Group_60" transform="translate(196.609 230.438)">
		<path id="Path_102" class="st2" d="M10,11.9c-2.7-0.9-4.8-3-5.8-5.7C3.9,5.2,3.7,4.1,3.7,3C7.5,4.4,10,8,10,11.9"/>
	</g>
	<g id="Group_61" transform="translate(196.611 237.684)">
		<path id="Path_103" class="st2" d="M10,11.9c-2.6-1-4.7-3-5.6-5.6C3.9,5.3,3.7,4.2,3.7,3C7.5,4.4,9.9,8,10,11.9"/>
	</g>
	<g id="Group_62" transform="translate(199.53 256.113)">
		<path id="Path_104" class="st2" d="M4.2,3.2c0.2-0.1,0.3-0.1,0.5-0.1c0.3,0,0.5,0,0.8,0c0.3,0,0.6,0,1,0c0.4,0,0.8,0,1.2,0
			c0.3,0,0.6,0,0.9,0s0.7,0,1,0c0.3,0,0.6,0,0.9,0c0.2,0,0.3,0,0.5,0.1c0.1,0.1,0.2,0.3,0.3,0.5c0.1,0.3,0.1,0.6,0.1,0.8
			c0,0.3,0,0.6,0,1c0,0.3,0,0.6,0,0.9c0,0.3,0,0.6-0.1,0.9c0,0.2,0,0.4-0.2,0.5C11,7.9,10.9,7.9,10.8,8c-0.1,0-0.3,0-0.4,0
			c-0.1,0-0.3,0-0.4,0C9.9,8,9.8,8,9.7,7.9L9.7,7.8c0-0.1-0.1-0.2-0.1-0.4S9.5,7.2,9.4,7.1S9.3,6.9,9.3,6.8c0-0.1,0-0.2-0.1-0.4
			c0-0.1,0-0.3,0-0.4c0-0.1,0-0.2-0.1-0.3c0-0.1-0.1-0.1-0.2-0.1c-0.1,0-0.2,0.1-0.2,0.3c0,0.2-0.1,0.4-0.1,0.6c0,0.2,0,0.5,0,0.7
			c0,0.2,0,0.4,0,0.6c0,0.5,0,1.1,0,1.7c0,0.7,0,1.3,0,2c0,0.7,0,1.3,0,1.9s0,1.1,0.1,1.5c0,0.1,0,0.2,0.1,0.3
			c0,0.1,0.1,0.2,0.1,0.4c0,0.1,0,0.3,0,0.4c0,0.1,0,0.3,0,0.4c0,0.1,0.1,0.2,0.1,0.2s0.1,0,0.1,0.1c0,0.1,0,0.2,0,0.2
			c0,0.1,0,0.2-0.1,0.3s0,0.2-0.1,0.3c0,0.1,0,0.1-0.1,0.2c-0.1,0.1-0.2,0.1-0.3,0.1C8.6,18,8.4,18,8.3,18c-0.2,0-0.3,0-0.5,0H7.4
			c-0.3,0-0.6,0-0.9-0.1c-0.2,0-0.4-0.1-0.5-0.3C5.9,17.4,5.9,17.2,6,17c0-0.3,0.1-0.5,0.2-0.8c0.1-0.3,0.2-0.5,0.2-0.7
			c0.1-0.2,0.1-0.3,0.1-0.5c0.1-0.6,0.1-1.1,0.1-1.7c0-0.6-0.1-1.2-0.1-1.8c0-0.8,0-1.5,0-2.2s0-1.3-0.1-1.9c0-0.2,0-0.4,0-0.6
			c0-0.2,0-0.4,0-0.7c0-0.2,0-0.3-0.1-0.5c0-0.1-0.1-0.1-0.3,0C6,5.8,5.9,5.9,5.9,6.1c0,0.2-0.1,0.3-0.1,0.5c0,0.2,0,0.4-0.1,0.5
			c0,0.2-0.1,0.3-0.1,0.5C5.5,7.8,5.2,7.9,4.7,7.9c-0.1,0-0.3,0-0.4,0c-0.1,0-0.2,0-0.3-0.1L3.9,7.6c0-0.1-0.1-0.3-0.1-0.4
			S3.8,6.9,3.8,6.8c0-0.1,0-0.2,0-0.3c0-0.2,0-0.4,0-0.6c0-0.2,0.1-0.5,0.1-0.8s0-0.5,0-0.6c0-0.2,0-0.4,0-0.5c0-0.1,0-0.3,0.1-0.4
			C4,3.4,4.1,3.3,4.2,3.2 M7,19.6c0.4-0.1,0.8-0.1,1.2-0.1c0.4,0,0.8,0.1,1.1,0.2c0.1,0.1,0.2,0.1,0.3,0.2c0.1,0.1,0.2,0.2,0.3,0.3
			c0.1,0.1,0.2,0.2,0.3,0.4c0.1,0.1,0.2,0.2,0.2,0.3c0.1,0.2,0.2,0.5,0.2,0.7c0,0.3,0.1,0.6,0.1,0.9c0,0.3,0,0.7,0,1v1.1
			c0,0.7,0,1.4,0,2.2c0,0.8,0,1.5,0.1,2.3c0,0.1,0,0.3,0,0.4c0,0.1,0,0.3,0,0.4c0,0.1,0,0.2,0.1,0.3c0,0.1,0,0.2,0,0.3
			c0,0.2-0.1,0.4-0.1,0.6c-0.1,0.2-0.1,0.5-0.2,0.7c-0.1,0.3-0.1,0.5-0.1,0.8c0,0.2,0,0.4-0.1,0.5c0,0-0.1,0.1-0.1,0.1
			c-0.1,0.1-0.1,0.1-0.2,0.2c-0.1,0.2-0.2,0.3-0.3,0.4c-0.1,0.1-0.3,0.2-0.4,0.3c-0.1,0.1-0.3,0.2-0.4,0.2c-0.2,0.1-0.4,0.1-0.6,0.2
			c-0.2,0.1-0.5,0.1-0.7,0.1c-0.3,0-0.5,0-0.8,0c-0.1,0-0.2-0.1-0.3-0.1c-0.1-0.1-0.2-0.1-0.3-0.2l-0.4-0.1c-0.1,0-0.2-0.1-0.2-0.1
			c-0.1,0-0.1-0.1-0.2-0.2c-0.1-0.1-0.2-0.2-0.2-0.3c-0.1-0.2-0.3-0.4-0.4-0.6c-0.1-0.2-0.2-0.5-0.2-0.7c0-0.3-0.1-0.6-0.1-0.9
			s0-0.7-0.1-1.2c-0.1-1-0.1-2,0-3s0-2,0-3.1c0-0.5,0-1,0-1.5c0-0.5,0.1-1,0.2-1.4c0.1-0.2,0.2-0.4,0.3-0.5c0.1-0.2,0.3-0.3,0.4-0.5
			c0.2-0.2,0.4-0.3,0.6-0.4c0.2-0.1,0.5-0.2,0.7-0.2L7,19.6z M5,5.2C5,5.2,5,5.2,5,5.2c-0.1,0-0.1,0.1-0.1,0.1C4.9,5.3,5,5.3,5,5.2
			L5,5.2z M5.2,4.8C5.2,4.8,5.2,4.8,5.2,4.8c-0.1,0-0.1,0.1-0.1,0.1S5.2,4.9,5.2,4.8L5.2,4.8z M5.2,4.2C5.2,4.2,5.1,4.2,5.2,4.2
			c-0.1,0.1,0,0.1,0,0.1c0,0.1,0,0.2-0.1,0.3c0,0,0,0.1,0.2,0.1c0.1-0.1,0.1-0.2,0.1-0.2c0-0.1-0.1-0.1-0.2-0.2L5.2,4.2z M5.4,5
			C5.4,5,5.4,5,5.4,5c-0.1,0-0.1,0.1-0.1,0.1S5.4,5.1,5.4,5L5.4,5z M5.5,5.2C5.5,5.2,5.5,5.2,5.5,5.2c-0.1,0-0.1,0.1-0.1,0.1
			S5.4,5.3,5.5,5.2L5.5,5.2z M6.3,3.9C6.3,3.9,6.3,3.9,6.3,3.9C6.2,4,6.2,4,6.1,4c0-0.1,0-0.1-0.1-0.1C6,4,6,4,6,4
			c0,0-0.1,0-0.1,0.1c0,0,0,0.1,0,0.1H5.8c0,0.1,0.1,0.2,0,0.2c0,0-0.1,0-0.1,0L5.6,4.3c0,0-0.1,0-0.1,0c0,0.1,0,0.2,0.1,0.2
			c0.1,0,0.2,0.1,0.3,0.2c0.1,0,0.2,0,0.2,0c0,0.1,0,0.1,0,0.2C6,5,6,5,6,5.1c0,0,0.1,0.1,0.2,0c0-0.2,0-0.3-0.1-0.4s0-0.2,0.2-0.3
			h0.1c0-0.1,0-0.1,0-0.2c0-0.1,0-0.1-0.1-0.1L6.3,3.9z M5.9,5C5.9,5,5.9,5,5.9,5C5.8,4.9,5.8,4.9,5.8,5C5.8,5,5.8,5.1,5.9,5
			C5.9,5.1,5.9,5.1,5.9,5 M6,4.5C6.1,4.5,6.1,4.5,6,4.5C6.1,4.4,6,4.4,6,4.5C6.1,4.3,6.1,4.2,6.1,4H6c0,0.1,0,0.2-0.1,0.2
			C5.9,4.3,5.9,4.4,6,4.5L6,4.5z M6.3,5.2c0.1,0,0.1,0,0.2,0c0,0.1,0.1,0.1,0.2,0.1s0.2,0,0.2,0.1c0-0.2,0-0.2-0.1-0.3
			c-0.1,0-0.2,0-0.3,0.1C6.5,5.1,6.5,5.1,6.3,5.2c0-0.1,0-0.1-0.1-0.1C6.2,5.2,6.3,5.2,6.3,5.2 M6.7,4.9V4.8c-0.1,0-0.1,0-0.2,0
			l-0.1,0c0,0,0,0-0.1,0c0,0-0.1,0-0.1-0.1c0,0.1,0,0.1,0,0.2c0,0,0.1,0,0.1,0c0.1,0,0.1,0,0.2,0L6.7,4.9z M6.3,3.9h0.1
			C6.4,3.8,6.4,3.8,6.3,3.9L6.3,3.9z M7.1,4.4C7.1,4.4,7.1,4.5,7.1,4.4C7,4.5,7,4.5,7,4.4c-0.2,0.1-0.4,0.1-0.6,0
			C6.3,4.6,6.3,4.7,6.3,4.7c0.1,0,0.1,0,0.2,0c0.1,0,0.2,0,0.3-0.1c0.1,0,0.2,0,0.2,0.1c-0.1,0-0.1,0-0.2,0c0,0.1,0,0.1,0,0.2h0.1
			C7,5,7.1,5.1,7.1,5.2c0.1,0.1,0.2,0.1,0.4,0.1C7.5,5.4,7.4,5.5,7.3,5.5c0.1,0.2,0.1,0.2,0.1,0.2s0.1-0.1,0.2-0.2
			c0,0.1,0,0.1,0.1,0.1c0,0,0,0,0-0.1H7.6c0-0.1,0-0.2-0.1-0.2c0,0,0-0.1-0.1-0.1c0,0,0-0.1,0-0.1c0.1,0,0.1,0.1,0.2,0.1
			c0.1,0,0.2,0.1,0.2,0.1c0,0.1,0,0.1,0,0.2c0,0-0.1,0.1-0.1,0.1h0.2V4.8H7.8V4.7C7.7,4.6,7.6,4.6,7.6,4.8h0.2c0,0,0,0.1,0,0.1
			c0,0,0,0.1-0.1,0.1c0,0-0.1,0-0.1,0c0,0,0-0.1,0-0.2c0,0-0.1,0.1-0.1,0.1c0,0-0.1,0-0.1,0c0,0,0,0-0.1,0c0,0-0.1,0-0.1,0.1
			c0-0.1,0-0.1-0.1-0.1c0,0,0,0,0,0.1H6.9c0,0,0-0.1,0.1-0.1c0,0,0-0.1,0-0.1c0.1,0,0.2,0,0.2-0.1c0-0.1,0-0.1,0-0.2L7.1,4.4z
			 M6.5,4L6.5,4L6.5,4C6.4,4,6.4,4,6.5,4 M6.6,4.2C6.6,4.2,6.6,4.2,6.6,4.2c-0.1,0-0.1,0.1-0.1,0.1S6.5,4.3,6.6,4.2L6.6,4.2z
			 M6.6,3.9C6.6,3.8,6.6,3.8,6.6,3.9c-0.1-0.1-0.1,0-0.1,0H6.6z M6.5,4C6.5,4.1,6.5,4.1,6.5,4c0.1,0.1,0.1,0,0.1,0H6.5z M7.4,4.3
			c0,0,0-0.1,0-0.1c0,0,0-0.1,0.1-0.1C7.4,4.1,7.3,4,7.3,4c0-0.1-0.1-0.1-0.1-0.1c0,0,0,0.1,0,0.1C7.1,4,7,4,7,4C7,4,6.9,4,6.9,4
			c0,0,0-0.1,0-0.1c0,0,0-0.1,0-0.1c0,0-0.1-0.1-0.1-0.1c0,0.1,0,0.2-0.1,0.2V4C6.7,4,6.9,4,7,4.1s0.2,0.1,0.1,0.3
			c0.1,0,0.1,0,0.1,0.1h0.1c0,0.1,0,0.1,0.1,0.2c0,0,0,0,0.1,0c0,0,0.1-0.1,0.1-0.1c0,0,0.1-0.1,0.1-0.1c0,0,0.1,0,0.1,0
			c0,0,0.1,0.1,0.2,0c0.1,0,0.1,0,0.1-0.1c0,0,0.1-0.1,0.1-0.1c0,0,0.1,0,0.1,0c0,0,0,0.1,0,0.2c0.1-0.1,0.2-0.1,0.2,0
			c0,0.1,0,0.2-0.1,0.2c0.1,0,0.1,0,0.2,0c0,0.1,0,0.1,0,0.2h0.1c0-0.1,0-0.1,0-0.2c0,0,0,0,0.1,0c0,0,0,0.1,0.1,0.1
			c0,0.1,0,0.1,0,0.2c0-0.1,0.1-0.1,0.1,0S9.1,5,9.1,5c0-0.1,0.1-0.1,0-0.1c0,0,0-0.1-0.1-0.1c0,0-0.1,0-0.1-0.1c0,0,0-0.1,0-0.1
			c0,0-0.1,0-0.2,0c0,0-0.1,0-0.1,0c0,0,0,0,0-0.1c0-0.1,0-0.1,0.1-0.2c0,0-0.1-0.1-0.1-0.1S8.5,4.1,8.5,4.1c0,0,0,0.1,0,0.1
			S8.4,4.3,8.4,4.3c0,0-0.1-0.1,0-0.1c0,0,0-0.1,0-0.1c0,0,0-0.1,0-0.1c0,0-0.1-0.1-0.2-0.1C8.1,3.9,8.1,4,8.1,4.1
			C8,4.2,7.9,4.2,7.7,4.2V4.1c0.1,0,0.1,0,0.1,0c0,0,0,0,0-0.1c0,0,0-0.1,0-0.1c0,0,0-0.1,0.1-0.1c-0.3-0.1-0.4,0-0.3,0.3H7.6
			c0,0.1,0,0.1,0.1,0.1c0,0.1,0,0.1-0.1,0.1L7.4,4.3z M6.8,5.5c0,0-0.1,0-0.1,0c0,0,0,0.1,0,0.1S6.7,5.6,6.8,5.5L6.8,5.5z M6.7,4.9
			C6.7,5,6.8,5,6.7,4.9c0.1,0.1,0.1,0,0.1,0H6.7z M6.9,22.5c-0.1,0.4-0.1,0.8-0.1,1.2c0,0.5,0.1,0.9,0.1,1.4v2.7c0,0.4,0,0.9,0,1.5
			c0,0.5,0,1,0,1.5c0,0.4,0.1,0.8,0.2,1.1c0.1,0.3,0.3,0.5,0.6,0.4c0.2,0,0.3-0.1,0.4-0.2c0.1-0.2,0.2-0.3,0.2-0.5
			c0.1-0.2,0.1-0.5,0.1-0.7c0-0.3,0-0.5,0-0.8c0-0.5,0-1.1,0-1.6s0-1,0-1.5s0-1,0-1.5s0-1,0-1.6c0-0.3,0-0.6,0-0.9
			c0-0.3-0.1-0.5-0.1-0.8c-0.1-0.2-0.2-0.4-0.3-0.5c-0.1-0.1-0.4-0.1-0.5-0.1c-0.1,0.1-0.3,0.2-0.4,0.3C7.1,22.2,7,22.4,6.9,22.5
			 M7.1,4.3H7v0.1h0.1V4.3z M7,5.7h0.1V5.6C7.1,5.6,7,5.6,7,5.7C7,5.6,7,5.7,7,5.7L7,5.7z M7.1,5.6C7.2,5.6,7.2,5.6,7.1,5.6
			c0.1-0.1,0.2-0.1,0.2-0.1c0-0.1-0.1-0.1-0.1-0.1C7.1,5.5,7.1,5.5,7.1,5.6 M7.2,4.9H7.1C7.1,5,7.1,5,7.2,4.9L7.2,4.9z M7.4,4.3
			C7.4,4.3,7.4,4.4,7.4,4.3c0,0.1-0.1,0.1-0.1,0.1C7.3,4.3,7.4,4.3,7.4,4.3 M7.3,6.1C7.3,6.2,7.4,6.2,7.3,6.1c0.1,0.1,0.1,0,0.1,0
			H7.3z M7.5,6.4C7.5,6.4,7.5,6.4,7.5,6.4C7.4,6.5,7.4,6.5,7.5,6.4C7.5,6.5,7.5,6.5,7.5,6.4L7.5,6.4z M7.6,3.7
			C7.6,3.7,7.6,3.7,7.6,3.7c-0.1,0-0.1,0.1-0.1,0.1S7.6,3.8,7.6,3.7L7.6,3.7z M7.5,4.1C7.5,4.1,7.5,4.1,7.5,4.1L7.5,4.1L7.5,4.1z
			 M7.7,6C7.7,6,7.7,6,7.7,6c-0.1,0-0.1,0.1-0.1,0.1S7.7,6.1,7.7,6L7.7,6z M7.8,5.7C7.8,5.7,7.7,5.7,7.8,5.7c-0.1,0-0.1,0.1-0.1,0.1
			S7.7,5.8,7.8,5.7L7.8,5.7z M7.9,5.9C7.9,5.9,7.8,5.9,7.9,5.9C7.8,5.9,7.8,5.9,7.9,5.9C7.8,6,7.8,6,7.8,6C7.8,6,7.8,6,7.9,5.9
			L7.9,5.9z M7.9,4.3C7.9,4.4,7.9,4.4,7.9,4.3C7.9,4.4,7.8,4.4,7.8,4.4S7.8,4.4,7.9,4.3L7.9,4.3z M7.8,4.7C7.8,4.7,7.8,4.7,7.8,4.7
			L7.8,4.7L7.8,4.7z M8.1,4.8c0,0,0-0.1,0-0.1c0,0,0,0-0.1-0.1c0,0-0.1,0-0.1,0.1v0.1L8.1,4.8z M8.1,5.1V5C8,5,8,5.1,8.1,5.1
			L8.1,5.1z M8.1,5c0.1,0,0.2,0,0.2-0.1C8.2,4.9,8.1,4.9,8.1,5 M8.1,5.1v0.2h0.2c0-0.1,0-0.1,0-0.2C8.2,5.1,8.2,5.1,8.1,5.1
			 M8.3,5.5C8.3,5.5,8.3,5.5,8.3,5.5c-0.1-0.1-0.1-0.1-0.1,0C8.2,5.5,8.2,5.6,8.3,5.5C8.3,5.6,8.3,5.6,8.3,5.5 M8.3,4.9
			C8.3,4.9,8.4,4.9,8.3,4.9c0.1-0.1,0.1-0.2,0.1-0.2c-0.1,0-0.1,0-0.1,0.1C8.3,4.8,8.3,4.9,8.3,4.9 M8.5,5.1
			C8.5,5.1,8.5,5.1,8.5,5.1c-0.1,0-0.1,0.1-0.1,0.1S8.4,5.2,8.5,5.1L8.5,5.1z M8.6,3.8C8.6,3.8,8.6,3.8,8.6,3.8
			c-0.1,0-0.1,0.1-0.1,0.1S8.5,3.9,8.6,3.8L8.6,3.8z M8.8,3.9C8.8,3.9,8.7,3.9,8.8,3.9C8.7,3.9,8.7,3.9,8.8,3.9C8.7,4,8.7,4,8.7,4
			S8.7,4,8.8,3.9L8.8,3.9z M8.8,4.3C8.8,4.3,8.8,4.2,8.8,4.3c-0.1-0.1-0.1,0-0.1,0H8.8z M8.7,5.1c0.1,0,0.1,0,0.1-0.1
			C8.8,5,8.7,5.1,8.7,5.1C8.7,5.1,8.7,5.1,8.7,5.1 M9,4C9,4,9,4,9,4c-0.1,0-0.1,0.1-0.1,0.1S8.9,4.1,9,4L9,4z M9,4.5
			c-0.1,0-0.1,0-0.1,0.1C9,4.6,9,4.6,9,4.5 M9.2,4.2C9.1,4.2,9,4.2,9,4.3c0,0.1,0,0.1,0,0.2C9.1,4.4,9.2,4.3,9.2,4.2 M9.3,4.8
			C9.3,4.8,9.2,4.8,9.3,4.8c-0.1,0-0.1,0.1-0.1,0.1S9.2,4.9,9.3,4.8L9.3,4.8z M9.4,4.4C9.3,4.4,9.3,4.4,9.4,4.4
			C9.3,4.5,9.3,4.6,9.3,4.6h0.1c0,0.1,0,0.2,0,0.2s0.1,0,0.1,0c0,0,0.1-0.1,0.1-0.1c0,0,0.1-0.1,0.1-0.1c-0.1,0-0.1,0-0.2,0
			c0,0-0.1,0.1-0.1,0.1L9.4,4.4z M9.7,5.1C9.7,5.1,9.7,5.1,9.7,5.1c-0.1,0-0.1,0.1-0.1,0.1S9.6,5.2,9.7,5.1L9.7,5.1z M9.8,4.3
			C9.8,4.3,9.7,4.3,9.8,4.3c-0.1,0-0.1,0.1-0.1,0.1S9.7,4.4,9.8,4.3L9.8,4.3z M10,5.3C10,5.3,9.9,5.3,10,5.3c-0.1,0-0.1,0.1-0.1,0.1
			S9.9,5.4,10,5.3L10,5.3z M10.1,4.4C10.1,4.4,10,4.4,10.1,4.4C10,4.5,10,4.5,10,4.5S10,4.5,10.1,4.4L10.1,4.4z M10.2,4.7
			C10.2,4.7,10.1,4.7,10.2,4.7c-0.1,0-0.1,0.1-0.1,0.1S10.1,4.8,10.2,4.7L10.2,4.7z"/>
	</g>
</g>
</svg>
