<?xml version="1.0" encoding="utf-8"?>
<!-- Generator: Adobe Illustrator 25.2.3, SVG Export Plug-In . SVG Version: 6.00 Build 0)  -->
<svg version="1.1" id="Layer_1" xmlns="http://www.w3.org/2000/svg" xmlns:xlink="http://www.w3.org/1999/xlink" x="0px" y="0px"
	 viewBox="0 0 265.3 76.6" style="enable-background:new 0 0 265.3 76.6;" xml:space="preserve">
<style type="text/css">
	.st0{fill:#FFFFFF;}
	.st1{fill:#221E20;}
</style>
<g id="Group_76" transform="translate(-77.871 -148.947)">
	<path id="Path_122" class="st0" d="M186,199c0-3,0.6-5.9,1.8-8.6c1.1-2.6,2.7-5,4.8-7.1c2-2,4.4-3.7,7-4.8c5.5-2.4,11.6-2.4,17.1,0
		c2.6,1.1,5,2.8,7.1,4.8c2,2,3.7,4.4,4.8,7.1c1.2,2.7,1.8,5.6,1.8,8.5c0.1,5.9-2.3,11.6-6.5,15.7c-4.2,4.1-9.9,6.4-15.8,6.4
		c-2.9,0-5.8-0.6-8.5-1.7c-5.3-2.2-9.5-6.4-11.7-11.7C186.6,204.8,186,201.9,186,199 M187.6,196h0.2l-0.2-0.3V196z M188.3,201.2
		L188.3,201.2l0.3-0.2L188.3,201.2z M188.3,203.4h0.2v-0.2L188.3,203.4z M188.6,199.1l0.2,0.2v-0.5L188.6,199.1z M188.6,202.3
		l0.2,0.2V202L188.6,202.3z M188.7,200.3v0.2l0.1-0.1L188.7,200.3z M188.8,194.8c0.2,0,0.3-0.2,0.3-0.5h-0.3V194.8z M188.8,195.7
		h0.3c-0.1-0.2-0.2-0.3-0.3-0.5V195.7z M189.1,196.3l0.2,0.2l0.2-0.2l-0.2-0.3L189.1,196.3z M189.3,202.7v0.3l0.5-0.5l-0.2-0.3
		L189.3,202.7z M189.4,204l1.1-0.7l0.5,0.3h0.5c-0.2-0.4-0.7-0.7-1.2-0.7c-0.2,0-0.4,0.1-0.5,0.2c-0.1,0.2-0.3,0.3-0.4,0.5v0.2
		L189.4,204z M189.5,194.9c0,0.2,0.1,0.3,0.2,0.4c0.2,0.1,0.3,0.2,0.5,0.3c0.2,0.1,0.3,0.2,0.5,0.3c0.1,0.1,0.2,0.2,0.2,0.4h0.8
		c-0.1-0.4-0.2-0.7-0.2-1.1c0-0.4,0-0.7,0-1.1h-0.1l-0.3,0.4l0.2,0.8c-0.5,0-1.1-0.2-1.4-0.7L189.5,194.9z M189.5,193.6h0.2v-0.2
		L189.5,193.6z M189.5,197.9l0.5-0.3h-0.3L189.5,197.9z M190.8,207.4l1.3-0.7l0.3-0.5h0.2l0.8,0.8c0-0.3,0.2-0.6,0.4-0.8
		c0.3-0.2,0.6-0.2,0.9-0.2l0.1,0.5l-0.3,0.5h0.2l0.7-0.9l-0.2-0.3c-0.3,0-0.6,0-0.9,0.1c-0.3,0.1-0.5,0.1-0.8,0.1l0.3-0.4l-0.7-0.9
		l-0.9,0.5h-0.3c0.2-0.4,0.5-0.7,0.8-1c0.3-0.3,0.7-0.5,1.1-0.5l-0.3-0.2l0.3-0.3h-0.3l-0.5,0.3l-0.6-0.5l-0.6,0.7l0.5-0.2
		c0,0.5-0.2,0.8-0.5,0.8c-0.3,0.1-0.7,0.1-1,0.1l-0.5-0.2l-0.7,0.5l-0.2,0.5l0.7,0.9l-0.2,0.3L190.8,207.4z M190,201.5h0.7
		c0-0.3-0.1-0.5-0.4-0.5c0,0-0.1,0-0.1,0H190V201.5z M190.2,191.5c0.2-0.1,0.3-0.3,0.3-0.5h-0.3V191.5z M190.2,196.9l0.2-0.2
		l-0.2-0.3V196.9z M190.2,204.8l1,0.5l0.2,0.7l-0.5,0.7c0.1-0.4,0-0.7-0.3-0.9c-0.3-0.1-0.5-0.4-0.5-0.8V204.8z M190.3,192.7
		l0.2,0.2v-0.5L190.3,192.7z M190.5,194.1l0.7-0.5l-0.5-0.5L190.5,194.1z M190.5,197.5h0.2v-0.3L190.5,197.5z M190.5,202.4
		L190.5,202.4l0.1,0.1L190.5,202.4z M190.7,190.3c0.1,0,0.1,0,0.1-0.1c0,0,0,0,0,0l-0.1-0.1V190.3z M190.7,188.9l0.2,0.2l0.2-0.2
		l-0.2-0.3L190.7,188.9z M191,211.8l0.2,0.2v-0.5L191,211.8z M191.1,201.1c0.2,0,0.4-0.1,0.5-0.3c0.1-0.2,0.1-0.4,0.1-0.6v-0.3h-0.5
		l0.3,0.5L191.1,201.1z M191.1,208.6l0.1,0.3l0.3-0.5l-0.1-0.2L191.1,208.6z M191.3,209.8l0.1-0.1l-0.1-0.1L191.3,209.8z
		 M191.5,188.1l-0.1,0.1l0.1,0.1l0.1-0.1L191.5,188.1z M191.4,207.7l0.2-0.2l-0.2-0.3V207.7z M191.5,191.7l0.2,0.2v-0.5L191.5,191.7
		z M191.5,201.8l0.2,0.2v-0.5L191.5,201.8z M191.5,210.1l0.2,0.2v-0.5L191.5,210.1z M191.5,211.5l0.2,0.3v-0.5L191.5,211.5z
		 M191.7,187h0.2l-0.2-0.3V187z M191.7,197.7l0.8-1h-0.8V197.7z M191.9,209.1c0.3-0.2,0.6-0.4,0.9-0.6c0.3-0.2,0.5-0.5,0.6-0.8
		l-0.5-0.5l-0.3,0.5h0.3c0,0.3-0.2,0.6-0.5,0.7c-0.3,0.1-0.5,0.3-0.7,0.5L191.9,209.1z M191.9,192.7l0.3-0.3v-0.2L191.9,192.7z
		 M191.9,194.3l0.2-0.2l-0.2-0.3V194.3z M191.9,207.9h0.3l-0.3-0.2V207.9z M191.9,199.4l0.2,0.2l0.2-0.2l-0.2-0.3L191.9,199.4z
		 M192.1,209.4v0.2l0.1-0.1L192.1,209.4z M192.2,201.8l0.2,0.2v-0.5L192.2,201.8z M192.8,201c-0.3,0-0.4,0.1-0.5,0.3h0.5V201z
		 M192.6,210.1c0.3,0,0.5-0.1,0.7-0.3c0.2-0.2,0.3-0.4,0.4-0.6c0.1-0.2,0.3-0.4,0.4-0.6c0.1-0.2,0.4-0.3,0.6-0.3l0.3,0.3
		c0.1-0.2,0.2-0.4,0.2-0.6c0-0.2,0.1-0.4,0.3-0.6l-0.5,0.3l-0.5-0.3l-2.1,2.4L192.6,210.1z M192.4,210.5L192.4,210.5l0.1,0.2
		l0.1-0.1L192.4,210.5z M192.6,211.8l0.3-0.5h-0.3l-0.2,0.3L192.6,211.8z M192.8,186.7h0.2v-0.2L192.8,186.7z M192.8,190l0.2,0.3
		v-0.5l-0.1,0.1l-0.1-0.3V190z M192.8,193.1l0.7-0.3h-0.2L192.8,193.1z M193,189.9c0,0-0.1,0-0.1,0.1C193,190,193,189.9,193,189.9
		 M193,199.7c0,0.2,0,0.4,0.1,0.6c0.1,0.2,0.3,0.3,0.5,0.3c0-0.2-0.1-0.4-0.2-0.6C193.4,199.8,193.2,199.7,193,199.7 M193.1,188.6
		l0.3-0.3h-0.3V188.6z M193.1,191.7l0.3,0.2v-0.5l-0.3-0.3V191.7z M193.1,198.4l0.2-0.2l-0.2-0.3V198.4z M193.3,191.5
		c0,0.1-0.1,0.2-0.1,0.3C193.1,191.6,193.2,191.5,193.3,191.5 M193.1,197.5l0.2,0.2v-0.5L193.1,197.5z M193.3,211v0.2l0.1-0.1
		L193.3,211z M193.5,210.2h-0.2l0.1,0.1L193.5,210.2z M194,185.5c-0.3,0-0.5,0.1-0.5,0.4c0,0,0,0.1,0,0.1c0.3,0,0.5-0.1,0.5-0.4
		C194.1,185.6,194.1,185.5,194,185.5 M193.5,195.3l0.2-0.2l-0.2-0.3V195.3z M193.5,195.5l0.5,0.7l-0.3-1L193.5,195.5z M194.7,201
		c-0.5-0.1-1,0.2-1.1,0.7h0.3C194.4,201.7,194.7,201.5,194.7,201 M193.6,193.1l0.2,0.3l0.2-0.3l-0.2-0.3L193.6,193.1z M194.1,187.7
		l0.2-0.3l-0.2-0.5l-0.3,0.2v0.3L194.1,187.7z M193.8,211.5h0.3l-0.3-0.5V211.5z M193.9,200.1l0.2,0.3v-0.5L193.9,200.1z M195.4,212
		l-0.2,0.3l-0.3-0.7l-0.2,0.1l-0.1-0.4l0.3-0.2l-0.3-0.5l-0.5,0.5l0.5,1.5h-0.9c0.2,0.1,0.4,0.2,0.6,0.4c0.2,0.1,0.2,0.4,0.2,0.6
		c0.2,0,0.4-0.1,0.6-0.2c0.2-0.1,0.4-0.2,0.6-0.2v-0.3l0.4-0.1l0.3,0.3l-0.3,0.2h0.7l0.5-0.2l0.7,0.2l-0.1-0.3c0-0.4,0.3-0.8,0.7-1
		c0.4-0.2,0.7-0.6,0.7-1l0.5,0.3l0.3-0.5l-0.4-0.1l-0.7,0.2l-0.1-0.4l-0.1,0.5c-0.2,0.1-0.4,0.3-0.7,0.4c-0.2,0.1-0.5,0.2-0.7,0.2
		l-0.7-0.5c-0.5,0.3-0.9,0.6-1.3,1.1l-0.2-0.3L195.4,212z M194,202.5c0,0.1,0.1,0.2,0.2,0.2c0.1,0,0.2,0.1,0.3,0.1l0.1-0.1
		L194,202.5z M194.2,206.7l-0.1-0.1l-0.1,0.1l0.1,0.1L194.2,206.7z M194.2,183.2l0.2-0.3l-0.2-0.3V183.2z M194.2,202.2l0.2-0.2
		l-0.2-0.3V202.2z M194.2,204.4l0.2-0.3l-0.2-0.3V204.4z M194.5,196h0.2v-0.3L194.5,196z M194.7,195.3l0.2-0.2l-0.2-0.3V195.3z
		 M194.7,197.9l0.3,0.2v-0.5l-0.3-0.2V197.9z M194.7,205l0.2-0.2l-0.2-0.3V205z M194.7,214.6l0.2-0.3l-0.2-0.3V214.6z M194.8,186.8
		l0.2,0.2l0.2-0.2l-0.2-0.3L194.8,186.8z M194.8,196.5l0.2,0.2l0.2-0.2l-0.2-0.3L194.8,196.5z M194.9,197.7c0,0.1-0.1,0.2-0.1,0.3
		C194.8,197.8,194.8,197.7,194.9,197.7 M195.6,214.8c0.1,0.3,0.3,0.5,0.4,0.7c0.2,0.2,0.4,0.4,0.7,0.4c0-0.4-0.1-0.8-0.2-1.2
		c-0.1-0.4-0.2-0.8-0.2-1.2c-0.3,0-0.5,0.2-0.8,0.6c-0.2,0.3-0.4,0.6-0.5,0.9L195.6,214.8z M195.2,204.1c-0.1,0.3-0.1,0.6,0,0.9
		V204.1z M195.2,202.2h0.2l-0.2-0.2V202.2z M195.7,186v-0.3l-0.3-0.3v0.3L195.7,186z M195.4,198.3l0.1,0.2l0.1-0.1L195.4,198.3z
		 M195.7,199.8v-0.5l-0.3,0.3L195.7,199.8z M195.4,207.2l0.2-0.3l-0.2-0.3V207.2z M195.4,212l0.2-0.1
		C195.6,211.9,195.5,212,195.4,212 M195.4,216l0.2-0.2l-0.2-0.3V216z M195.5,182.9l0.2,0.3v-0.5L195.5,182.9z M195.6,192.7l0.1-0.1
		l-0.1-0.1L195.6,192.7z M195.7,207.9h0.2l-0.2-0.2V207.9z M196.7,206.8l0.3-0.3l0.4,0.3l0.7-1.1h-1V205l-0.9,0.3l0.2,0.5l-0.5,0.7
		L196.7,206.8z M195.9,187.4h0.3v-0.3L195.9,187.4z M196.4,196.7l0.5-0.3l-1-0.7v0.1L196.4,196.7z M196,201.8l0.2,0.2v-0.5
		L196,201.8z M197.8,207c-0.4,0.2-0.7,0.4-1.1,0.5c-0.4,0.2-0.7,0.6-0.6,1l0.8-0.6l0.7,0.3l0.5-0.5l-0.3-0.5L197.8,207z
		 M196.1,207.2v0.2l0.1-0.1L196.1,207.2z M196.4,192.1h-0.2l0.1,0.1L196.4,192.1z M196.2,193.6l0.2-0.2h-0.2V193.6z M196.2,210.4
		v0.1c0.2-0.1,0.3-0.2,0.3-0.4c0-0.2,0.1-0.4,0.1-0.6L196.2,210.4z M196.3,201.2L196.3,201.2l0.2-0.1l-0.1-0.1L196.3,201.2z
		 M196.6,199.1v-0.3h-0.3L196.6,199.1z M196.4,209.6l0.2-0.2l-0.2-0.3V209.6z M196.4,211l0.2-0.2l-0.2-0.3V211z M196.4,194.6
		l0.2,0.2l0.2-0.2l-0.2-0.3L196.4,194.6z M196.4,202.7l0.2,0.2l0.2-0.2l-0.2-0.3L196.4,202.7z M197.4,191.8L197,191l-0.3,0.5
		L197.4,191.8z M196.8,208.8l-0.1,0.1l0.1,0.1l0.1-0.1L196.8,208.8z M196.7,183.9l0.2,0.2v-0.5L196.7,183.9z M196.7,210.1l0.2,0.2
		v-0.5L196.7,210.1z M196.7,213.9l0.2,0.2v-0.5L196.7,213.9z M197.1,187.6l-0.1-0.1l-0.1,0.1v0.1l0.1,0.1L197.1,187.6z M196.9,195.3
		l0.2,0.3v-0.5l-0.1,0.1l-0.1-0.3L196.9,195.3z M197,195.1c0,0-0.1,0-0.1,0.1C197,195.2,197,195.2,197,195.1 M197.1,181.7l0.2-0.2
		l-0.2-0.3V181.7z M197.1,199.8l0.3,0.3v-0.5l-0.3-0.3V199.8z M197.2,194.1l0.2,0.2v-0.5L197.2,194.1z M197.3,199.6
		c0,0-0.1,0.1-0.1,0.1s0,0.1-0.1,0.1c0,0,0.1-0.1,0.1-0.1C197.2,199.7,197.3,199.6,197.3,199.6 M197.2,214.9l0.2,0.2v-0.5
		L197.2,214.9z M197.4,196h0.5l-0.3-0.5h-0.2L197.4,196z M197.4,210.6c0.2,0.1,0.4,0.2,0.6,0.2c0.2,0,0.5,0,0.7,0l-0.6-1
		L197.4,210.6z M197.4,214.4c0.1,0,0.2-0.1,0.2-0.2c0,0,0,0,0,0v-0.1L197.4,214.4z M197.6,216l0.5-0.5l-0.5-0.5l-0.2,0.2v0.3
		L197.6,216z M197.6,186.5l0.2-0.2l-0.2-0.3V186.5z M197.6,189.4l0.2-0.2l-0.2-0.3V189.4z M198.3,215.8c-0.3,0.2-0.6,0.5-0.7,0.9
		C197.9,216.5,198.2,216.2,198.3,215.8 M197.6,201.5l0.2,0.2l0.2-0.2l-0.2-0.3L197.6,201.5z M197.6,205.1l0.2,0.2l0.2-0.2l-0.2-0.3
		L197.6,205.1z M197.8,186l0.3,0.2v-0.5l-0.3-0.3V186z M198,185.8c0,0.1-0.1,0.2-0.1,0.3C197.9,185.9,198,185.8,198,185.8
		 M197.9,203.5l0.2,0.2v-0.5L197.9,203.5z M197.9,204.7l0.2,0.2v-0.5L197.9,204.7z M197.9,216.8l0.2,0.2v-0.5L197.9,216.8z
		 M198.1,200.8l1.1-0.3h0.1l-0.1-0.2l-0.5-0.3L198.1,200.8z M198.2,202.5l0.1-0.1l-0.1-0.1L198.2,202.5z M198.6,180.8v-0.3l-0.3-0.2
		v0.2L198.6,180.8z M199.5,186.7c-0.3,0.2-0.5,0.5-0.8,0.7c-0.3,0.2-0.4,0.6-0.4,0.9v0.1l1.2-1.2V186.7z M198.3,194.6h0.3l0.2-0.3
		h-0.2L198.3,194.6z M198.3,205.3l0.2-0.2l-0.2-0.3V205.3z M198.6,207.2h0.2l0.3-0.3h-0.7L198.6,207.2z M198.3,208.4h0.3v-0.2h-0.3
		V208.4z M198.4,182.4l0.2,0.2v-0.5L198.4,182.4z M198.4,196.3l0.2,0.2V196L198.4,196.3z M198.4,197.5l0.2,0.2v-0.5L198.4,197.5z
		 M198.8,195.7L198.8,195.7l-0.2-0.4l-0.1,0.1L198.8,195.7z M198.6,216.8c0.2-0.1,0.3-0.3,0.3-0.5h-0.3V216.8z M198.8,190.3l0.2-0.2
		l-0.2-0.3V190.3z M198.8,212.7l0.2-0.2l-0.2-0.3V212.7z M198.8,215.8h0.1l1.1-0.5l-0.5-0.2L198.8,215.8z M198.8,215.6l0.2-0.2
		l-0.2-0.3V215.6z M198.8,185.3l0.2,0.2V185L198.8,185.3z M198.9,217.1l0.1,0.1l0.1-0.1c0-0.1,0-0.1-0.1-0.2L198.9,217.1z
		 M199,210.8L199,210.8l0.2-0.1L199,210.8z M199,190.7l0.7-0.2l-0.7-0.3V190.7z M199,192.8L199,192.8l1-0.7l-0.1-0.1L199,192.8z
		 M199.2,206.5l0.1-0.1L199,206v0.2L199.2,206.5z M199,210.1h0.2l-0.2-0.3V210.1z M199,213.2l0.2,0.3V213l-0.1,0.1l-0.1-0.3
		L199,213.2z M199.2,213c0,0-0.1,0-0.1,0.1C199.1,213.1,199.2,213.1,199.2,213 M199.2,201.7L199.2,201.7v0.3l0.1-0.1L199.2,201.7z
		 M199.3,182.2l0.2,0.2l0.2-0.2l-0.2-0.3L199.3,182.2z M199.3,191l0.2,0.2l0.2-0.2l-0.2-0.3L199.3,191z M199.3,200.8l0.2,0.2
		l0.2-0.2l-0.2-0.3L199.3,200.8z M199.3,203.2l0.2,0.2l0.2-0.2l-0.2-0.3L199.3,203.2z M199.3,216.1l0.2,0.2l0.2-0.2l-0.2-0.3
		L199.3,216.1z M199.3,216.8l0.2,0.2l0.2-0.2l-0.2-0.3L199.3,216.8z M199.4,181.4l0.1,0.1v-0.2L199.4,181.4z M199.5,201.2l0.1,0.2
		l0.1-0.1L199.5,201.2z M199.5,205.8l0.9-0.9l-0.5-0.3L199.5,205.8z M199.7,182.6c0,0.2,0.2,0.5,0.5,0.7v-0.2c0-0.3-0.1-0.5-0.4-0.5
		C199.8,182.6,199.7,182.6,199.7,182.6 M200.3,207.5l-0.4-0.7v-0.1l-0.2,0.3L200.3,207.5z M200.2,206l-0.3-0.1l-0.2,0.1H200.2
		L200.2,206z M199.8,214.4l0.2-0.3l-0.2-0.2V214.4z M199.9,196.7v0.2l0.1-0.1L199.9,196.7z M200,184.6l0.2-0.2l-0.2-0.3V184.6z
		 M200,216.8l0.2-0.2l-0.2-0.3V216.8z M200.2,194.6h0.5l-0.3-0.3h-0.2V194.6z M200.4,190.6c-0.1,0.3-0.1,0.6,0,0.9
		C200.5,191.2,200.5,190.9,200.4,190.6 M200.4,191.9c0.1,0.2,0.3,0.3,0.5,0.3v-0.3H200.4z M200.4,201.5h0.3l0.5-0.5l-0.5-0.2
		L200.4,201.5z M200.4,214.4c0.1,0,0.1,0,0.1-0.1c0,0,0,0,0,0l-0.1-0.1V214.4z M200.4,215.1l0.2-0.2l-0.2-0.3V215.1z M200.4,217
		L200.4,217c0.2,0,0.3-0.1,0.3-0.2c0,0,0,0,0,0L200.4,217z M200.5,200.3l0.2,0.2l0.2-0.2l-0.2-0.3L200.5,200.3z M200.5,209.4
		l0.2,0.2l0.2-0.2l-0.2-0.3L200.5,209.4z M200.5,215.4l0.2,0.2l0.2-0.2l-0.2-0.3L200.5,215.4z M200.5,216.3l0.2,0.2l0.2-0.2
		l-0.2-0.3L200.5,216.3z M200.9,183.1c-0.1,0-0.2,0.1-0.2,0.3L200.9,183.1L200.9,183.1z M201.6,207.2l0.7-0.5l0.7,0.3v0.3l0.3-0.4
		c-0.2-0.2-0.3-0.4-0.5-0.6c-0.2-0.2-0.2-0.5-0.2-0.7l-0.3,0.5l-1.4-1.2l-0.3,0.5l0.3,0.7h0.2l0.3-0.3l0.7,0.7L201.6,207.2z
		 M200.8,180l0.2,0.3v-0.5L200.8,180z M200.8,188l0.2,0.2v-0.5L200.8,188z M200.8,188.6l0.2,0.3v-0.5L200.8,188.6z M200.8,202.9
		l0.2,0.3v-0.5L200.8,202.9z M201.2,215.8c0.3,0,0.6-0.3,0.7-0.5c0.1-0.3,0.3-0.4,0.7-0.4l0.3-0.8h-0.2l-0.3,0.3
		c-0.1,0-0.3-0.1-0.6-0.2c-0.2-0.1-0.4-0.1-0.6-0.1l-0.2,0.3l0.5,0.6L201.2,215.8z M201.1,191.2h0.6l-0.3-0.5L201.1,191.2z
		 M201.4,181.2c0.4-0.1,0.7-0.5,0.7-0.9l-0.1-0.5l-0.9,0.5L201.4,181.2z M201.4,182.2v-0.5h-0.3L201.4,182.2z M201.2,188.1l0.1,0.2
		l0.1-0.1L201.2,188.1z M201.2,196h0.5l-0.2-0.3L201.2,196z M201.2,209.8l0.2-0.2l-0.2-0.3V209.8z M201.2,217.2l0.2-0.2l-0.2-0.3
		V217.2z M201.2,203.9l0.2,0.2v-0.5L201.2,203.9z M201.4,187.4c0.3,0.4,0.5,0.5,0.7,0.5c0-0.3-0.1-0.5-0.4-0.5c0,0-0.1,0-0.1,0
		H201.4z M201.4,211.2h0.2V211h-0.2V211.2z M201.6,204.6l0.2-0.2l-0.2-0.3V204.6z M201.7,184.6l0.2,0.3v-0.5L201.7,184.6z
		 M201.8,182.8c0,0.3,0.2,0.6,0.5,0.6c0,0,0.1,0,0.1,0c0-0.3-0.2-0.6-0.5-0.6C201.9,182.8,201.9,182.8,201.8,182.8 M201.9,195.1h0.2
		l0.5-0.5l-0.3-0.3L201.9,195.1z M201.9,202.7h0.5l-0.5-0.2V202.7z M202,216l0.1,0.1l0.1-0.1c0-0.1,0-0.1-0.1-0.1c0,0,0,0,0,0
		L202,216z M202.1,189.4l0.2-0.2l-0.2-0.3V189.4z M202.1,213l0.2-0.3l-0.2-0.3V213z M202.2,208.6l0.2,0.3l0.2-0.3l-0.2-0.3
		L202.2,208.6z M202.2,210.4l0.2,0.2l0.2-0.2l-0.2-0.3L202.2,210.4z M202.2,188.3l0.1,0.1v-0.2L202.2,188.3z M202.9,180.9l-0.5,0.5
		l0.3,0.1l0.9-0.5l-0.6-0.7l-0.3,0.3L202.9,180.9z M202.4,187.1L202.4,187.1l0.1,0.2l0.1-0.1L202.4,187.1z M202.4,199.1l0.3-0.3
		l-0.3-0.5V199.1z M202.4,210.8l0.1,0.1l0.3-0.3l-0.1-0.1L202.4,210.8z M202.4,203.2l0.2,0.2v-0.5L202.4,203.2z M202.4,211.5
		l0.2,0.3v-0.5L202.4,211.5z M202.6,186.8c0.3,0,0.5-0.1,0.5-0.4c0,0,0-0.1,0-0.1h-0.5V186.8z M202.7,208.1L202.7,208.1l0.1,0.1
		L202.7,208.1z M202.8,183.6l0.3-0.3h-0.3V183.6z M202.8,190.7l0.3-0.2v-0.3L202.8,190.7z M202.8,202.5l0.2-0.2l-0.2-0.3V202.5z
		 M202.8,203.4l0.1,0.1l0.3-0.3l-0.1-0.1L202.8,203.4z M202.9,217l0.2,0.2v-0.5L202.9,217z M204.2,180.3h0.1l0.2-0.7l-0.5,0.1
		l-0.7-0.5l-0.2,0.3L204.2,180.3z M203.6,207.2c-0.1,0.2-0.2,0.4-0.2,0.6c0,0.2-0.1,0.4-0.2,0.6l1.7-0.7L203.6,207.2z M203.3,183.2
		l0.2-0.3l-0.2-0.3V183.2z M203.8,183.1c-0.2,0-0.4,0.2-0.4,0.4c-0.1,0.2-0.1,0.4-0.1,0.6v0.5l0.7-1.4L203.8,183.1z M203.3,194.3
		l0.2-0.2l-0.2-0.3V194.3z M203.3,197.7l0.2-0.2l-0.2-0.3V197.7z M203.6,202.4c-0.1,0-0.2,0-0.3,0.1l0.1,0.1L203.6,202.4z
		 M204.5,211.5c-0.2,0-0.4,0-0.6,0.1c-0.3,0-0.4,0.2-0.4,0.4l0.1,0.3l0.5-0.3l0.5,0.3l0.5-0.7H204.5z M203.6,190.5
		c0.4,0.5,0.9,0.7,1.5,0.7c0-0.2-0.1-0.4-0.3-0.5c-0.2-0.1-0.3-0.3-0.3-0.5l0.3-0.7c-0.3,0-0.6,0.1-0.7,0.4
		C204.1,190.3,203.8,190.5,203.6,190.5 M204.3,204.8c0,0.2,0.1,0.4,0.2,0.6c0.1,0.2,0.3,0.3,0.5,0.3c0.4,0,0.7-0.1,1-0.4
		c0.3-0.2,0.5-0.6,0.5-0.9c-0.1-0.3-0.3-0.7-0.5-1c-0.2-0.4-0.5-0.6-0.8-0.6l0.3,0.8v0.2l-0.3,0.3l0.3,0.3c-0.7-0.3-1.6,0.1-1.9,0.8
		c0,0,0,0.1,0,0.1L204.3,204.8z M204.9,214.6c-0.9,0-1.4,0.5-1.4,1.5v0.3l0.7-0.7l-0.2-0.9l0.6,0.1l0.5-0.5L204.9,214.6z
		 M203.6,203.2l0.2,0.2v-0.5L203.6,203.2z M203.6,209.4l0.2,0.2v-0.5L203.6,209.4z M203.8,182.4c0.2-0.2,0.4-0.5,0.5-0.7h-0.5V182.4
		z M203.8,189.3h0.5c-0.1-0.3-0.3-0.5-0.5-0.7V189.3z M204.6,184.6l-0.3-0.5l-0.3,0.2L204.6,184.6z M204,195.5l0.2-0.2l-0.2-0.3
		V195.5z M204,200.1l0.2-0.2l-0.2-0.3V200.1z M204,206l0.2-0.3l-0.2-0.3V206z M204,218.7l0.2-0.3l-0.2-0.3V218.7z M204.1,208.6
		l0.2,0.3v-0.5L204.1,208.6z M204.8,179.3l0.3-0.7l-0.1-0.5l-0.7,0.7L204.8,179.3z M204.3,186.7h0.2l-0.2-0.2V186.7z M204.9,188.4
		c0.1-0.3,0.3-0.6,0.5-0.8c0.3-0.2,0.5-0.5,0.7-0.7l-0.5-0.3c-0.2,0-0.3,0.1-0.4,0.2c-0.1,0.1-0.2,0.3-0.2,0.4
		c0,0.1-0.1,0.3-0.2,0.4c0,0.1-0.2,0.2-0.3,0.2l-0.3-0.1L204.9,188.4z M204.5,200.1l0.2-0.2l-0.2-0.3V200.1z M204.5,203.8l0.3,0.3
		v-0.5l-0.3-0.3V203.8z M204.5,218.9l0.2-0.2l-0.2-0.3V218.9z M204.6,182.9l0.2,0.3v-0.5L204.6,182.9z M204.6,203.2l0.2,0.2v-0.5
		L204.6,203.2z M204.7,203.6c0,0-0.1,0.1-0.1,0.1s0,0.1-0.1,0.1c0,0,0.1-0.1,0.1-0.1C204.6,203.7,204.6,203.7,204.7,203.6
		 M204.6,215.5c0,0.3,0.1,0.7,0.1,1c0,0.3,0.2,0.6,0.5,0.7l-0.1-0.5c0.2-0.1,0.3-0.2,0.5-0.3l0.4-0.4
		C205.6,215.7,205.1,215.5,204.6,215.5 M204.7,211l0.1-0.1l-0.1-0.1L204.7,211z M204.8,186.2h0.2l-0.2-0.2V186.2z M204.8,197.9
		l0.2,0.2v-0.5h-0.1l-0.1-0.2L204.8,197.9z M204.9,197.7c-0.1,0.1-0.1,0.2-0.1,0.3C204.9,197.9,204.9,197.8,204.9,197.7
		 M204.9,183.2l0.1,0.2l0.1-0.1C205.1,183.2,205.1,183.2,204.9,183.2C205,183.2,205,183.2,204.9,183.2L204.9,183.2z M206,191.7
		c-0.5,0.1-0.8,0.5-1,0.9L206,191.7z M205,213.9l0.2-0.2l-0.2-0.3V213.9z M205.2,188.9h0.3v-0.3h-0.3V188.9z M205.2,210.6h0.3
		l-0.3-0.3V210.6z M205.2,213v0.1c0.3-0.3,0.5-0.7,0.5-1.2l-0.1-0.5L205.2,213z M205.3,181.7l0.2,0.3v-0.5L205.3,181.7z
		 M205.3,195.5l0.2,0.2v-0.5L205.3,195.5z M205.7,183.8h1v-1.4h-1.2l0.5,0.7L205.7,183.8z M205.7,181c0.2-0.1,0.3-0.3,0.3-0.5h-0.3
		V181z M206.5,190.8c0-0.5-0.3-0.9-0.8-1v0.2L206.5,190.8z M205.7,193.9l0.3-0.3h-0.3V193.9z M205.7,199.8l0.2-0.2l-0.2-0.3V199.8z
		 M205.7,202.5c0.3-0.1,0.5-0.3,0.7-0.5c0.2-0.2,0.4-0.4,0.5-0.7L205.7,202.5z M205.7,208.6c0.2,0,0.3-0.1,0.3-0.2v-0.1L205.7,208.6
		z M205.8,209.2l0.2,0.2v-0.5L205.8,209.2z M205.8,217.2l0.2,0.3V217L205.8,217.2z M205.9,194.3l0.1-0.1l-0.1-0.1L205.9,194.3z
		 M205.9,201.5v0.2l0.1-0.1L205.9,201.5z M206.4,179.8c0.3,0.6,0.5,1.1,0.7,1.7l-0.1-0.2l0.6-0.5l-0.3-1l0.3-0.6l-0.5-0.7v-0.3
		c-0.2,0.1-0.4,0.3-0.6,0.4c-0.2,0.1-0.4,0.2-0.6,0.3h0.8l0.1,0.5L206.4,179.8z M206,188.2c0,0.1,0,0.2,0.1,0.4
		c0,0.1,0.1,0.2,0.1,0.4h0.3l-0.5-1L206,188.2z M206.2,197.4l-0.1-0.1l-0.1,0.1l0.1,0.1L206.2,197.4L206.2,197.4z M206.2,181.7
		l0.2-0.2l-0.2-0.3V181.7z M206.2,189.6l0.2-0.2l-0.2-0.3V189.6z M206.2,194.6h0.3v-0.3L206.2,194.6z M206.4,196.3V196h-0.3
		L206.4,196.3z M206.4,203.2h0.1l0.4-0.5c-0.3,0.1-0.5,0.1-0.8,0.3L206.4,203.2z M206.2,206.2l0.3-0.2h-0.3L206.2,206.2z
		 M206.2,208.2l0.2-0.2l-0.2-0.3V208.2z M206.2,212.4v0.3l0.5-0.5V212L206.2,212.4z M206.2,214.8l0.2-0.2l-0.2-0.3V214.8z
		 M206.2,215.8l0.2-0.3l-0.2-0.3V215.8z M206.2,216.5l0.2-0.2l-0.2-0.3V216.5z M206.2,219.1l0.2-0.2l-0.2-0.3V219.1z M206.4,208.6
		c0,0.3,0.2,0.6,0.5,0.6c0,0,0.1,0,0.2,0c0-0.3-0.2-0.6-0.5-0.6C206.5,208.6,206.4,208.6,206.4,208.6 M206.4,217.2l0.5-0.3l-0.2-0.2
		h-0.3L206.4,217.2z M206.5,186.5l0.2,0.2v-0.5L206.5,186.5z M207.9,191.9c-0.3,0-0.6,0.1-0.9,0.2c-0.3,0.1-0.5,0.4-0.5,0.7
		c0.3-0.1,0.5-0.2,0.8-0.4c0.3-0.1,0.5-0.4,0.6-0.6L207.9,191.9z M206.5,213.4l0.2,0.2v-0.5L206.5,213.4z M206.5,216.1l0.2,0.2v-0.5
		L206.5,216.1z M206.6,187.1L206.6,187.1l0.3-0.3l-0.1-0.1L206.6,187.1z M208.1,196.1c-0.3,0-0.7,0.1-1,0.3
		c-0.3,0.2-0.5,0.5-0.5,0.8l0.1,0.3c0.1-0.3,0.3-0.6,0.5-0.7c0.3-0.1,0.6-0.1,0.9-0.1L208.1,196.1z M207.2,188v-0.5l-0.5,0.3
		L207.2,188z M206.7,195.1l0.2-0.3h-0.2V195.1z M206.9,214.6l-0.1-0.1l-0.1,0.1v0.1l0.1,0.1L206.9,214.6z M207.3,189.1l-0.5,0.6
		l0.1,0.3l0.5-0.8L207.3,189.1L207.3,189.1z M206.8,195.5l0.1-0.1l-0.1-0.1L206.8,195.5z M206.9,194.3l0.2-0.2l-0.2-0.3V194.3z
		 M206.9,197.6l0.1,0.2l0.1-0.1L206.9,197.6z M207.3,199.1l0.1-0.1l-0.3-0.4l-0.3,0.3L207.3,199.1z M206.9,202.2l0.2-0.2l-0.2-0.3
		V202.2z M207.8,206.4c0.4-0.1,0.7-0.3,1-0.4s0.5-0.4,0.5-0.9c0-0.1,0-0.3-0.1-0.4c0-0.1-0.1-0.3-0.2-0.4l-0.5,0.3l0.2,0.5l-0.2,0.1
		l-0.5-0.3l-0.6,0.3l-0.1-0.1l-0.2-0.5l-0.3,0.7l0.5,0.2l-0.5,0.7L207.8,206.4z M206.9,211l0.2-0.2l-0.2-0.3V211z M207.2,212
		l0.1,0.1l0.8-0.8h-0.3c-0.1,0-0.3,0-0.4,0.1c-0.1,0-0.3,0.1-0.4,0.2L207.2,212z M207,207.5l0.2,0.2v-0.5L207,207.5z M207,190.9
		l0.9-0.6l-0.3-0.3L207,190.9z M207,216l0.1,0.1v-0.2L207,216z M207.2,199.8h0.7l-0.3-0.5L207.2,199.8z M207.9,182.8
		c-0.1,0-0.3,0.1-0.3,0.2c-0.1,0.1-0.2,0.2-0.2,0.3h0.5L207.9,182.8z M207.3,185l0.2-0.2l-0.2-0.3V185z M207.3,203.4l0.2-0.2
		l-0.2-0.3V203.4z M207.3,206.7l0.2-0.2l-0.2-0.3V206.7z M207.3,208.9l0.2-0.3l-0.2-0.3V208.9z M207.9,210.8h0.2l0.6-0.3
		c-0.2,0-0.3,0-0.3-0.1c-0.1-0.1-0.1-0.2-0.1-0.3c0-0.1-0.1-0.2-0.1-0.4c0-0.1-0.1-0.2-0.2-0.2l-0.5,0.9L207.9,210.8z M207.9,214.1
		l-0.1-0.3c0.1-0.2,0.3-0.4,0.4-0.5c0.1-0.2,0.2-0.4,0.2-0.6l-0.6-0.5h-0.1v0.2l0.5,0.3l-0.7,0.9L207.9,214.1z M207.3,215.3l0.2-0.2
		l-0.2-0.3V215.3z M207.3,218.4l0.2-0.2l-0.2-0.3V218.4z M207.4,215.8l0.2,0.2l0.2-0.2l-0.2-0.3L207.4,215.8z M207.4,219.6l0.2,0.2
		l0.2-0.2l-0.2-0.3L207.4,219.6z M207.6,181.2c0.2,0.2,0.5,0.3,0.8,0.3l-0.5-0.5L207.6,181.2z M207.6,186.7h0.3v-0.2L207.6,186.7z
		 M207.6,197.9l0.9-0.5l-0.2-0.3L207.6,197.9z M207.7,203.8L207.7,203.8l0.1,0.2l0.1-0.1L207.7,203.8z M208.5,216.8h0.3l-0.3-0.7
		l0.2-0.2l-0.3-0.1l-0.8,0.5L208.5,216.8z M207.7,217l0.2,0.2v-0.5L207.7,217z M208.1,177.6h-0.2l0.1,0.1L208.1,177.6z M208.1,180
		c0.3-0.2,0.6-0.5,0.8-0.9c0.2-0.4,0.3-0.7,0.4-1.1c-0.4,0-0.7,0.2-1,0.5c-0.3,0.3-0.4,0.6-0.4,1L208.1,180z M207.9,207.4l1.4-0.5
		l-0.7-0.5L207.9,207.4z M208.1,208.1h-0.2l0.1,0.1L208.1,208.1z M208.1,219.6l0.3-0.5h-0.5L208.1,219.6z M207.9,218.5l0.1,0.1
		l0.1-0.1v-0.1l-0.1-0.1L207.9,218.5z M208,202.5h0.5v-0.9L208,202.5z M208.3,180.1c0,0.3,0.1,0.6,0.4,0.7c0.3,0.1,0.5,0.2,0.8,0.2
		h0.2C209.5,180.4,208.9,180.1,208.3,180.1 M208.5,211.7c0,0,0-0.1-0.1-0.1l-0.1,0.1H208.5L208.5,211.7z M208.5,187.9l0.3,0.3v-0.5
		l-0.3-0.3V187.9z M208.5,209.8l0.3-0.9l-0.3,0.7V209.8z M208.8,211.2L208.8,211.2h-0.3l0.1,0.1L208.8,211.2z M208.7,187.7
		c0,0-0.1,0.1-0.1,0.1c0,0,0,0.1-0.1,0.1c0,0,0.1-0.1,0.1-0.1S208.7,187.7,208.7,187.7 M208.6,195.5l0.2,0.2v-0.5L208.6,195.5z
		 M208.6,203.9l0.2,0.2v-0.5L208.6,203.9z M208.9,213.6l0.1,0.1l0.1-0.1c0-0.1,0-0.1-0.1-0.1L208.9,213.6z M209,185.8l0.2-0.2
		l-0.2-0.3V185.8z M209.3,200c-0.1,0-0.2,0-0.3,0.1l0.1,0.1L209.3,200z M209,202.5l0.2-0.2L209,202V202.5z M209,208.4h0.3l0.3-0.7
		l-0.3-0.3L209,208.4z M209,209.4l0.2-0.2l-0.2-0.3V209.4z M209,212.2l0.2-0.2l-0.2-0.3V212.2z M209,214.4c0.1,0,0.2,0.1,0.4,0.2
		c0.1,0.1,0.2,0.1,0.4,0.1h0.3l-0.4-0.3L209,214.4z M209.1,191.3l0.2,0.2l0.2-0.2l-0.2-0.3L209.1,191.3z M209.1,209.8l0.2,0.3
		l0.2-0.3l-0.2-0.3L209.1,209.8z M209.1,215.1l0.2,0.2l0.2-0.2l-0.2-0.3L209.1,215.1z M209.1,215.7l0.1,0.1l0.1-0.1v-0.1l-0.1-0.1
		L209.1,215.7z M209.2,179.6h0.8l-0.3-0.5L209.2,179.6z M209.3,182.8l0.1,0.2l0.1-0.1L209.3,182.8z M209.5,192.2V192h-0.3
		L209.5,192.2z M209.5,213v-1.2l-0.3,0.7L209.5,213z M209.3,178.4l0.2,0.2v-0.5L209.3,178.4z M209.3,190.8l0.2,0.2v-0.5L209.3,190.8
		z M209.3,203.7l0.2,0.2v-0.5L209.3,203.7z M209.5,188.9l0.5-0.3l-0.3-0.3L209.5,188.9z M209.5,185.3h0.5c-0.1-0.1-0.1-0.3-0.1-0.4
		c0-0.2-0.2-0.3-0.3-0.3h-0.1V185.3z M209.5,213.9h0.5l-0.3-0.3L209.5,213.9z M209.5,216.8l0.2,0.2v-0.5h-0.1l-0.1-0.2L209.5,216.8z
		 M210.7,213.4h0.1l0.1,0.5l-0.1-0.5c0.2-0.1,0.4-0.3,0.4-0.5c0-0.2,0.2-0.4,0.4-0.4v0.1l0.5-0.5l-1.8-1.9h-0.1l0.3,0.5l-0.1,0.3
		h-0.8c0.4,0.1,0.8,0.4,1,0.8c0.2,0.3,0.3,0.8,0.4,1.2L210.7,213.4z M209.7,216.5c-0.1,0.1-0.1,0.2-0.1,0.3
		C209.7,216.7,209.7,216.6,209.7,216.5 M209.7,208.8v0.1l1.2-1.2L209.7,208.8z M209.7,219.4h0.3l-0.3-0.2V219.4z M209.8,206.5
		l0.2,0.2v-0.5L209.8,206.5z M210,202.2l0.7,0.3v-0.5L210,202.2z M210,213.2h0.2v-0.5H210V213.2z M210.2,178.1v0.3l0.5-0.5l-0.1-0.1
		L210.2,178.1z M210.5,179.1h0.3l0.5-0.7l-1,0.5L210.5,179.1z M210.2,180.4c0.2,0,0.3-0.1,0.4-0.2c0.1-0.1,0.1-0.3,0.2-0.4h-0.5
		V180.4z M210.9,205.8c-0.4,0.3-0.7,0.7-0.7,1.2L210.9,205.8z M210.2,206.3l0.2-0.2l-0.2-0.3V206.3z M210.2,216.3l0.2-0.2l-0.2-0.3
		V216.3z M210.2,218l0.2-0.2l-0.2-0.3V218z M210.9,184.6V184l-0.5,0.3L210.9,184.6z M210.9,191.8h0.3l-0.5-0.5h-0.3L210.9,191.8z
		 M210.5,192.7l0.3,0.2v-0.5l-0.3-0.2V192.7z M211.1,198.2l0.8-0.7l-0.2-0.3h-0.3c-0.2,0.1-0.3,0.2-0.5,0.3
		c-0.2,0.1-0.3,0.3-0.4,0.4L211.1,198.2z M210.5,203.9h0.7l-0.5-0.3l-0.3,0.1L210.5,203.9z M210.5,214.6l0.3,0.2v-0.5l-0.3-0.3
		V214.6z M210.8,217.8l0.4-0.3l-0.5-0.6h0.9l-0.3-0.6c-0.2,0-0.4,0.1-0.6,0.2c-0.2,0.1-0.3,0.3-0.3,0.5L210.8,217.8z M210.7,192.4
		c0,0.1-0.1,0.2-0.1,0.3C210.5,192.6,210.6,192.5,210.7,192.4 M210.5,196.5l0.2,0.2v-0.5L210.5,196.5z M210.7,214.4
		c0,0.1-0.1,0.2-0.1,0.3C210.5,214.5,210.6,214.4,210.7,214.4 M211.2,186c-0.4,0-0.6,0.2-0.6,0.5l0.8-0.3L211.2,186z M210.7,209.1
		h0.5l-0.5-0.2V209.1z M210.9,209.6l-0.1-0.1l-0.1,0.1l0.1,0.1L210.9,209.6z M210.9,205.2c0.2,0,0.4-0.1,0.4-0.3
		c0.1-0.2,0.2-0.4,0.4-0.5l-0.1-0.1L210.9,205.2z M210.9,190l0.2-0.2l-0.2-0.3V190z M210.9,201l0.2-0.2l-0.2-0.3V201z M210.9,208.1
		l0.1,0.2l0.1-0.1L210.9,208.1z M210.9,216.3l0.2-0.2l-0.2-0.3V216.3z M211,183.4l0.2,0.2v-0.5L211,183.4z M211,208.6l0.2,0.3v-0.5
		L211,208.6z M211.1,190.7l0.1,0.1v-0.2L211.1,190.7z M211.4,180.5h0.3l0.5-0.7l-1,0.3L211.4,180.5z M212.3,208.6
		c-0.3,0-0.6,0.1-0.8,0.4c-0.2,0.2-0.3,0.5-0.3,0.8h0.2c0.3,0,0.6-0.1,0.8-0.3c0.2-0.2,0.4-0.5,0.4-0.8v-0.1L212.3,208.6z
		 M211.4,185.3l0.3,0.2V185l-0.3-0.2V185.3z M212.3,190.5h0.1c0.3-0.3,0.6-0.6,0.9-0.9c0.3-0.3,0.5-0.7,0.5-1.2v-0.3
		c-0.5,1-1.3,1.7-2.4,1.9L212.3,190.5z M211.4,192.2l0.2-0.2l-0.2-0.3V192.2z M212.1,199.6l0.3-0.3v-0.2l-0.5-0.5h-0.2l-0.3,0.3v0.3
		L212.1,199.6z M211.7,201v-0.2h-0.3L211.7,201z M211.4,205.5v0.3l0.3-0.5V205L211.4,205.5z M211.6,185c0,0.1-0.1,0.2-0.1,0.3
		C211.5,185.2,211.5,185.1,211.6,185 M211.5,187.8l0.1,0.1v-0.2L211.5,187.8z M211.6,217.7l0.1,0.3c0.2-0.4,0.4-0.7,0.7-1
		L211.6,217.7z M211.7,188.9l0.7-0.3l-0.7-0.3V188.9z M211.7,206.3c0.4,0,0.9-0.1,1.2-0.4c0.3-0.3,0.5-0.7,0.5-1.1
		c-0.8,0-1.1,0.4-1.1,1.3h-0.6V206.3z M211.9,208.5c0.4,0,0.7-0.2,0.8-0.5c0.2-0.3,0.5-0.5,0.8-0.5l0.2,0.3l0.3-0.3
		c-0.1-0.2-0.1-0.3-0.2-0.5c-0.1-0.2-0.1-0.4-0.1-0.5l0.3-0.3V206h-0.5v-0.3c-0.3,0.2-0.5,0.6-0.5,0.9c-0.1,0.5-0.3,0.7-0.6,0.7
		c-0.1,0-0.2,0-0.3-0.1c-0.1,0-0.2-0.1-0.3-0.1l-0.2,0.7L211.9,208.5z M212.1,213.6l0.3-0.5l-0.7,0.3L212.1,213.6z M212.1,202.1
		c-0.1,0-0.2,0-0.3,0.1l0.1,0.1L212.1,202.1z M211.9,183.9l0.2,0.2l0.2-0.2l-0.2-0.3L211.9,183.9z M211.9,211.5l0.2,0.3l0.2-0.3
		l-0.2-0.3L211.9,211.5z M212.6,191.7l0.3-0.3l-0.7-0.5v0.2L212.6,191.7z M212.2,195.8l0.2,0.2v-0.5L212.2,195.8z M212.2,206.5
		l0.2,0.2v-0.5L212.2,206.5z M212.2,216.6l0.2,0.2v-0.5L212.2,216.6z M212.4,201l0.5-0.2h-0.5V201z M212.6,204.6v-0.2h-0.2
		L212.6,204.6z M213.1,192.9c-0.3,0.2-0.5,0.5-0.5,0.8c0.4,0,0.6-0.2,0.6-0.5L213.1,192.9z M212.6,196.3l0.3-0.3h-0.3V196.3z
		 M212.7,184.4l0.2,0.2v-0.5L212.7,184.4z M212.7,214.6l0.2,0.2v-0.5L212.7,214.6z M212.7,216.3l0.2,0.2V216L212.7,216.3z
		 M212.8,183l0.1,0.1l0.5-0.3l-0.3-0.3L212.8,183z M212.8,187.7l0.1,0.2l0.3-0.5l-0.1-0.3L212.8,187.7z M215.3,211.5l0.9-0.7h-0.5
		l0.2-0.7c0-0.1-0.1-0.2-0.1-0.3c0-0.1-0.1-0.2-0.1-0.3c0-0.4,0.1-0.8,0.4-1.1c0.3-0.3,0.4-0.6,0.5-1l0.7,0.5c0-0.4-0.1-0.7-0.2-1.1
		c-0.1-0.4-0.3-0.7-0.5-1l-0.5,0.4l0.1,0.5h-0.4l0.2,1.1l-0.2,0.1L215,207l0.1,0.3l-0.3,0.7c0.3,0.3,0.5,0.6,0.5,1l-0.3,0.2
		l-0.9-0.2v-0.3l-0.7-0.5c-0.1,0.2-0.2,0.5-0.3,0.7c-0.1,0.2-0.2,0.5-0.2,0.7h0.2l0.1,0.5v-0.5c0.5,0.1,1,0.1,1.4,0.3
		c0.5,0.1,0.8,0.6,0.8,1.1v1.1l-0.3-0.7L215.3,211.5z M213.8,199.2V198c-0.1,0.2-0.2,0.4-0.4,0.5c-0.2,0.1-0.3,0.2-0.5,0.3
		L213.8,199.2z M213.1,218l0.3-0.3v-0.2l-0.5,0.2L213.1,218z M213.1,178.4l0.2-0.2l-0.2-0.3V178.4z M213.1,186.5l0.2-0.2l-0.2-0.3
		V186.5z M213.1,194.1l0.3,0.3v-0.5l-0.3-0.3V194.1z M213.1,195.7l0.2-0.2l-0.2-0.3V195.7z M213.1,213.6l0.2-0.2l-0.2-0.3V213.6z
		 M213.1,214.1h0.3v-0.5L213.1,214.1z M213.1,215.8l0.2-0.3l-0.2-0.3V215.8z M213.3,193.9C213.2,193.9,213.2,194,213.3,193.9
		c-0.1,0.1-0.1,0.2-0.1,0.2C213.2,194,213.2,194,213.3,193.9C213.2,194,213.2,193.9,213.3,193.9 M213.6,182.2l0.2-0.2l-0.2-0.3
		l-0.3,0.3L213.6,182.2z M213.4,213.2l0.2,0.2V213L213.4,213.2z M214.2,194.7l0.1-0.8l0.3-0.5l-0.5-0.5l-0.3,1.2l-0.2,0.3
		L214.2,194.7z M213.6,203.9l0.2,0.3v-0.5l-0.1,0.1l-0.1-0.3V203.9z M213.7,202.1l0.1,0.1V202L213.7,202.1z M213.7,203.7
		c0,0-0.1,0-0.1,0.1C213.7,203.8,213.7,203.8,213.7,203.7 M213.7,213.4c0,0.3,0.1,0.6,0.3,0.9c0.2,0.2,0.4,0.5,0.5,0.8v-0.6
		c0-0.2,0-0.4-0.1-0.5c-0.1-0.2-0.1-0.4-0.2-0.5L213.7,213.4z M213.8,196.5l0.2-0.2l-0.2-0.3V196.5z M213.8,200.5l0.2-0.2l-0.2-0.3
		V200.5z M213.8,205.1h0.3v-0.2h-0.3V205.1z M213.9,212.2l0.2,0.2V212L213.9,212.2z M214.9,190.6c-0.3,0-0.7,0.2-0.7,0.5
		c-0.1,0.3-0.1,0.6-0.1,1c0.4,0,0.7-0.2,0.8-0.5C214.8,191.3,214.9,191,214.9,190.6 M214.1,196.9l0.2,0.5c0.1-0.1,0.1-0.3,0.2-0.4
		c0.1-0.1,0.1-0.3,0.1-0.4v-0.3L214.1,196.9L214.1,196.9z M214.3,202.9l0.3-0.5c0,0,0.1,0,0.2,0.1c0.1,0.1,0.1,0.2,0,0.2
		c0.5,0.1,0.9-0.2,1.2-0.5l-0.5-0.5l-1.4,0.7L214.3,202.9z M214.3,199.8l0.2-0.2l-0.2-0.3V199.8z M214.3,211.3l0.5-0.4l-0.3-0.3
		L214.3,211.3z M214.3,213h0.3v-0.3L214.3,213z M215.1,186.6c-0.1,0-0.3,0.1-0.4,0.1c-0.1,0.1-0.3,0.1-0.3,0.3l0.2-0.1l0.2,0.2
		L215.1,186.6z M214.3,216.6l0.2,0.2v-0.5L214.3,216.6z M214.5,207L214.5,207c0,0.1,0,0.2,0.1,0.3l0.1-0.1L214.5,207z M214.5,198.7
		l0.6,0.4h0.6l-1.1-0.5h-0.1V198.7z M214.7,206l-0.1-0.1l-0.1,0.1l0.1,0.1L214.7,206L214.7,206z M214.5,212.2l0.2-0.3l-0.2-0.2
		V212.2z M214.7,181.7h0.3v-0.3h-0.3V181.7z M214.7,195.5l0.2-0.2l-0.2-0.3V195.5z M214.7,204.1h0.3c0-0.2-0.1-0.4-0.3-0.5V204.1z
		 M215,213.6l0.6-0.5h-0.9L215,213.6z M215,215.8v-0.3h-0.3L215,215.8z M214.8,184.8l0.2,0.2l0.2-0.2l-0.2-0.3L214.8,184.8z
		 M214.8,190.3l0.2,0.3l0.2-0.3L215,190L214.8,190.3z M214.8,192.2l0.2,0.2l0.2-0.2l-0.2-0.3L214.8,192.2z M214.8,201.5l0.2,0.2
		l0.2-0.2l-0.2-0.3L214.8,201.5z M215,183.6h0.3v-0.5H215L215,183.6z M215,188.6l0.3-0.5H215L215,188.6z M215.2,206.1l0.1,0.1
		l0.2-0.5L215.2,206.1z M215.3,185.8c0.2,0.2,0.4,0.4,0.5,0.7c0.1,0.3,0.4,0.5,0.7,0.5l0.9-0.7l-0.3-0.5l-0.7,0.3
		c-0.1,0-0.3-0.1-0.6-0.2C215.7,185.7,215.5,185.7,215.3,185.8 M215.5,192.7c-0.1,0.3-0.1,0.6,0,0.9
		C215.6,193.3,215.6,193,215.5,192.7 M215.5,190l0.3-0.2h-0.3L215.5,190z M215.5,196.3h0.3l-0.3-0.5V196.3z M215.5,204.8l0.3-0.3
		h-0.3L215.5,204.8z M215.5,205.2l0.1,0.2l0.1-0.1L215.5,205.2z M215.5,212.2l0.2-0.2l-0.2-0.3V212.2z M215.5,216.3l0.2,0.2V216
		L215.5,216.3z M215.7,188.2c0.4,0,0.9-0.1,1.3-0.2c0.5,0,0.8-0.4,0.8-0.9l-0.4,0.1l-0.5,0.5l-0.5-0.3L215.7,188.2z M216.2,197.5
		l-0.5,0.7l0.7-0.7l-0.1-0.1L216.2,197.5z M216.8,202.2c-0.3,0-0.5,0.1-0.7,0.3c-0.2,0.2-0.3,0.4-0.4,0.7l1.2-1L216.8,202.2z
		 M215.9,212.7l0.3-0.5h-0.5L215.9,212.7z M215.8,182.6l0.1,0.1l0.1-0.1c0-0.1,0-0.1-0.1-0.1c0,0,0,0,0,0L215.8,182.6z M215.8,200.5
		l0.1,0.1l0.1-0.1l-0.1-0.1L215.8,200.5z M215.9,190.3l0.3-0.3h-0.3V190.3z M215.9,206.1l0.2-0.3l-0.2-0.3V206.1z M215.9,211.8h0.3
		l0.3-0.3v-0.3L215.9,211.8z M215.9,213.9l0.2-0.2l-0.2-0.3V213.9z M216.1,198.4l0.1-0.1l-0.1-0.1L216.1,198.4z M216.9,184.8v-0.3
		l-0.3-0.5l-0.5,0.2L216.9,184.8z M216.4,180.5l-0.1,0.3l0.1,0.2V180.5L216.4,180.5z M216.3,199.6l0.2,0.2v-0.5L216.3,199.6z
		 M216.4,182h0.3l0.9-0.5l-0.3-0.2L216.4,182z M216.7,195.3v-0.9l-0.3,0.5L216.7,195.3z M216.5,209.8c0.1,0.3,0.3,0.5,0.6,0.5
		c0.3,0.1,0.5,0.2,0.8,0.2v-0.3c0-0.2-0.1-0.4-0.3-0.5c-0.2-0.1-0.4-0.4-0.3-0.7h0.2l0.5-0.9l-1.5,0.8l0.3,0.6L216.5,209.8z
		 M216.5,192.7h0.2l0.3-0.3L216.5,192.7z M216.9,196.5l1.3-1.8c-0.3,0-0.7,0.1-1,0.3c-0.3,0.2-0.5,0.5-0.8,0.7L216.9,196.5z
		 M216.7,191.2h0.3V191L216.7,191.2z M216.7,197.9l0.3-0.3h-0.3V197.9z M216.7,199.8l0.5,0.3l0.7-0.9l-0.1-0.1L216.7,199.8z
		 M216.8,212.6l-0.1,0.1l0.1,0.1c0.1,0,0.1,0,0.2-0.1L216.8,212.6z M217,213.7l0.1-0.1l-0.3-0.3l-0.1,0.1L217,213.7z M216.8,199.3
		l0.1,0.1v-0.2L216.8,199.3z M217.6,182.6l0.3-0.5h-0.8L217.6,182.6z M217.1,189.4v0.2l0.5-0.5h-0.2L217.1,189.4z M217.2,193.1
		l0.2,0.3v-0.5L217.2,193.1z M217.2,204.8l0.2,0.2v-0.5L217.2,204.8z M217.2,210.8l0.2,0.2v-0.5L217.2,210.8z M217.2,211.8l0.2,0.2
		v-0.5L217.2,211.8z M217.2,215.8l0.2,0.2v-0.5L217.2,215.8z M217.6,192.4c0.1,0.3,0.1,0.6,0.1,0.9c0,0.2,0.2,0.4,0.7,0.4l-0.3-0.5
		l0.5-0.5l-0.3-0.5l-0.1-0.5l-0.9,0.3v0.3L217.6,192.4z M218.1,197.5c-0.1,0.2-0.3,0.3-0.4,0.5c-0.1,0.2-0.3,0.4-0.3,0.6l0.3,0.1
		l0.9-1l-0.5-0.9l-0.7,0.2L218.1,197.5z M217.4,216.8l0.2-0.3h-0.2V216.8z M217.6,184v0.8h0.2l0.1,0.5l-0.1-0.5
		c0.2-0.1,0.3-0.3,0.4-0.5c0.1-0.3,0.1-0.5,0.2-0.7l-0.2-0.3H218L217.6,184z M217.6,194.1l0.5,0.5v-0.5l-0.1,0.1
		c-0.1-0.2-0.3-0.4-0.5-0.5V194.1z M217.6,206.2l0.2-0.2l-0.2-0.3V206.2z M217.6,215.6l0.2-0.2l-0.2-0.3V215.6z M217.8,193.9
		C217.7,193.9,217.7,194,217.8,193.9c-0.1,0.1-0.1,0.2-0.1,0.2C217.7,194,217.7,194,217.8,193.9
		C217.7,193.9,217.7,193.9,217.8,193.9 M217.7,204.8l0.2,0.2l0.2-0.2l-0.2-0.3L217.7,204.8z M217.7,207.5l0.2,0.2l0.2-0.2l-0.2-0.3
		L217.7,207.5z M217.9,213.7c0.3,0,0.4-0.1,0.5-0.3h-0.5V213.7z M218.3,216.3h0.3l0.2-0.3l-0.2-0.7h-0.3l-0.5,0.7L218.3,216.3z
		 M217.9,209.4l0.2,0.2v-0.5L217.9,209.4z M218.5,202.5h0.1c0-0.1-0.1-0.3-0.2-0.4c-0.1-0.1-0.2-0.2-0.4-0.2L218.5,202.5z
		 M218.1,206.5l0.5,0.2v-0.2l-0.5-0.3l-0.1,0.1L218.1,206.5z M218.8,195.1l-0.7,1.2l0.8-0.7c0.1,0,0.3,0,0.4,0.1
		c0.2,0.1,0.3,0.2,0.4,0.2l-0.9-0.8L218.8,195.1z M218.1,208.9h0.2l0.3-0.5L218.1,208.9z M218.6,212.6c-0.2,0-0.4,0.1-0.5,0.3h0.5
		V212.6z M218.3,188.2l0.2-0.2l-0.2-0.3V188.2z M218.3,201.7l0.2-0.2l-0.2-0.3V201.7z M218.3,205.5l0.2-0.2l-0.2-0.3V205.5z
		 M218.3,210.3l0.2-0.2l-0.2-0.3V210.3z M218.3,211.8l0.2-0.3l-0.2-0.3V211.8z M218.4,183.9l0.2,0.2v-0.5L218.4,183.9z M219.1,200.1
		v-0.3h-0.5L219.1,200.1z M218.6,207.3h0.2l0.3-0.3h-0.3L218.6,207.3z M219.1,184.6l0.3-0.7h-0.3l-0.3,0.3v0.2L219.1,184.6z
		 M219.3,198.9l1.2-0.8l-0.3-0.4H220l-0.5,0.5l-0.7,0.3v0.2L219.3,198.9z M218.8,209.4h0.3l0.5-0.5l-0.1-0.1L218.8,209.4z
		 M219.9,211.3l0.3-1.2c-0.3,0-0.6,0-0.8,0.1c-0.3,0.1-0.5,0.3-0.6,0.5L219.9,211.3z M219.1,196.7l0.3,0.2l0.9-0.9l-1.1,0.5V196.7z
		 M219.1,215.1v0.2l0.3-0.5L219.1,215.1z M219.3,191.1L219.3,191.1l0.3-0.1v-0.3L219.3,191.1z M219.3,202.1L219.3,202.1l0.3-0.1
		L219.3,202.1z M219.3,189.6h0.2v-0.2L219.3,189.6z M219.3,194.1h0.2l-0.2-0.2V194.1z M220.3,208.4l-0.5-0.7h-0.3l-0.2,0.5
		L220.3,208.4z M219.5,201l0.2-0.2l-0.2-0.3V201z M219.5,206.2l0.3,0.3V206l-0.3-0.3V206.2z M219.7,206
		C219.7,206.1,219.7,206.1,219.7,206c-0.1,0.1-0.1,0.2-0.1,0.2C219.6,206.2,219.7,206.2,219.7,206
		C219.7,206.1,219.7,206.1,219.7,206 M219.6,209.2l0.2,0.2v-0.5L219.6,209.2z M219.6,213.7l0.2,0.2v-0.5L219.6,213.7z M219.7,203.4
		c0,0.3,0.1,0.4,0.3,0.5v-0.5L219.7,203.4z M220.6,185.7c-0.3,0-0.7,0.2-0.8,0.5h0.1C220.4,186.2,220.6,186,220.6,185.7
		 M219.8,205.3h0.5c-0.2-0.3-0.3-0.6-0.3-0.9h-0.2L219.8,205.3z M220.3,185v-0.2l-0.3-0.3v0.3L220.3,185z M220,188.2h0.3v-0.3H220
		V188.2z M220,190.7l0.2-0.2l-0.2-0.3V190.7z M220,191.7h0.3l0.5-0.3h0.3l0.2,0.3l0.3-0.5l-0.3-0.2l-0.9-0.1L220,191.7z M220,192.7
		l0.2-0.2l-0.2-0.3V192.7z M220,201l0.2-0.2l-0.2-0.3V201z M220,212.2l0.2-0.2l-0.2-0.3V212.2z M220,213l0.2-0.3l-0.2-0.3V213z
		 M220.1,199.4l0.2,0.2v-0.5L220.1,199.4z M220.1,202.3l0.2,0.2V202L220.1,202.3z M220.1,214.4l0.2,0.3v-0.5L220.1,214.4z
		 M220.3,196.7l0.8,0.2v-0.7l-0.9,0.3L220.3,196.7z M220.3,207.2h0.5v-1L220.3,207.2z M220.3,215.3l0.2,0.3v-0.5l-0.1,0.1l-0.1-0.3
		V215.3z M220.4,215.2c0,0-0.1,0-0.1,0.1C220.4,215.3,220.4,215.2,220.4,215.2 M220.5,211c-0.1,0.3-0.1,0.6,0,0.9
		C220.6,211.7,220.6,211.3,220.5,211 M220.5,213.9c0.1,0,0.1,0,0.1-0.1l-0.1-0.1V213.9z M220.5,188.4l0.2,0.2l0.2-0.2l-0.2-0.3
		L220.5,188.4z M220.5,214.6l0.2,0.2l0.2-0.2l-0.2-0.3L220.5,214.6z M220.7,202.9c0,0.2,0.1,0.4,0.3,0.5v-0.5H220.7z M220.7,204.1
		L220.7,204.1c0,0.1,0,0.2,0.1,0.3l0.1-0.1L220.7,204.1z M220.7,198.6l0.3,0.5v-0.3L220.7,198.6z M220.9,200.9l-0.1,0.1l0.1,0.1
		c0.1,0,0.1,0,0.2-0.1L220.9,200.9z M220.7,210.1c0.2,0.2,0.4,0.5,0.4,0.8c0,0.3,0.1,0.5,0.4,0.6c0.2-0.4,0.4-0.8,0.6-1.2
		c0.2-0.4,0.3-0.8,0.3-1.2v-0.2l-0.5,0.7l-0.3-0.2c-0.2,0.1-0.3,0.2-0.5,0.3C221,209.8,220.9,209.9,220.7,210.1 M220.9,211.8
		l-0.1,0.1l0.1,0.1l0.1-0.1L220.9,211.8L220.9,211.8z M221,188.6v0.3l0.9-0.3l-0.3-0.3L221,188.6z M221,195.5
		c0.2,0.1,0.4,0.2,0.6,0.4c0.2,0.2,0.3,0.4,0.4,0.6l0.5-0.6c-0.2,0-0.4-0.1-0.5-0.3c-0.1-0.2-0.3-0.3-0.5-0.3L221,195.5z
		 M221.2,186.5h0.3v-0.3h-0.3V186.5z M221.5,202.2l0.5-1.2l-0.7,0.7v0.3L221.5,202.2z M221.3,208.1l-0.1,0.1l0.1,0.1l0.1-0.1
		L221.3,208.1z M221.3,212.2l-0.1,0.1l0.1,0.1l0.1-0.1L221.3,212.2z M221.2,192l0.2,0.2v-0.5L221.2,192z M221.2,203.9l0.2,0.2v-0.5
		L221.2,203.9z M221.2,214.4l0.2,0.3v-0.5L221.2,214.4z M221.4,189.6c-0.1,0.3-0.1,0.7,0,1V189.6z M221.4,206.1l0.1,0.2l0.9-0.7
		l-0.2-0.2L221.4,206.1z M221.7,208.9h0.3v-0.3L221.7,208.9z M221.7,213l0.2,0.2l0.2-0.2l-0.2-0.3L221.7,213z M221.9,192.4v0.3
		l0.5-0.5l-0.1-0.1L221.9,192.4z M222.3,207.4l1-0.7l-0.7-0.2l-0.3,0.2l-0.5-0.2v0.2L222.3,207.4z M222,195.1l0.2,0.2v-0.5
		L222,195.1z M222,211.5l0.2,0.3v-0.5L222,211.5z M222.4,202.7c0.1,0,0.2-0.1,0.2-0.2c0-0.1,0.1-0.2,0.1-0.3c-0.1,0-0.2,0-0.3,0.1
		c-0.1,0-0.2,0.1-0.2,0.2L222.4,202.7z M222.2,211.1l0.5-0.3l-0.4-0.3l-0.1,0.1L222.2,211.1z M222.2,213.4h0.2V213L222.2,213.4z
		 M222.3,188.6c0,0.1,0,0.3,0.1,0.4c0,0.1,0.1,0.3,0.3,0.3l0.3-0.7H222.3z M222.3,199.6v0.2l0.1-0.1L222.3,199.6z M222.4,201.3
		l0.2-0.2l-0.2-0.3V201.3z M222.4,202.9l0.2,0.3v-0.5L222.4,202.9z M222.4,209.6l0.2,0.2v-0.5L222.4,209.6z M222.4,212.2l0.2,0.2
		V212L222.4,212.2z M222.5,205l0.1,0.1v-0.2L222.5,205z M222.6,193.4l0.1,0.2l0.9-0.5l-0.3-0.5L222.6,193.4z M222.6,204l0.1,0.1
		l0.2-0.5L222.6,204z M222.7,187.1L222.7,187.1v0.2c0.1,0,0.1,0,0.1-0.1c0,0,0,0,0,0L222.7,187.1z M222.6,194.8l0.2-0.2h-0.2V194.8z
		 M222.6,207.9c0.2,0.1,0.3,0.3,0.3,0.5c0,0.2,0.2,0.4,0.3,0.5l0.3-0.4L222.6,207.9z M222.7,185.6l0.1,0.1l0.1-0.1
		c0-0.1,0-0.1-0.1-0.2L222.7,185.6z M222.8,199.1l0.2-0.3l-0.2-0.3V199.1z M222.8,210.3l0.2-0.2l-0.2-0.3V210.3z M222.9,194.9
		l0.2,0.2v-0.5L222.9,194.9z M222.9,207.5l0.2,0.2v-0.5L222.9,207.5z M223.1,186.5h0.5l-0.5-0.5V186.5z M223.1,202.9
		c0.1,0.2,0.2,0.4,0.4,0.5c0.1,0.2,0.4,0.2,0.6,0.2c0.1,0,0.2,0,0.4-0.1c0.2-0.1,0.3-0.1,0.4-0.2l-1.3-0.5L223.1,202.9z
		 M223.3,198.4l-0.1,0.1l0.1,0.1l0.1-0.1L223.3,198.4z M223.3,189.1l0.3,0.3c0.3,0,0.7-0.2,0.8-0.5c0.2-0.3,0.5-0.5,0.8-0.5
		l-0.5-0.5c-0.3,0-0.7,0.1-1,0.3c-0.3,0.1-0.5,0.5-0.5,0.8L223.3,189.1z M223.3,195.5l0.2-0.2l-0.2-0.3V195.5z M223.8,201.7v-0.2
		l-0.3-0.3l-0.3,0.3L223.8,201.7z M223.3,204.1l0.2-0.2l-0.2-0.3V204.1z M223.3,204.6c0.2,0,0.4-0.1,0.5-0.3h-0.5V204.6z
		 M223.3,206.5l0.2-0.2l-0.2-0.3V206.5z M223.3,211.5l0.2-0.2l-0.2-0.3V211.5z M223.6,191.2v0.3l0.3-0.3V191L223.6,191.2z
		 M223.6,196.5h0.5v-0.2L223.6,196.5z M223.6,190.1l0.2,0.2v-0.5L223.6,190.1z M223.6,211l0.2,0.2v-0.5L223.6,211z M223.8,205.8v0.3
		l0.9-0.3l-0.5-0.3L223.8,205.8z M223.9,209.5L223.9,209.5v0.2c0.1,0,0.1,0,0.1-0.1c0,0,0,0,0,0L223.9,209.5z M224,192.4l0.2-0.2
		l-0.2-0.3V192.4z M225.2,207.9c-0.5,0.1-0.9,0.3-1.2,0.7c0.2-0.1,0.5-0.2,0.7-0.2c0.3,0,0.5-0.1,0.5-0.4V207.9z M224.5,209.8
		c-0.2,0.1-0.3,0.2-0.5,0.3h0.5V209.8z M224.1,185.3l0.2,0.2V185L224.1,185.3z M224.2,207l0.1-0.1l-0.1-0.1L224.2,207z M224.3,195.1
		h0.2l0.3-0.3L224.3,195.1z M225,191.7l-0.3-1l-0.3,0.5L225,191.7z M225.1,200.8c0,0.2-0.1,0.5-0.3,0.6c-0.2,0.1-0.3,0.4-0.3,0.6
		v0.2c0.3,0,0.6-0.2,0.7-0.5c0.1-0.3,0.1-0.6,0.1-0.9H225.1z M224.6,186.8l0.2,0.2l0.2-0.2l-0.2-0.3L224.6,186.8z M224.8,207
		c-0.1,0.3-0.1,0.6,0,0.9C224.9,207.6,224.9,207.3,224.8,207 M225.5,207.4c0.3-0.2,0.6-0.5,0.8-0.9c0.2-0.3,0.4-0.7,0.6-1.1
		c-0.4,0-0.9,0.2-1.3,0.3c-0.6,0.2-0.9,0.5-0.9,0.9L225.5,207.4z M224.8,204.1l0.2,0.3v-0.5L224.8,204.1z M224.8,205.3l0.2,0.2V205
		L224.8,205.3z M225.2,190v-0.2H225L225.2,190z M225.4,191.9l-0.1,0.1l0.1,0.1l0.1-0.1L225.4,191.9z M225.3,204.4l0.2,0.2v-0.5
		L225.3,204.4z M225.6,201.3L225.6,201.3c0,0.1,0,0.2,0.1,0.3l0.1-0.1L225.6,201.3z M225.7,188.9l0.2-0.3l-0.2-0.3V188.9z
		 M225.7,202.6l0.2-0.2l-0.2-0.3V202.6z M226,193.1l0.3-0.7H226L226,193.1z M226.2,204.4v-0.3H226L226.2,204.4z M226,207.7h0.2
		l0.5-0.3h-0.3L226,207.7z M226.2,190.3l0.1-0.2l-0.1-0.3V190.3z M226.2,201l0.2-0.2l-0.2-0.3V201z M226.2,198.4l0.2,0.2l0.2-0.2
		l-0.2-0.3L226.2,198.4z M226.2,203.2l0.2,0.2l0.2-0.2l-0.2-0.3L226.2,203.2z M226.6,193.5l-0.1,0.1l0.1,0.1c0.1,0,0.1,0,0.2-0.1
		L226.6,193.5z M226.5,201.8l0.2,0.2v-0.5L226.5,201.8z M226.5,206.5l0.2,0.2v-0.5L226.5,206.5z M226.5,209.2l0.2,0.2v-0.5
		L226.5,209.2z M227.2,203.8c-0.2,0.1-0.3,0.2-0.4,0.4c-0.1,0.2-0.2,0.4-0.2,0.6l0.6-0.8L227.2,203.8z M226.9,203.6v-0.3h-0.2
		L226.9,203.6z M227,200.2l-0.1,0.1l0.1,0.1l0.1-0.1L227,200.2z M226.9,202.2h0.3l-0.3-0.2V202.2z M227,192.5l0.2,0.2v-0.5
		L227,192.5z M227,196l0.2,0.3v-0.5L227,196z M227.4,192.2l0.2-0.2l-0.2-0.3V192.2z M227.4,198.4l0.2,0.2l0.2-0.2l-0.2-0.3
		L227.4,198.4z M227.4,202.9l0.2,0.3l0.2-0.3l-0.2-0.3L227.4,202.9z M227.6,201l0.3,0.3v-0.5l-0.3-0.3V201z M227.8,200.8
		C227.8,200.8,227.8,200.9,227.8,200.8c-0.1,0.1-0.1,0.2-0.1,0.2C227.8,200.9,227.8,200.9,227.8,200.8
		C227.8,200.9,227.8,200.8,227.8,200.8 M228,196.4l0.1,0.1v-0.2L228,196.4z"/>
	<path id="Path_123" class="st0" d="M97,214.8c-0.3,0.2-0.6,0.4-0.9,0.3h-2.3c-0.3,0-0.6-0.1-0.9-0.3c-0.2-0.3-0.2-0.3-0.3-0.5
		c-0.1-0.2-0.4,0.1-0.6,0.3c-1.1,0.7-2.3,1-3.6,1c-2.6,0.1-5.1-1.3-6.3-3.6c-1-2-1.3-3.8-1.3-8.2v-8.4c0-5,0.3-6.6,1.7-8.5
		c1.6-1.9,4-3,6.5-2.9c5.1,0,8.2,3.4,8.3,9.2c0,0.3-0.1,0.6-0.3,0.9c-0.2,0.2-0.6,0.4-0.9,0.4h-2.3c-0.3,0-0.6-0.1-0.9-0.3
		c-0.2-0.3-0.3-0.6-0.3-0.9c-0.1-3.1-1.4-4.8-3.6-4.8c-2.6,0-3.5,1.6-3.5,6v9.3c0,5.5,1,7.4,3.7,7.4c2.5,0,3.5-1.8,3.5-6.1
		c0-0.3-0.2-0.7-0.4-0.9c-0.2-0.2-0.5-0.3-0.9-0.3h-1.4c-0.3,0-0.6-0.1-0.9-0.3c-0.2-0.2-0.3-0.6-0.3-0.9v-1.4c0-0.4,0.1-0.7,0.3-1
		c0.2-0.2,0.5-0.3,0.9-0.3H96c0.3,0,0.7,0.1,0.9,0.4c0.2,0.2,0.4,0.5,0.3,0.9V214C97.3,214.3,97.2,214.6,97,214.8z"/>
	<path id="Path_124" class="st0" d="M119.8,214.7c-0.2,0.3-0.5,0.4-0.8,0.4h-2.5c-0.4,0-0.8-0.1-1.2-0.4c-0.2-0.3-0.4-0.5-0.5-0.9
		l-3.2-10c-0.1-0.4-0.3-0.7-0.6-0.9c-0.3-0.2-0.7-0.3-1-0.3h-0.4c-0.3,0-0.7,0.1-0.9,0.3c-0.2,0.3-0.3,0.6-0.3,0.9V214
		c0,0.3-0.1,0.6-0.3,0.9c-0.2,0.2-0.5,0.3-0.9,0.3h-2.4c-0.3,0-0.6-0.1-0.9-0.3c-0.2-0.2-0.3-0.5-0.3-0.9v-28.1
		c0-0.3,0.1-0.6,0.3-0.9c0.2-0.2,0.5-0.4,0.9-0.4h6.2c5.7,0,8.7,3,8.7,8.7c0,3.4-1,5.9-3.1,7.4c-0.3,0.2-0.4,0.2-0.6,0.5
		c-0.1,0.3-0.2,0.5-0.2,0.8l3.9,11.9C119.9,214.2,119.9,214.5,119.8,214.7z M110.1,189h-0.5c-0.3,0-0.6,0.1-0.9,0.3
		c-0.2,0.2-0.4,0.6-0.4,0.9v6.8c-0.1,0.4,0.4,0.9,0.4,0.9s0.4,0.5,0.9,0.4h0.5c3.6,0,4.8-1.2,4.8-4.7
		C114.9,190.2,113.7,189,110.1,189z"/>
	<path id="Path_125" class="st0" d="M143.9,214.8c-0.2,0.2-0.5,0.3-0.9,0.3h-2.3c-0.4,0-0.7-0.1-1-0.4c-0.2-0.3-0.4-0.5-0.5-0.9
		l-0.9-4.1c-0.1-0.3-0.2-0.6-0.5-0.9c-0.3-0.3-0.6-0.4-1-0.4h-4.1c-0.4,0-0.7,0.1-0.9,0.4c-0.2,0.3-0.4,0.6-0.5,0.9l-0.8,4.2
		c-0.1,0.3-0.2,0.6-0.4,0.8c-0.3,0.3-0.6,0.4-1,0.4H127c-0.3,0-0.5-0.1-0.7-0.3c-0.2-0.3-0.3-0.6-0.2-0.9l5.4-28.1
		c0-0.7,0.6-1.2,1.3-1.2c0,0,0,0,0.1,0h4.1c0.4,0,0.8,0.1,1.1,0.3c0.2,0.3,0.4,0.6,0.4,0.9l5.6,28
		C144.2,214.2,144.1,214.6,143.9,214.8z M135.1,191.8c0-0.1-0.1-0.2-0.3-0.3c0,0-0.2,0-0.2,0.3l-2,11.2c0,0.3,0.1,0.6,0.3,0.9
		c0.2,0.2,0.5,0.3,0.8,0.3h2.4c0.3,0,0.6-0.1,0.9-0.3c0.2-0.3,0.3-0.6,0.2-0.9L135.1,191.8z"/>
	<path id="Path_126" class="st0" d="M155.4,214.8c-0.2,0.2-0.5,0.3-0.9,0.4h-2.3c-0.3,0-0.6-0.2-0.9-0.4c-0.2-0.2-0.3-0.5-0.3-0.8
		v-28.2c0-0.3,0.1-0.6,0.3-0.9c0.2-0.2,0.5-0.3,0.9-0.3h2.3c0.3,0,0.6,0.1,0.8,0.3c0.2,0.2,0.4,0.5,0.4,0.8V214
		C155.7,214.3,155.6,214.5,155.4,214.8z"/>
	<path id="Path_127" class="st0" d="M180.1,214.8c-0.2,0.2-0.5,0.3-0.9,0.3h-2.3c-0.4,0-0.9-0.1-1.2-0.4c-0.2-0.2-0.4-0.5-0.6-0.8
		l-6.6-15.9c-0.2-0.5-0.4-0.5-0.4-0.5s-0.2,0-0.1,0.5v15.9c0,0.3-0.1,0.7-0.3,0.9c-0.2,0.2-0.6,0.3-0.9,0.3h-2.3
		c-0.3,0-0.6-0.1-0.9-0.3c-0.2-0.2-0.3-0.5-0.3-0.9v-28.1c0-0.3,0.1-0.6,0.3-0.9c0.3-0.2,0.6-0.3,0.9-0.3h2.3c0.4,0,0.8,0.1,1.2,0.4
		c0.2,0.2,0.4,0.5,0.6,0.8l6.7,15.9c0.2,0.5,0.4,0.5,0.4,0.5s0.2,0,0.1-0.5v-15.9c0-0.3,0.1-0.6,0.3-0.9c0.2-0.2,0.5-0.3,0.9-0.3
		h2.3c0.3,0,0.6,0.1,0.9,0.3c0.2,0.2,0.4,0.6,0.3,0.9V214C180.4,214.3,180.3,214.6,180.1,214.8z"/>
	<path id="Path_128" class="st0" d="M252.2,214.8c-0.3,0.2-0.6,0.4-0.9,0.3H249c-0.3,0-0.6-0.1-0.9-0.3c-0.2-0.3-0.2-0.3-0.3-0.5
		c-0.1-0.2-0.4,0.1-0.6,0.3c-1.1,0.7-2.3,1-3.6,1c-2.6,0.1-5.1-1.3-6.3-3.6c-1-2-1.3-3.8-1.3-8.2v-8.4c0-5,0.3-6.6,1.7-8.5
		c1.6-1.9,4-3,6.5-2.9c5.1,0,8.2,3.4,8.3,9.2c0,0.3-0.1,0.6-0.3,0.9c-0.2,0.2-0.6,0.4-0.9,0.4h-2.3c-0.3,0-0.6-0.1-0.9-0.3
		c-0.2-0.3-0.3-0.6-0.3-0.9c-0.1-3.1-1.4-4.8-3.6-4.8c-2.6,0-3.5,1.6-3.5,6v9.3c0,5.5,1,7.4,3.7,7.4c2.5,0,3.5-1.8,3.5-6.1
		c0-0.3-0.2-0.7-0.4-0.9c-0.2-0.2-0.5-0.3-0.9-0.3h-1.4c-0.3,0-0.6-0.1-0.8-0.3c-0.2-0.2-0.3-0.6-0.3-0.9v-1.4c0-0.4,0.1-0.7,0.3-1
		c0.2-0.2,0.5-0.3,0.8-0.3h6.2c0.4,0,0.7,0.1,0.9,0.4c0.2,0.2,0.4,0.5,0.3,0.9V214C252.6,214.3,252.4,214.6,252.2,214.8z"/>
	<path id="Path_129" class="st0" d="M274,214.7c-0.2,0.3-0.5,0.4-0.8,0.4h-2.5c-0.4,0-0.8-0.1-1.2-0.4c-0.2-0.3-0.4-0.5-0.5-0.9
		l-3.3-10c-0.1-0.4-0.3-0.7-0.6-0.9c-0.3-0.2-0.7-0.3-1-0.3h-0.4c-0.3,0-0.7,0.1-0.9,0.3c-0.2,0.3-0.3,0.6-0.3,0.9V214
		c0,0.3-0.1,0.6-0.3,0.9c-0.2,0.2-0.5,0.3-0.9,0.3H259c-0.3,0-0.6-0.1-0.8-0.3c-0.2-0.2-0.3-0.5-0.3-0.9v-28.1
		c0-0.3,0.1-0.6,0.3-0.9c0.2-0.2,0.5-0.4,0.9-0.4h6.2c5.7,0,8.7,3,8.7,8.7c0,3.4-1,5.9-3.1,7.4c-0.3,0.2-0.4,0.2-0.6,0.5
		c-0.1,0.3-0.2,0.5-0.2,0.8l3.9,11.9C274.2,214.2,274.2,214.5,274,214.7z M264.3,189h-0.5c-0.3,0-0.6,0.1-0.9,0.3
		c-0.2,0.2-0.4,0.6-0.4,0.9v6.8c-0.1,0.4,0.4,0.9,0.4,0.9s0.4,0.5,0.9,0.4h0.5c3.6,0,4.8-1.2,4.8-4.7
		C269.2,190.2,267.9,189,264.3,189L264.3,189z"/>
	<path id="Path_130" class="st0" d="M298.7,214.8c-0.2,0.2-0.5,0.3-0.9,0.3h-2.3c-0.4,0-0.7-0.1-1-0.4c-0.2-0.3-0.4-0.5-0.5-0.9
		l-0.8-4.1c-0.1-0.3-0.2-0.6-0.5-0.9c-0.3-0.3-0.6-0.4-1-0.4h-4.1c-0.4,0-0.7,0.1-0.9,0.4c-0.2,0.3-0.4,0.6-0.5,0.9l-0.8,4.2
		c-0.1,0.3-0.2,0.6-0.4,0.8c-0.3,0.3-0.6,0.4-1,0.4h-2.2c-0.3,0-0.5-0.1-0.7-0.3c-0.2-0.3-0.3-0.6-0.2-0.9l5.4-28.1
		c0.1-0.3,0.2-0.6,0.4-0.8c0.3-0.2,0.7-0.3,1-0.3h4.1c0.4,0,0.8,0.1,1.1,0.3c0.2,0.3,0.4,0.6,0.4,0.9l5.6,28
		C299,214.2,298.9,214.6,298.7,214.8z M290,191.8c0-0.1-0.1-0.2-0.3-0.3c0,0-0.2,0-0.2,0.3l-2,11.2c0,0.3,0.1,0.6,0.3,0.9
		c0.2,0.2,0.5,0.3,0.8,0.3h2.4c0.3,0,0.6-0.1,0.9-0.3c0.2-0.3,0.3-0.6,0.2-0.9L290,191.8z"/>
	<path id="Path_131" class="st0" d="M312.9,202.8H311c-0.3,0-0.6,0.1-0.9,0.3c-0.2,0.3-0.3,0.6-0.3,0.9v9.9c0,0.3-0.2,0.6-0.4,0.9
		c-0.3,0.2-0.6,0.3-0.9,0.3h-2.3c-0.6,0-1.1-0.5-1.2-1.2v-28.1c0-0.3,0.1-0.6,0.3-0.9c0.2-0.2,0.5-0.4,0.9-0.4h6.6
		c3.1,0,5,0.6,6.4,2c1.6,1.6,2.4,3.8,2.4,7C321.8,200,319.1,202.8,312.9,202.8z M311.9,189H311c-0.3,0-0.7,0.1-0.9,0.3
		c-0.2,0.2-0.3,0.6-0.3,0.9v7c-0.1,0.6,0.3,1.1,0.9,1.2c0.1,0,0.2,0,0.3,0h0.9c3.8,0,5-1.2,5-4.6C316.9,190.1,315.7,189,311.9,189
		L311.9,189z"/>
	<path id="Path_132" class="st0" d="M341.2,214.8c-0.3,0.2-0.6,0.3-0.9,0.3h-11.4c-0.3,0-0.7-0.1-0.9-0.3c-0.2-0.2-0.3-0.5-0.3-0.9
		v-28.1c0-0.3,0.2-0.6,0.4-0.8c0.2-0.2,0.5-0.4,0.9-0.4h11.4c0.3,0,0.7,0.1,0.9,0.3c0.2,0.3,0.3,0.6,0.3,0.9v1.9
		c0,0.3-0.1,0.6-0.3,0.9c-0.2,0.2-0.5,0.3-0.9,0.3h-6.7c-0.3,0-0.6,0.1-0.9,0.3c-0.2,0.3-0.4,0.7-0.3,1.1v5.4c0,0.3,0.1,0.6,0.3,0.9
		c0.2,0.2,0.6,0.3,0.9,0.3h5.7c0.3,0,0.6,0.1,0.9,0.3c0.2,0.3,0.3,0.6,0.3,0.9v1.9c0,0.6-0.5,1.2-1.1,1.2c0,0,0,0-0.1,0h-5.7
		c-0.3,0-0.6,0.2-0.8,0.4c-0.2,0.2-0.3,0.6-0.3,0.9v6.9c0,0.3,0.1,0.6,0.3,0.9c0.2,0.2,0.5,0.3,0.9,0.3h6.7c0.3,0,0.6,0.2,0.9,0.4
		c0.2,0.2,0.4,0.6,0.4,0.9v1.9C341.5,214.3,341.4,214.6,341.2,214.8z"/>
	<path id="Path_133" class="st0" d="M208.3,161.5c-1.6-2.3-2.1-5.2-1.4-7.9c0.3-1.1,0.8-2.1,1.4-3
		C210.6,153.8,210.6,158.2,208.3,161.5"/>
	<path id="Path_134" class="st0" d="M208.8,166.8c0-2.8,1.3-5.5,3.4-7.3c0.9-0.7,1.8-1.3,2.9-1.7
		C215.1,159.5,214.7,164.4,208.8,166.8"/>
	<path id="Path_135" class="st0" d="M208.8,174.1c0-2.8,1.3-5.5,3.4-7.3c0.9-0.7,1.8-1.3,2.9-1.7
		C215.1,169.2,212.6,172.8,208.8,174.1"/>
	<path id="Path_136" class="st0" d="M207.5,166.8c-3-1.2-4.9-3.2-5.8-5.8c-0.4-1-0.5-2.1-0.5-3.2
		C202.8,158.4,207.2,160.6,207.5,166.8"/>
	<path id="Path_137" class="st0" d="M207.5,174.1c-2.6-1-4.7-3.1-5.7-5.7c-0.4-1.1-0.6-2.2-0.6-3.3
		C205,166.5,207.5,170.1,207.5,174.1"/>
	<path id="Path_138" class="st1" d="M204.7,183.9c0.2-0.1,0.3-0.1,0.5-0.1c0.3,0,0.5,0,0.8,0c0.3,0,0.7,0,1,0c0.4,0,0.8,0,1.2,0
		c0.3,0,0.6,0,0.9,0s0.7,0,1,0c0.3,0,0.6,0,0.9,0c0.2,0,0.4,0,0.5,0.1c0.2,0.1,0.2,0.3,0.3,0.5c0.1,0.3,0.1,0.6,0.1,0.9
		c0,0.3,0,0.6,0,1c0,0.3,0,0.6,0,0.9c0,0.3,0,0.6-0.1,0.9c0,0.2,0,0.4-0.2,0.5c-0.1,0.1-0.2,0.1-0.3,0.1c-0.1,0-0.3,0-0.4,0
		c-0.1,0-0.3,0-0.4,0c-0.1,0-0.2,0-0.3-0.1l-0.1-0.1c0-0.1-0.1-0.2-0.1-0.4c0-0.1-0.1-0.3-0.1-0.4c0-0.1-0.1-0.2-0.1-0.2
		c0-0.1,0-0.2-0.1-0.4c0-0.1,0-0.3,0-0.4c0-0.1,0-0.2-0.1-0.3c0-0.1-0.1-0.1-0.2-0.1c-0.1,0-0.2,0.1-0.2,0.3c0,0.2-0.1,0.4-0.1,0.6
		c0,0.2,0,0.5,0,0.7c0,0.2,0,0.4,0,0.6c0,0.5,0,1.1,0,1.8c0,0.7,0,1.3,0,2c0,0.7,0,1.3,0,2s0,1.1,0.1,1.5c0,0.1,0.1,0.2,0.1,0.3
		c0.1,0.1,0.1,0.2,0.1,0.4c0,0.1,0,0.3,0,0.4c0,0.1,0,0.3,0,0.4c0,0.1,0.1,0.2,0.1,0.2s0.1,0,0.1,0.1c0,0.1,0,0.2,0,0.2
		c0,0.1,0,0.2-0.1,0.3s0,0.2-0.1,0.3c0,0.1,0,0.1-0.1,0.2c-0.1,0.1-0.2,0.1-0.3,0.1c-0.2,0-0.3,0.1-0.5,0.1c-0.2,0-0.3,0-0.5,0h-0.4
		c-0.3,0-0.6,0-0.9-0.1c-0.2,0-0.4-0.1-0.5-0.3c-0.1-0.2-0.1-0.4-0.1-0.6c0-0.3,0.1-0.5,0.2-0.8c0.1-0.3,0.2-0.5,0.2-0.7
		c0.1-0.2,0.1-0.3,0.1-0.5c0.1-0.6,0.1-1.1,0.1-1.7c0-0.6-0.1-1.2-0.1-1.9c0-0.8,0-1.5,0-2.2c0-0.7,0-1.3-0.1-1.9c0-0.2,0-0.4,0-0.6
		c0-0.2,0-0.4,0-0.7c0-0.2,0-0.3-0.1-0.5c0-0.1-0.1-0.1-0.3,0c-0.1,0.1-0.2,0.2-0.2,0.4c0,0.2-0.1,0.3-0.1,0.5c0,0.2,0,0.4-0.1,0.6
		c0,0.2-0.1,0.3-0.1,0.5c-0.1,0.2-0.4,0.3-0.9,0.3c-0.1,0-0.3,0-0.4,0c-0.1,0-0.2,0-0.3-0.1l-0.1-0.2c0-0.1-0.1-0.3-0.1-0.4
		s-0.1-0.3-0.1-0.4c0-0.1,0-0.2,0-0.3c0-0.2,0-0.4,0-0.7c0-0.3,0.1-0.5,0.1-0.8c0-0.2,0-0.5,0-0.7c0-0.2,0-0.4,0-0.5
		c0-0.1,0-0.3,0.1-0.4C204.4,184.1,204.5,184,204.7,183.9 M207.5,200.5c0.4-0.1,0.8-0.1,1.2-0.1c0.4,0,0.8,0.1,1.1,0.2
		c0.1,0.1,0.2,0.1,0.3,0.2c0.1,0.1,0.2,0.2,0.3,0.3c0.1,0.1,0.2,0.2,0.3,0.4c0.1,0.1,0.2,0.3,0.2,0.3c0.1,0.2,0.2,0.5,0.2,0.7
		c0,0.3,0.1,0.6,0.1,0.9c0,0.3,0,0.7,0,1v1.1c0,0.7,0,1.5,0,2.2c0,0.8,0,1.5,0.1,2.3c0,0.1,0,0.3,0,0.4c0,0.1,0,0.3,0,0.4
		c0,0.1,0,0.2,0.1,0.3c0,0.1,0,0.2,0,0.3c0,0.2-0.1,0.4-0.1,0.6c-0.1,0.2-0.1,0.5-0.2,0.7c0,0.3-0.1,0.5-0.1,0.8
		c0,0.2,0,0.4-0.1,0.5c0,0-0.1,0.1-0.1,0.1c-0.1,0.1-0.1,0.1-0.2,0.2l-0.3,0.4c-0.1,0.1-0.3,0.2-0.4,0.3c-0.1,0.1-0.3,0.2-0.4,0.2
		c-0.2,0.1-0.4,0.1-0.6,0.2c-0.2,0.1-0.5,0.1-0.7,0.1c-0.3,0-0.5,0-0.8,0c-0.1,0-0.2-0.1-0.3-0.1c-0.1-0.1-0.2-0.1-0.3-0.2
		c-0.2-0.1-0.3-0.1-0.4-0.1c-0.1,0-0.2-0.1-0.3-0.1c-0.1,0-0.1-0.1-0.2-0.2c-0.1-0.1-0.2-0.2-0.3-0.3c-0.1-0.2-0.3-0.4-0.4-0.6
		c-0.1-0.2-0.2-0.5-0.2-0.7c0-0.3-0.1-0.6-0.1-0.9c0-0.3,0-0.8-0.1-1.2c-0.1-1-0.1-2,0-3c0-1,0-2,0-3.2c0-0.5,0-1,0-1.5
		c0-0.5,0.1-1,0.2-1.4c0.1-0.2,0.2-0.4,0.3-0.5c0.1-0.2,0.3-0.4,0.5-0.5c0.2-0.2,0.4-0.3,0.6-0.4c0.2-0.1,0.5-0.2,0.7-0.2
		L207.5,200.5z M205.5,186C205.5,186,205.4,186,205.5,186c-0.1,0-0.1,0.1-0.1,0.1C205.4,186.1,205.4,186.1,205.5,186L205.5,186z
		 M205.7,185.6C205.7,185.5,205.6,185.5,205.7,185.6c-0.1,0-0.1,0.1-0.1,0.1C205.6,185.7,205.6,185.7,205.7,185.6L205.7,185.6z
		 M205.7,185C205.6,185,205.6,185,205.7,185c-0.1,0.1,0,0.1,0,0.1c0,0.1,0,0.2-0.1,0.3c0,0.1,0,0.1,0.2,0.1c0.1-0.1,0.1-0.2,0.1-0.2
		c0-0.1-0.1-0.2-0.2-0.2V185z M205.9,185.8C205.9,185.7,205.8,185.8,205.9,185.8c-0.1,0.1-0.1,0.1-0.1,0.1S205.8,185.9,205.9,185.8
		L205.9,185.8z M206,186C206,186,205.9,186,206,186c-0.1,0-0.1,0.1-0.1,0.1C205.9,186.1,205.9,186.1,206,186L206,186z M206.8,184.7
		C206.8,184.7,206.7,184.7,206.8,184.7c-0.1,0.1-0.2,0.1-0.2,0.1c0-0.1,0-0.1-0.1-0.1c0,0,0,0,0,0.1c0,0-0.1,0-0.1,0.1
		c0,0,0,0.1,0,0.1h-0.1c0,0.1,0.1,0.2,0,0.2c0,0-0.1,0-0.1,0l-0.1-0.1c0,0-0.1,0-0.1,0c0,0.1,0,0.2,0.1,0.2c0.1,0,0.2,0.1,0.3,0.2
		c0.1,0,0.2,0,0.2,0c0,0.1,0,0.1,0,0.2c0,0.1,0,0.1,0,0.2c0,0,0.1,0.1,0.2,0c0-0.2,0-0.3-0.1-0.4c0-0.1,0.1-0.2,0.2-0.3h0.1
		c0-0.1,0-0.1,0-0.2c0-0.1,0-0.1-0.1-0.1L206.8,184.7z M206.4,185.8C206.4,185.7,206.4,185.7,206.4,185.8c-0.1-0.1-0.1-0.1-0.1,0
		C206.3,185.8,206.3,185.8,206.4,185.8C206.4,185.9,206.4,185.8,206.4,185.8 M206.5,185.3C206.6,185.3,206.6,185.2,206.5,185.3
		C206.5,185.2,206.5,185.2,206.5,185.3c0.1-0.2,0.1-0.4,0.1-0.5h-0.1c0,0.1,0,0.2-0.1,0.2C206.4,185.1,206.4,185.1,206.5,185.3
		L206.5,185.3z M206.8,186c0.1,0,0.1,0,0.2,0c0,0.1,0.1,0.1,0.2,0.1c0.1,0,0.2,0,0.2,0.1c0-0.2,0-0.2-0.1-0.3c-0.1,0-0.2,0-0.3,0.1
		C207,185.9,207,185.9,206.8,186c0-0.1,0-0.1-0.1-0.1C206.7,185.9,206.8,186,206.8,186 M207.2,185.7v-0.1c-0.1,0-0.1,0-0.2,0
		c0,0-0.1,0-0.1,0c0,0,0,0-0.1,0c0,0-0.1,0-0.1-0.1c0,0.1,0,0.1,0,0.2c0,0,0.1,0,0.1,0c0.1,0,0.1,0,0.2,0L207.2,185.7z M206.8,184.7
		h0.1C206.9,184.6,206.9,184.6,206.8,184.7L206.8,184.7z M207.6,185.2C207.6,185.2,207.6,185.2,207.6,185.2c-0.1,0.1-0.1,0.1-0.1,0
		c-0.2,0.1-0.4,0.1-0.6,0c-0.1,0.2-0.1,0.2-0.1,0.3c0.1,0,0.1,0,0.2,0c0.1,0,0.2,0,0.3-0.1c0.1,0,0.2,0,0.2,0.1c-0.1,0-0.1,0-0.2,0
		c0,0.1,0,0.1,0,0.2h0.1c0.1,0.1,0.1,0.2,0.2,0.3c0.1,0.1,0.2,0.1,0.4,0.1c-0.1,0.1-0.1,0.2-0.2,0.2c0.1,0.2,0.1,0.2,0.1,0.2
		c0,0,0.1-0.1,0.2-0.2c0,0.1,0,0.1,0.1,0.1c0,0,0,0,0-0.1h-0.1c0-0.1,0-0.2-0.1-0.2c0-0.1,0-0.1-0.1-0.1c0,0,0-0.1,0-0.1
		c0.1,0,0.1,0.1,0.2,0.1c0.1,0,0.1,0,0.2,0.1c0,0.1,0,0.1,0,0.2c0,0,0,0.1-0.1,0.1h0.2v-0.7h-0.1v-0.1c-0.1-0.1-0.2-0.1-0.2,0.1h0.2
		c0,0,0,0.1,0,0.1c0,0,0,0.1-0.1,0.1c0,0-0.1,0-0.1,0c0,0,0-0.1,0-0.2c0,0-0.1,0.1-0.1,0.1c0,0-0.1,0-0.1,0c0,0,0,0-0.1,0
		c0,0-0.1,0-0.1,0.1c0-0.1,0-0.1-0.1-0.1c0,0,0,0,0,0.1h-0.2c0,0,0-0.1,0.1-0.1c0,0,0-0.1,0-0.1c0.1,0,0.2,0,0.2-0.1
		c0-0.1,0-0.1,0-0.2L207.6,185.2z M207,184.7L207,184.7L207,184.7C206.9,184.7,206.9,184.7,207,184.7 M207.1,185
		C207.1,184.9,207.1,185,207.1,185c-0.1,0-0.1,0.1-0.1,0.1C207,185.1,207,185.1,207.1,185L207.1,185z M207.1,184.7
		C207.1,184.6,207.1,184.6,207.1,184.7c-0.1-0.1-0.1,0-0.1,0H207.1z M207,184.7C207,184.8,207,184.8,207,184.7c0.1,0.1,0.1,0,0.1,0
		H207z M207.9,185.1c0,0,0-0.1,0-0.1c0,0,0-0.1,0.1-0.1c-0.1,0-0.2-0.1-0.2-0.1c0-0.1-0.1-0.1-0.1-0.1c0,0,0,0.1,0,0.1
		c0,0-0.1,0-0.1,0.1c-0.1,0-0.1,0-0.1,0c0,0,0-0.1,0-0.1c0,0,0-0.1,0-0.1c0,0-0.1-0.1-0.1-0.1c0,0.1,0,0.2-0.1,0.2v0.1
		c0.1,0,0.2,0,0.4,0.1s0.2,0.1,0.1,0.3c0.1,0,0.1,0,0.1,0.1h0.1c0,0.1,0,0.1,0.1,0.2c0,0,0,0,0.1,0l0.1-0.1c0,0,0.1-0.1,0.1-0.1
		c0,0,0.1,0,0.1,0c0,0,0.1,0.1,0.2,0c0.1,0,0.1,0,0.1-0.1c0.1,0,0.1-0.1,0.1-0.1c0,0,0.1,0,0.1,0c0,0,0,0.1,0,0.2
		c0.1-0.1,0.2-0.1,0.2,0c0,0.1,0,0.2-0.1,0.2c0.1,0,0.1,0,0.2,0c0,0.1,0,0.1,0,0.2h0.1c0-0.1,0-0.1,0-0.2c0,0,0,0,0.1,0
		c0,0,0,0.1,0.1,0.1c0,0.1,0,0.1,0,0.2c0-0.1,0.1-0.1,0.1,0c0.1,0,0.1,0.1,0.1,0c0-0.1,0.1-0.1,0-0.1c0,0-0.1-0.1-0.1-0.1
		c0,0-0.1,0-0.1-0.1c0,0,0-0.1,0-0.1c0,0-0.1,0-0.2,0c0,0-0.1,0-0.1,0c0,0,0,0,0-0.1c0-0.1,0-0.1,0.1-0.2c0,0-0.1-0.1-0.1-0.1
		c0,0-0.1-0.1-0.1-0.1c0,0,0,0.1,0,0.1s-0.1,0.1-0.1,0.1c0,0-0.1-0.1,0-0.1c0,0,0-0.1,0-0.1c0,0,0-0.1,0-0.1c0,0-0.1-0.1-0.2-0.1
		c-0.1,0.1-0.1,0.2-0.1,0.3c-0.1,0.1-0.3,0.1-0.4,0.1v-0.1c0.1,0,0.1,0,0.1,0c0,0,0,0,0-0.1c0,0,0-0.1,0-0.1c0,0,0-0.1,0.1-0.1
		c-0.3-0.1-0.4,0-0.3,0.3h-0.1c0,0.1,0,0.1,0.1,0.1c0,0.1-0.1,0.1-0.1,0.1L207.9,185.1z M207.3,186.3
		C207.3,186.2,207.2,186.3,207.3,186.3c-0.1,0.1-0.1,0.1-0.1,0.1C207.2,186.4,207.2,186.4,207.3,186.3L207.3,186.3z M207.2,185.7
		C207.2,185.7,207.2,185.7,207.2,185.7c0.1,0.1,0.1,0,0.1,0H207.2z M207.4,203.5c-0.1,0.4-0.1,0.8-0.1,1.2c0,0.5,0.1,1,0.1,1.4v2.7
		c0,0.5,0,0.9,0,1.5s0,1,0,1.5c0,0.4,0.1,0.8,0.2,1.1c0.1,0.3,0.3,0.5,0.6,0.5c0.2,0,0.3-0.1,0.4-0.2c0.1-0.2,0.2-0.3,0.2-0.5
		c0.1-0.2,0.1-0.5,0.1-0.7c0-0.3,0-0.5,0-0.8c0-0.5,0-1.1,0-1.6c0-0.5,0-1,0-1.5s0-1,0-1.5c0-0.5,0-1,0-1.6c0-0.3,0-0.6,0-0.9
		c0-0.3-0.1-0.5-0.1-0.8c-0.1-0.2-0.2-0.4-0.3-0.5c-0.1-0.1-0.4-0.2-0.5-0.1c-0.1,0.1-0.3,0.2-0.4,0.3
		C207.6,203.2,207.5,203.3,207.4,203.5 M207.6,185.1h-0.1v0.1h0.1V185.1z M207.5,186.5h0.1v-0.1
		C207.6,186.4,207.5,186.4,207.5,186.5L207.5,186.5z M207.6,186.4C207.6,186.4,207.7,186.3,207.6,186.4c0.1-0.1,0.2-0.1,0.2-0.1
		c0-0.1-0.1-0.1-0.1-0.1C207.6,186.2,207.6,186.3,207.6,186.4 M207.7,185.7h-0.1C207.6,185.7,207.6,185.7,207.7,185.7L207.7,185.7z
		 M207.9,185.1C207.9,185.1,207.9,185.1,207.9,185.1c0,0.1-0.1,0.1-0.1,0.1C207.8,185.1,207.9,185,207.9,185.1 M207.8,186.9
		C207.8,186.9,207.9,187,207.8,186.9c0.1,0.1,0.1,0,0.1,0H207.8z M208,187.2C208,187.2,208,187.2,208,187.2
		C207.9,187.2,207.9,187.2,208,187.2C207.9,187.3,208,187.3,208,187.2L208,187.2z M208.1,184.4C208.1,184.4,208.1,184.4,208.1,184.4
		c-0.1,0-0.1,0.1-0.1,0.1C208,184.6,208.1,184.6,208.1,184.4L208.1,184.4z M208.1,184.8C208,184.8,208,184.8,208.1,184.8
		L208.1,184.8L208.1,184.8z M208.2,186.8C208.2,186.8,208.2,186.8,208.2,186.8c-0.1,0.1-0.1,0.1-0.1,0.1
		C208.1,186.9,208.2,186.9,208.2,186.8L208.2,186.8z M208.3,186.5C208.3,186.5,208.3,186.5,208.3,186.5c-0.1,0-0.1,0.1-0.1,0.1
		C208.2,186.6,208.3,186.6,208.3,186.5L208.3,186.5z M208.4,186.7C208.4,186.7,208.4,186.7,208.4,186.7c-0.1,0-0.1,0.1-0.1,0.1
		C208.3,186.8,208.4,186.8,208.4,186.7L208.4,186.7z M208.4,185.1C208.5,185.1,208.5,185.1,208.4,185.1c-0.1,0.1-0.1,0.1-0.1,0.1
		C208.3,185.1,208.3,185.1,208.4,185.1L208.4,185.1z M208.4,185.4C208.3,185.4,208.3,185.4,208.4,185.4L208.4,185.4L208.4,185.4z
		 M208.6,185.5c0,0,0-0.1,0-0.1c0,0,0,0-0.1,0c0,0-0.1,0-0.1,0.1v0.1L208.6,185.5z M208.6,185.9v-0.1
		C208.6,185.8,208.6,185.8,208.6,185.9L208.6,185.9z M208.6,185.8c0.1,0,0.2,0,0.2-0.1C208.7,185.7,208.6,185.7,208.6,185.8
		 M208.6,185.9v0.2h0.2c0-0.1,0-0.1,0-0.2C208.7,185.9,208.7,185.9,208.6,185.9 M208.8,186.3C208.8,186.2,208.8,186.2,208.8,186.3
		c-0.1-0.1-0.1-0.1-0.1,0C208.7,186.3,208.7,186.3,208.8,186.3C208.8,186.4,208.8,186.3,208.8,186.3 M208.8,185.7
		C208.9,185.7,208.9,185.6,208.8,185.7c0.1-0.1,0.1-0.2,0.1-0.2c-0.1,0-0.1,0-0.1,0.1C208.9,185.6,208.8,185.6,208.8,185.7
		 M209,185.9C209,185.8,209,185.9,209,185.9c-0.1,0-0.1,0.1-0.1,0.1C209,186,209,186,209,185.9L209,185.9z M209.1,184.6
		C209.1,184.5,209.1,184.5,209.1,184.6c-0.1,0-0.1,0.1-0.1,0.1C209.1,184.7,209.1,184.7,209.1,184.6L209.1,184.6z M209.3,184.7
		C209.3,184.6,209.3,184.6,209.3,184.7C209.3,184.7,209.2,184.7,209.3,184.7c-0.1,0-0.1,0.1-0.1,0.1
		C209.2,184.8,209.3,184.8,209.3,184.7L209.3,184.7z M209.3,185.1C209.3,185,209.3,185,209.3,185.1c-0.1-0.1-0.1,0-0.1,0H209.3z
		 M209.2,185.9c0.1,0,0.1,0,0.1-0.1C209.3,185.7,209.2,185.8,209.2,185.9C209.2,185.8,209.2,185.9,209.2,185.9 M209.5,184.7
		C209.5,184.7,209.5,184.7,209.5,184.7c-0.1,0.1-0.1,0.1-0.1,0.1C209.5,184.9,209.5,184.9,209.5,184.7L209.5,184.7z M209.5,185.2
		c-0.1,0-0.1,0-0.1,0.1C209.5,185.4,209.5,185.3,209.5,185.2 M209.7,185c-0.1,0-0.2,0-0.2,0.1c0,0.1,0,0.2,0,0.2
		C209.6,185.2,209.7,185.1,209.7,185 M209.8,185.6C209.8,185.5,209.8,185.5,209.8,185.6c-0.1,0-0.1,0.1-0.1,0.1
		C209.8,185.7,209.8,185.7,209.8,185.6L209.8,185.6z M210,185.2C209.9,185.2,209.9,185.2,210,185.2c-0.1,0.1-0.1,0.1-0.1,0.2h0.1
		c0,0.1,0,0.2,0,0.2c0,0,0.1,0,0.1,0c0,0,0.1-0.1,0.1-0.1c0,0,0.1-0.1,0.1-0.1c-0.1,0-0.1,0-0.2,0c0,0-0.1,0.1-0.1,0.1L210,185.2z
		 M210.2,185.9C210.2,185.8,210.2,185.9,210.2,185.9c-0.1,0-0.1,0.1-0.1,0.1S210.2,186,210.2,185.9L210.2,185.9z M210.3,185.1
		C210.3,185,210.3,185,210.3,185.1c-0.1,0-0.1,0.1-0.1,0.1C210.3,185.2,210.3,185.2,210.3,185.1L210.3,185.1z M210.5,186.1
		C210.5,186,210.5,186,210.5,186.1c-0.1,0-0.1,0.1-0.1,0.1C210.5,186.2,210.5,186.2,210.5,186.1L210.5,186.1z M210.6,185.2
		C210.6,185.1,210.6,185.1,210.6,185.2c-0.1,0-0.1,0.1-0.1,0.1C210.6,185.3,210.6,185.3,210.6,185.2L210.6,185.2z M210.8,185.5
		C210.7,185.4,210.7,185.4,210.8,185.5c-0.1,0-0.1,0.1-0.1,0.1C210.7,185.6,210.7,185.6,210.8,185.5L210.8,185.5z"/>
</g>
</svg>
